M48
; DRILL file KiCad 10.0.6 date 2026-09-22T15:31:39
; FORMAT={-:-/ absolute / metric / decimal}
; #@! TF.CreationDate,2026-09-22T15:31:39-05:00
; #@! TF.GenerationSoftware,Kicad,Pcbnew,10.0.6
; #@! TF.FileFunction,Plated,1,2,PTH
FMAT,2
METRIC
; #@! TA.AperFunction,Plated,PTH,ViaDrill
T1C0.300
; #@! TA.AperFunction,Plated,PTH,ComponentDrill
T2C0.300
; #@! TA.AperFunction,Plated,PTH,ComponentDrill
T3C0.600
; #@! TA.AperFunction,Plated,PTH,ComponentDrill
T4C1.000
; #@! TA.AperFunction,Plated,PTH,ComponentDrill
T5C1.100
%
G90
G05
T1
X2.5Y-32.0
X4.0Y-26.0
X5.0Y-16.5
X6.25Y-19.25
X6.25Y-20.25
X7.0Y-22.0
X8.0Y-36.0
X8.5Y-16.0
X10.25Y-20.25
X10.5Y-15.0
X10.5Y-18.25
X11.0Y-17.25
X11.0Y-19.0
X13.0Y-11.0
X13.5Y-50.75
X15.25Y-16.5
X15.25Y-20.5
X15.5Y-26.0
X16.0Y-52.0
X16.25Y-14.5
X20.5Y-55.5
X22.5Y-54.5
X28.0Y-36.0
X28.5Y-40.75
X30.0Y-60.0
X30.5Y-13.5
X31.0Y-11.0
X32.5Y-21.75
X32.5Y-41.0
X32.75Y-30.75
X32.75Y-34.75
X34.0Y-26.25
X35.5Y-12.75
X36.5Y-28.75
X43.5Y-39.0
X43.75Y-44.0
X44.5Y-20.5
X45.0Y-45.0
X46.0Y-42.0
X48.0Y-22.25
X48.5Y-40.5
X49.0Y-50.0
X50.0Y-60.0
X50.75Y-37.0
X50.75Y-55.0
X50.75Y-57.0
X51.5Y-19.0
X52.75Y-45.5
X55.0Y-28.0
X55.0Y-56.5
X59.25Y-20.5
X59.5Y-39.5
X63.0Y-39.5
X64.0Y-16.5
X64.0Y-39.0
X64.0Y-49.0
X67.25Y-25.0
X70.0Y-12.0
X70.0Y-58.0
X72.0Y-48.0
T2
X19.1Y-17.76
X19.1Y-19.16
X19.8Y-17.06
X19.8Y-18.46
X19.8Y-19.86
X20.5Y-17.76
X20.5Y-19.16
X21.2Y-17.06
X21.2Y-18.46
X21.2Y-19.86
X21.9Y-17.76
X21.9Y-19.16
T4
X60.0Y-54.0
X60.0Y-56.54
T5
X1.5Y-40.0
X1.5Y-44.5
X8.0Y-40.0
X8.0Y-44.5
X12.0Y-40.0
X12.0Y-44.5
X18.5Y-40.0
X18.5Y-44.5
X33.6Y-60.0
X36.14Y-60.0
X38.68Y-60.0
X41.22Y-60.0
T3
X4.525Y-15.68G85X3.725Y-15.68
G05
X4.525Y-24.32G85X3.725Y-24.32
G05
X8.855Y-15.68G85X7.755Y-15.68
G05
X8.855Y-24.32G85X7.755Y-24.32
G05
T4
X70.91Y-24.15G85X72.41Y-24.15
G05
X70.91Y-35.85G85X72.41Y-35.85
G05
M30
