%TF.GenerationSoftware,KiCad,Pcbnew,10.0.6*%
%TF.CreationDate,2026-09-22T15:31:39-05:00*%
%TF.ProjectId,can-modbus-tap,63616e2d-6d6f-4646-9275-732d7461702e,0.1*%
%TF.SameCoordinates,Original*%
%TF.FileFunction,Copper,L1,Top*%
%TF.FilePolarity,Positive*%
%FSLAX46Y46*%
G04 Gerber Fmt 4.6, Leading zero omitted, Abs format (unit mm)*
G04 Created by KiCad (PCBNEW 10.0.6) date 2026-09-22 15:31:39*
%MOMM*%
%LPD*%
G01*
G04 APERTURE LIST*
G04 Aperture macros list*
%AMRoundRect*
0 Rectangle with rounded corners*
0 $1 Rounding radius*
0 $2 $3 $4 $5 $6 $7 $8 $9 X,Y pos of 4 corners*
0 Add a 4 corners polygon primitive as box body*
4,1,4,$2,$3,$4,$5,$6,$7,$8,$9,$2,$3,0*
0 Add four circle primitives for the rounded corners*
1,1,$1+$1,$2,$3*
1,1,$1+$1,$4,$5*
1,1,$1+$1,$6,$7*
1,1,$1+$1,$8,$9*
0 Add four rect primitives between the rounded corners*
20,1,$1+$1,$2,$3,$4,$5,0*
20,1,$1+$1,$4,$5,$6,$7,0*
20,1,$1+$1,$6,$7,$8,$9,0*
20,1,$1+$1,$8,$9,$2,$3,0*%
G04 Aperture macros list end*
%TA.AperFunction,SMDPad,CuDef*%
%ADD10C,1.500000*%
%TD*%
%TA.AperFunction,SMDPad,CuDef*%
%ADD11RoundRect,0.200000X0.275000X-0.200000X0.275000X0.200000X-0.275000X0.200000X-0.275000X-0.200000X0*%
%TD*%
%TA.AperFunction,SMDPad,CuDef*%
%ADD12RoundRect,0.150000X-0.425000X0.150000X-0.425000X-0.150000X0.425000X-0.150000X0.425000X0.150000X0*%
%TD*%
%TA.AperFunction,SMDPad,CuDef*%
%ADD13RoundRect,0.075000X-0.500000X0.075000X-0.500000X-0.075000X0.500000X-0.075000X0.500000X0.075000X0*%
%TD*%
%TA.AperFunction,ComponentPad*%
%ADD14O,2.100000X1.000000*%
%TD*%
%TA.AperFunction,ComponentPad*%
%ADD15O,1.800000X1.000000*%
%TD*%
%TA.AperFunction,SMDPad,CuDef*%
%ADD16RoundRect,0.200000X-0.200000X-0.275000X0.200000X-0.275000X0.200000X0.275000X-0.200000X0.275000X0*%
%TD*%
%TA.AperFunction,SMDPad,CuDef*%
%ADD17RoundRect,0.150000X-0.875000X-0.150000X0.875000X-0.150000X0.875000X0.150000X-0.875000X0.150000X0*%
%TD*%
%TA.AperFunction,ComponentPad*%
%ADD18C,2.000000*%
%TD*%
%TA.AperFunction,SMDPad,CuDef*%
%ADD19R,1.500000X0.900000*%
%TD*%
%TA.AperFunction,SMDPad,CuDef*%
%ADD20R,0.900000X1.500000*%
%TD*%
%TA.AperFunction,HeatsinkPad*%
%ADD21C,0.600000*%
%TD*%
%TA.AperFunction,HeatsinkPad*%
%ADD22R,3.900000X3.900000*%
%TD*%
%TA.AperFunction,SMDPad,CuDef*%
%ADD23RoundRect,0.140000X-0.140000X-0.170000X0.140000X-0.170000X0.140000X0.170000X-0.140000X0.170000X0*%
%TD*%
%TA.AperFunction,SMDPad,CuDef*%
%ADD24RoundRect,0.150000X-0.825000X-0.150000X0.825000X-0.150000X0.825000X0.150000X-0.825000X0.150000X0*%
%TD*%
%TA.AperFunction,ComponentPad*%
%ADD25C,1.700000*%
%TD*%
%TA.AperFunction,SMDPad,CuDef*%
%ADD26RoundRect,0.250000X-0.250000X-0.475000X0.250000X-0.475000X0.250000X0.475000X-0.250000X0.475000X0*%
%TD*%
%TA.AperFunction,SMDPad,CuDef*%
%ADD27RoundRect,0.250000X0.475000X-0.250000X0.475000X0.250000X-0.475000X0.250000X-0.475000X-0.250000X0*%
%TD*%
%TA.AperFunction,SMDPad,CuDef*%
%ADD28RoundRect,0.218750X-0.218750X-0.256250X0.218750X-0.256250X0.218750X0.256250X-0.218750X0.256250X0*%
%TD*%
%TA.AperFunction,SMDPad,CuDef*%
%ADD29RoundRect,0.175000X0.725000X-0.175000X0.725000X0.175000X-0.725000X0.175000X-0.725000X-0.175000X0*%
%TD*%
%TA.AperFunction,SMDPad,CuDef*%
%ADD30RoundRect,0.175000X-0.725000X-0.175000X0.725000X-0.175000X0.725000X0.175000X-0.725000X0.175000X0*%
%TD*%
%TA.AperFunction,ComponentPad*%
%ADD31O,4.000000X1.600000*%
%TD*%
%TA.AperFunction,SMDPad,CuDef*%
%ADD32RoundRect,0.087500X-0.662500X-0.087500X0.662500X-0.087500X0.662500X0.087500X-0.662500X0.087500X0*%
%TD*%
%TA.AperFunction,SMDPad,CuDef*%
%ADD33RoundRect,0.225000X-0.225000X-0.375000X0.225000X-0.375000X0.225000X0.375000X-0.225000X0.375000X0*%
%TD*%
%TA.AperFunction,SMDPad,CuDef*%
%ADD34RoundRect,0.375000X-0.625000X-0.375000X0.625000X-0.375000X0.625000X0.375000X-0.625000X0.375000X0*%
%TD*%
%TA.AperFunction,SMDPad,CuDef*%
%ADD35RoundRect,0.500000X-0.500000X-1.400000X0.500000X-1.400000X0.500000X1.400000X-0.500000X1.400000X0*%
%TD*%
%TA.AperFunction,SMDPad,CuDef*%
%ADD36RoundRect,0.150000X-0.587500X-0.150000X0.587500X-0.150000X0.587500X0.150000X-0.587500X0.150000X0*%
%TD*%
%TA.AperFunction,ComponentPad*%
%ADD37R,1.700000X1.700000*%
%TD*%
%TA.AperFunction,SMDPad,CuDef*%
%ADD38RoundRect,0.250000X-0.550000X-0.250000X0.550000X-0.250000X0.550000X0.250000X-0.550000X0.250000X0*%
%TD*%
%TA.AperFunction,SMDPad,CuDef*%
%ADD39RoundRect,0.150000X-0.512500X-0.150000X0.512500X-0.150000X0.512500X0.150000X-0.512500X0.150000X0*%
%TD*%
%TA.AperFunction,ViaPad*%
%ADD40C,0.600000*%
%TD*%
%TA.AperFunction,Conductor*%
%ADD41C,0.250000*%
%TD*%
G04 APERTURE END LIST*
D10*
%TO.P,TP1,1*%
%TO.N,TWAI_TX*%
X34000000Y-18000000D03*
%TD*%
D11*
%TO.P,R13,1*%
%TO.N,TERM*%
X64000000Y-34825000D03*
%TO.P,R13,2*%
%TO.N,CANL*%
X64000000Y-33175000D03*
%TD*%
%TO.P,R14,1*%
%TO.N,USB_DP_C*%
X34000000Y-30825000D03*
%TO.P,R14,2*%
%TO.N,USB_DP*%
X34000000Y-29175000D03*
%TD*%
D12*
%TO.P,J2,A1*%
%TO.N,GND_LOG*%
X8880000Y-16800000D03*
%TO.P,J2,A4*%
%TO.N,5V_USB*%
X8880000Y-17600000D03*
D13*
%TO.P,J2,A5*%
%TO.N,CC1*%
X8880000Y-18750000D03*
%TO.P,J2,A6*%
%TO.N,USB_DP_C*%
X8880000Y-19750000D03*
%TO.P,J2,A7*%
%TO.N,USB_DN_C*%
X8880000Y-20250000D03*
%TO.P,J2,A8*%
%TO.N,N/C*%
X8880000Y-21250000D03*
D12*
%TO.P,J2,A9*%
%TO.N,5V_USB*%
X8880000Y-22400000D03*
%TO.P,J2,A12*%
%TO.N,GND_LOG*%
X8880000Y-23200000D03*
%TO.P,J2,B1*%
X8880000Y-23200000D03*
%TO.P,J2,B4*%
%TO.N,5V_USB*%
X8880000Y-22400000D03*
D13*
%TO.P,J2,B5*%
%TO.N,CC2*%
X8880000Y-21750000D03*
%TO.P,J2,B6*%
%TO.N,USB_DP_C*%
X8880000Y-20750000D03*
%TO.P,J2,B7*%
%TO.N,USB_DN_C*%
X8880000Y-19250000D03*
%TO.P,J2,B8*%
%TO.N,N/C*%
X8880000Y-18250000D03*
D12*
%TO.P,J2,B9*%
%TO.N,5V_USB*%
X8880000Y-17600000D03*
%TO.P,J2,B12*%
%TO.N,GND_LOG*%
X8880000Y-16800000D03*
D14*
%TO.P,J2,SH*%
X8305000Y-15680000D03*
D15*
X4125000Y-15680000D03*
D14*
X8305000Y-24320000D03*
D15*
X4125000Y-24320000D03*
%TD*%
D11*
%TO.P,R4,1*%
%TO.N,3V3_LOG*%
X34000000Y-12825000D03*
%TO.P,R4,2*%
%TO.N,SDA_LOG*%
X34000000Y-11175000D03*
%TD*%
D16*
%TO.P,R7,1*%
%TO.N,3V3_BUS*%
X59175000Y-18000000D03*
%TO.P,R7,2*%
%TO.N,SCL_BUS*%
X60825000Y-18000000D03*
%TD*%
D17*
%TO.P,U2,1*%
%TO.N,3V3_LOG*%
X34350000Y-37555000D03*
%TO.P,U2,2*%
%TO.N,GND_LOG*%
X34350000Y-38825000D03*
%TO.P,U2,3*%
%TO.N,3V3_LOG*%
X34350000Y-40095000D03*
%TO.P,U2,4*%
%TO.N,unconnected-(U2-NC-Pad4)*%
X34350000Y-41365000D03*
%TO.P,U2,5*%
%TO.N,CAN_RX*%
X34350000Y-42635000D03*
%TO.P,U2,6*%
%TO.N,unconnected-(U2-NC-Pad6)*%
X34350000Y-43905000D03*
%TO.P,U2,7*%
%TO.N,unconnected-(U2-NC-Pad7)*%
X34350000Y-45175000D03*
%TO.P,U2,8*%
%TO.N,GND_LOG*%
X34350000Y-46445000D03*
%TO.P,U2,9*%
%TO.N,GND_BUS*%
X43650000Y-46445000D03*
%TO.P,U2,10*%
X43650000Y-45175000D03*
%TO.P,U2,11*%
%TO.N,5V_BUS*%
X43650000Y-43905000D03*
%TO.P,U2,12*%
%TO.N,CANL*%
X43650000Y-42635000D03*
%TO.P,U2,13*%
%TO.N,CANH*%
X43650000Y-41365000D03*
%TO.P,U2,14*%
%TO.N,unconnected-(U2-NC-Pad14)*%
X43650000Y-40095000D03*
%TO.P,U2,15*%
%TO.N,GND_BUS*%
X43650000Y-38825000D03*
%TO.P,U2,16*%
%TO.N,5V_BUS*%
X43650000Y-37555000D03*
%TD*%
D11*
%TO.P,R1,1*%
%TO.N,24V*%
X46000000Y-22825000D03*
%TO.P,R1,2*%
%TO.N,DIV*%
X46000000Y-21175000D03*
%TD*%
D18*
%TO.P,SW1,1*%
%TO.N,IO0*%
X12000000Y-40000000D03*
X18500000Y-40000000D03*
%TO.P,SW1,2*%
%TO.N,GND_LOG*%
X12000000Y-44500000D03*
X18500000Y-44500000D03*
%TD*%
D11*
%TO.P,R3,1*%
%TO.N,DIV*%
X60000000Y-14825000D03*
%TO.P,R3,2*%
%TO.N,AIN0*%
X60000000Y-13175000D03*
%TD*%
D18*
%TO.P,SW2,1*%
%TO.N,EN*%
X1500000Y-40000000D03*
X8000000Y-40000000D03*
%TO.P,SW2,2*%
%TO.N,GND_LOG*%
X1500000Y-44500000D03*
X8000000Y-44500000D03*
%TD*%
D19*
%TO.P,U1,1*%
%TO.N,GND_LOG*%
X13250000Y-10740000D03*
%TO.P,U1,2*%
%TO.N,3V3_LOG*%
X13250000Y-12010000D03*
%TO.P,U1,3*%
%TO.N,EN*%
X13250000Y-13280000D03*
%TO.P,U1,4*%
%TO.N,CAN_RX*%
X13250000Y-14550000D03*
%TO.P,U1,5*%
%TO.N,TWAI_TX*%
X13250000Y-15820000D03*
%TO.P,U1,6*%
%TO.N,SDA_LOG*%
X13250000Y-17090000D03*
%TO.P,U1,7*%
%TO.N,SCL_LOG*%
X13250000Y-18360000D03*
%TO.P,U1,8*%
%TO.N,unconnected-(U1-IO15-Pad8)*%
X13250000Y-19630000D03*
%TO.P,U1,9*%
%TO.N,unconnected-(U1-IO16-Pad9)*%
X13250000Y-20900000D03*
%TO.P,U1,10*%
%TO.N,unconnected-(U1-IO17-Pad10)*%
X13250000Y-22170000D03*
%TO.P,U1,11*%
%TO.N,unconnected-(U1-IO18-Pad11)*%
X13250000Y-23440000D03*
%TO.P,U1,12*%
%TO.N,unconnected-(U1-IO8-Pad12)*%
X13250000Y-24710000D03*
%TO.P,U1,13*%
%TO.N,USB_DN*%
X13250000Y-25980000D03*
%TO.P,U1,14*%
%TO.N,USB_DP*%
X13250000Y-27250000D03*
D20*
%TO.P,U1,15*%
%TO.N,unconnected-(U1-IO3-Pad15)*%
X15015000Y-28500000D03*
%TO.P,U1,16*%
%TO.N,unconnected-(U1-IO46-Pad16)*%
X16285000Y-28500000D03*
%TO.P,U1,17*%
%TO.N,unconnected-(U1-IO9-Pad17)*%
X17555000Y-28500000D03*
%TO.P,U1,18*%
%TO.N,unconnected-(U1-IO10-Pad18)*%
X18825000Y-28500000D03*
%TO.P,U1,19*%
%TO.N,unconnected-(U1-IO11-Pad19)*%
X20095000Y-28500000D03*
%TO.P,U1,20*%
%TO.N,unconnected-(U1-IO12-Pad20)*%
X21365000Y-28500000D03*
%TO.P,U1,21*%
%TO.N,unconnected-(U1-IO13-Pad21)*%
X22635000Y-28500000D03*
%TO.P,U1,22*%
%TO.N,unconnected-(U1-IO14-Pad22)*%
X23905000Y-28500000D03*
%TO.P,U1,23*%
%TO.N,unconnected-(U1-IO21-Pad23)*%
X25175000Y-28500000D03*
%TO.P,U1,24*%
%TO.N,unconnected-(U1-IO47-Pad24)*%
X26445000Y-28500000D03*
%TO.P,U1,25*%
%TO.N,unconnected-(U1-IO48-Pad25)*%
X27715000Y-28500000D03*
%TO.P,U1,26*%
%TO.N,unconnected-(U1-IO45-Pad26)*%
X28985000Y-28500000D03*
D19*
%TO.P,U1,27*%
%TO.N,IO0*%
X30750000Y-27250000D03*
%TO.P,U1,28*%
%TO.N,unconnected-(U1-IO35-Pad28)*%
X30750000Y-25980000D03*
%TO.P,U1,29*%
%TO.N,unconnected-(U1-IO36-Pad29)*%
X30750000Y-24710000D03*
%TO.P,U1,30*%
%TO.N,unconnected-(U1-IO37-Pad30)*%
X30750000Y-23440000D03*
%TO.P,U1,31*%
%TO.N,unconnected-(U1-IO38-Pad31)*%
X30750000Y-22170000D03*
%TO.P,U1,32*%
%TO.N,unconnected-(U1-IO39-Pad32)*%
X30750000Y-20900000D03*
%TO.P,U1,33*%
%TO.N,unconnected-(U1-IO40-Pad33)*%
X30750000Y-19630000D03*
%TO.P,U1,34*%
%TO.N,unconnected-(U1-IO41-Pad34)*%
X30750000Y-18360000D03*
%TO.P,U1,35*%
%TO.N,unconnected-(U1-IO42-Pad35)*%
X30750000Y-17090000D03*
%TO.P,U1,36*%
%TO.N,unconnected-(U1-RXD0-Pad36)*%
X30750000Y-15820000D03*
%TO.P,U1,37*%
%TO.N,unconnected-(U1-TXD0-Pad37)*%
X30750000Y-14550000D03*
%TO.P,U1,38*%
%TO.N,IO2*%
X30750000Y-13280000D03*
%TO.P,U1,39*%
%TO.N,unconnected-(U1-IO1-Pad39)*%
X30750000Y-12010000D03*
%TO.P,U1,40*%
%TO.N,GND_LOG*%
X30750000Y-10740000D03*
D21*
%TO.P,U1,41*%
X19100000Y-17760000D03*
X19100000Y-19160000D03*
X19800000Y-17060000D03*
X19800000Y-18460000D03*
X19800000Y-19860000D03*
X20500000Y-17760000D03*
D22*
X20500000Y-18460000D03*
D21*
X20500000Y-19160000D03*
X21200000Y-17060000D03*
X21200000Y-18460000D03*
X21200000Y-19860000D03*
X21900000Y-17760000D03*
X21900000Y-19160000D03*
%TD*%
D11*
%TO.P,R8,1*%
%TO.N,CC1*%
X11500000Y-15825000D03*
%TO.P,R8,2*%
%TO.N,GND_LOG*%
X11500000Y-14175000D03*
%TD*%
D23*
%TO.P,C4,1*%
%TO.N,5V_USB*%
X23520000Y-50000000D03*
%TO.P,C4,2*%
%TO.N,GND_LOG*%
X24480000Y-50000000D03*
%TD*%
%TO.P,C2,1*%
%TO.N,3V3_LOG*%
X27520000Y-56000000D03*
%TO.P,C2,2*%
%TO.N,GND_LOG*%
X28480000Y-56000000D03*
%TD*%
%TO.P,C8,1*%
%TO.N,DIV*%
X51520000Y-14000000D03*
%TO.P,C8,2*%
%TO.N,GND_BUS*%
X52480000Y-14000000D03*
%TD*%
D16*
%TO.P,R6,1*%
%TO.N,3V3_BUS*%
X59175000Y-22000000D03*
%TO.P,R6,2*%
%TO.N,SDA_BUS*%
X60825000Y-22000000D03*
%TD*%
D24*
%TO.P,U3,1*%
%TO.N,3V3_LOG*%
X36525000Y-26095000D03*
%TO.P,U3,2*%
%TO.N,SDA_LOG*%
X36525000Y-27365000D03*
%TO.P,U3,3*%
%TO.N,SCL_LOG*%
X36525000Y-28635000D03*
%TO.P,U3,4*%
%TO.N,GND_LOG*%
X36525000Y-29905000D03*
%TO.P,U3,5*%
%TO.N,GND_BUS*%
X41475000Y-29905000D03*
%TO.P,U3,6*%
%TO.N,SCL_BUS*%
X41475000Y-28635000D03*
%TO.P,U3,7*%
%TO.N,SDA_BUS*%
X41475000Y-27365000D03*
%TO.P,U3,8*%
%TO.N,3V3_BUS*%
X41475000Y-26095000D03*
%TD*%
D25*
%TO.P,U5,1*%
%TO.N,GND_LOG*%
X33600000Y-60000000D03*
%TO.P,U5,2*%
%TO.N,5V_USB*%
X36140000Y-60000000D03*
%TO.P,U5,3*%
%TO.N,GND_BUS*%
X38680000Y-60000000D03*
%TO.P,U5,4*%
%TO.N,5V_BUS*%
X41220000Y-60000000D03*
%TD*%
D26*
%TO.P,C6,1*%
%TO.N,5V_BUS*%
X49050000Y-50000000D03*
%TO.P,C6,2*%
%TO.N,GND_BUS*%
X50950000Y-50000000D03*
%TD*%
D23*
%TO.P,C3,1*%
%TO.N,5V_BUS*%
X47520000Y-42000000D03*
%TO.P,C3,2*%
%TO.N,GND_BUS*%
X48480000Y-42000000D03*
%TD*%
D27*
%TO.P,C1,1*%
%TO.N,3V3_LOG*%
X30000000Y-50950000D03*
%TO.P,C1,2*%
%TO.N,GND_LOG*%
X30000000Y-49050000D03*
%TD*%
D28*
%TO.P,D3,1*%
%TO.N,GND_LOG*%
X5212500Y-50000000D03*
%TO.P,D3,2*%
%TO.N,LED*%
X6787500Y-50000000D03*
%TD*%
D23*
%TO.P,C9,1*%
%TO.N,EN*%
X21520000Y-56000000D03*
%TO.P,C9,2*%
%TO.N,GND_LOG*%
X22480000Y-56000000D03*
%TD*%
D11*
%TO.P,R9,1*%
%TO.N,CC2*%
X11500000Y-21825000D03*
%TO.P,R9,2*%
%TO.N,GND_LOG*%
X11500000Y-20175000D03*
%TD*%
D29*
%TO.P,J1,1*%
%TO.N,24V*%
X69210000Y-27000000D03*
%TO.P,J1,2*%
%TO.N,CANL_J*%
X69210000Y-29000000D03*
%TO.P,J1,3*%
%TO.N,CANH_J*%
X69210000Y-31000000D03*
%TO.P,J1,4*%
%TO.N,GND_BUS*%
X69210000Y-33000000D03*
%TO.P,J1,5*%
%TO.N,N/C*%
X69210000Y-34000000D03*
%TO.P,J1,6*%
X69210000Y-32000000D03*
%TO.P,J1,7*%
X69210000Y-30000000D03*
%TO.P,J1,8*%
X69210000Y-28000000D03*
D30*
%TO.P,J1,9*%
X69210000Y-26000000D03*
D31*
%TO.P,J1,SH*%
%TO.N,GND_BUS*%
X71660000Y-24150000D03*
X71660000Y-35850000D03*
%TD*%
D32*
%TO.P,U4,1*%
%TO.N,GND_BUS*%
X49900000Y-19000000D03*
%TO.P,U4,2*%
%TO.N,unconnected-(U4-ALERT-Pad2)*%
X49900000Y-19500000D03*
%TO.P,U4,3*%
%TO.N,GND_BUS*%
X49900000Y-20000000D03*
%TO.P,U4,4*%
%TO.N,AIN0*%
X49900000Y-20500000D03*
%TO.P,U4,5*%
%TO.N,unconnected-(U4-AIN1-Pad5)*%
X49900000Y-21000000D03*
%TO.P,U4,6*%
%TO.N,unconnected-(U4-AIN2-Pad6)*%
X54100000Y-21000000D03*
%TO.P,U4,7*%
%TO.N,unconnected-(U4-AIN3-Pad7)*%
X54100000Y-20500000D03*
%TO.P,U4,8*%
%TO.N,3V3_BUS*%
X54100000Y-20000000D03*
%TO.P,U4,9*%
%TO.N,SDA_BUS*%
X54100000Y-19500000D03*
%TO.P,U4,10*%
%TO.N,SCL_BUS*%
X54100000Y-19000000D03*
%TD*%
D33*
%TO.P,D2,1*%
%TO.N,AIN0*%
X68350000Y-16000000D03*
%TO.P,D2,2*%
%TO.N,GND_BUS*%
X71650000Y-16000000D03*
%TD*%
D11*
%TO.P,R5,1*%
%TO.N,3V3_LOG*%
X34000000Y-24825000D03*
%TO.P,R5,2*%
%TO.N,SCL_LOG*%
X34000000Y-23175000D03*
%TD*%
D34*
%TO.P,U6,1*%
%TO.N,5V_USB*%
X2850000Y-29700000D03*
%TO.P,U6,2*%
%TO.N,GND_LOG*%
X2850000Y-32000000D03*
D35*
X9150000Y-32000000D03*
D34*
%TO.P,U6,3*%
%TO.N,3V3_LOG*%
X2850000Y-34300000D03*
%TD*%
D11*
%TO.P,R12,1*%
%TO.N,LED*%
X12000000Y-52825000D03*
%TO.P,R12,2*%
%TO.N,IO2*%
X12000000Y-51175000D03*
%TD*%
%TO.P,R15,1*%
%TO.N,USB_DN_C*%
X34000000Y-34825000D03*
%TO.P,R15,2*%
%TO.N,USB_DN*%
X34000000Y-33175000D03*
%TD*%
D36*
%TO.P,D1,1*%
%TO.N,CANH*%
X63062500Y-41050000D03*
%TO.P,D1,2*%
%TO.N,CANL*%
X63062500Y-42950000D03*
%TO.P,D1,3*%
%TO.N,GND_BUS*%
X64937500Y-42000000D03*
%TD*%
D11*
%TO.P,R2,1*%
%TO.N,DIV*%
X46000000Y-16825000D03*
%TO.P,R2,2*%
%TO.N,GND_BUS*%
X46000000Y-15175000D03*
%TD*%
%TO.P,R11,1*%
%TO.N,3V3_LOG*%
X24000000Y-42825000D03*
%TO.P,R11,2*%
%TO.N,IO0*%
X24000000Y-41175000D03*
%TD*%
D37*
%TO.P,JP1,1*%
%TO.N,CANH*%
X60000000Y-54000000D03*
D25*
%TO.P,JP1,2*%
%TO.N,TERM*%
X60000000Y-56540000D03*
%TD*%
D38*
%TO.P,L1,1*%
%TO.N,CANH_J*%
X53850000Y-40850000D03*
%TO.P,L1,2*%
%TO.N,CANH*%
X58150000Y-40850000D03*
%TO.P,L1,3*%
%TO.N,CANL*%
X58150000Y-43150000D03*
%TO.P,L1,4*%
%TO.N,CANL_J*%
X53850000Y-43150000D03*
%TD*%
D11*
%TO.P,R10,1*%
%TO.N,3V3_LOG*%
X30000000Y-42825000D03*
%TO.P,R10,2*%
%TO.N,EN*%
X30000000Y-41175000D03*
%TD*%
D39*
%TO.P,U7,1*%
%TO.N,5V_BUS*%
X50862500Y-55050000D03*
%TO.P,U7,2*%
%TO.N,GND_BUS*%
X50862500Y-56000000D03*
%TO.P,U7,3*%
%TO.N,5V_BUS*%
X50862500Y-56950000D03*
%TO.P,U7,4*%
%TO.N,unconnected-(U7-NC-Pad4)*%
X53137500Y-56950000D03*
%TO.P,U7,5*%
%TO.N,3V3_BUS*%
X53137500Y-55050000D03*
%TD*%
D23*
%TO.P,C5,1*%
%TO.N,3V3_BUS*%
X47520000Y-34000000D03*
%TO.P,C5,2*%
%TO.N,GND_BUS*%
X48480000Y-34000000D03*
%TD*%
D26*
%TO.P,C7,1*%
%TO.N,3V3_BUS*%
X63050000Y-54000000D03*
%TO.P,C7,2*%
%TO.N,GND_BUS*%
X64950000Y-54000000D03*
%TD*%
D40*
%TO.N,24V*%
X48000000Y-22250000D03*
X67250000Y-25000000D03*
%TO.N,3V3_BUS*%
X52750000Y-45500000D03*
X59250000Y-20500000D03*
%TO.N,3V3_LOG*%
X34000000Y-26250000D03*
X50750000Y-37000000D03*
%TO.N,5V_BUS*%
X49000000Y-50000000D03*
X46000000Y-42000000D03*
X50750000Y-55000000D03*
X50750000Y-57000000D03*
X43750000Y-44000000D03*
%TO.N,AIN0*%
X51500000Y-19000000D03*
X64000000Y-16500000D03*
%TO.N,CANH*%
X63000000Y-39500000D03*
X59500000Y-39500000D03*
%TO.N,CAN_RX*%
X32500000Y-41000000D03*
X16250000Y-14500000D03*
%TO.N,CC1*%
X10500000Y-18250000D03*
X11000000Y-17250000D03*
%TO.N,EN*%
X28500000Y-40750000D03*
X22500000Y-54500000D03*
%TO.N,GND_BUS*%
X45000000Y-45000000D03*
X64000000Y-49000000D03*
X44500000Y-20500000D03*
X55000000Y-56500000D03*
X48500000Y-40500000D03*
X70000000Y-12000000D03*
X64000000Y-39000000D03*
X70000000Y-58000000D03*
X43500000Y-39000000D03*
X72000000Y-48000000D03*
X55000000Y-28000000D03*
X50000000Y-60000000D03*
%TO.N,GND_LOG*%
X2500000Y-32000000D03*
X11000000Y-19000000D03*
X20500000Y-55500000D03*
X16000000Y-52000000D03*
X30000000Y-60000000D03*
X15500000Y-26000000D03*
X8000000Y-36000000D03*
X4000000Y-26000000D03*
X5000000Y-16500000D03*
X28000000Y-36000000D03*
X8500000Y-16000000D03*
X10500000Y-15000000D03*
X31000000Y-11000000D03*
X7000000Y-22000000D03*
X13000000Y-11000000D03*
%TO.N,IO2*%
X30500000Y-13500000D03*
X13500000Y-50750000D03*
%TO.N,SCL_LOG*%
X32500000Y-21750000D03*
X36500000Y-28750000D03*
X15250000Y-20500000D03*
%TO.N,SDA_LOG*%
X15250000Y-16500000D03*
X35500000Y-12750000D03*
%TO.N,USB_DN_C*%
X32750000Y-34750000D03*
X6250000Y-19250000D03*
X6250000Y-20250000D03*
%TO.N,USB_DP_C*%
X32750000Y-30750000D03*
X10250000Y-20250000D03*
%TD*%
%TO.N,24V*%
D41*
X47750000Y-22250000D02*
X48000000Y-22250000D01*
X67250000Y-25000000D02*
X67250000Y-26750000D01*
X67250000Y-26750000D02*
X68500000Y-26750000D01*
X46250000Y-22500000D02*
X47750000Y-22500000D01*
X47750000Y-22500000D02*
X47750000Y-22250000D01*
%TO.N,3V3_BUS*%
X62250000Y-23250000D02*
X62000000Y-23250000D01*
X52500000Y-55000000D02*
X52500000Y-52750000D01*
X51000000Y-21500000D02*
X47250000Y-21500000D01*
X47250000Y-17750000D02*
X59500000Y-17750000D01*
X60250000Y-17000000D02*
X61500000Y-17000000D01*
X49000000Y-40000000D02*
X49000000Y-39750000D01*
X61000000Y-23500000D02*
X61000000Y-23750000D01*
X62250000Y-20750000D02*
X62250000Y-23250000D01*
X62000000Y-20500000D02*
X62000000Y-20750000D01*
X50000000Y-52750000D02*
X50000000Y-49000000D01*
X53750000Y-20000000D02*
X51000000Y-20000000D01*
X61000000Y-23750000D02*
X60750000Y-23750000D01*
X52750000Y-45500000D02*
X49250000Y-45500000D01*
X61750000Y-20500000D02*
X62000000Y-20500000D01*
X45250000Y-22000000D02*
X47250000Y-22000000D01*
X50000000Y-49000000D02*
X49750000Y-49000000D01*
X47250000Y-22000000D02*
X47250000Y-17750000D01*
X42500000Y-23250000D02*
X45000000Y-23250000D01*
X47750000Y-39750000D02*
X47750000Y-34250000D01*
X62750000Y-53500000D02*
X61250000Y-53500000D01*
X49000000Y-39750000D02*
X47750000Y-39750000D01*
X61250000Y-52750000D02*
X50000000Y-52750000D01*
X61500000Y-17250000D02*
X61750000Y-17250000D01*
X45000000Y-23250000D02*
X45000000Y-22250000D01*
X59250000Y-21750000D02*
X59250000Y-20500000D01*
X45250000Y-22250000D02*
X45250000Y-22000000D01*
X45000000Y-22250000D02*
X45250000Y-22250000D01*
X59500000Y-17750000D02*
X60000000Y-17750000D01*
X42250000Y-26000000D02*
X42500000Y-26000000D01*
X62000000Y-23500000D02*
X61000000Y-23500000D01*
X48000000Y-24500000D02*
X47750000Y-24500000D01*
X60250000Y-17250000D02*
X60250000Y-17000000D01*
X62000000Y-23250000D02*
X62000000Y-23500000D01*
X62000000Y-20750000D02*
X62250000Y-20750000D01*
X42500000Y-26000000D02*
X42500000Y-23250000D01*
X60000000Y-17750000D02*
X60000000Y-17250000D01*
X47750000Y-24500000D02*
X47750000Y-33750000D01*
X60750000Y-24000000D02*
X48000000Y-24000000D01*
X61250000Y-53500000D02*
X61250000Y-52750000D01*
X60000000Y-17250000D02*
X60250000Y-17250000D01*
X49250000Y-40000000D02*
X49000000Y-40000000D01*
X49750000Y-49000000D02*
X49750000Y-48750000D01*
X49250000Y-48750000D02*
X49250000Y-40000000D01*
X61750000Y-17250000D02*
X61750000Y-20500000D01*
X60750000Y-23750000D02*
X60750000Y-24000000D01*
X61500000Y-17000000D02*
X61500000Y-17250000D01*
X49750000Y-48750000D02*
X49250000Y-48750000D01*
X48000000Y-24000000D02*
X48000000Y-24500000D01*
X51000000Y-20000000D02*
X51000000Y-21500000D01*
%TO.N,3V3_LOG*%
X50750000Y-37000000D02*
X50750000Y-24500000D01*
X24250000Y-43000000D02*
X29750000Y-43000000D01*
X11250000Y-53500000D02*
X11250000Y-53750000D01*
X33500000Y-37750000D02*
X31000000Y-37750000D01*
X65500000Y-56250000D02*
X65500000Y-56500000D01*
X36250000Y-26000000D02*
X36250000Y-12250000D01*
X27750000Y-51250000D02*
X29500000Y-51250000D01*
X36000000Y-12250000D02*
X60750000Y-12250000D01*
X35250000Y-11500000D02*
X35250000Y-11750000D01*
X12750000Y-12250000D02*
X12750000Y-12500000D01*
X74000000Y-37000000D02*
X67000000Y-37000000D01*
X35500000Y-58750000D02*
X35500000Y-58500000D01*
X30500000Y-56750000D02*
X27750000Y-56750000D01*
X30750000Y-42000000D02*
X29750000Y-42000000D01*
X23250000Y-59250000D02*
X24250000Y-59250000D01*
X61000000Y-12500000D02*
X61000000Y-13500000D01*
X62750000Y-23000000D02*
X69250000Y-23000000D01*
X35000000Y-10500000D02*
X35000000Y-11500000D01*
X34000000Y-25000000D02*
X34000000Y-26250000D01*
X10750000Y-13250000D02*
X10750000Y-13500000D01*
X12000000Y-12500000D02*
X12000000Y-13250000D01*
X6250000Y-14250000D02*
X6250000Y-18000000D01*
X35500000Y-11750000D02*
X35500000Y-12000000D01*
X35500000Y-58500000D02*
X35250000Y-58500000D01*
X10500000Y-14250000D02*
X6250000Y-14250000D01*
X2750000Y-28500000D02*
X1500000Y-28500000D01*
X61500000Y-15000000D02*
X69250000Y-15000000D01*
X6250000Y-18000000D02*
X4250000Y-18000000D01*
X11000000Y-53000000D02*
X11000000Y-53500000D01*
X69250000Y-15000000D02*
X69250000Y-23000000D01*
X4250000Y-50750000D02*
X4500000Y-50750000D01*
X24250000Y-59250000D02*
X24250000Y-61250000D01*
X37500000Y-58750000D02*
X35500000Y-58750000D01*
X62250000Y-56750000D02*
X62250000Y-58750000D01*
X1500000Y-33250000D02*
X4250000Y-33250000D01*
X62500000Y-24000000D02*
X62500000Y-23750000D01*
X6500000Y-51000000D02*
X6500000Y-53000000D01*
X74000000Y-23000000D02*
X74000000Y-37000000D01*
X4250000Y-23250000D02*
X3000000Y-23250000D01*
X60750000Y-12500000D02*
X61000000Y-12500000D01*
X61250000Y-13500000D02*
X61250000Y-13750000D01*
X24250000Y-61250000D02*
X37500000Y-61250000D01*
X11250000Y-53750000D02*
X23250000Y-53750000D01*
X42500000Y-61250000D02*
X37500000Y-61250000D01*
X33500000Y-40000000D02*
X31000000Y-40000000D01*
X61500000Y-24000000D02*
X62500000Y-24000000D01*
X61500000Y-24250000D02*
X61500000Y-24000000D01*
X35500000Y-12000000D02*
X36000000Y-12000000D01*
X11000000Y-53500000D02*
X11250000Y-53500000D01*
X35250000Y-58500000D02*
X35250000Y-58250000D01*
X27750000Y-55750000D02*
X27750000Y-51250000D01*
X10500000Y-13500000D02*
X10500000Y-14250000D01*
X29000000Y-48250000D02*
X28750000Y-48250000D01*
X62750000Y-23750000D02*
X62750000Y-23000000D01*
X61500000Y-13750000D02*
X61500000Y-15000000D01*
X62500000Y-23750000D02*
X62750000Y-23750000D01*
X67000000Y-37000000D02*
X67000000Y-56000000D01*
X12000000Y-13250000D02*
X10750000Y-13250000D01*
X37500000Y-61250000D02*
X37500000Y-58750000D01*
X1500000Y-28500000D02*
X1500000Y-33250000D01*
X33000000Y-12500000D02*
X33000000Y-10250000D01*
X34750000Y-10250000D02*
X34750000Y-10500000D01*
X31000000Y-37750000D02*
X31000000Y-41750000D01*
X2750000Y-23500000D02*
X2750000Y-28500000D01*
X3000000Y-23500000D02*
X2750000Y-23500000D01*
X23250000Y-53750000D02*
X23250000Y-59250000D01*
X35250000Y-11750000D02*
X35500000Y-11750000D01*
X65250000Y-56500000D02*
X65250000Y-56750000D01*
X66750000Y-56250000D02*
X65500000Y-56250000D01*
X2000000Y-33750000D02*
X2000000Y-33250000D01*
X69250000Y-23000000D02*
X74000000Y-23000000D01*
X35250000Y-58250000D02*
X30500000Y-58250000D01*
X62250000Y-58750000D02*
X42500000Y-58750000D01*
X29750000Y-42000000D02*
X29750000Y-43000000D01*
X66750000Y-56000000D02*
X66750000Y-56250000D01*
X29000000Y-48000000D02*
X29000000Y-48250000D01*
X60750000Y-12250000D02*
X60750000Y-12500000D01*
X29750000Y-43000000D02*
X29750000Y-48000000D01*
X10750000Y-13500000D02*
X10500000Y-13500000D01*
X4250000Y-18000000D02*
X4250000Y-23250000D01*
X4500000Y-50750000D02*
X4500000Y-51000000D01*
X33000000Y-10250000D02*
X34750000Y-10250000D01*
X61250000Y-24250000D02*
X61500000Y-24250000D01*
X29750000Y-48000000D02*
X29000000Y-48000000D01*
X28750000Y-48250000D02*
X28750000Y-51250000D01*
X12750000Y-12500000D02*
X12000000Y-12500000D01*
X42500000Y-58750000D02*
X42500000Y-61250000D01*
X61250000Y-24500000D02*
X61250000Y-24250000D01*
X30750000Y-41750000D02*
X30750000Y-42000000D01*
X61250000Y-13750000D02*
X61500000Y-13750000D01*
X35000000Y-11500000D02*
X35250000Y-11500000D01*
X36000000Y-12000000D02*
X36000000Y-12250000D01*
X34750000Y-10500000D02*
X35000000Y-10500000D01*
X65500000Y-56500000D02*
X65250000Y-56500000D01*
X30500000Y-58250000D02*
X30500000Y-56750000D01*
X4250000Y-33250000D02*
X4250000Y-50750000D01*
X6500000Y-53000000D02*
X11000000Y-53000000D01*
X3000000Y-23250000D02*
X3000000Y-23500000D01*
X31000000Y-41750000D02*
X30750000Y-41750000D01*
X50750000Y-24500000D02*
X61250000Y-24500000D01*
X4500000Y-51000000D02*
X6500000Y-51000000D01*
X67000000Y-56000000D02*
X66750000Y-56000000D01*
X65250000Y-56750000D02*
X62250000Y-56750000D01*
X27750000Y-56750000D02*
X27750000Y-55750000D01*
X33750000Y-12500000D02*
X33000000Y-12500000D01*
X61000000Y-13500000D02*
X61250000Y-13500000D01*
%TO.N,5V_BUS*%
X41750000Y-41000000D02*
X42250000Y-41000000D01*
X42250000Y-41000000D02*
X42250000Y-38000000D01*
X41500000Y-42250000D02*
X41750000Y-42250000D01*
X45000000Y-41750000D02*
X46000000Y-41750000D01*
X45000000Y-38000000D02*
X45000000Y-41750000D01*
X42250000Y-38000000D02*
X44500000Y-38000000D01*
X41500000Y-59250000D02*
X41500000Y-42250000D01*
X46000000Y-41750000D02*
X46000000Y-42000000D01*
X44500000Y-38000000D02*
X45000000Y-38000000D01*
X41750000Y-42250000D02*
X41750000Y-41000000D01*
X46000000Y-42000000D02*
X47250000Y-42000000D01*
X44500000Y-37750000D02*
X44500000Y-38000000D01*
%TO.N,5V_USB*%
X6750000Y-14750000D02*
X6750000Y-18500000D01*
X34750000Y-58750000D02*
X23750000Y-58750000D01*
X9750000Y-25250000D02*
X5500000Y-25250000D01*
X3750000Y-29000000D02*
X5500000Y-29000000D01*
X4750000Y-23250000D02*
X5250000Y-23250000D01*
X10000000Y-17500000D02*
X10000000Y-16250000D01*
X35000000Y-59500000D02*
X35000000Y-59000000D01*
X5500000Y-49000000D02*
X7500000Y-49000000D01*
X7500000Y-49250000D02*
X7750000Y-49250000D01*
X5250000Y-23500000D02*
X5500000Y-23500000D01*
X9250000Y-17500000D02*
X10000000Y-17500000D01*
X9250000Y-22500000D02*
X9750000Y-22500000D01*
X10000000Y-16250000D02*
X9750000Y-16250000D01*
X7750000Y-49250000D02*
X7750000Y-49750000D01*
X35000000Y-59000000D02*
X34750000Y-59000000D01*
X9750000Y-16250000D02*
X9750000Y-14750000D01*
X5250000Y-23250000D02*
X5250000Y-23500000D01*
X7750000Y-49750000D02*
X23250000Y-49750000D01*
X9750000Y-22750000D02*
X10000000Y-22750000D01*
X10000000Y-23750000D02*
X9750000Y-23750000D01*
X34750000Y-59000000D02*
X34750000Y-58750000D01*
X4750000Y-18500000D02*
X4750000Y-23250000D01*
X9750000Y-22500000D02*
X9750000Y-22750000D01*
X6750000Y-18500000D02*
X4750000Y-18500000D01*
X9750000Y-14750000D02*
X6750000Y-14750000D01*
X9750000Y-23750000D02*
X9750000Y-25250000D01*
X7500000Y-49000000D02*
X7500000Y-49250000D01*
X5500000Y-23500000D02*
X5500000Y-49000000D01*
X35500000Y-59500000D02*
X35000000Y-59500000D01*
X23750000Y-58750000D02*
X23750000Y-50250000D01*
X10000000Y-22750000D02*
X10000000Y-23750000D01*
%TO.N,AIN0*%
X60750000Y-14000000D02*
X60750000Y-14250000D01*
X48750000Y-18500000D02*
X51000000Y-18500000D01*
X48750000Y-20500000D02*
X48750000Y-18500000D01*
X61000000Y-15500000D02*
X68000000Y-15500000D01*
X51500000Y-18750000D02*
X51500000Y-19000000D01*
X60250000Y-13500000D02*
X60250000Y-14000000D01*
X49750000Y-20500000D02*
X48750000Y-20500000D01*
X51000000Y-18500000D02*
X51000000Y-18750000D01*
X61000000Y-14250000D02*
X61000000Y-15500000D01*
X64000000Y-16500000D02*
X64000000Y-15500000D01*
X51000000Y-18750000D02*
X51500000Y-18750000D01*
X60250000Y-14000000D02*
X60750000Y-14000000D01*
X60750000Y-14250000D02*
X61000000Y-14250000D01*
%TO.N,CANH*%
X61000000Y-34000000D02*
X61000000Y-39500000D01*
X64750000Y-56250000D02*
X64750000Y-56000000D01*
X42750000Y-41500000D02*
X42250000Y-41500000D01*
X63250000Y-32500000D02*
X63000000Y-32500000D01*
X62500000Y-34000000D02*
X61000000Y-34000000D01*
X49750000Y-53750000D02*
X49750000Y-57750000D01*
X42250000Y-47250000D02*
X47500000Y-47250000D01*
X47750000Y-51750000D02*
X49000000Y-51750000D01*
X62500000Y-33750000D02*
X62500000Y-34000000D01*
X65500000Y-33750000D02*
X65250000Y-33750000D01*
X47500000Y-47250000D02*
X47500000Y-51500000D01*
X64750000Y-32250000D02*
X63250000Y-32250000D01*
X65000000Y-56000000D02*
X65000000Y-55750000D01*
X58250000Y-57750000D02*
X58250000Y-58250000D01*
X47500000Y-51500000D02*
X47750000Y-51500000D01*
X63000000Y-39500000D02*
X63000000Y-41000000D01*
X65250000Y-33750000D02*
X65250000Y-33500000D01*
X66250000Y-55750000D02*
X66250000Y-55500000D01*
X63000000Y-32500000D02*
X63000000Y-33500000D01*
X58250000Y-58250000D02*
X61750000Y-58250000D01*
X49000000Y-53750000D02*
X49750000Y-53750000D01*
X61750000Y-58250000D02*
X61750000Y-56250000D01*
X58750000Y-39500000D02*
X59500000Y-39500000D01*
X65000000Y-33500000D02*
X65000000Y-32500000D01*
X66500000Y-40750000D02*
X65500000Y-40750000D01*
X61000000Y-39500000D02*
X59500000Y-39500000D01*
X64750000Y-56000000D02*
X65000000Y-56000000D01*
X42250000Y-41500000D02*
X42250000Y-47250000D01*
X65000000Y-55750000D02*
X66250000Y-55750000D01*
X66250000Y-55500000D02*
X66500000Y-55500000D01*
X66500000Y-55500000D02*
X66500000Y-40750000D01*
X65250000Y-33500000D02*
X65000000Y-33500000D01*
X65500000Y-40750000D02*
X65500000Y-33750000D01*
X49750000Y-57750000D02*
X58250000Y-57750000D01*
X58750000Y-40500000D02*
X58750000Y-39500000D01*
X62750000Y-33750000D02*
X62500000Y-33750000D01*
X62750000Y-33500000D02*
X62750000Y-33750000D01*
X65000000Y-32500000D02*
X64750000Y-32500000D01*
X47750000Y-51500000D02*
X47750000Y-51750000D01*
X63000000Y-33500000D02*
X62750000Y-33500000D01*
X61750000Y-56250000D02*
X64750000Y-56250000D01*
X64750000Y-32500000D02*
X64750000Y-32250000D01*
X49000000Y-51750000D02*
X49000000Y-53750000D01*
X63250000Y-32250000D02*
X63250000Y-32500000D01*
%TO.N,CANH_J*%
X54500000Y-31250000D02*
X68500000Y-31250000D01*
X54500000Y-40500000D02*
X54500000Y-31250000D01*
%TO.N,CANL*%
X48250000Y-51250000D02*
X49500000Y-51250000D01*
X66000000Y-55000000D02*
X66000000Y-42750000D01*
X63250000Y-34000000D02*
X64750000Y-34000000D01*
X61500000Y-42750000D02*
X61500000Y-34500000D01*
X61250000Y-55750000D02*
X64250000Y-55750000D01*
X58750000Y-55750000D02*
X58750000Y-57750000D01*
X58750000Y-42750000D02*
X61500000Y-42750000D01*
X64250000Y-55750000D02*
X64250000Y-55500000D01*
X49500000Y-51250000D02*
X49500000Y-53250000D01*
X49500000Y-53250000D02*
X52000000Y-53250000D01*
X61250000Y-57750000D02*
X61250000Y-55750000D01*
X66000000Y-41250000D02*
X66000000Y-42750000D01*
X63750000Y-33500000D02*
X63750000Y-34000000D01*
X52000000Y-53250000D02*
X52000000Y-55750000D01*
X58750000Y-57750000D02*
X61250000Y-57750000D01*
X64750000Y-34250000D02*
X65000000Y-34250000D01*
X48250000Y-51000000D02*
X48250000Y-51250000D01*
X64250000Y-55500000D02*
X64500000Y-55500000D01*
X63250000Y-34250000D02*
X63250000Y-34000000D01*
X65000000Y-41250000D02*
X66000000Y-41250000D01*
X48000000Y-42750000D02*
X48000000Y-51000000D01*
X64750000Y-34000000D02*
X64750000Y-34250000D01*
X44500000Y-42750000D02*
X48000000Y-42750000D01*
X52000000Y-55750000D02*
X58750000Y-55750000D01*
X48000000Y-51000000D02*
X48250000Y-51000000D01*
X61500000Y-34500000D02*
X63000000Y-34500000D01*
X65750000Y-55000000D02*
X66000000Y-55000000D01*
X63000000Y-34500000D02*
X63000000Y-34250000D01*
X64500000Y-55250000D02*
X65750000Y-55250000D01*
X65000000Y-34250000D02*
X65000000Y-41250000D01*
X66000000Y-42750000D02*
X63750000Y-42750000D01*
X65750000Y-55250000D02*
X65750000Y-55000000D01*
X64500000Y-55500000D02*
X64500000Y-55250000D01*
X63000000Y-34250000D02*
X63250000Y-34250000D01*
%TO.N,CANL_J*%
X53250000Y-41750000D02*
X52750000Y-41750000D01*
X52750000Y-41750000D02*
X52750000Y-41500000D01*
X52500000Y-29250000D02*
X68500000Y-29250000D01*
X52750000Y-41500000D02*
X52500000Y-41500000D01*
X52500000Y-41500000D02*
X52500000Y-29250000D01*
X53250000Y-42750000D02*
X53250000Y-41750000D01*
%TO.N,CAN_RX*%
X33500000Y-42500000D02*
X32500000Y-42500000D01*
X16250000Y-14500000D02*
X13750000Y-14500000D01*
X32500000Y-42500000D02*
X32500000Y-41000000D01*
%TO.N,CC1*%
X10000000Y-18750000D02*
X9250000Y-18750000D01*
X10000000Y-18250000D02*
X10000000Y-18750000D01*
X10500000Y-18250000D02*
X10000000Y-18250000D01*
X11000000Y-16000000D02*
X11000000Y-17250000D01*
X11250000Y-16000000D02*
X11000000Y-16000000D01*
%TO.N,CC2*%
X11250000Y-21750000D02*
X9250000Y-21750000D01*
%TO.N,DIV*%
X59750000Y-14750000D02*
X51750000Y-14750000D01*
X47000000Y-14250000D02*
X51250000Y-14250000D01*
X47000000Y-15750000D02*
X47000000Y-14250000D01*
X46750000Y-16000000D02*
X46750000Y-15750000D01*
X46250000Y-16000000D02*
X46750000Y-16000000D01*
X51750000Y-14750000D02*
X51750000Y-14250000D01*
X46750000Y-15750000D02*
X47000000Y-15750000D01*
X46250000Y-21000000D02*
X46250000Y-16000000D01*
%TO.N,EN*%
X24750000Y-42000000D02*
X24750000Y-41750000D01*
X2500000Y-22750000D02*
X2500000Y-23000000D01*
X13750000Y-13000000D02*
X14500000Y-13000000D01*
X10000000Y-13750000D02*
X5750000Y-13750000D01*
X5750000Y-17500000D02*
X3750000Y-17500000D01*
X8500000Y-42000000D02*
X24750000Y-42000000D01*
X3750000Y-51250000D02*
X4000000Y-51250000D01*
X12000000Y-12000000D02*
X11500000Y-12000000D01*
X12000000Y-10000000D02*
X12000000Y-12000000D01*
X3750000Y-17500000D02*
X3750000Y-22750000D01*
X14500000Y-13000000D02*
X14500000Y-10000000D01*
X10500000Y-53500000D02*
X10500000Y-54000000D01*
X3750000Y-22750000D02*
X2500000Y-22750000D01*
X24750000Y-41750000D02*
X25000000Y-41750000D01*
X12250000Y-10000000D02*
X12000000Y-10000000D01*
X2250000Y-28000000D02*
X1000000Y-28000000D01*
X21750000Y-54500000D02*
X21750000Y-55750000D01*
X10750000Y-54000000D02*
X10750000Y-54250000D01*
X21250000Y-54250000D02*
X21250000Y-54500000D01*
X2500000Y-23000000D02*
X2250000Y-23000000D01*
X14250000Y-9750000D02*
X12250000Y-9750000D01*
X5750000Y-13750000D02*
X5750000Y-17500000D01*
X28500000Y-41000000D02*
X28500000Y-40750000D01*
X4000000Y-51500000D02*
X6000000Y-51500000D01*
X14250000Y-10000000D02*
X14250000Y-9750000D01*
X10750000Y-54250000D02*
X21250000Y-54250000D01*
X21250000Y-54500000D02*
X21750000Y-54500000D01*
X3750000Y-40750000D02*
X3750000Y-51250000D01*
X11500000Y-12000000D02*
X11500000Y-12750000D01*
X10250000Y-12750000D02*
X10250000Y-13000000D01*
X11500000Y-12750000D02*
X10250000Y-12750000D01*
X22500000Y-54500000D02*
X21750000Y-54500000D01*
X8500000Y-40750000D02*
X8500000Y-42000000D01*
X10500000Y-54000000D02*
X10750000Y-54000000D01*
X6000000Y-51500000D02*
X6000000Y-53500000D01*
X25000000Y-41000000D02*
X28500000Y-41000000D01*
X6000000Y-53500000D02*
X10500000Y-53500000D01*
X12250000Y-9750000D02*
X12250000Y-10000000D01*
X4000000Y-51250000D02*
X4000000Y-51500000D01*
X2000000Y-40750000D02*
X3750000Y-40750000D01*
X29750000Y-41000000D02*
X28500000Y-41000000D01*
X25000000Y-41750000D02*
X25000000Y-41000000D01*
X1000000Y-40750000D02*
X2000000Y-40750000D01*
X10000000Y-13000000D02*
X10000000Y-13750000D01*
X14500000Y-10000000D02*
X14250000Y-10000000D01*
X1000000Y-28000000D02*
X1000000Y-40750000D01*
X10250000Y-13000000D02*
X10000000Y-13000000D01*
X2250000Y-23000000D02*
X2250000Y-28000000D01*
%TO.N,GND_BUS*%
X48500000Y-42000000D02*
X48500000Y-40500000D01*
%TO.N,IO0*%
X35000000Y-28500000D02*
X35000000Y-33750000D01*
X34750000Y-28250000D02*
X34750000Y-28500000D01*
X34750000Y-34000000D02*
X24250000Y-34000000D01*
X31250000Y-27500000D02*
X31250000Y-28250000D01*
X34750000Y-28500000D02*
X35000000Y-28500000D01*
X35000000Y-33750000D02*
X34750000Y-33750000D01*
X24250000Y-34000000D02*
X24250000Y-41000000D01*
X12500000Y-40750000D02*
X12500000Y-41000000D01*
X12500000Y-41000000D02*
X23750000Y-41000000D01*
X34750000Y-33750000D02*
X34750000Y-34000000D01*
X18000000Y-40750000D02*
X18000000Y-41000000D01*
X31250000Y-28250000D02*
X34750000Y-28250000D01*
%TO.N,IO2*%
X12250000Y-50750000D02*
X12250000Y-51000000D01*
X13500000Y-50750000D02*
X12250000Y-50750000D01*
%TO.N,LED*%
X11750000Y-52500000D02*
X7000000Y-52500000D01*
X7000000Y-52500000D02*
X7000000Y-50250000D01*
%TO.N,SCL_BUS*%
X61750000Y-21250000D02*
X61500000Y-21250000D01*
X61500000Y-23000000D02*
X61500000Y-22750000D01*
X60500000Y-23000000D02*
X61500000Y-23000000D01*
X61500000Y-21250000D02*
X61500000Y-21000000D01*
X47250000Y-24250000D02*
X47250000Y-24000000D01*
X43500000Y-27250000D02*
X43500000Y-24250000D01*
X42250000Y-28500000D02*
X42250000Y-28000000D01*
X43000000Y-28000000D02*
X43000000Y-27250000D01*
X61500000Y-21000000D02*
X61000000Y-21000000D01*
X47500000Y-23500000D02*
X60250000Y-23500000D01*
X61500000Y-22750000D02*
X61750000Y-22750000D01*
X60250000Y-23250000D02*
X60500000Y-23250000D01*
X47500000Y-24000000D02*
X47500000Y-23500000D01*
X47250000Y-24000000D02*
X47500000Y-24000000D01*
X43000000Y-27250000D02*
X43500000Y-27250000D01*
X60250000Y-23500000D02*
X60250000Y-23250000D01*
X43500000Y-24250000D02*
X47250000Y-24250000D01*
X60500000Y-23250000D02*
X60500000Y-23000000D01*
X42250000Y-28000000D02*
X43000000Y-28000000D01*
X61750000Y-22750000D02*
X61750000Y-21250000D01*
X61000000Y-21000000D02*
X61000000Y-18250000D01*
X54250000Y-19000000D02*
X61000000Y-19000000D01*
%TO.N,SCL_LOG*%
X32500000Y-23000000D02*
X33750000Y-23000000D01*
X14500000Y-18750000D02*
X14500000Y-20500000D01*
X32500000Y-21750000D02*
X32500000Y-23000000D01*
X14500000Y-20500000D02*
X15250000Y-20500000D01*
X13750000Y-18750000D02*
X14500000Y-18750000D01*
%TO.N,SDA_BUS*%
X54250000Y-19500000D02*
X55250000Y-19500000D01*
X42250000Y-26750000D02*
X43000000Y-26750000D01*
X59750000Y-23000000D02*
X59750000Y-22750000D01*
X47000000Y-23500000D02*
X47000000Y-23000000D01*
X42250000Y-27250000D02*
X42250000Y-26750000D01*
X59750000Y-22750000D02*
X60000000Y-22750000D01*
X43000000Y-26750000D02*
X43000000Y-23750000D01*
X60000000Y-22750000D02*
X60000000Y-22250000D01*
X43000000Y-23750000D02*
X46750000Y-23750000D01*
X55250000Y-19750000D02*
X58250000Y-19750000D01*
X46750000Y-23750000D02*
X46750000Y-23500000D01*
X55250000Y-19500000D02*
X55250000Y-19750000D01*
X60000000Y-22250000D02*
X60500000Y-22250000D01*
X58250000Y-19750000D02*
X58250000Y-23000000D01*
X46750000Y-23500000D02*
X47000000Y-23500000D01*
X47000000Y-23000000D02*
X59750000Y-23000000D01*
%TO.N,SDA_LOG*%
X34750000Y-12000000D02*
X34250000Y-12000000D01*
X35500000Y-26750000D02*
X35000000Y-26750000D01*
X35000000Y-26750000D02*
X35000000Y-19000000D01*
X35500000Y-27250000D02*
X35500000Y-26750000D01*
X35500000Y-12750000D02*
X35000000Y-12750000D01*
X35750000Y-27250000D02*
X35500000Y-27250000D01*
X34250000Y-12000000D02*
X34250000Y-11500000D01*
X34750000Y-12250000D02*
X34750000Y-12000000D01*
X35000000Y-19000000D02*
X35250000Y-19000000D01*
X35000000Y-12750000D02*
X35000000Y-12250000D01*
X13750000Y-16750000D02*
X14250000Y-16750000D01*
X14250000Y-16500000D02*
X15250000Y-16500000D01*
X35000000Y-12250000D02*
X34750000Y-12250000D01*
X14250000Y-16750000D02*
X14250000Y-16500000D01*
X35250000Y-19000000D02*
X35250000Y-12750000D01*
%TO.N,TERM*%
X60750000Y-55250000D02*
X60750000Y-55750000D01*
X64000000Y-55000000D02*
X63750000Y-55000000D01*
X63750000Y-35000000D02*
X62000000Y-35000000D01*
X63750000Y-53000000D02*
X64000000Y-53000000D01*
X62000000Y-35000000D02*
X62000000Y-52750000D01*
X63750000Y-55000000D02*
X63750000Y-55250000D01*
X60750000Y-55750000D02*
X60250000Y-55750000D01*
X63750000Y-52750000D02*
X63750000Y-53000000D01*
X64000000Y-53000000D02*
X64000000Y-55000000D01*
X63750000Y-55250000D02*
X60750000Y-55250000D01*
X62000000Y-52750000D02*
X63750000Y-52750000D01*
%TO.N,TWAI_TX*%
X31750000Y-9750000D02*
X31750000Y-10000000D01*
X29750000Y-10000000D02*
X29750000Y-9750000D01*
X31750000Y-10000000D02*
X32000000Y-10000000D01*
X29500000Y-10000000D02*
X29750000Y-10000000D01*
X32000000Y-17500000D02*
X33500000Y-17500000D01*
X29500000Y-15500000D02*
X29500000Y-10000000D01*
X13750000Y-15500000D02*
X29500000Y-15500000D01*
X32000000Y-10000000D02*
X32000000Y-17500000D01*
X29750000Y-9750000D02*
X31750000Y-9750000D01*
%TO.N,USB_DN*%
X12000000Y-33000000D02*
X33750000Y-33000000D01*
X12750000Y-26250000D02*
X12250000Y-26250000D01*
X12000000Y-26500000D02*
X12000000Y-33000000D01*
X12250000Y-26500000D02*
X12000000Y-26500000D01*
X12250000Y-26250000D02*
X12250000Y-26500000D01*
%TO.N,USB_DN_C*%
X9000000Y-19250000D02*
X6250000Y-19250000D01*
X9000000Y-20250000D02*
X6250000Y-20250000D01*
X32750000Y-34750000D02*
X34000000Y-34750000D01*
%TO.N,USB_DP*%
X13750000Y-29000000D02*
X14000000Y-29000000D01*
X29750000Y-29750000D02*
X29750000Y-29500000D01*
X14250000Y-29750000D02*
X29750000Y-29750000D01*
X14250000Y-29500000D02*
X14250000Y-29750000D01*
X14000000Y-29500000D02*
X14250000Y-29500000D01*
X13750000Y-27500000D02*
X13750000Y-29000000D01*
X14000000Y-29000000D02*
X14000000Y-29500000D01*
X29750000Y-29500000D02*
X33750000Y-29500000D01*
%TO.N,USB_DP_C*%
X10250000Y-19750000D02*
X10250000Y-20750000D01*
X32750000Y-30750000D02*
X34000000Y-30750000D01*
X10250000Y-20750000D02*
X9000000Y-20750000D01*
X9000000Y-19750000D02*
X10250000Y-19750000D01*
%TD*%
%TA.AperFunction,Conductor*%
%TO.N,GND_BUS*%
G36*
X88915908Y-1004843D02*
G01*
X88928595Y-1008966D01*
X88978095Y-1044927D01*
X88978096Y-1044928D01*
X88981091Y-1049050D01*
X89000000Y-1107240D01*
X89000000Y-64885319D01*
X88995154Y-64915912D01*
X88991032Y-64928598D01*
X88955080Y-64978089D01*
X88950959Y-64981084D01*
X88892771Y-65000000D01*
X37714680Y-65000000D01*
X37684087Y-64995154D01*
X37671401Y-64991032D01*
X37621901Y-64955068D01*
X37621894Y-64955058D01*
X37618900Y-64950936D01*
X37600000Y-64892756D01*
X37600000Y-61690180D01*
X37604843Y-61659594D01*
X37608965Y-61646905D01*
X37644923Y-61597406D01*
X37645522Y-61596971D01*
X37649063Y-61594400D01*
X37707243Y-61575500D01*
X42542851Y-61575500D01*
X42542853Y-61575500D01*
X42625638Y-61553318D01*
X42699862Y-61510465D01*
X42760465Y-61449862D01*
X42803318Y-61375638D01*
X42825500Y-61292853D01*
X42825500Y-59190180D01*
X42830343Y-59159594D01*
X42834465Y-59146905D01*
X42870423Y-59097406D01*
X42871230Y-59096821D01*
X42874563Y-59094400D01*
X42932743Y-59075500D01*
X62292851Y-59075500D01*
X62292853Y-59075500D01*
X62375638Y-59053318D01*
X62449862Y-59010465D01*
X62510465Y-58949862D01*
X62553318Y-58875638D01*
X62575500Y-58792853D01*
X62575500Y-57190180D01*
X62580343Y-57159594D01*
X62584465Y-57146905D01*
X62620423Y-57097406D01*
X62621022Y-57096971D01*
X62624563Y-57094400D01*
X62682743Y-57075500D01*
X65292851Y-57075500D01*
X65292853Y-57075500D01*
X65375638Y-57053318D01*
X65449862Y-57010465D01*
X65510465Y-56949862D01*
X65531302Y-56913770D01*
X65556563Y-56870019D01*
X65556810Y-56870161D01*
X65559493Y-56865056D01*
X65572679Y-56844749D01*
X65610761Y-56810458D01*
X65617559Y-56806994D01*
X65624654Y-56803724D01*
X65625627Y-56803320D01*
X65625638Y-56803318D01*
X65629889Y-56800863D01*
X65634436Y-56798394D01*
X65643971Y-56793536D01*
X65644784Y-56792506D01*
X65650230Y-56789119D01*
X65699862Y-56760465D01*
X65760465Y-56699862D01*
X65783315Y-56660283D01*
X65795847Y-56638577D01*
X65815330Y-56614515D01*
X65829441Y-56601810D01*
X65875121Y-56578539D01*
X65879270Y-56577657D01*
X65899830Y-56575500D01*
X66792851Y-56575500D01*
X66792853Y-56575500D01*
X66875638Y-56553318D01*
X66949862Y-56510465D01*
X67010465Y-56449862D01*
X67039642Y-56399326D01*
X67056563Y-56370019D01*
X67056810Y-56370161D01*
X67059493Y-56365056D01*
X67072679Y-56344749D01*
X67110761Y-56310458D01*
X67117559Y-56306994D01*
X67124654Y-56303724D01*
X67125627Y-56303320D01*
X67125638Y-56303318D01*
X67129889Y-56300863D01*
X67134436Y-56298394D01*
X67143971Y-56293536D01*
X67144784Y-56292506D01*
X67150230Y-56289119D01*
X67199862Y-56260465D01*
X67260465Y-56199862D01*
X67303318Y-56125638D01*
X67325500Y-56042853D01*
X67325500Y-37440180D01*
X67330343Y-37409594D01*
X67332145Y-37404048D01*
X67334465Y-37396905D01*
X67370423Y-37347406D01*
X67371022Y-37346971D01*
X67374563Y-37344400D01*
X67432743Y-37325500D01*
X74042851Y-37325500D01*
X74042853Y-37325500D01*
X74125638Y-37303318D01*
X74199862Y-37260465D01*
X74260465Y-37199862D01*
X74303318Y-37125638D01*
X74325500Y-37042853D01*
X74325500Y-22957147D01*
X74303318Y-22874362D01*
X74260465Y-22800138D01*
X74199862Y-22739535D01*
X74125638Y-22696682D01*
X74042853Y-22674500D01*
X74042851Y-22674500D01*
X69690180Y-22674500D01*
X69659587Y-22669654D01*
X69646901Y-22665532D01*
X69597401Y-22629568D01*
X69597394Y-22629558D01*
X69594400Y-22625436D01*
X69575500Y-22567256D01*
X69575500Y-14957148D01*
X69575499Y-14957145D01*
X69573549Y-14949866D01*
X69573548Y-14949862D01*
X69553318Y-14874362D01*
X69510465Y-14800138D01*
X69449862Y-14739535D01*
X69375638Y-14696682D01*
X69292853Y-14674500D01*
X69292851Y-14674500D01*
X61940180Y-14674500D01*
X61909587Y-14669654D01*
X61896901Y-14665532D01*
X61847401Y-14629568D01*
X61847394Y-14629558D01*
X61844400Y-14625436D01*
X61825500Y-14567256D01*
X61825500Y-13707149D01*
X61825500Y-13707148D01*
X61816752Y-13674500D01*
X61803318Y-13624362D01*
X61760465Y-13550138D01*
X61699862Y-13489535D01*
X61683907Y-13480323D01*
X61620022Y-13443439D01*
X61620162Y-13443194D01*
X61615037Y-13440496D01*
X61594743Y-13427316D01*
X61560452Y-13389227D01*
X61556993Y-13382437D01*
X61553741Y-13375383D01*
X61553318Y-13374362D01*
X61550877Y-13370134D01*
X61548401Y-13365573D01*
X61543573Y-13356097D01*
X61542629Y-13355360D01*
X61538946Y-13349468D01*
X61510465Y-13300138D01*
X61449864Y-13239536D01*
X61447757Y-13238319D01*
X61440448Y-13234100D01*
X61440444Y-13234096D01*
X61440444Y-13234098D01*
X61388578Y-13204152D01*
X61364507Y-13184659D01*
X61351809Y-13170556D01*
X61328543Y-13124890D01*
X61327662Y-13120744D01*
X61325500Y-13100167D01*
X61325500Y-12457148D01*
X61325499Y-12457145D01*
X61323549Y-12449866D01*
X61323548Y-12449862D01*
X61303318Y-12374362D01*
X61260465Y-12300138D01*
X61199862Y-12239535D01*
X61183907Y-12230323D01*
X61120022Y-12193439D01*
X61120162Y-12193194D01*
X61115037Y-12190496D01*
X61094743Y-12177316D01*
X61060452Y-12139227D01*
X61056993Y-12132437D01*
X61053741Y-12125383D01*
X61053318Y-12124362D01*
X61050877Y-12120134D01*
X61048401Y-12115573D01*
X61043573Y-12106097D01*
X61042629Y-12105360D01*
X61038946Y-12099468D01*
X61010466Y-12050140D01*
X61010465Y-12050138D01*
X60949862Y-11989535D01*
X60875638Y-11946682D01*
X60792853Y-11924500D01*
X60792851Y-11924500D01*
X40914680Y-11924500D01*
X40884087Y-11919654D01*
X40871401Y-11915532D01*
X40821901Y-11879568D01*
X40821894Y-11879558D01*
X40818900Y-11875436D01*
X40800000Y-11817256D01*
X40800000Y-10614680D01*
X40804843Y-10584094D01*
X40808965Y-10571405D01*
X40844923Y-10521906D01*
X40845522Y-10521471D01*
X40849063Y-10518900D01*
X40907243Y-10500000D01*
X46499999Y-10500000D01*
X46500000Y-10500000D01*
X46500000Y-1114680D01*
X46504843Y-1084094D01*
X46508965Y-1071405D01*
X46544923Y-1021906D01*
X46545522Y-1021471D01*
X46549063Y-1018900D01*
X46607243Y-1000000D01*
X88885320Y-1000000D01*
X88915908Y-1004843D01*
G37*
%TD.AperFunction*%
%TA.AperFunction,Conductor*%
G36*
X47318321Y-24574584D02*
G01*
X47327815Y-24575081D01*
X47384938Y-24597005D01*
X47417561Y-24645820D01*
X47418390Y-24648619D01*
X47420421Y-24655475D01*
X47424500Y-24683598D01*
X47424500Y-33375888D01*
X47419654Y-33406481D01*
X47415532Y-33419167D01*
X47379568Y-33468667D01*
X47379564Y-33468670D01*
X47373620Y-33472988D01*
X47328355Y-33491045D01*
X47296944Y-33495180D01*
X47293237Y-33495422D01*
X47290513Y-33496027D01*
X47290511Y-33496027D01*
X47290509Y-33496027D01*
X47290508Y-33496028D01*
X47181689Y-33546771D01*
X47096772Y-33631688D01*
X47046487Y-33739525D01*
X47046032Y-33740473D01*
X47039500Y-33790096D01*
X47039500Y-34209904D01*
X47045180Y-34253051D01*
X47045423Y-34256762D01*
X47046026Y-34259484D01*
X47046027Y-34259486D01*
X47046027Y-34259488D01*
X47046028Y-34259490D01*
X47096772Y-34368311D01*
X47096774Y-34368313D01*
X47096775Y-34368314D01*
X47096776Y-34368316D01*
X47181684Y-34453224D01*
X47181685Y-34453224D01*
X47181686Y-34453225D01*
X47290508Y-34503970D01*
X47290509Y-34503970D01*
X47290513Y-34503972D01*
X47290519Y-34503972D01*
X47290520Y-34503973D01*
X47322872Y-34508232D01*
X47352575Y-34517030D01*
X47364615Y-34522773D01*
X47408991Y-34564881D01*
X47412501Y-34571345D01*
X47424500Y-34618586D01*
X47424500Y-39707147D01*
X47424500Y-39792853D01*
X47446682Y-39875638D01*
X47489535Y-39949862D01*
X47550138Y-40010465D01*
X47624362Y-40053318D01*
X47707147Y-40075500D01*
X48594897Y-40075500D01*
X48625491Y-40080346D01*
X48643538Y-40086210D01*
X48686507Y-40114111D01*
X48689344Y-40117261D01*
X48701514Y-40134009D01*
X48736255Y-40194181D01*
X48739535Y-40199862D01*
X48800138Y-40260465D01*
X48861424Y-40295848D01*
X48885491Y-40315337D01*
X48898189Y-40329439D01*
X48921455Y-40375097D01*
X48922336Y-40379241D01*
X48924500Y-40399828D01*
X48924500Y-48707147D01*
X48924500Y-48792853D01*
X48926452Y-48800138D01*
X48946682Y-48875639D01*
X48967919Y-48912422D01*
X48979020Y-48941342D01*
X48981388Y-48952485D01*
X48974989Y-49013335D01*
X48934061Y-49058794D01*
X48929843Y-49061230D01*
X48880332Y-49074500D01*
X48745718Y-49074500D01*
X48715306Y-49077352D01*
X48715291Y-49077356D01*
X48715290Y-49077356D01*
X48587114Y-49122207D01*
X48495904Y-49189524D01*
X48468415Y-49203791D01*
X48457606Y-49207393D01*
X48396422Y-49207853D01*
X48346655Y-49172262D01*
X48344825Y-49169783D01*
X48325503Y-49111731D01*
X48325500Y-49111021D01*
X48325500Y-42707149D01*
X48325499Y-42707145D01*
X48320133Y-42687118D01*
X48303318Y-42624362D01*
X48260465Y-42550138D01*
X48199862Y-42489535D01*
X48199859Y-42489533D01*
X48125641Y-42446683D01*
X48125637Y-42446681D01*
X48060108Y-42429122D01*
X48031816Y-42416526D01*
X48020628Y-42409261D01*
X47982122Y-42361714D01*
X47981876Y-42361074D01*
X47977137Y-42306757D01*
X47978541Y-42299534D01*
X47985998Y-42276584D01*
X47993972Y-42259487D01*
X48000500Y-42209901D01*
X48000499Y-41790100D01*
X47994819Y-41746947D01*
X47994575Y-41743236D01*
X47993973Y-41740522D01*
X47993972Y-41740513D01*
X47993972Y-41740511D01*
X47970543Y-41690269D01*
X47944132Y-41633629D01*
X47943317Y-41631778D01*
X47943224Y-41631685D01*
X47943224Y-41631684D01*
X47858316Y-41546776D01*
X47858314Y-41546775D01*
X47858313Y-41546774D01*
X47858312Y-41546773D01*
X47750463Y-41496482D01*
X47749525Y-41496032D01*
X47732959Y-41493852D01*
X47732958Y-41493851D01*
X47732958Y-41493852D01*
X47699902Y-41489500D01*
X47699901Y-41489500D01*
X47699899Y-41489500D01*
X47340104Y-41489500D01*
X47340092Y-41489500D01*
X47340081Y-41489501D01*
X47296948Y-41495180D01*
X47293236Y-41495423D01*
X47290513Y-41496027D01*
X47290511Y-41496027D01*
X47290509Y-41496027D01*
X47290508Y-41496028D01*
X47181689Y-41546771D01*
X47181686Y-41546773D01*
X47100516Y-41627943D01*
X47090088Y-41637007D01*
X47066830Y-41654531D01*
X47023674Y-41673092D01*
X47023454Y-41673129D01*
X47007035Y-41674500D01*
X46439002Y-41674500D01*
X46408409Y-41669654D01*
X46385182Y-41662107D01*
X46345772Y-41637957D01*
X46307311Y-41599497D01*
X46304189Y-41597101D01*
X46294459Y-41588567D01*
X46275738Y-41569845D01*
X46264513Y-41555216D01*
X46264418Y-41555289D01*
X46260469Y-41550143D01*
X46260466Y-41550140D01*
X46260465Y-41550138D01*
X46199862Y-41489535D01*
X46125638Y-41446682D01*
X46042853Y-41424500D01*
X46042851Y-41424500D01*
X45440180Y-41424500D01*
X45409587Y-41419654D01*
X45396901Y-41415532D01*
X45347401Y-41379568D01*
X45347394Y-41379558D01*
X45344400Y-41375436D01*
X45325500Y-41317256D01*
X45325500Y-37957148D01*
X45325500Y-37957147D01*
X45303318Y-37874362D01*
X45260465Y-37800138D01*
X45199862Y-37739535D01*
X45125638Y-37696682D01*
X45042853Y-37674500D01*
X45042851Y-37674500D01*
X44990180Y-37674500D01*
X44959587Y-37669654D01*
X44946901Y-37665532D01*
X44897401Y-37629568D01*
X44897394Y-37629558D01*
X44894400Y-37625436D01*
X44875500Y-37567256D01*
X44875500Y-37371742D01*
X44874709Y-37366311D01*
X44865573Y-37303607D01*
X44865431Y-37303317D01*
X44840483Y-37252285D01*
X44814198Y-37198517D01*
X44731483Y-37115802D01*
X44731481Y-37115801D01*
X44626395Y-37064427D01*
X44599139Y-37060456D01*
X44599138Y-37060455D01*
X44568655Y-37056014D01*
X44558260Y-37054500D01*
X44558258Y-37054500D01*
X42741736Y-37054500D01*
X42707670Y-37059463D01*
X42707669Y-37059462D01*
X42673606Y-37064426D01*
X42673604Y-37064426D01*
X42568520Y-37115799D01*
X42485799Y-37198520D01*
X42434427Y-37303603D01*
X42433887Y-37307309D01*
X42431237Y-37325500D01*
X42425292Y-37366309D01*
X42424500Y-37371742D01*
X42424500Y-37371744D01*
X42424500Y-37559819D01*
X42419654Y-37590412D01*
X42415532Y-37603098D01*
X42379580Y-37652589D01*
X42375459Y-37655584D01*
X42317271Y-37674500D01*
X42292853Y-37674500D01*
X42207147Y-37674500D01*
X42124362Y-37696682D01*
X42050138Y-37739535D01*
X41989535Y-37800138D01*
X41946682Y-37874361D01*
X41946682Y-37874362D01*
X41924501Y-37957147D01*
X41924500Y-37957149D01*
X41924500Y-40559819D01*
X41919654Y-40590412D01*
X41915532Y-40603098D01*
X41879580Y-40652589D01*
X41875459Y-40655584D01*
X41817271Y-40674500D01*
X41792853Y-40674500D01*
X41707147Y-40674500D01*
X41624362Y-40696682D01*
X41550138Y-40739535D01*
X41489535Y-40800138D01*
X41446682Y-40874361D01*
X41424500Y-40957149D01*
X41424500Y-41844895D01*
X41419654Y-41875490D01*
X41413789Y-41893539D01*
X41385887Y-41936508D01*
X41382738Y-41939344D01*
X41365986Y-41951516D01*
X41300143Y-41989530D01*
X41300134Y-41989537D01*
X41300130Y-41989542D01*
X41239537Y-42050135D01*
X41196680Y-42124365D01*
X41196680Y-42124367D01*
X41191898Y-42142217D01*
X41182247Y-42178237D01*
X41178373Y-42192692D01*
X41174500Y-42207147D01*
X41174500Y-58841041D01*
X41169654Y-58871634D01*
X41165532Y-58884320D01*
X41129568Y-58933820D01*
X41129562Y-58933824D01*
X41122332Y-58939076D01*
X41083462Y-58956077D01*
X40913581Y-58989869D01*
X40913579Y-58989869D01*
X40722404Y-59069056D01*
X40550351Y-59184017D01*
X40404017Y-59330351D01*
X40289056Y-59502404D01*
X40209869Y-59693579D01*
X40209869Y-59693581D01*
X40169500Y-59896529D01*
X40169500Y-60103469D01*
X40209869Y-60306417D01*
X40209869Y-60306419D01*
X40289055Y-60497593D01*
X40289057Y-60497595D01*
X40289059Y-60497598D01*
X40404022Y-60669654D01*
X40478779Y-60744412D01*
X40496986Y-60769472D01*
X40501949Y-60779213D01*
X40511519Y-60839645D01*
X40483740Y-60894161D01*
X40436861Y-60920418D01*
X40431266Y-60921762D01*
X40408143Y-60924500D01*
X37940180Y-60924500D01*
X37909587Y-60919654D01*
X37896901Y-60915532D01*
X37847401Y-60879568D01*
X37847394Y-60879558D01*
X37844400Y-60875436D01*
X37825500Y-60817256D01*
X37825500Y-58707148D01*
X37825500Y-58707147D01*
X37803318Y-58624362D01*
X37760465Y-58550138D01*
X37699862Y-58489535D01*
X37699859Y-58489533D01*
X37663076Y-58468296D01*
X37639009Y-58448807D01*
X37637096Y-58446682D01*
X37626307Y-58434699D01*
X37603040Y-58389024D01*
X37602391Y-58385972D01*
X37602159Y-58384878D01*
X37600000Y-58364313D01*
X37600000Y-56295364D01*
X37604843Y-56264778D01*
X37606244Y-56260465D01*
X37608965Y-56252089D01*
X37644923Y-56202590D01*
X37652605Y-56197009D01*
X37689634Y-56180392D01*
X40800000Y-55500000D01*
X40800000Y-29250180D01*
X40804843Y-29219594D01*
X40808965Y-29206905D01*
X40844923Y-29157406D01*
X40845522Y-29156971D01*
X40849063Y-29154400D01*
X40907243Y-29135500D01*
X42333257Y-29135500D01*
X42333260Y-29135500D01*
X42401393Y-29125573D01*
X42506483Y-29074198D01*
X42589198Y-28991483D01*
X42640573Y-28886393D01*
X42650500Y-28818260D01*
X42650500Y-28451740D01*
X42650499Y-28451739D01*
X42650241Y-28448168D01*
X42650946Y-28448116D01*
X42651255Y-28423321D01*
X42653504Y-28410175D01*
X42681953Y-28356006D01*
X42681955Y-28356004D01*
X42682977Y-28355007D01*
X42729597Y-28329465D01*
X42732320Y-28328829D01*
X42735474Y-28328093D01*
X42757984Y-28325500D01*
X43042851Y-28325500D01*
X43042853Y-28325500D01*
X43125638Y-28303318D01*
X43199862Y-28260465D01*
X43260465Y-28199862D01*
X43303318Y-28125638D01*
X43325500Y-28042853D01*
X43325500Y-27690180D01*
X43330343Y-27659594D01*
X43334465Y-27646905D01*
X43370423Y-27597406D01*
X43371022Y-27596971D01*
X43374563Y-27594400D01*
X43432743Y-27575500D01*
X43542851Y-27575500D01*
X43542853Y-27575500D01*
X43625638Y-27553318D01*
X43699862Y-27510465D01*
X43760465Y-27449862D01*
X43803318Y-27375638D01*
X43825500Y-27292853D01*
X43825500Y-24690180D01*
X43830343Y-24659594D01*
X43831682Y-24655472D01*
X43834465Y-24646905D01*
X43870423Y-24597406D01*
X43871022Y-24596971D01*
X43874563Y-24594400D01*
X43932743Y-24575500D01*
X47292854Y-24575500D01*
X47296059Y-24575078D01*
X47314156Y-24574366D01*
X47318321Y-24574584D01*
G37*
%TD.AperFunction*%
%TA.AperFunction,Conductor*%
G36*
X51619090Y-55520155D02*
G01*
X51661627Y-55564116D01*
X51664435Y-55569860D01*
X51674500Y-55613349D01*
X51674500Y-55707147D01*
X51674500Y-55792853D01*
X51696682Y-55875638D01*
X51739535Y-55949862D01*
X51800138Y-56010465D01*
X51874362Y-56053318D01*
X51957147Y-56075500D01*
X58309820Y-56075500D01*
X58340408Y-56080343D01*
X58353095Y-56084466D01*
X58402595Y-56120427D01*
X58402596Y-56120428D01*
X58405591Y-56124550D01*
X58424500Y-56182740D01*
X58424500Y-57315074D01*
X58419653Y-57345670D01*
X58415850Y-57357373D01*
X58379885Y-57406872D01*
X58324285Y-57425743D01*
X58313731Y-57426019D01*
X58298227Y-57425207D01*
X58292854Y-57424500D01*
X58292853Y-57424500D01*
X58292852Y-57424500D01*
X54055778Y-57424500D01*
X54025181Y-57419653D01*
X54014346Y-57416132D01*
X53964848Y-57380166D01*
X53945943Y-57321979D01*
X53945943Y-57315586D01*
X53956002Y-57272106D01*
X53990573Y-57201393D01*
X54000500Y-57133260D01*
X54000500Y-56766740D01*
X53990573Y-56698607D01*
X53939198Y-56593517D01*
X53856483Y-56510802D01*
X53856480Y-56510800D01*
X53856478Y-56510799D01*
X53855778Y-56510457D01*
X53855778Y-56510456D01*
X53751395Y-56459427D01*
X53716163Y-56454294D01*
X53716161Y-56454293D01*
X53716160Y-56454293D01*
X53690024Y-56450485D01*
X53683260Y-56449500D01*
X53683259Y-56449500D01*
X52591740Y-56449500D01*
X52558836Y-56454293D01*
X52558837Y-56454294D01*
X52523603Y-56459427D01*
X52418520Y-56510799D01*
X52335799Y-56593520D01*
X52284426Y-56698604D01*
X52284246Y-56699847D01*
X52284244Y-56699862D01*
X52274500Y-56766740D01*
X52274500Y-57133260D01*
X52276489Y-57146908D01*
X52284427Y-57201394D01*
X52316956Y-57267934D01*
X52326039Y-57297542D01*
X52327635Y-57308821D01*
X52317067Y-57369087D01*
X52273097Y-57411630D01*
X52267354Y-57414438D01*
X52223868Y-57424500D01*
X51780778Y-57424500D01*
X51750181Y-57419653D01*
X51739346Y-57416132D01*
X51689848Y-57380166D01*
X51670943Y-57321979D01*
X51670943Y-57315586D01*
X51681002Y-57272106D01*
X51715573Y-57201393D01*
X51725500Y-57133260D01*
X51725500Y-56766740D01*
X51715573Y-56698607D01*
X51664198Y-56593517D01*
X51581483Y-56510802D01*
X51581480Y-56510800D01*
X51581478Y-56510799D01*
X51580778Y-56510457D01*
X51580778Y-56510456D01*
X51476395Y-56459427D01*
X51441163Y-56454294D01*
X51441161Y-56454293D01*
X51441160Y-56454293D01*
X51415024Y-56450485D01*
X51408260Y-56449500D01*
X51408259Y-56449500D01*
X50316740Y-56449500D01*
X50283836Y-56454293D01*
X50283837Y-56454294D01*
X50248604Y-56459427D01*
X50248602Y-56459427D01*
X50248601Y-56459428D01*
X50232064Y-56467513D01*
X50202456Y-56476595D01*
X50191177Y-56478191D01*
X50130911Y-56467623D01*
X50088368Y-56423652D01*
X50087412Y-56421697D01*
X50085553Y-56417892D01*
X50075500Y-56374425D01*
X50075500Y-55630221D01*
X50080347Y-55599624D01*
X50083868Y-55588789D01*
X50119834Y-55539291D01*
X50178021Y-55520386D01*
X50184409Y-55520386D01*
X50227888Y-55530444D01*
X50248476Y-55540509D01*
X50249084Y-55540810D01*
X50249163Y-55540849D01*
X50251608Y-55541309D01*
X50255693Y-55541605D01*
X50316740Y-55550500D01*
X50316743Y-55550500D01*
X51408257Y-55550500D01*
X51408260Y-55550500D01*
X51476393Y-55540573D01*
X51517933Y-55520264D01*
X51547540Y-55511182D01*
X51558826Y-55509585D01*
X51619090Y-55520155D01*
G37*
%TD.AperFunction*%
%TA.AperFunction,Conductor*%
G36*
X65590408Y-43080343D02*
G01*
X65603095Y-43084466D01*
X65652595Y-43120427D01*
X65652596Y-43120428D01*
X65655591Y-43124550D01*
X65674500Y-43182740D01*
X65674500Y-54594895D01*
X65669654Y-54625490D01*
X65663789Y-54643539D01*
X65635887Y-54686508D01*
X65632738Y-54689344D01*
X65615986Y-54701516D01*
X65550143Y-54739530D01*
X65489532Y-54800141D01*
X65454151Y-54861423D01*
X65434660Y-54885492D01*
X65420559Y-54898189D01*
X65374901Y-54921455D01*
X65370757Y-54922336D01*
X65350170Y-54924500D01*
X64457147Y-54924500D01*
X64453933Y-54924923D01*
X64435833Y-54925633D01*
X64422175Y-54924917D01*
X64365054Y-54902989D01*
X64332432Y-54854161D01*
X64332260Y-54853581D01*
X64329574Y-54844509D01*
X64325500Y-54816401D01*
X64325500Y-52957148D01*
X64325499Y-52957145D01*
X64323549Y-52949866D01*
X64323548Y-52949862D01*
X64303318Y-52874362D01*
X64260465Y-52800138D01*
X64199862Y-52739535D01*
X64183907Y-52730323D01*
X64120022Y-52693439D01*
X64120162Y-52693194D01*
X64115037Y-52690496D01*
X64094743Y-52677316D01*
X64060452Y-52639227D01*
X64056993Y-52632437D01*
X64053741Y-52625383D01*
X64053318Y-52624362D01*
X64050877Y-52620134D01*
X64048401Y-52615573D01*
X64043573Y-52606097D01*
X64042629Y-52605360D01*
X64038946Y-52599468D01*
X64010466Y-52550140D01*
X64010465Y-52550138D01*
X63949862Y-52489535D01*
X63875638Y-52446682D01*
X63792853Y-52424500D01*
X63792851Y-52424500D01*
X62440180Y-52424500D01*
X62409587Y-52419654D01*
X62396901Y-52415532D01*
X62347401Y-52379568D01*
X62347394Y-52379558D01*
X62344400Y-52375436D01*
X62325500Y-52317256D01*
X62325500Y-43563713D01*
X62330343Y-43533127D01*
X62334465Y-43520438D01*
X62370423Y-43470939D01*
X62371594Y-43470089D01*
X62421399Y-43451543D01*
X62429637Y-43450843D01*
X62438156Y-43450801D01*
X62438156Y-43450500D01*
X63683257Y-43450500D01*
X63683260Y-43450500D01*
X63751393Y-43440573D01*
X63856483Y-43389198D01*
X63939198Y-43306483D01*
X63990573Y-43201393D01*
X63991488Y-43195110D01*
X63994311Y-43175738D01*
X64003513Y-43146174D01*
X64009425Y-43134206D01*
X64052149Y-43090411D01*
X64056604Y-43088072D01*
X64058933Y-43086849D01*
X64104958Y-43075500D01*
X65559820Y-43075500D01*
X65590408Y-43080343D01*
G37*
%TD.AperFunction*%
%TA.AperFunction,Conductor*%
G36*
X73590408Y-23330343D02*
G01*
X73603095Y-23334466D01*
X73652595Y-23370427D01*
X73652596Y-23370428D01*
X73655591Y-23374550D01*
X73674500Y-23432740D01*
X73674500Y-36559819D01*
X73669654Y-36590412D01*
X73665532Y-36603098D01*
X73629580Y-36652589D01*
X73625459Y-36655584D01*
X73567271Y-36674500D01*
X67042853Y-36674500D01*
X66957147Y-36674500D01*
X66874362Y-36696682D01*
X66800138Y-36739535D01*
X66739535Y-36800138D01*
X66696682Y-36874361D01*
X66696682Y-36874362D01*
X66680674Y-36934108D01*
X66674500Y-36957149D01*
X66674500Y-40315074D01*
X66669653Y-40345670D01*
X66665850Y-40357373D01*
X66629885Y-40406872D01*
X66574285Y-40425743D01*
X66563731Y-40426019D01*
X66548227Y-40425207D01*
X66542854Y-40424500D01*
X66542853Y-40424500D01*
X66542852Y-40424500D01*
X65940180Y-40424500D01*
X65909587Y-40419654D01*
X65896901Y-40415532D01*
X65847401Y-40379568D01*
X65847394Y-40379558D01*
X65844400Y-40375436D01*
X65825500Y-40317256D01*
X65825500Y-33789364D01*
X68109500Y-33789364D01*
X68109500Y-34210636D01*
X68115680Y-34253051D01*
X68120134Y-34283626D01*
X68161535Y-34368313D01*
X68175174Y-34396211D01*
X68263789Y-34484826D01*
X68376375Y-34539866D01*
X68449364Y-34550500D01*
X68449367Y-34550500D01*
X69970632Y-34550500D01*
X69970636Y-34550500D01*
X70043625Y-34539866D01*
X70156211Y-34484826D01*
X70244826Y-34396211D01*
X70299866Y-34283625D01*
X70310500Y-34210636D01*
X70310500Y-33789364D01*
X70299866Y-33716375D01*
X70244826Y-33603789D01*
X70156211Y-33515174D01*
X70103719Y-33489512D01*
X70078624Y-33465233D01*
X70043625Y-33460134D01*
X70043626Y-33460134D01*
X70023123Y-33457147D01*
X70023121Y-33457146D01*
X69985276Y-33451633D01*
X69970636Y-33449500D01*
X69970634Y-33449500D01*
X68449363Y-33449500D01*
X68405568Y-33455880D01*
X68405567Y-33455879D01*
X68376375Y-33460133D01*
X68263792Y-33515171D01*
X68175171Y-33603792D01*
X68120133Y-33716374D01*
X68120133Y-33716376D01*
X68116616Y-33740511D01*
X68116617Y-33740512D01*
X68116617Y-33740513D01*
X68109500Y-33789364D01*
X65825500Y-33789364D01*
X65825500Y-33707149D01*
X65825500Y-33707148D01*
X65816752Y-33674500D01*
X65803318Y-33624362D01*
X65760465Y-33550138D01*
X65699862Y-33489535D01*
X65663723Y-33468670D01*
X65620022Y-33443439D01*
X65620162Y-33443194D01*
X65615037Y-33440496D01*
X65613577Y-33439548D01*
X65594742Y-33427315D01*
X65560452Y-33389227D01*
X65556993Y-33382437D01*
X65553741Y-33375383D01*
X65553318Y-33374362D01*
X65550877Y-33370134D01*
X65548401Y-33365573D01*
X65543573Y-33356097D01*
X65542629Y-33355360D01*
X65538946Y-33349468D01*
X65510465Y-33300138D01*
X65449864Y-33239536D01*
X65447757Y-33238319D01*
X65440448Y-33234100D01*
X65440444Y-33234096D01*
X65440444Y-33234098D01*
X65388578Y-33204152D01*
X65364507Y-33184659D01*
X65351809Y-33170556D01*
X65328543Y-33124890D01*
X65327662Y-33120744D01*
X65325500Y-33100167D01*
X65325500Y-32457149D01*
X65325500Y-32457148D01*
X65309172Y-32396211D01*
X65303318Y-32374362D01*
X65260465Y-32300138D01*
X65199862Y-32239535D01*
X65150301Y-32210921D01*
X65120022Y-32193439D01*
X65120162Y-32193194D01*
X65115037Y-32190496D01*
X65113577Y-32189548D01*
X65094742Y-32177315D01*
X65060452Y-32139227D01*
X65056993Y-32132437D01*
X65053741Y-32125383D01*
X65053318Y-32124362D01*
X65050877Y-32120134D01*
X65048401Y-32115573D01*
X65043573Y-32106097D01*
X65042629Y-32105360D01*
X65038946Y-32099468D01*
X65010466Y-32050140D01*
X65010465Y-32050138D01*
X64949862Y-31989535D01*
X64875638Y-31946682D01*
X64792853Y-31924500D01*
X64792851Y-31924500D01*
X63207149Y-31924500D01*
X63207147Y-31924500D01*
X63124366Y-31946681D01*
X63124362Y-31946682D01*
X63050138Y-31989535D01*
X62989534Y-32050139D01*
X62944179Y-32128696D01*
X62944034Y-32128612D01*
X62940954Y-32134257D01*
X62927302Y-32155272D01*
X62889231Y-32189548D01*
X62883493Y-32192472D01*
X62878835Y-32194429D01*
X62878925Y-32194629D01*
X62874357Y-32196683D01*
X62870064Y-32199162D01*
X62865514Y-32201633D01*
X62856020Y-32206470D01*
X62855221Y-32207485D01*
X62849698Y-32210921D01*
X62800139Y-32239534D01*
X62739535Y-32300138D01*
X62696682Y-32374361D01*
X62674500Y-32457149D01*
X62674500Y-33094895D01*
X62669654Y-33125490D01*
X62663789Y-33143539D01*
X62635887Y-33186508D01*
X62632738Y-33189344D01*
X62615986Y-33201516D01*
X62550143Y-33239530D01*
X62489534Y-33300139D01*
X62444179Y-33378696D01*
X62444034Y-33378612D01*
X62440954Y-33384257D01*
X62427302Y-33405272D01*
X62389231Y-33439548D01*
X62383493Y-33442472D01*
X62378835Y-33444429D01*
X62378925Y-33444629D01*
X62374357Y-33446683D01*
X62370064Y-33449162D01*
X62365514Y-33451633D01*
X62356020Y-33456470D01*
X62355221Y-33457485D01*
X62349698Y-33460921D01*
X62300139Y-33489534D01*
X62239532Y-33550141D01*
X62204151Y-33611423D01*
X62184660Y-33635492D01*
X62170559Y-33648189D01*
X62124901Y-33671455D01*
X62120757Y-33672336D01*
X62100170Y-33674500D01*
X61042853Y-33674500D01*
X60957147Y-33674500D01*
X60874362Y-33696682D01*
X60800138Y-33739535D01*
X60739535Y-33800138D01*
X60696682Y-33874361D01*
X60674500Y-33957149D01*
X60674500Y-39059819D01*
X60669654Y-39090412D01*
X60665532Y-39103098D01*
X60629580Y-39152589D01*
X60625459Y-39155584D01*
X60567271Y-39174500D01*
X59939002Y-39174500D01*
X59908408Y-39169654D01*
X59885182Y-39162107D01*
X59845773Y-39137957D01*
X59807317Y-39099501D01*
X59807314Y-39099499D01*
X59807282Y-39099480D01*
X59750477Y-39066683D01*
X59729442Y-39043322D01*
X59643799Y-39020375D01*
X59643798Y-39020374D01*
X59586766Y-39005093D01*
X59565892Y-38999500D01*
X59565891Y-38999500D01*
X59434109Y-38999500D01*
X59434108Y-38999500D01*
X59395154Y-39009937D01*
X59356199Y-39020375D01*
X59356198Y-39020374D01*
X59306807Y-39033609D01*
X59306805Y-39033610D01*
X59192697Y-39099491D01*
X59192693Y-39099493D01*
X59192684Y-39099500D01*
X59192682Y-39099501D01*
X59157767Y-39134416D01*
X59132713Y-39152620D01*
X59120861Y-39158659D01*
X59110951Y-39163708D01*
X59066005Y-39174500D01*
X58792853Y-39174500D01*
X58707147Y-39174500D01*
X58639257Y-39192691D01*
X58624362Y-39196682D01*
X58550138Y-39239535D01*
X58489535Y-39300138D01*
X58446682Y-39374361D01*
X58445290Y-39379558D01*
X58427305Y-39446682D01*
X58424500Y-39457149D01*
X58424500Y-40034819D01*
X58419654Y-40065412D01*
X58415532Y-40078098D01*
X58379580Y-40127589D01*
X58375459Y-40130584D01*
X58317271Y-40149500D01*
X57545718Y-40149500D01*
X57515306Y-40152352D01*
X57515291Y-40152356D01*
X57515290Y-40152356D01*
X57387114Y-40197207D01*
X57277862Y-40277838D01*
X57277838Y-40277862D01*
X57197207Y-40387114D01*
X57152356Y-40515290D01*
X57152356Y-40515291D01*
X57152352Y-40515306D01*
X57149500Y-40545717D01*
X57149500Y-41154281D01*
X57152352Y-41184692D01*
X57152356Y-41184707D01*
X57152356Y-41184708D01*
X57197207Y-41312884D01*
X57277910Y-41422233D01*
X57278011Y-41422332D01*
X57279738Y-41423544D01*
X57311089Y-41446682D01*
X57377956Y-41496032D01*
X57381149Y-41498388D01*
X57383967Y-41500813D01*
X57383972Y-41500816D01*
X57386650Y-41502642D01*
X57387910Y-41503070D01*
X57515301Y-41547646D01*
X57538902Y-41549859D01*
X57542805Y-41550500D01*
X58754273Y-41550500D01*
X58778552Y-41550500D01*
X58779096Y-41550222D01*
X58778814Y-41548931D01*
X58784687Y-41547647D01*
X58784699Y-41547646D01*
X58912882Y-41502793D01*
X58922049Y-41496028D01*
X58984601Y-41449862D01*
X59022150Y-41422150D01*
X59102793Y-41312882D01*
X59147646Y-41184699D01*
X59147647Y-41184687D01*
X59148931Y-41178814D01*
X59150500Y-41179156D01*
X59150500Y-40542802D01*
X59149858Y-40538890D01*
X59148079Y-40519921D01*
X59147945Y-40517064D01*
X59147646Y-40515305D01*
X59147646Y-40515301D01*
X59102793Y-40387118D01*
X59102792Y-40387116D01*
X59102783Y-40387104D01*
X59100567Y-40383486D01*
X59101131Y-40383140D01*
X59089888Y-40361471D01*
X59080577Y-40333527D01*
X59075500Y-40302232D01*
X59075500Y-40019995D01*
X59080347Y-39989398D01*
X59083868Y-39978563D01*
X59119834Y-39929065D01*
X59178021Y-39910160D01*
X59182892Y-39910160D01*
X59232390Y-39923423D01*
X59306814Y-39966392D01*
X59434108Y-40000500D01*
X59434110Y-40000500D01*
X59565890Y-40000500D01*
X59565892Y-40000500D01*
X59693186Y-39966392D01*
X59693188Y-39966390D01*
X59693190Y-39966390D01*
X59794611Y-39907834D01*
X59804751Y-39901980D01*
X59806956Y-39900793D01*
X59807207Y-39900606D01*
X59807312Y-39900500D01*
X59807314Y-39900500D01*
X59825500Y-39882314D01*
X59842238Y-39865576D01*
X59867284Y-39847380D01*
X59889056Y-39836287D01*
X59933995Y-39825500D01*
X61042854Y-39825500D01*
X61046059Y-39825078D01*
X61064156Y-39824366D01*
X61068321Y-39824584D01*
X61077815Y-39825081D01*
X61134938Y-39847005D01*
X61167561Y-39895820D01*
X61170421Y-39905475D01*
X61174500Y-39933598D01*
X61174500Y-42309819D01*
X61169654Y-42340412D01*
X61165532Y-42353098D01*
X61129580Y-42402589D01*
X61125459Y-42405584D01*
X61067271Y-42424500D01*
X58707145Y-42424500D01*
X58632696Y-42444447D01*
X58620005Y-42446972D01*
X58607252Y-42448652D01*
X58594322Y-42449500D01*
X57545718Y-42449500D01*
X57515306Y-42452352D01*
X57515291Y-42452356D01*
X57515290Y-42452356D01*
X57387114Y-42497207D01*
X57277862Y-42577838D01*
X57277838Y-42577862D01*
X57197207Y-42687114D01*
X57152356Y-42815290D01*
X57152356Y-42815291D01*
X57152352Y-42815306D01*
X57149500Y-42845717D01*
X57149500Y-43454281D01*
X57152352Y-43484692D01*
X57152356Y-43484707D01*
X57152356Y-43484708D01*
X57197207Y-43612884D01*
X57277910Y-43722233D01*
X57278011Y-43722332D01*
X57279738Y-43723544D01*
X57381149Y-43798388D01*
X57383967Y-43800813D01*
X57383972Y-43800816D01*
X57386650Y-43802642D01*
X57387910Y-43803070D01*
X57515301Y-43847646D01*
X57538902Y-43849859D01*
X57542805Y-43850500D01*
X58754273Y-43850500D01*
X58778552Y-43850500D01*
X58779096Y-43850222D01*
X58778814Y-43848931D01*
X58784687Y-43847647D01*
X58784699Y-43847646D01*
X58912882Y-43802793D01*
X59022150Y-43722150D01*
X59102793Y-43612882D01*
X59147646Y-43484699D01*
X59147647Y-43484687D01*
X59148931Y-43478814D01*
X59150500Y-43479156D01*
X59150500Y-43190180D01*
X59155343Y-43159594D01*
X59156682Y-43155472D01*
X59159465Y-43146905D01*
X59195423Y-43097406D01*
X59196022Y-43096971D01*
X59199563Y-43094400D01*
X59257743Y-43075500D01*
X61542854Y-43075500D01*
X61546059Y-43075078D01*
X61564156Y-43074366D01*
X61568321Y-43074584D01*
X61577815Y-43075081D01*
X61634938Y-43097005D01*
X61667561Y-43145820D01*
X61668152Y-43147813D01*
X61670421Y-43155475D01*
X61674500Y-43183598D01*
X61674500Y-52459485D01*
X61669654Y-52490079D01*
X61666274Y-52500481D01*
X61630309Y-52549981D01*
X61572118Y-52568887D01*
X61520392Y-52554298D01*
X61515490Y-52551294D01*
X61497215Y-52536887D01*
X61449864Y-52489537D01*
X61449862Y-52489535D01*
X61375638Y-52446682D01*
X61292853Y-52424500D01*
X61292851Y-52424500D01*
X50440180Y-52424500D01*
X50409587Y-52419654D01*
X50396901Y-52415532D01*
X50347401Y-52379568D01*
X50347394Y-52379558D01*
X50344400Y-52375436D01*
X50325500Y-52317256D01*
X50325500Y-48957149D01*
X50325500Y-48957148D01*
X50318917Y-48932581D01*
X50317154Y-48925999D01*
X50317154Y-48925998D01*
X50303660Y-48875639D01*
X50303318Y-48874362D01*
X50260465Y-48800138D01*
X50199862Y-48739535D01*
X50183907Y-48730323D01*
X50120022Y-48693439D01*
X50120162Y-48693194D01*
X50115037Y-48690496D01*
X50094743Y-48677316D01*
X50060452Y-48639227D01*
X50056993Y-48632437D01*
X50053741Y-48625383D01*
X50053318Y-48624362D01*
X50050877Y-48620134D01*
X50048401Y-48615573D01*
X50043573Y-48606097D01*
X50042629Y-48605360D01*
X50038946Y-48599468D01*
X50010466Y-48550140D01*
X50010465Y-48550138D01*
X49949862Y-48489535D01*
X49875638Y-48446682D01*
X49792853Y-48424500D01*
X49792851Y-48424500D01*
X49690180Y-48424500D01*
X49659587Y-48419654D01*
X49646901Y-48415532D01*
X49597401Y-48379568D01*
X49597394Y-48379558D01*
X49594400Y-48375436D01*
X49575500Y-48317256D01*
X49575500Y-45940180D01*
X49580343Y-45909594D01*
X49582145Y-45904048D01*
X49584465Y-45896905D01*
X49620423Y-45847406D01*
X49621022Y-45846971D01*
X49624563Y-45844400D01*
X49682743Y-45825500D01*
X52310998Y-45825500D01*
X52341589Y-45830344D01*
X52364815Y-45837891D01*
X52404226Y-45862042D01*
X52442681Y-45900497D01*
X52442684Y-45900499D01*
X52442690Y-45900503D01*
X52442716Y-45900518D01*
X52500040Y-45933615D01*
X52521633Y-45957596D01*
X52555944Y-45966174D01*
X52557548Y-45966588D01*
X52684108Y-46000500D01*
X52684110Y-46000500D01*
X52815890Y-46000500D01*
X52815892Y-46000500D01*
X52943186Y-45966392D01*
X52943188Y-45966390D01*
X52943190Y-45966390D01*
X53051179Y-45904042D01*
X53054067Y-45902639D01*
X53054853Y-45902122D01*
X53059862Y-45899028D01*
X53061161Y-45898277D01*
X53066519Y-45891294D01*
X53150500Y-45807314D01*
X53216392Y-45693186D01*
X53250500Y-45565892D01*
X53250500Y-45434108D01*
X53216392Y-45306814D01*
X53216390Y-45306811D01*
X53216390Y-45306809D01*
X53216388Y-45306806D01*
X53216298Y-45306469D01*
X53214812Y-45304076D01*
X53151971Y-45195233D01*
X53150794Y-45193045D01*
X53150608Y-45192795D01*
X53150501Y-45192688D01*
X53150500Y-45192686D01*
X53057314Y-45099500D01*
X53057311Y-45099498D01*
X53057309Y-45099496D01*
X53001468Y-45067256D01*
X53000476Y-45066683D01*
X52979442Y-45043322D01*
X52893799Y-45020375D01*
X52893798Y-45020374D01*
X52836766Y-45005093D01*
X52815892Y-44999500D01*
X52815891Y-44999500D01*
X52684109Y-44999500D01*
X52684108Y-44999500D01*
X52645154Y-45009937D01*
X52606199Y-45020375D01*
X52606198Y-45020374D01*
X52556807Y-45033609D01*
X52556805Y-45033610D01*
X52442697Y-45099491D01*
X52442693Y-45099493D01*
X52442684Y-45099500D01*
X52442682Y-45099501D01*
X52407767Y-45134416D01*
X52382713Y-45152620D01*
X52370861Y-45158659D01*
X52360951Y-45163708D01*
X52316005Y-45174500D01*
X49690180Y-45174500D01*
X49659587Y-45169654D01*
X49646901Y-45165532D01*
X49597401Y-45129568D01*
X49597394Y-45129558D01*
X49594400Y-45125436D01*
X49575500Y-45067256D01*
X49575500Y-39957148D01*
X49575499Y-39957145D01*
X49573549Y-39949866D01*
X49573548Y-39949862D01*
X49553318Y-39874362D01*
X49510465Y-39800138D01*
X49449862Y-39739535D01*
X49433907Y-39730323D01*
X49370022Y-39693439D01*
X49370162Y-39693194D01*
X49365037Y-39690496D01*
X49344743Y-39677316D01*
X49310452Y-39639227D01*
X49306993Y-39632437D01*
X49303741Y-39625383D01*
X49303318Y-39624362D01*
X49300877Y-39620134D01*
X49298401Y-39615573D01*
X49293573Y-39606097D01*
X49292629Y-39605360D01*
X49288946Y-39599468D01*
X49260466Y-39550140D01*
X49260465Y-39550138D01*
X49199862Y-39489535D01*
X49125638Y-39446682D01*
X49042853Y-39424500D01*
X49042851Y-39424500D01*
X48190180Y-39424500D01*
X48159587Y-39419654D01*
X48146901Y-39415532D01*
X48097401Y-39379568D01*
X48097394Y-39379558D01*
X48094400Y-39375436D01*
X48075500Y-39317256D01*
X48075500Y-34207148D01*
X48075500Y-34207147D01*
X48053318Y-34124362D01*
X48020275Y-34067130D01*
X48010387Y-34043256D01*
X48005662Y-34025621D01*
X48005662Y-33974379D01*
X48010388Y-33956739D01*
X48020276Y-33932866D01*
X48053318Y-33875638D01*
X48075500Y-33792853D01*
X48075500Y-24905102D01*
X48080344Y-24874513D01*
X48086209Y-24856460D01*
X48114127Y-24813475D01*
X48117276Y-24810639D01*
X48134005Y-24798487D01*
X48199862Y-24760465D01*
X48260465Y-24699862D01*
X48303318Y-24625638D01*
X48325500Y-24542853D01*
X48325500Y-24440180D01*
X48330343Y-24409594D01*
X48334465Y-24396905D01*
X48370423Y-24347406D01*
X48371022Y-24346971D01*
X48374563Y-24344400D01*
X48432743Y-24325500D01*
X50315076Y-24325500D01*
X50345664Y-24330343D01*
X50357366Y-24334146D01*
X50406866Y-24370107D01*
X50425742Y-24425714D01*
X50426018Y-24436272D01*
X50425207Y-24451766D01*
X50424500Y-24457142D01*
X50424500Y-36560997D01*
X50419654Y-36591590D01*
X50412107Y-36614817D01*
X50387957Y-36654228D01*
X50349498Y-36692686D01*
X50349493Y-36692693D01*
X50349491Y-36692697D01*
X50283608Y-36806809D01*
X50283330Y-36807545D01*
X50282784Y-36809886D01*
X50249500Y-36934108D01*
X50249500Y-37065892D01*
X50265509Y-37125638D01*
X50283609Y-37193190D01*
X50283610Y-37193192D01*
X50283611Y-37193195D01*
X50349494Y-37307307D01*
X50349496Y-37307309D01*
X50349498Y-37307311D01*
X50349500Y-37307314D01*
X50442686Y-37400500D01*
X50442688Y-37400501D01*
X50442795Y-37400608D01*
X50443046Y-37400794D01*
X50445239Y-37401975D01*
X50458436Y-37409594D01*
X50500040Y-37433614D01*
X50521634Y-37457596D01*
X50555944Y-37466174D01*
X50557548Y-37466588D01*
X50684108Y-37500500D01*
X50684110Y-37500500D01*
X50815890Y-37500500D01*
X50815892Y-37500500D01*
X50943186Y-37466392D01*
X50943188Y-37466390D01*
X50943190Y-37466390D01*
X51051179Y-37404042D01*
X51054067Y-37402639D01*
X51054853Y-37402122D01*
X51059862Y-37399028D01*
X51061161Y-37398277D01*
X51066519Y-37391294D01*
X51150500Y-37307314D01*
X51152808Y-37303317D01*
X51216390Y-37193190D01*
X51216390Y-37193188D01*
X51216392Y-37193186D01*
X51250500Y-37065892D01*
X51250500Y-36934108D01*
X51216392Y-36806814D01*
X51216390Y-36806811D01*
X51216390Y-36806809D01*
X51216389Y-36806808D01*
X51216299Y-36806470D01*
X51214817Y-36804085D01*
X51150503Y-36692690D01*
X51150499Y-36692684D01*
X51150497Y-36692681D01*
X51115582Y-36657766D01*
X51097376Y-36632708D01*
X51086288Y-36610946D01*
X51075500Y-36566004D01*
X51075500Y-29207147D01*
X52174500Y-29207147D01*
X52174500Y-41542853D01*
X52196682Y-41625638D01*
X52239535Y-41699862D01*
X52300138Y-41760465D01*
X52300140Y-41760466D01*
X52379983Y-41806564D01*
X52379840Y-41806811D01*
X52384935Y-41809489D01*
X52405248Y-41822678D01*
X52439545Y-41860765D01*
X52442993Y-41867532D01*
X52446245Y-41874584D01*
X52446682Y-41875640D01*
X52449158Y-41879928D01*
X52451628Y-41884475D01*
X52456470Y-41893977D01*
X52457503Y-41894793D01*
X52460863Y-41900201D01*
X52489535Y-41949862D01*
X52550138Y-42010465D01*
X52624362Y-42053318D01*
X52707147Y-42075500D01*
X52792853Y-42075500D01*
X52809820Y-42075500D01*
X52840408Y-42080343D01*
X52853095Y-42084466D01*
X52902595Y-42120427D01*
X52902596Y-42120428D01*
X52905591Y-42124550D01*
X52924500Y-42182740D01*
X52924500Y-42601879D01*
X52919655Y-42632472D01*
X52910554Y-42660482D01*
X52900326Y-42680371D01*
X52900674Y-42680555D01*
X52897207Y-42687114D01*
X52852356Y-42815290D01*
X52852356Y-42815291D01*
X52852352Y-42815306D01*
X52849500Y-42845717D01*
X52849500Y-43454281D01*
X52852352Y-43484692D01*
X52852356Y-43484707D01*
X52852356Y-43484708D01*
X52897207Y-43612884D01*
X52977910Y-43722233D01*
X52978011Y-43722332D01*
X52979738Y-43723544D01*
X53081149Y-43798388D01*
X53083967Y-43800813D01*
X53083972Y-43800816D01*
X53086650Y-43802642D01*
X53087910Y-43803070D01*
X53215301Y-43847646D01*
X53238902Y-43849859D01*
X53242805Y-43850500D01*
X54454273Y-43850500D01*
X54478552Y-43850500D01*
X54479096Y-43850222D01*
X54478814Y-43848931D01*
X54484687Y-43847647D01*
X54484699Y-43847646D01*
X54612882Y-43802793D01*
X54722150Y-43722150D01*
X54802793Y-43612882D01*
X54847646Y-43484699D01*
X54847647Y-43484687D01*
X54848931Y-43478814D01*
X54850500Y-43479156D01*
X54850500Y-42842802D01*
X54849858Y-42838890D01*
X54848079Y-42819921D01*
X54847945Y-42817064D01*
X54847646Y-42815305D01*
X54847646Y-42815301D01*
X54802793Y-42687118D01*
X54794845Y-42676350D01*
X54794845Y-42676348D01*
X54723551Y-42579748D01*
X54722332Y-42578011D01*
X54722233Y-42577910D01*
X54612884Y-42497207D01*
X54484707Y-42452356D01*
X54484692Y-42452352D01*
X54454281Y-42449500D01*
X54454274Y-42449500D01*
X54454266Y-42449500D01*
X53690180Y-42449500D01*
X53659587Y-42444654D01*
X53646901Y-42440532D01*
X53597401Y-42404568D01*
X53597394Y-42404558D01*
X53594400Y-42400436D01*
X53575500Y-42342256D01*
X53575500Y-41707148D01*
X53575500Y-41707147D01*
X53570976Y-41690265D01*
X53567739Y-41659467D01*
X53568384Y-41647173D01*
X53590310Y-41590055D01*
X53639135Y-41557434D01*
X53648792Y-41554573D01*
X53676899Y-41550500D01*
X54478552Y-41550500D01*
X54479096Y-41550222D01*
X54478814Y-41548931D01*
X54484687Y-41547647D01*
X54484699Y-41547646D01*
X54612882Y-41502793D01*
X54622049Y-41496028D01*
X54684601Y-41449862D01*
X54722150Y-41422150D01*
X54802793Y-41312882D01*
X54847646Y-41184699D01*
X54847647Y-41184687D01*
X54848931Y-41178814D01*
X54850500Y-41179156D01*
X54850500Y-40542802D01*
X54849858Y-40538890D01*
X54848079Y-40519921D01*
X54847945Y-40517062D01*
X54847645Y-40515297D01*
X54833812Y-40475764D01*
X54829656Y-40459655D01*
X54826897Y-40443415D01*
X54825500Y-40426841D01*
X54825500Y-31690180D01*
X54830343Y-31659594D01*
X54834465Y-31646905D01*
X54870423Y-31597406D01*
X54871022Y-31596971D01*
X54874563Y-31594400D01*
X54932743Y-31575500D01*
X68014728Y-31575500D01*
X68045316Y-31580343D01*
X68056153Y-31583865D01*
X68105653Y-31619826D01*
X68124563Y-31678016D01*
X68124563Y-31687092D01*
X68120142Y-31716346D01*
X68120135Y-31716368D01*
X68119135Y-31722984D01*
X68119100Y-31723471D01*
X68109500Y-31789364D01*
X68109500Y-32210636D01*
X68118007Y-32269027D01*
X68118007Y-32269028D01*
X68118006Y-32269028D01*
X68120133Y-32283621D01*
X68120134Y-32283627D01*
X68142237Y-32328840D01*
X68142238Y-32328840D01*
X68175174Y-32396211D01*
X68263789Y-32484826D01*
X68376375Y-32539866D01*
X68449364Y-32550500D01*
X68449367Y-32550500D01*
X69970632Y-32550500D01*
X69970636Y-32550500D01*
X70043625Y-32539866D01*
X70156211Y-32484826D01*
X70244826Y-32396211D01*
X70299866Y-32283625D01*
X70310500Y-32210636D01*
X70310500Y-32171155D01*
X70859500Y-32171155D01*
X70859500Y-32328844D01*
X70872908Y-32396249D01*
X70888361Y-32473933D01*
X70888361Y-32473937D01*
X70890262Y-32483499D01*
X70950600Y-32629169D01*
X70950603Y-32629174D01*
X70950609Y-32629185D01*
X71003312Y-32708059D01*
X71038211Y-32760289D01*
X71038214Y-32760292D01*
X71038218Y-32760297D01*
X71149707Y-32871785D01*
X71149711Y-32871789D01*
X71227876Y-32924017D01*
X71280814Y-32959390D01*
X71280825Y-32959396D01*
X71334638Y-32981685D01*
X71426503Y-33019737D01*
X71581158Y-33050500D01*
X71581159Y-33050500D01*
X71738841Y-33050500D01*
X71738842Y-33050500D01*
X71893497Y-33019737D01*
X72039179Y-32959394D01*
X72170289Y-32871789D01*
X72281789Y-32760289D01*
X72369394Y-32629179D01*
X72429737Y-32483497D01*
X72460500Y-32328842D01*
X72460500Y-32171158D01*
X72429737Y-32016503D01*
X72400816Y-31946682D01*
X72391628Y-31924500D01*
X72369398Y-31870829D01*
X72369385Y-31870806D01*
X72314966Y-31789364D01*
X72281789Y-31739711D01*
X72229170Y-31687092D01*
X72170291Y-31628212D01*
X72091402Y-31575500D01*
X72039185Y-31540609D01*
X72039174Y-31540603D01*
X72039169Y-31540600D01*
X71893498Y-31480263D01*
X71738844Y-31449500D01*
X71738842Y-31449500D01*
X71581158Y-31449500D01*
X71581155Y-31449500D01*
X71581154Y-31449500D01*
X71516680Y-31462325D01*
X71436065Y-31478361D01*
X71436058Y-31478361D01*
X71426499Y-31480262D01*
X71280829Y-31540600D01*
X71280806Y-31540613D01*
X71149711Y-31628210D01*
X71038210Y-31739711D01*
X70950613Y-31870806D01*
X70950600Y-31870829D01*
X70890266Y-32016490D01*
X70890264Y-32016497D01*
X70890263Y-32016501D01*
X70890263Y-32016503D01*
X70859500Y-32171155D01*
X70310500Y-32171155D01*
X70310500Y-31789364D01*
X70299866Y-31716375D01*
X70244826Y-31603789D01*
X70235437Y-31594400D01*
X70222122Y-31581084D01*
X70203919Y-31556029D01*
X70197864Y-31544145D01*
X70188293Y-31483723D01*
X70189091Y-31478683D01*
X70216864Y-31424171D01*
X70244826Y-31396211D01*
X70299866Y-31283625D01*
X70310500Y-31210636D01*
X70310500Y-30789364D01*
X70299866Y-30716375D01*
X70244826Y-30603789D01*
X70244819Y-30603782D01*
X70222122Y-30581084D01*
X70203919Y-30556029D01*
X70197864Y-30544145D01*
X70188293Y-30483723D01*
X70189091Y-30478683D01*
X70216864Y-30424171D01*
X70244826Y-30396211D01*
X70299866Y-30283625D01*
X70310500Y-30210636D01*
X70310500Y-29789364D01*
X70299866Y-29716375D01*
X70244826Y-29603789D01*
X70235437Y-29594400D01*
X70222122Y-29581084D01*
X70203919Y-29556029D01*
X70197864Y-29544145D01*
X70188293Y-29483723D01*
X70189091Y-29478683D01*
X70216864Y-29424171D01*
X70244826Y-29396211D01*
X70299866Y-29283625D01*
X70310500Y-29210636D01*
X70310500Y-28789364D01*
X70299866Y-28716375D01*
X70244826Y-28603789D01*
X70244819Y-28603782D01*
X70222122Y-28581084D01*
X70203919Y-28556029D01*
X70197864Y-28544145D01*
X70188293Y-28483723D01*
X70189091Y-28478683D01*
X70216864Y-28424171D01*
X70244826Y-28396211D01*
X70299866Y-28283625D01*
X70310500Y-28210636D01*
X70310500Y-27789364D01*
X70299866Y-27716375D01*
X70277759Y-27671155D01*
X70859500Y-27671155D01*
X70859500Y-27828844D01*
X70888123Y-27972740D01*
X70888361Y-27973933D01*
X70888361Y-27973937D01*
X70890262Y-27983499D01*
X70950600Y-28129169D01*
X70950603Y-28129174D01*
X70950609Y-28129185D01*
X70995122Y-28195802D01*
X71038211Y-28260289D01*
X71038214Y-28260292D01*
X71038218Y-28260297D01*
X71103422Y-28325500D01*
X71149711Y-28371789D01*
X71227876Y-28424017D01*
X71280814Y-28459390D01*
X71280825Y-28459396D01*
X71334638Y-28481685D01*
X71426503Y-28519737D01*
X71581158Y-28550500D01*
X71581159Y-28550500D01*
X71738841Y-28550500D01*
X71738842Y-28550500D01*
X71893497Y-28519737D01*
X72039179Y-28459394D01*
X72170289Y-28371789D01*
X72281789Y-28260289D01*
X72369394Y-28129179D01*
X72429737Y-27983497D01*
X72460500Y-27828842D01*
X72460500Y-27671158D01*
X72429737Y-27516503D01*
X72379910Y-27396209D01*
X72371389Y-27375637D01*
X72369398Y-27370829D01*
X72369396Y-27370825D01*
X72369390Y-27370814D01*
X72311131Y-27283625D01*
X72311130Y-27283623D01*
X72281791Y-27239713D01*
X72170291Y-27128212D01*
X72091402Y-27075500D01*
X72039185Y-27040609D01*
X72039174Y-27040603D01*
X72039169Y-27040600D01*
X71893498Y-26980263D01*
X71738844Y-26949500D01*
X71738842Y-26949500D01*
X71581158Y-26949500D01*
X71581155Y-26949500D01*
X71581154Y-26949500D01*
X71516680Y-26962325D01*
X71436065Y-26978361D01*
X71436058Y-26978361D01*
X71426499Y-26980262D01*
X71280829Y-27040600D01*
X71280806Y-27040613D01*
X71149711Y-27128210D01*
X71149707Y-27128213D01*
X71149707Y-27128214D01*
X71038214Y-27239707D01*
X71038212Y-27239710D01*
X70950613Y-27370806D01*
X70950600Y-27370829D01*
X70890264Y-27516496D01*
X70890264Y-27516497D01*
X70890263Y-27516499D01*
X70890263Y-27516501D01*
X70890263Y-27516503D01*
X70859500Y-27671155D01*
X70277759Y-27671155D01*
X70244826Y-27603789D01*
X70209445Y-27568408D01*
X70203325Y-27558425D01*
X70200363Y-27546099D01*
X70195744Y-27537960D01*
X70194293Y-27538505D01*
X70192825Y-27534595D01*
X70192737Y-27532663D01*
X70191731Y-27530889D01*
X70190981Y-27527915D01*
X70192506Y-27527530D01*
X70191723Y-27510143D01*
X70189030Y-27498933D01*
X70190783Y-27494697D01*
X70188445Y-27483538D01*
X70189830Y-27480449D01*
X70188836Y-27480292D01*
X70189090Y-27478688D01*
X70190208Y-27476493D01*
X70190072Y-27473471D01*
X70190077Y-27473453D01*
X70191187Y-27469432D01*
X70193482Y-27470065D01*
X70201927Y-27453490D01*
X70213494Y-27427714D01*
X70215706Y-27426444D01*
X70216866Y-27424170D01*
X70222123Y-27418913D01*
X70244826Y-27396211D01*
X70299866Y-27283625D01*
X70310500Y-27210636D01*
X70310500Y-26789364D01*
X70299866Y-26716375D01*
X70244826Y-26603789D01*
X70236537Y-26595500D01*
X70222122Y-26581084D01*
X70203919Y-26556029D01*
X70197864Y-26544145D01*
X70188293Y-26483723D01*
X70189091Y-26478683D01*
X70216864Y-26424171D01*
X70244826Y-26396211D01*
X70299866Y-26283625D01*
X70310500Y-26210636D01*
X70310500Y-25789364D01*
X70299866Y-25716375D01*
X70244826Y-25603789D01*
X70156211Y-25515174D01*
X70156209Y-25515173D01*
X70156208Y-25515172D01*
X70156206Y-25515171D01*
X70103721Y-25489512D01*
X70078625Y-25465233D01*
X70025378Y-25457474D01*
X70025378Y-25457475D01*
X69998006Y-25453487D01*
X69970636Y-25449500D01*
X69970635Y-25449500D01*
X68449363Y-25449500D01*
X68405568Y-25455880D01*
X68405567Y-25455879D01*
X68376375Y-25460133D01*
X68263792Y-25515171D01*
X68175172Y-25603791D01*
X68120134Y-25716372D01*
X68119377Y-25719644D01*
X68119100Y-25723471D01*
X68109500Y-25789365D01*
X68109500Y-26210639D01*
X68115878Y-26254421D01*
X68115640Y-26255810D01*
X68123140Y-26308824D01*
X68112570Y-26369090D01*
X68068608Y-26411627D01*
X68062866Y-26414435D01*
X68019374Y-26424500D01*
X67690180Y-26424500D01*
X67659587Y-26419654D01*
X67646901Y-26415532D01*
X67597401Y-26379568D01*
X67597394Y-26379558D01*
X67594400Y-26375436D01*
X67575500Y-26317256D01*
X67575500Y-25439001D01*
X67580345Y-25408410D01*
X67587892Y-25385181D01*
X67612043Y-25345770D01*
X67650500Y-25307314D01*
X67650501Y-25307311D01*
X67650503Y-25307310D01*
X67716390Y-25193190D01*
X67716390Y-25193188D01*
X67716392Y-25193186D01*
X67750500Y-25065892D01*
X67750500Y-24934108D01*
X67716392Y-24806814D01*
X67716390Y-24806811D01*
X67716390Y-24806809D01*
X67716388Y-24806805D01*
X67716298Y-24806469D01*
X67714812Y-24804076D01*
X67651971Y-24695233D01*
X67650794Y-24693045D01*
X67650608Y-24692795D01*
X67650501Y-24692688D01*
X67650500Y-24692686D01*
X67557314Y-24599500D01*
X67557311Y-24599498D01*
X67557309Y-24599496D01*
X67553668Y-24597394D01*
X67500476Y-24566683D01*
X67479442Y-24543322D01*
X67393799Y-24520375D01*
X67393798Y-24520374D01*
X67336766Y-24505093D01*
X67315892Y-24499500D01*
X67315891Y-24499500D01*
X67184109Y-24499500D01*
X67184108Y-24499500D01*
X67145154Y-24509937D01*
X67106199Y-24520375D01*
X67106198Y-24520374D01*
X67056807Y-24533609D01*
X67056805Y-24533610D01*
X66942694Y-24599492D01*
X66849492Y-24692694D01*
X66783610Y-24806805D01*
X66783608Y-24806809D01*
X66764538Y-24877975D01*
X66764539Y-24877976D01*
X66749500Y-24934106D01*
X66749500Y-24934108D01*
X66749500Y-25065892D01*
X66779579Y-25178151D01*
X66779580Y-25178153D01*
X66783609Y-25193191D01*
X66783610Y-25193193D01*
X66849495Y-25307309D01*
X66884418Y-25342233D01*
X66902623Y-25367290D01*
X66913709Y-25389047D01*
X66924500Y-25433993D01*
X66924500Y-26707147D01*
X66924500Y-26792853D01*
X66946682Y-26875638D01*
X66989535Y-26949862D01*
X67050138Y-27010465D01*
X67124362Y-27053318D01*
X67207147Y-27075500D01*
X67994820Y-27075500D01*
X68025408Y-27080343D01*
X68038095Y-27084466D01*
X68087595Y-27120427D01*
X68087596Y-27120428D01*
X68090591Y-27124550D01*
X68109500Y-27182740D01*
X68109500Y-27210636D01*
X68113736Y-27239711D01*
X68120134Y-27283626D01*
X68165116Y-27375637D01*
X68175173Y-27396209D01*
X68175174Y-27396211D01*
X68197875Y-27418913D01*
X68216078Y-27443967D01*
X68222133Y-27455850D01*
X68231705Y-27516281D01*
X68231704Y-27516289D01*
X68230907Y-27521319D01*
X68203133Y-27575827D01*
X68175179Y-27603782D01*
X68175180Y-27603783D01*
X68175173Y-27603789D01*
X68175172Y-27603790D01*
X68120134Y-27716372D01*
X68119377Y-27719644D01*
X68119100Y-27723471D01*
X68109500Y-27789365D01*
X68109500Y-28210634D01*
X68116734Y-28260287D01*
X68120134Y-28283627D01*
X68129761Y-28303318D01*
X68175173Y-28396210D01*
X68175175Y-28396212D01*
X68197875Y-28418913D01*
X68216078Y-28443967D01*
X68222133Y-28455850D01*
X68231705Y-28516281D01*
X68231704Y-28516289D01*
X68230907Y-28521319D01*
X68203133Y-28575827D01*
X68175179Y-28603782D01*
X68175180Y-28603783D01*
X68175173Y-28603789D01*
X68175172Y-28603790D01*
X68120134Y-28716371D01*
X68113044Y-28765035D01*
X68109501Y-28789364D01*
X68109500Y-28789368D01*
X68109500Y-28809819D01*
X68104654Y-28840412D01*
X68100532Y-28853098D01*
X68064580Y-28902589D01*
X68060459Y-28905584D01*
X68002271Y-28924500D01*
X52542853Y-28924500D01*
X52457147Y-28924500D01*
X52374362Y-28946682D01*
X52300138Y-28989535D01*
X52239535Y-29050138D01*
X52196682Y-29124362D01*
X52174500Y-29207147D01*
X51075500Y-29207147D01*
X51075500Y-24940180D01*
X51080343Y-24909594D01*
X51084465Y-24896905D01*
X51120423Y-24847406D01*
X51121022Y-24846971D01*
X51124563Y-24844400D01*
X51182743Y-24825500D01*
X61292851Y-24825500D01*
X61292853Y-24825500D01*
X61375638Y-24803318D01*
X61449862Y-24760465D01*
X61510465Y-24699862D01*
X61533714Y-24659594D01*
X61556563Y-24620019D01*
X61556810Y-24620161D01*
X61559493Y-24615056D01*
X61572679Y-24594749D01*
X61610761Y-24560458D01*
X61617559Y-24556994D01*
X61624654Y-24553724D01*
X61625627Y-24553320D01*
X61625638Y-24553318D01*
X61629889Y-24550863D01*
X61634436Y-24548394D01*
X61643971Y-24543536D01*
X61644784Y-24542506D01*
X61650230Y-24539119D01*
X61699862Y-24510465D01*
X61760465Y-24449862D01*
X61783315Y-24410283D01*
X61795847Y-24388577D01*
X61815330Y-24364515D01*
X61829441Y-24351810D01*
X61875121Y-24328539D01*
X61879270Y-24327657D01*
X61899830Y-24325500D01*
X62542851Y-24325500D01*
X62542853Y-24325500D01*
X62625638Y-24303318D01*
X62699862Y-24260465D01*
X62760465Y-24199862D01*
X62781302Y-24163770D01*
X62806563Y-24120019D01*
X62806810Y-24120161D01*
X62809493Y-24115056D01*
X62822679Y-24094749D01*
X62860761Y-24060458D01*
X62867559Y-24056994D01*
X62874654Y-24053724D01*
X62875627Y-24053320D01*
X62875638Y-24053318D01*
X62879889Y-24050863D01*
X62884436Y-24048394D01*
X62893971Y-24043536D01*
X62894784Y-24042506D01*
X62900230Y-24039119D01*
X62949862Y-24010465D01*
X63010465Y-23949862D01*
X63053318Y-23875638D01*
X63075500Y-23792853D01*
X63075500Y-23440180D01*
X63080343Y-23409594D01*
X63084465Y-23396905D01*
X63120423Y-23347406D01*
X63121022Y-23346971D01*
X63124563Y-23344400D01*
X63182743Y-23325500D01*
X73559820Y-23325500D01*
X73590408Y-23330343D01*
G37*
%TD.AperFunction*%
%TA.AperFunction,Conductor*%
G36*
X47590408Y-43080343D02*
G01*
X47603095Y-43084466D01*
X47652595Y-43120427D01*
X47652596Y-43120428D01*
X47655591Y-43124550D01*
X47674500Y-43182740D01*
X47674500Y-46815074D01*
X47669653Y-46845670D01*
X47665850Y-46857373D01*
X47629885Y-46906872D01*
X47574285Y-46925743D01*
X47563731Y-46926019D01*
X47548227Y-46925207D01*
X47542854Y-46924500D01*
X47542853Y-46924500D01*
X47542852Y-46924500D01*
X42690180Y-46924500D01*
X42659587Y-46919654D01*
X42646901Y-46915532D01*
X42597401Y-46879568D01*
X42597394Y-46879558D01*
X42594400Y-46875436D01*
X42575500Y-46817256D01*
X42575500Y-44511428D01*
X42580343Y-44480842D01*
X42584465Y-44468153D01*
X42620423Y-44418654D01*
X42621583Y-44417812D01*
X42671399Y-44399257D01*
X42677409Y-44398747D01*
X42700052Y-44399425D01*
X42741740Y-44405500D01*
X43411783Y-44405500D01*
X43437405Y-44408873D01*
X43461728Y-44415390D01*
X43485601Y-44425278D01*
X43506870Y-44437557D01*
X43556814Y-44466392D01*
X43684108Y-44500500D01*
X43684110Y-44500500D01*
X43815890Y-44500500D01*
X43815892Y-44500500D01*
X43943186Y-44466392D01*
X43993130Y-44437557D01*
X44014400Y-44425276D01*
X44038272Y-44415390D01*
X44062596Y-44408873D01*
X44088217Y-44405500D01*
X44558257Y-44405500D01*
X44558260Y-44405500D01*
X44626393Y-44395573D01*
X44731483Y-44344198D01*
X44814198Y-44261483D01*
X44865573Y-44156393D01*
X44875500Y-44088260D01*
X44875500Y-43721740D01*
X44865573Y-43653607D01*
X44814198Y-43548517D01*
X44731483Y-43465802D01*
X44707092Y-43453878D01*
X44707091Y-43453877D01*
X44707090Y-43453877D01*
X44626401Y-43414429D01*
X44626397Y-43414428D01*
X44626395Y-43414427D01*
X44599139Y-43410456D01*
X44599138Y-43410455D01*
X44568655Y-43406014D01*
X44558260Y-43404500D01*
X44558258Y-43404500D01*
X42741736Y-43404500D01*
X42704284Y-43409956D01*
X42673311Y-43409571D01*
X42660166Y-43407321D01*
X42606040Y-43378908D01*
X42605041Y-43377885D01*
X42579462Y-43331221D01*
X42578090Y-43325345D01*
X42575500Y-43302847D01*
X42575500Y-43241428D01*
X42580343Y-43210842D01*
X42584465Y-43198153D01*
X42620423Y-43148654D01*
X42621583Y-43147812D01*
X42671399Y-43129257D01*
X42677409Y-43128747D01*
X42700052Y-43129425D01*
X42741740Y-43135500D01*
X42741744Y-43135500D01*
X44558257Y-43135500D01*
X44558260Y-43135500D01*
X44626393Y-43125573D01*
X44698094Y-43090520D01*
X44704994Y-43088072D01*
X44706452Y-43086901D01*
X44708586Y-43086797D01*
X44719253Y-43083011D01*
X44740715Y-43078046D01*
X44763024Y-43075500D01*
X47559820Y-43075500D01*
X47590408Y-43080343D01*
G37*
%TD.AperFunction*%
%TA.AperFunction,Conductor*%
G36*
X63433012Y-35330345D02*
G01*
X63446055Y-35334582D01*
X63458612Y-35338662D01*
X63486212Y-35352725D01*
X63486655Y-35353047D01*
X63486658Y-35353050D01*
X63599696Y-35410646D01*
X63693481Y-35425500D01*
X64306518Y-35425499D01*
X64306520Y-35425499D01*
X64311593Y-35425499D01*
X64318093Y-35423665D01*
X64353411Y-35418072D01*
X64392615Y-35411863D01*
X64396506Y-35411557D01*
X64396509Y-35411557D01*
X64404142Y-35410038D01*
X64408063Y-35409416D01*
X64417835Y-35401713D01*
X64513342Y-35353050D01*
X64513343Y-35353047D01*
X64515035Y-35352186D01*
X64529369Y-35346248D01*
X64543061Y-35341800D01*
X64604241Y-35341800D01*
X64653729Y-35377748D01*
X64655581Y-35380297D01*
X64674500Y-35438483D01*
X64674500Y-41292853D01*
X64696682Y-41375638D01*
X64739535Y-41449862D01*
X64800138Y-41510465D01*
X64874362Y-41553318D01*
X64957147Y-41575500D01*
X65042853Y-41575500D01*
X65559820Y-41575500D01*
X65590408Y-41580343D01*
X65603095Y-41584466D01*
X65652595Y-41620427D01*
X65652596Y-41620428D01*
X65655591Y-41624550D01*
X65674500Y-41682740D01*
X65674500Y-42309819D01*
X65669654Y-42340412D01*
X65665532Y-42353098D01*
X65629580Y-42402589D01*
X65625459Y-42405584D01*
X65567271Y-42424500D01*
X63707145Y-42424500D01*
X63632696Y-42444447D01*
X63620005Y-42446972D01*
X63607252Y-42448652D01*
X63594322Y-42449500D01*
X62444650Y-42449500D01*
X62427944Y-42448080D01*
X62410158Y-42445035D01*
X62356006Y-42416588D01*
X62355007Y-42415564D01*
X62329461Y-42368932D01*
X62328091Y-42363062D01*
X62325500Y-42340561D01*
X62325500Y-41663713D01*
X62330343Y-41633127D01*
X62330811Y-41631686D01*
X62334465Y-41620438D01*
X62370423Y-41570939D01*
X62371594Y-41570089D01*
X62421399Y-41551543D01*
X62429637Y-41550843D01*
X62438156Y-41550801D01*
X62438156Y-41550500D01*
X63683257Y-41550500D01*
X63683260Y-41550500D01*
X63751393Y-41540573D01*
X63856483Y-41489198D01*
X63939198Y-41406483D01*
X63990573Y-41301393D01*
X64000500Y-41233260D01*
X64000500Y-40866740D01*
X63990573Y-40798607D01*
X63939198Y-40693517D01*
X63856483Y-40610802D01*
X63856481Y-40610801D01*
X63751395Y-40559427D01*
X63724139Y-40555456D01*
X63724138Y-40555455D01*
X63693655Y-40551014D01*
X63683260Y-40549500D01*
X63683258Y-40549500D01*
X63440180Y-40549500D01*
X63409587Y-40544654D01*
X63396901Y-40540532D01*
X63347401Y-40504568D01*
X63347394Y-40504558D01*
X63344400Y-40500436D01*
X63325500Y-40442256D01*
X63325500Y-39939001D01*
X63330345Y-39908410D01*
X63337892Y-39885181D01*
X63362043Y-39845770D01*
X63400500Y-39807314D01*
X63419095Y-39775107D01*
X63466390Y-39693190D01*
X63466390Y-39693188D01*
X63466392Y-39693186D01*
X63500500Y-39565892D01*
X63500500Y-39434108D01*
X63466392Y-39306814D01*
X63466390Y-39306811D01*
X63466390Y-39306809D01*
X63466388Y-39306806D01*
X63466298Y-39306469D01*
X63464812Y-39304076D01*
X63401971Y-39195233D01*
X63400794Y-39193045D01*
X63400608Y-39192795D01*
X63400501Y-39192688D01*
X63400500Y-39192686D01*
X63307314Y-39099500D01*
X63307311Y-39099498D01*
X63307309Y-39099496D01*
X63265747Y-39075500D01*
X63250476Y-39066683D01*
X63229442Y-39043322D01*
X63143799Y-39020375D01*
X63143798Y-39020374D01*
X63086766Y-39005093D01*
X63065892Y-38999500D01*
X63065891Y-38999500D01*
X62934109Y-38999500D01*
X62934108Y-38999500D01*
X62895154Y-39009937D01*
X62856199Y-39020375D01*
X62856198Y-39020374D01*
X62806807Y-39033609D01*
X62806805Y-39033610D01*
X62692694Y-39099492D01*
X62599495Y-39192691D01*
X62533607Y-39306812D01*
X62533606Y-39306814D01*
X62524185Y-39341980D01*
X62511584Y-39370282D01*
X62507554Y-39376487D01*
X62460002Y-39414990D01*
X62398900Y-39418189D01*
X62347588Y-39384863D01*
X62327085Y-39340054D01*
X62327057Y-39339898D01*
X62325500Y-39322408D01*
X62325500Y-35440180D01*
X62330343Y-35409594D01*
X62332905Y-35401708D01*
X62334465Y-35396905D01*
X62370423Y-35347406D01*
X62372028Y-35346241D01*
X62374563Y-35344400D01*
X62432743Y-35325500D01*
X63402421Y-35325500D01*
X63433012Y-35330345D01*
G37*
%TD.AperFunction*%
%TA.AperFunction,Conductor*%
G36*
X44590408Y-38330343D02*
G01*
X44603095Y-38334466D01*
X44652595Y-38370427D01*
X44652596Y-38370428D01*
X44655591Y-38374550D01*
X44674500Y-38432740D01*
X44674500Y-39481285D01*
X44669654Y-39511878D01*
X44665532Y-39524564D01*
X44629568Y-39574064D01*
X44629566Y-39574066D01*
X44628407Y-39574908D01*
X44578602Y-39593457D01*
X44570378Y-39594156D01*
X44561848Y-39594217D01*
X44561848Y-39594500D01*
X42741736Y-39594500D01*
X42704284Y-39599956D01*
X42673311Y-39599571D01*
X42660166Y-39597321D01*
X42606040Y-39568908D01*
X42605041Y-39567885D01*
X42579462Y-39521221D01*
X42578090Y-39515345D01*
X42575500Y-39492847D01*
X42575500Y-38440180D01*
X42580343Y-38409594D01*
X42584465Y-38396905D01*
X42620423Y-38347406D01*
X42621022Y-38346971D01*
X42624563Y-38344400D01*
X42682743Y-38325500D01*
X44559820Y-38325500D01*
X44590408Y-38330343D01*
G37*
%TD.AperFunction*%
%TA.AperFunction,Conductor*%
G36*
X59334648Y-12580343D02*
G01*
X59345485Y-12583865D01*
X59394985Y-12619826D01*
X59413895Y-12678016D01*
X59413895Y-12681165D01*
X59397284Y-12732292D01*
X59398986Y-12733335D01*
X59396950Y-12736656D01*
X59339354Y-12849694D01*
X59324500Y-12943475D01*
X59324500Y-13406522D01*
X59324508Y-13406572D01*
X59324566Y-13406937D01*
X59327794Y-13427316D01*
X59338675Y-13496027D01*
X59339352Y-13500298D01*
X59339362Y-13500322D01*
X59396948Y-13613339D01*
X59396950Y-13613342D01*
X59486658Y-13703050D01*
X59599696Y-13760646D01*
X59693481Y-13775500D01*
X59809817Y-13775499D01*
X59840404Y-13780342D01*
X59846183Y-13782219D01*
X59853091Y-13784463D01*
X59902592Y-13820423D01*
X59905588Y-13824546D01*
X59924500Y-13882736D01*
X59924500Y-14042854D01*
X59935721Y-14084734D01*
X59938958Y-14115538D01*
X59938314Y-14127823D01*
X59916387Y-14184944D01*
X59867576Y-14217561D01*
X59857924Y-14220421D01*
X59829798Y-14224500D01*
X59693473Y-14224500D01*
X59693424Y-14224508D01*
X59693061Y-14224566D01*
X59599700Y-14239352D01*
X59599694Y-14239354D01*
X59517869Y-14281046D01*
X59517867Y-14281047D01*
X59486659Y-14296949D01*
X59486658Y-14296949D01*
X59486658Y-14296950D01*
X59423105Y-14360502D01*
X59423087Y-14360518D01*
X59407574Y-14376032D01*
X59395759Y-14386123D01*
X59368956Y-14405595D01*
X59342963Y-14414039D01*
X59317638Y-14424261D01*
X59314169Y-14423394D01*
X59310768Y-14424500D01*
X52190180Y-14424500D01*
X52159587Y-14419654D01*
X52146901Y-14415532D01*
X52097401Y-14379568D01*
X52097394Y-14379558D01*
X52094400Y-14375436D01*
X52075500Y-14317256D01*
X52075500Y-14207148D01*
X52075499Y-14207145D01*
X52073549Y-14199866D01*
X52073548Y-14199862D01*
X52053318Y-14124362D01*
X52020275Y-14067130D01*
X52010387Y-14043257D01*
X52003871Y-14018935D01*
X52000499Y-13993316D01*
X52000499Y-13790105D01*
X52000498Y-13790094D01*
X51999214Y-13780342D01*
X51994819Y-13746947D01*
X51994575Y-13743236D01*
X51993973Y-13740522D01*
X51993972Y-13740513D01*
X51993972Y-13740511D01*
X51974596Y-13698960D01*
X51944132Y-13633629D01*
X51943317Y-13631778D01*
X51943224Y-13631685D01*
X51943224Y-13631684D01*
X51858316Y-13546776D01*
X51858314Y-13546775D01*
X51858313Y-13546774D01*
X51858312Y-13546773D01*
X51750463Y-13496482D01*
X51749525Y-13496032D01*
X51732959Y-13493852D01*
X51732958Y-13493851D01*
X51732958Y-13493852D01*
X51699902Y-13489500D01*
X51699901Y-13489500D01*
X51699899Y-13489500D01*
X51340104Y-13489500D01*
X51340092Y-13489500D01*
X51340081Y-13489501D01*
X51296948Y-13495180D01*
X51293236Y-13495423D01*
X51290513Y-13496027D01*
X51290511Y-13496027D01*
X51290509Y-13496027D01*
X51290508Y-13496028D01*
X51181689Y-13546771D01*
X51096772Y-13631688D01*
X51046487Y-13739525D01*
X51046032Y-13740473D01*
X51039500Y-13790096D01*
X51039500Y-13809819D01*
X51034654Y-13840412D01*
X51030532Y-13853098D01*
X50994580Y-13902589D01*
X50990459Y-13905584D01*
X50932271Y-13924500D01*
X47042853Y-13924500D01*
X46957147Y-13924500D01*
X46874362Y-13946682D01*
X46800138Y-13989535D01*
X46739535Y-14050138D01*
X46696682Y-14124361D01*
X46686871Y-14160978D01*
X46680450Y-14184944D01*
X46674500Y-14207149D01*
X46674500Y-15344895D01*
X46669654Y-15375490D01*
X46663789Y-15393539D01*
X46635887Y-15436508D01*
X46632738Y-15439344D01*
X46615986Y-15451516D01*
X46550143Y-15489530D01*
X46489532Y-15550141D01*
X46454151Y-15611423D01*
X46434660Y-15635492D01*
X46420559Y-15648189D01*
X46374901Y-15671455D01*
X46370757Y-15672336D01*
X46350170Y-15674500D01*
X46292853Y-15674500D01*
X46207147Y-15674500D01*
X46124362Y-15696682D01*
X46050138Y-15739535D01*
X45989535Y-15800138D01*
X45946680Y-15874365D01*
X45946679Y-15874367D01*
X45926455Y-15949853D01*
X45926453Y-15949860D01*
X45924500Y-15957147D01*
X45924500Y-16109819D01*
X45919654Y-16140412D01*
X45915532Y-16153098D01*
X45879580Y-16202589D01*
X45875459Y-16205584D01*
X45817271Y-16224500D01*
X45693473Y-16224500D01*
X45693424Y-16224508D01*
X45693061Y-16224566D01*
X45599700Y-16239352D01*
X45599676Y-16239362D01*
X45486661Y-16296947D01*
X45396948Y-16386660D01*
X45339354Y-16499693D01*
X45324500Y-16593475D01*
X45324500Y-17056522D01*
X45324508Y-17056572D01*
X45324566Y-17056937D01*
X45339352Y-17150298D01*
X45339362Y-17150322D01*
X45396948Y-17263339D01*
X45396950Y-17263342D01*
X45486658Y-17353050D01*
X45599696Y-17410646D01*
X45693481Y-17425500D01*
X45809817Y-17425499D01*
X45840404Y-17430342D01*
X45846183Y-17432219D01*
X45853091Y-17434463D01*
X45902592Y-17470423D01*
X45905588Y-17474546D01*
X45924500Y-17532736D01*
X45924500Y-20459819D01*
X45919654Y-20490412D01*
X45915532Y-20503098D01*
X45879580Y-20552589D01*
X45875459Y-20555584D01*
X45817271Y-20574500D01*
X45693473Y-20574500D01*
X45693424Y-20574508D01*
X45693061Y-20574566D01*
X45599700Y-20589352D01*
X45599676Y-20589362D01*
X45486661Y-20646947D01*
X45396948Y-20736660D01*
X45339354Y-20849693D01*
X45324500Y-20943475D01*
X45324500Y-21406525D01*
X45324507Y-21406569D01*
X45324566Y-21406937D01*
X45339349Y-21500288D01*
X45339350Y-21500290D01*
X45339351Y-21500296D01*
X45339352Y-21500299D01*
X45339354Y-21500304D01*
X45339354Y-21500306D01*
X45339356Y-21500313D01*
X45347648Y-21516585D01*
X45357220Y-21546041D01*
X45359002Y-21557290D01*
X45349432Y-21617723D01*
X45306175Y-21660985D01*
X45300838Y-21663705D01*
X45255884Y-21674500D01*
X45207147Y-21674500D01*
X45196188Y-21677436D01*
X45136307Y-21693480D01*
X45136308Y-21693481D01*
X45131258Y-21694834D01*
X45124362Y-21696682D01*
X45050138Y-21739535D01*
X44989534Y-21800139D01*
X44944179Y-21878696D01*
X44944034Y-21878612D01*
X44940954Y-21884257D01*
X44927302Y-21905272D01*
X44889231Y-21939548D01*
X44883493Y-21942472D01*
X44878835Y-21944429D01*
X44878925Y-21944629D01*
X44874357Y-21946683D01*
X44870064Y-21949162D01*
X44865514Y-21951633D01*
X44856020Y-21956470D01*
X44855221Y-21957485D01*
X44849698Y-21960921D01*
X44800139Y-21989534D01*
X44739535Y-22050138D01*
X44696682Y-22124361D01*
X44696682Y-22124362D01*
X44680674Y-22184108D01*
X44674500Y-22207149D01*
X44674500Y-22809819D01*
X44669654Y-22840412D01*
X44665532Y-22853098D01*
X44629580Y-22902589D01*
X44625459Y-22905584D01*
X44567271Y-22924500D01*
X42542853Y-22924500D01*
X42457147Y-22924500D01*
X42374362Y-22946682D01*
X42300138Y-22989535D01*
X42239535Y-23050138D01*
X42196680Y-23124365D01*
X42178358Y-23192751D01*
X42178357Y-23192755D01*
X42174500Y-23207147D01*
X42174500Y-25479819D01*
X42169654Y-25510412D01*
X42165532Y-25523098D01*
X42129580Y-25572589D01*
X42125459Y-25575584D01*
X42067271Y-25594500D01*
X40914680Y-25594500D01*
X40884087Y-25589654D01*
X40871401Y-25585532D01*
X40821901Y-25549568D01*
X40821894Y-25549558D01*
X40818900Y-25545436D01*
X40800000Y-25487256D01*
X40800000Y-12690180D01*
X40804843Y-12659594D01*
X40808965Y-12646905D01*
X40844923Y-12597406D01*
X40845522Y-12596971D01*
X40849063Y-12594400D01*
X40907243Y-12575500D01*
X59304060Y-12575500D01*
X59334648Y-12580343D01*
G37*
%TD.AperFunction*%
%TA.AperFunction,Conductor*%
G36*
X49194480Y-19875498D02*
G01*
X49194495Y-19875500D01*
X50559819Y-19875499D01*
X50590405Y-19880342D01*
X50593035Y-19881196D01*
X50603092Y-19884464D01*
X50652594Y-19920424D01*
X50652596Y-19920427D01*
X50655591Y-19924549D01*
X50674500Y-19982739D01*
X50674500Y-20009819D01*
X50669654Y-20040412D01*
X50665532Y-20053098D01*
X50629580Y-20102589D01*
X50625459Y-20105584D01*
X50567271Y-20124500D01*
X49191640Y-20124500D01*
X49191640Y-20124028D01*
X49171453Y-20122587D01*
X49157452Y-20119767D01*
X49104163Y-20089767D01*
X49102664Y-20088138D01*
X49078776Y-20042173D01*
X49077768Y-20037555D01*
X49075500Y-20016484D01*
X49075500Y-19988524D01*
X49080343Y-19957938D01*
X49084465Y-19945249D01*
X49120423Y-19895750D01*
X49122219Y-19894445D01*
X49170587Y-19876030D01*
X49175290Y-19875562D01*
X49191617Y-19875697D01*
X49191638Y-19875335D01*
X49194480Y-19875498D01*
G37*
%TD.AperFunction*%
%TA.AperFunction,Conductor*%
G36*
X50625491Y-18830346D02*
G01*
X50643538Y-18836210D01*
X50686507Y-18864111D01*
X50689344Y-18867261D01*
X50701515Y-18884010D01*
X50724892Y-18924500D01*
X50739535Y-18949862D01*
X50800138Y-19010465D01*
X50874362Y-19053318D01*
X50952478Y-19074248D01*
X50962722Y-19079792D01*
X50986730Y-19097995D01*
X50998419Y-19110068D01*
X51022921Y-19153306D01*
X51033609Y-19193189D01*
X51033612Y-19193197D01*
X51094667Y-19298945D01*
X51099496Y-19307309D01*
X51099498Y-19307311D01*
X51099500Y-19307314D01*
X51192686Y-19400500D01*
X51192688Y-19400501D01*
X51192690Y-19400503D01*
X51306810Y-19466390D01*
X51306808Y-19466390D01*
X51306812Y-19466391D01*
X51306814Y-19466392D01*
X51351308Y-19478313D01*
X51359974Y-19482566D01*
X51362373Y-19484894D01*
X51370286Y-19488418D01*
X51373176Y-19490294D01*
X51376493Y-19492449D01*
X51399703Y-19521117D01*
X51403884Y-19525175D01*
X51404129Y-19526584D01*
X51414993Y-19540004D01*
X51418188Y-19601106D01*
X51384857Y-19652416D01*
X51340658Y-19672803D01*
X51340502Y-19672832D01*
X51322408Y-19674500D01*
X50975206Y-19674500D01*
X50968035Y-19673839D01*
X50966751Y-19674138D01*
X50965487Y-19673604D01*
X50957116Y-19672833D01*
X50933840Y-19668507D01*
X50880084Y-19639285D01*
X50878819Y-19637950D01*
X50854122Y-19591684D01*
X50852934Y-19586427D01*
X50850499Y-19564605D01*
X50850499Y-19369499D01*
X50850499Y-19369496D01*
X50847707Y-19345420D01*
X50804215Y-19246921D01*
X50728079Y-19170785D01*
X50651700Y-19137060D01*
X50651697Y-19137058D01*
X50651698Y-19137058D01*
X50651696Y-19137057D01*
X50636850Y-19130503D01*
X50629580Y-19127293D01*
X50629576Y-19127292D01*
X50629570Y-19127290D01*
X50605516Y-19124500D01*
X50605508Y-19124500D01*
X49194500Y-19124500D01*
X49191640Y-19124500D01*
X49191640Y-19124028D01*
X49171453Y-19122587D01*
X49157452Y-19119767D01*
X49104163Y-19089767D01*
X49102664Y-19088138D01*
X49078776Y-19042173D01*
X49077768Y-19037555D01*
X49075500Y-19016484D01*
X49075500Y-18940180D01*
X49080343Y-18909594D01*
X49084465Y-18896905D01*
X49120423Y-18847406D01*
X49121022Y-18846971D01*
X49124563Y-18844400D01*
X49182743Y-18825500D01*
X50594897Y-18825500D01*
X50625491Y-18830346D01*
G37*
%TD.AperFunction*%
%TD*%
%TA.AperFunction,Conductor*%
%TO.N,GND_LOG*%
G36*
X3383691Y-41094407D02*
G01*
X3419655Y-41143907D01*
X3424500Y-41174500D01*
X3424500Y-51292853D01*
X3446682Y-51375638D01*
X3489535Y-51449862D01*
X3550138Y-51510465D01*
X3624362Y-51553318D01*
X3626180Y-51553805D01*
X3627311Y-51554539D01*
X3630361Y-51555803D01*
X3630127Y-51556367D01*
X3677498Y-51587124D01*
X3694093Y-51619689D01*
X3694200Y-51619645D01*
X3694761Y-51621001D01*
X3696191Y-51623806D01*
X3696682Y-51625638D01*
X3739535Y-51699862D01*
X3800138Y-51760465D01*
X3874362Y-51803318D01*
X3957147Y-51825500D01*
X4042853Y-51825500D01*
X5575500Y-51825500D01*
X5633691Y-51844407D01*
X5669655Y-51893907D01*
X5674500Y-51924500D01*
X5674500Y-53457147D01*
X5674500Y-53542853D01*
X5696682Y-53625638D01*
X5739535Y-53699862D01*
X5800138Y-53760465D01*
X5874362Y-53803318D01*
X5957147Y-53825500D01*
X10075500Y-53825500D01*
X10133691Y-53844407D01*
X10169655Y-53893907D01*
X10174500Y-53924500D01*
X10174500Y-53957147D01*
X10174500Y-54042853D01*
X10196682Y-54125638D01*
X10239535Y-54199862D01*
X10300138Y-54260465D01*
X10374362Y-54303318D01*
X10376180Y-54303805D01*
X10377311Y-54304539D01*
X10380361Y-54305803D01*
X10380127Y-54306367D01*
X10427498Y-54337124D01*
X10444093Y-54369689D01*
X10444200Y-54369645D01*
X10444761Y-54371001D01*
X10446191Y-54373806D01*
X10446682Y-54375638D01*
X10489535Y-54449862D01*
X10550138Y-54510465D01*
X10624362Y-54553318D01*
X10707147Y-54575500D01*
X20860577Y-54575500D01*
X20918768Y-54594407D01*
X20946313Y-54625000D01*
X20985392Y-54692686D01*
X20989535Y-54699862D01*
X21050138Y-54760465D01*
X21124362Y-54803318D01*
X21207147Y-54825500D01*
X21325500Y-54825500D01*
X21383691Y-54844407D01*
X21419655Y-54893907D01*
X21424500Y-54924500D01*
X21424500Y-55391569D01*
X21405593Y-55449760D01*
X21356093Y-55485724D01*
X21338419Y-55489722D01*
X21290513Y-55496027D01*
X21290511Y-55496027D01*
X21181686Y-55546774D01*
X21096774Y-55631686D01*
X21046029Y-55740510D01*
X21046028Y-55740511D01*
X21039500Y-55790100D01*
X21039500Y-56209896D01*
X21039501Y-56209907D01*
X21046027Y-56259486D01*
X21046027Y-56259488D01*
X21096774Y-56368313D01*
X21096775Y-56368314D01*
X21096776Y-56368316D01*
X21181684Y-56453224D01*
X21290513Y-56503972D01*
X21340099Y-56510500D01*
X21699900Y-56510499D01*
X21749487Y-56503972D01*
X21749488Y-56503972D01*
X21808137Y-56476622D01*
X21858316Y-56453224D01*
X21943224Y-56368316D01*
X21993972Y-56259487D01*
X22000500Y-56209901D01*
X22000499Y-55993649D01*
X22013761Y-55944152D01*
X22053318Y-55875638D01*
X22075500Y-55792853D01*
X22075500Y-55004315D01*
X22094407Y-54946124D01*
X22143907Y-54910160D01*
X22205093Y-54910160D01*
X22223995Y-54918576D01*
X22306814Y-54966392D01*
X22434108Y-55000500D01*
X22434110Y-55000500D01*
X22565890Y-55000500D01*
X22565892Y-55000500D01*
X22693186Y-54966392D01*
X22776001Y-54918578D01*
X22835847Y-54905857D01*
X22891743Y-54930743D01*
X22922336Y-54983731D01*
X22924500Y-55004315D01*
X22924500Y-59292853D01*
X22946682Y-59375638D01*
X22989535Y-59449862D01*
X23050138Y-59510465D01*
X23124362Y-59553318D01*
X23207147Y-59575500D01*
X23292853Y-59575500D01*
X23825500Y-59575500D01*
X23883691Y-59594407D01*
X23919655Y-59643907D01*
X23924500Y-59674500D01*
X23924500Y-61207147D01*
X23924500Y-61292853D01*
X23946682Y-61375638D01*
X23989535Y-61449862D01*
X24050138Y-61510465D01*
X24124362Y-61553318D01*
X24207147Y-61575500D01*
X24207149Y-61575500D01*
X36601000Y-61575500D01*
X36659191Y-61594407D01*
X36695155Y-61643907D01*
X36700000Y-61674500D01*
X36700000Y-64901000D01*
X36681093Y-64959191D01*
X36631593Y-64995155D01*
X36601000Y-65000000D01*
X1099000Y-65000000D01*
X1040809Y-64981093D01*
X1004845Y-64931593D01*
X1000000Y-64901000D01*
X1000000Y-41236082D01*
X1018907Y-41177891D01*
X1068407Y-41141927D01*
X1129590Y-41141927D01*
X1218882Y-41170940D01*
X1405516Y-41200500D01*
X1405519Y-41200500D01*
X1594484Y-41200500D01*
X1781113Y-41170941D01*
X1781114Y-41170940D01*
X1781118Y-41170940D01*
X1960832Y-41112547D01*
X2012364Y-41086289D01*
X2057309Y-41075500D01*
X3325500Y-41075500D01*
X3383691Y-41094407D01*
G37*
%TD.AperFunction*%
%TA.AperFunction,Conductor*%
G36*
X34418768Y-59094407D02*
G01*
X34446313Y-59125000D01*
X34454410Y-59139024D01*
X34489535Y-59199862D01*
X34550138Y-59260465D01*
X34624362Y-59303318D01*
X34624364Y-59303318D01*
X34624999Y-59303685D01*
X34665941Y-59349154D01*
X34674500Y-59389422D01*
X34674500Y-59457147D01*
X34674500Y-59542853D01*
X34696682Y-59625638D01*
X34739535Y-59699862D01*
X34800138Y-59760465D01*
X34874362Y-59803318D01*
X34957147Y-59825500D01*
X34990500Y-59825500D01*
X35048691Y-59844407D01*
X35084655Y-59893907D01*
X35089500Y-59924500D01*
X35089500Y-60103467D01*
X35129869Y-60306418D01*
X35209058Y-60497597D01*
X35209059Y-60497598D01*
X35324023Y-60669655D01*
X35409866Y-60755498D01*
X35437642Y-60810013D01*
X35428071Y-60870445D01*
X35384806Y-60913710D01*
X35339861Y-60924500D01*
X24674500Y-60924500D01*
X24616309Y-60905593D01*
X24580345Y-60856093D01*
X24575500Y-60825500D01*
X24575500Y-59207148D01*
X24575500Y-59207147D01*
X24573618Y-59200123D01*
X24576818Y-59139024D01*
X24615322Y-59091473D01*
X24669244Y-59075500D01*
X34360577Y-59075500D01*
X34418768Y-59094407D01*
G37*
%TD.AperFunction*%
%TA.AperFunction,Conductor*%
G36*
X10801312Y-22094407D02*
G01*
X10837276Y-22143907D01*
X10837276Y-22143908D01*
X10839354Y-22150306D01*
X10887709Y-22245206D01*
X10896950Y-22263342D01*
X10986658Y-22353050D01*
X11099696Y-22410646D01*
X11193481Y-22425500D01*
X11806518Y-22425499D01*
X11806520Y-22425499D01*
X11806521Y-22425498D01*
X11853411Y-22418072D01*
X11900299Y-22410647D01*
X11900299Y-22410646D01*
X11900304Y-22410646D01*
X12013342Y-22353050D01*
X12103050Y-22263342D01*
X12112291Y-22245206D01*
X12155555Y-22201941D01*
X12215987Y-22192370D01*
X12270504Y-22220148D01*
X12298281Y-22274664D01*
X12299500Y-22290151D01*
X12299500Y-22639746D01*
X12299501Y-22639758D01*
X12311132Y-22698227D01*
X12311134Y-22698233D01*
X12345723Y-22749998D01*
X12362332Y-22808886D01*
X12345723Y-22860002D01*
X12311134Y-22911766D01*
X12311132Y-22911772D01*
X12299501Y-22970241D01*
X12299500Y-22970253D01*
X12299500Y-23909746D01*
X12299501Y-23909758D01*
X12311132Y-23968227D01*
X12311134Y-23968233D01*
X12345723Y-24019998D01*
X12362332Y-24078886D01*
X12345723Y-24130002D01*
X12311134Y-24181766D01*
X12311132Y-24181772D01*
X12299501Y-24240241D01*
X12299500Y-24240253D01*
X12299500Y-25179746D01*
X12299501Y-25179758D01*
X12311132Y-25238227D01*
X12311134Y-25238233D01*
X12345723Y-25289998D01*
X12362332Y-25348886D01*
X12345723Y-25400002D01*
X12311134Y-25451766D01*
X12311132Y-25451772D01*
X12299501Y-25510241D01*
X12299500Y-25510253D01*
X12299500Y-25825520D01*
X12280593Y-25883711D01*
X12231093Y-25919675D01*
X12213429Y-25923672D01*
X12207154Y-25924498D01*
X12124362Y-25946682D01*
X12050138Y-25989535D01*
X11989535Y-26050138D01*
X11946680Y-26124365D01*
X11946679Y-26124368D01*
X11946188Y-26126202D01*
X11945448Y-26127340D01*
X11944199Y-26130357D01*
X11943639Y-26130125D01*
X11912857Y-26177511D01*
X11880313Y-26194093D01*
X11880357Y-26194199D01*
X11879012Y-26194755D01*
X11876202Y-26196188D01*
X11874368Y-26196679D01*
X11874365Y-26196680D01*
X11874362Y-26196682D01*
X11800138Y-26239535D01*
X11739535Y-26300138D01*
X11696682Y-26374362D01*
X11674500Y-26457147D01*
X11674500Y-33042853D01*
X11696682Y-33125638D01*
X11739535Y-33199862D01*
X11800138Y-33260465D01*
X11874362Y-33303318D01*
X11957147Y-33325500D01*
X12042853Y-33325500D01*
X33227115Y-33325500D01*
X33285306Y-33344407D01*
X33321270Y-33393907D01*
X33324896Y-33409015D01*
X33339352Y-33500299D01*
X33339354Y-33500307D01*
X33354767Y-33530555D01*
X33364339Y-33590987D01*
X33336562Y-33645503D01*
X33282045Y-33673281D01*
X33266558Y-33674500D01*
X24292853Y-33674500D01*
X24207147Y-33674500D01*
X24124362Y-33696682D01*
X24050138Y-33739535D01*
X23989535Y-33800138D01*
X23946682Y-33874362D01*
X23926453Y-33949861D01*
X23924500Y-33957148D01*
X23924500Y-40475500D01*
X23905593Y-40533691D01*
X23856093Y-40569655D01*
X23825501Y-40574500D01*
X23693479Y-40574500D01*
X23693476Y-40574501D01*
X23599700Y-40589352D01*
X23599695Y-40589354D01*
X23486658Y-40646950D01*
X23480353Y-40651531D01*
X23479251Y-40650014D01*
X23433588Y-40673281D01*
X23418101Y-40674500D01*
X19665231Y-40674500D01*
X19607040Y-40655593D01*
X19571076Y-40606093D01*
X19571076Y-40544907D01*
X19577022Y-40530555D01*
X19612544Y-40460839D01*
X19612545Y-40460836D01*
X19612545Y-40460835D01*
X19612547Y-40460832D01*
X19670940Y-40281118D01*
X19671393Y-40278260D01*
X19700500Y-40094484D01*
X19700500Y-39905515D01*
X19670941Y-39718886D01*
X19656519Y-39674500D01*
X19612547Y-39539168D01*
X19526760Y-39370801D01*
X19415690Y-39217927D01*
X19282073Y-39084310D01*
X19129199Y-38973240D01*
X19129198Y-38973239D01*
X19129196Y-38973238D01*
X18960832Y-38887453D01*
X18781113Y-38829058D01*
X18594484Y-38799500D01*
X18594481Y-38799500D01*
X18405519Y-38799500D01*
X18405516Y-38799500D01*
X18218886Y-38829058D01*
X18039167Y-38887453D01*
X17870803Y-38973238D01*
X17717928Y-39084309D01*
X17584309Y-39217928D01*
X17473238Y-39370803D01*
X17387453Y-39539167D01*
X17329058Y-39718886D01*
X17299500Y-39905515D01*
X17299500Y-40094484D01*
X17329058Y-40281113D01*
X17387454Y-40460836D01*
X17387455Y-40460839D01*
X17422978Y-40530555D01*
X17432550Y-40590987D01*
X17404773Y-40645503D01*
X17350256Y-40673281D01*
X17334769Y-40674500D01*
X13165231Y-40674500D01*
X13107040Y-40655593D01*
X13071076Y-40606093D01*
X13071076Y-40544907D01*
X13077022Y-40530555D01*
X13112544Y-40460839D01*
X13112545Y-40460836D01*
X13112545Y-40460835D01*
X13112547Y-40460832D01*
X13170940Y-40281118D01*
X13171393Y-40278260D01*
X13200500Y-40094484D01*
X13200500Y-39905515D01*
X13170941Y-39718886D01*
X13156519Y-39674500D01*
X13112547Y-39539168D01*
X13026760Y-39370801D01*
X12915690Y-39217927D01*
X12782073Y-39084310D01*
X12629199Y-38973240D01*
X12629198Y-38973239D01*
X12629196Y-38973238D01*
X12460832Y-38887453D01*
X12281113Y-38829058D01*
X12094484Y-38799500D01*
X12094481Y-38799500D01*
X11905519Y-38799500D01*
X11905516Y-38799500D01*
X11718886Y-38829058D01*
X11539167Y-38887453D01*
X11370803Y-38973238D01*
X11217928Y-39084309D01*
X11084309Y-39217928D01*
X10973238Y-39370803D01*
X10887453Y-39539167D01*
X10829058Y-39718886D01*
X10799500Y-39905515D01*
X10799500Y-40094484D01*
X10829058Y-40281113D01*
X10887453Y-40460832D01*
X10958934Y-40601123D01*
X10973240Y-40629199D01*
X11084310Y-40782073D01*
X11217927Y-40915690D01*
X11370801Y-41026760D01*
X11539168Y-41112547D01*
X11718882Y-41170940D01*
X11718883Y-41170940D01*
X11718886Y-41170941D01*
X11905516Y-41200500D01*
X11905519Y-41200500D01*
X12094482Y-41200500D01*
X12110006Y-41198041D01*
X12170431Y-41188470D01*
X12230861Y-41198041D01*
X12255917Y-41216244D01*
X12300138Y-41260465D01*
X12374362Y-41303318D01*
X12457147Y-41325500D01*
X17957147Y-41325500D01*
X18042853Y-41325500D01*
X23227115Y-41325500D01*
X23285306Y-41344407D01*
X23321270Y-41393907D01*
X23324896Y-41409015D01*
X23339352Y-41500299D01*
X23339354Y-41500307D01*
X23354767Y-41530555D01*
X23364339Y-41590987D01*
X23336562Y-41645503D01*
X23282045Y-41673281D01*
X23266558Y-41674500D01*
X8924500Y-41674500D01*
X8866309Y-41655593D01*
X8830345Y-41606093D01*
X8825500Y-41575500D01*
X8825500Y-40913270D01*
X8844407Y-40855079D01*
X8854490Y-40843272D01*
X8915690Y-40782073D01*
X9026760Y-40629199D01*
X9112547Y-40460832D01*
X9170940Y-40281118D01*
X9171393Y-40278260D01*
X9200500Y-40094484D01*
X9200500Y-39905515D01*
X9170941Y-39718886D01*
X9156519Y-39674500D01*
X9112547Y-39539168D01*
X9026760Y-39370801D01*
X8915690Y-39217927D01*
X8782073Y-39084310D01*
X8629199Y-38973240D01*
X8629198Y-38973239D01*
X8629196Y-38973238D01*
X8460832Y-38887453D01*
X8281113Y-38829058D01*
X8094484Y-38799500D01*
X8094481Y-38799500D01*
X7905519Y-38799500D01*
X7905516Y-38799500D01*
X7718886Y-38829058D01*
X7539167Y-38887453D01*
X7370803Y-38973238D01*
X7217928Y-39084309D01*
X7084309Y-39217928D01*
X6973238Y-39370803D01*
X6887453Y-39539167D01*
X6829058Y-39718886D01*
X6799500Y-39905515D01*
X6799500Y-40094484D01*
X6829058Y-40281113D01*
X6887453Y-40460832D01*
X6958934Y-40601123D01*
X6973240Y-40629199D01*
X7084310Y-40782073D01*
X7217927Y-40915690D01*
X7370801Y-41026760D01*
X7539168Y-41112547D01*
X7718882Y-41170940D01*
X7718883Y-41170940D01*
X7718886Y-41170941D01*
X7905516Y-41200500D01*
X8075500Y-41200500D01*
X8133691Y-41219407D01*
X8169655Y-41268907D01*
X8174500Y-41299500D01*
X8174500Y-42042853D01*
X8196682Y-42125638D01*
X8239535Y-42199862D01*
X8300138Y-42260465D01*
X8374362Y-42303318D01*
X8457147Y-42325500D01*
X8542853Y-42325500D01*
X23266558Y-42325500D01*
X23324749Y-42344407D01*
X23360713Y-42393907D01*
X23360713Y-42455093D01*
X23354767Y-42469445D01*
X23339355Y-42499692D01*
X23339354Y-42499694D01*
X23324500Y-42593477D01*
X23324500Y-43056520D01*
X23324501Y-43056523D01*
X23339352Y-43150299D01*
X23339354Y-43150304D01*
X23396950Y-43263342D01*
X23486658Y-43353050D01*
X23599696Y-43410646D01*
X23693481Y-43425500D01*
X24306518Y-43425499D01*
X24306520Y-43425499D01*
X24306521Y-43425498D01*
X24376430Y-43414427D01*
X24400299Y-43410647D01*
X24400299Y-43410646D01*
X24400304Y-43410646D01*
X24513342Y-43353050D01*
X24513348Y-43353043D01*
X24519647Y-43348469D01*
X24520748Y-43349985D01*
X24566412Y-43326719D01*
X24581899Y-43325500D01*
X29325500Y-43325500D01*
X29383691Y-43344407D01*
X29419655Y-43393907D01*
X29424500Y-43424500D01*
X29424500Y-47575500D01*
X29405593Y-47633691D01*
X29356093Y-47669655D01*
X29325500Y-47674500D01*
X29042853Y-47674500D01*
X28957147Y-47674500D01*
X28874362Y-47696682D01*
X28800138Y-47739535D01*
X28739535Y-47800138D01*
X28696680Y-47874365D01*
X28696679Y-47874368D01*
X28696188Y-47876202D01*
X28695448Y-47877340D01*
X28694199Y-47880357D01*
X28693639Y-47880125D01*
X28662857Y-47927511D01*
X28630313Y-47944093D01*
X28630357Y-47944199D01*
X28629012Y-47944755D01*
X28626202Y-47946188D01*
X28624368Y-47946679D01*
X28624365Y-47946680D01*
X28624362Y-47946682D01*
X28550138Y-47989535D01*
X28489535Y-48050138D01*
X28446682Y-48124362D01*
X28426453Y-48199861D01*
X28424500Y-48207148D01*
X28424500Y-50825500D01*
X28405593Y-50883691D01*
X28356093Y-50919655D01*
X28325500Y-50924500D01*
X27792853Y-50924500D01*
X27707147Y-50924500D01*
X27624362Y-50946682D01*
X27550138Y-50989535D01*
X27489535Y-51050138D01*
X27446682Y-51124362D01*
X27424500Y-51207148D01*
X27424500Y-55391569D01*
X27405593Y-55449760D01*
X27356093Y-55485724D01*
X27338419Y-55489722D01*
X27290513Y-55496027D01*
X27290511Y-55496027D01*
X27181686Y-55546774D01*
X27096774Y-55631686D01*
X27046029Y-55740510D01*
X27046028Y-55740511D01*
X27039500Y-55790100D01*
X27039500Y-56209896D01*
X27039501Y-56209907D01*
X27046027Y-56259486D01*
X27046027Y-56259488D01*
X27096774Y-56368313D01*
X27096775Y-56368314D01*
X27096776Y-56368316D01*
X27181684Y-56453224D01*
X27290513Y-56503972D01*
X27338422Y-56510279D01*
X27393647Y-56536620D01*
X27422842Y-56590391D01*
X27424500Y-56608432D01*
X27424500Y-56792853D01*
X27446682Y-56875638D01*
X27489535Y-56949862D01*
X27550138Y-57010465D01*
X27624362Y-57053318D01*
X27707147Y-57075500D01*
X27792853Y-57075500D01*
X30075500Y-57075500D01*
X30133691Y-57094407D01*
X30169655Y-57143907D01*
X30174500Y-57174500D01*
X30174500Y-58292853D01*
X30176381Y-58299876D01*
X30173182Y-58360976D01*
X30134678Y-58408527D01*
X30080756Y-58424500D01*
X24174500Y-58424500D01*
X24116309Y-58405593D01*
X24080345Y-58356093D01*
X24075500Y-58325500D01*
X24075500Y-50207148D01*
X24075500Y-50207147D01*
X24053318Y-50124362D01*
X24013761Y-50055847D01*
X24000499Y-50006350D01*
X24000499Y-49790103D01*
X24000498Y-49790092D01*
X23993972Y-49740513D01*
X23993972Y-49740511D01*
X23943225Y-49631686D01*
X23943224Y-49631685D01*
X23943224Y-49631684D01*
X23858316Y-49546776D01*
X23858314Y-49546775D01*
X23858313Y-49546774D01*
X23749489Y-49496029D01*
X23749488Y-49496028D01*
X23724694Y-49492764D01*
X23699901Y-49489500D01*
X23699900Y-49489500D01*
X23476328Y-49489500D01*
X23426830Y-49476237D01*
X23375638Y-49446682D01*
X23292853Y-49424500D01*
X23292851Y-49424500D01*
X8174500Y-49424500D01*
X8116309Y-49405593D01*
X8080345Y-49356093D01*
X8075500Y-49325500D01*
X8075500Y-49207148D01*
X8073548Y-49199862D01*
X8053318Y-49124362D01*
X8010465Y-49050138D01*
X7949862Y-48989535D01*
X7875638Y-48946682D01*
X7873807Y-48946191D01*
X7872669Y-48945452D01*
X7869645Y-48944200D01*
X7869877Y-48943639D01*
X7822495Y-48912867D01*
X7805911Y-48880315D01*
X7805803Y-48880361D01*
X7805228Y-48878974D01*
X7803805Y-48876180D01*
X7803318Y-48874362D01*
X7760465Y-48800138D01*
X7699862Y-48739535D01*
X7625638Y-48696682D01*
X7542853Y-48674500D01*
X7542851Y-48674500D01*
X5924500Y-48674500D01*
X5866309Y-48655593D01*
X5830345Y-48606093D01*
X5825500Y-48575500D01*
X5825500Y-25674500D01*
X5844407Y-25616309D01*
X5893907Y-25580345D01*
X5924500Y-25575500D01*
X9792851Y-25575500D01*
X9792853Y-25575500D01*
X9875638Y-25553318D01*
X9949862Y-25510465D01*
X10010465Y-25449862D01*
X10053318Y-25375638D01*
X10075500Y-25292853D01*
X10075500Y-24139422D01*
X10094407Y-24081231D01*
X10125001Y-24053685D01*
X10125635Y-24053318D01*
X10125638Y-24053318D01*
X10199862Y-24010465D01*
X10260465Y-23949862D01*
X10303318Y-23875638D01*
X10325500Y-23792853D01*
X10325500Y-22707147D01*
X10303318Y-22624362D01*
X10260465Y-22550138D01*
X10199862Y-22489535D01*
X10125638Y-22446682D01*
X10123807Y-22446191D01*
X10122669Y-22445452D01*
X10119645Y-22444200D01*
X10119877Y-22443639D01*
X10072495Y-22412867D01*
X10055911Y-22380315D01*
X10055803Y-22380361D01*
X10055228Y-22378974D01*
X10053805Y-22376180D01*
X10053318Y-22374362D01*
X10010465Y-22300138D01*
X9954828Y-22244501D01*
X9927053Y-22189987D01*
X9936624Y-22129555D01*
X9979889Y-22086290D01*
X10024834Y-22075500D01*
X10743121Y-22075500D01*
X10801312Y-22094407D01*
G37*
%TD.AperFunction*%
%TA.AperFunction,Conductor*%
G36*
X35486315Y-29070166D02*
G01*
X35486841Y-29069431D01*
X35493514Y-29074195D01*
X35493517Y-29074198D01*
X35519698Y-29086997D01*
X35598604Y-29125572D01*
X35598605Y-29125572D01*
X35598607Y-29125573D01*
X35666740Y-29135500D01*
X36140178Y-29135500D01*
X36189678Y-29148764D01*
X36306810Y-29216390D01*
X36306808Y-29216390D01*
X36306812Y-29216391D01*
X36306814Y-29216392D01*
X36434108Y-29250500D01*
X36434110Y-29250500D01*
X36565890Y-29250500D01*
X36565892Y-29250500D01*
X36693186Y-29216392D01*
X36693188Y-29216390D01*
X36693190Y-29216390D01*
X36810322Y-29148764D01*
X36859822Y-29135500D01*
X37101000Y-29135500D01*
X37159191Y-29154407D01*
X37195155Y-29203907D01*
X37200000Y-29234500D01*
X37200000Y-55468273D01*
X37181560Y-55525816D01*
X36700000Y-56199999D01*
X36700000Y-58325500D01*
X36681093Y-58383691D01*
X36631593Y-58419655D01*
X36601000Y-58424500D01*
X35889423Y-58424500D01*
X35831232Y-58405593D01*
X35803687Y-58375000D01*
X35760466Y-58300140D01*
X35760465Y-58300138D01*
X35699862Y-58239535D01*
X35625638Y-58196682D01*
X35623807Y-58196191D01*
X35622669Y-58195452D01*
X35619645Y-58194200D01*
X35619877Y-58193639D01*
X35572495Y-58162867D01*
X35555911Y-58130315D01*
X35555803Y-58130361D01*
X35555228Y-58128974D01*
X35553805Y-58126180D01*
X35553318Y-58124362D01*
X35510465Y-58050138D01*
X35449862Y-57989535D01*
X35375638Y-57946682D01*
X35292853Y-57924500D01*
X35292851Y-57924500D01*
X30924500Y-57924500D01*
X30866309Y-57905593D01*
X30830345Y-57856093D01*
X30825500Y-57825500D01*
X30825500Y-56707148D01*
X30825500Y-56707147D01*
X30803318Y-56624362D01*
X30760465Y-56550138D01*
X30699862Y-56489535D01*
X30625638Y-56446682D01*
X30542853Y-56424500D01*
X30542851Y-56424500D01*
X28174500Y-56424500D01*
X28116309Y-56405593D01*
X28080345Y-56356093D01*
X28075500Y-56325500D01*
X28075500Y-51674500D01*
X28094407Y-51616309D01*
X28143907Y-51580345D01*
X28174500Y-51575500D01*
X28707147Y-51575500D01*
X28792853Y-51575500D01*
X29242560Y-51575500D01*
X29300751Y-51594407D01*
X29301348Y-51594845D01*
X29312116Y-51602792D01*
X29312117Y-51602792D01*
X29312118Y-51602793D01*
X29440301Y-51647646D01*
X29470725Y-51650499D01*
X29470727Y-51650500D01*
X29470734Y-51650500D01*
X30529273Y-51650500D01*
X30529273Y-51650499D01*
X30559699Y-51647646D01*
X30687882Y-51602793D01*
X30797150Y-51522150D01*
X30877793Y-51412882D01*
X30922646Y-51284699D01*
X30925499Y-51254273D01*
X30925500Y-51254273D01*
X30925500Y-50645727D01*
X30925499Y-50645725D01*
X30924500Y-50635070D01*
X30922646Y-50615301D01*
X30877793Y-50487118D01*
X30852778Y-50453224D01*
X30797154Y-50377855D01*
X30797152Y-50377853D01*
X30797150Y-50377850D01*
X30797146Y-50377847D01*
X30797144Y-50377845D01*
X30687883Y-50297207D01*
X30559703Y-50252355D01*
X30559694Y-50252353D01*
X30529274Y-50249500D01*
X30529266Y-50249500D01*
X29470734Y-50249500D01*
X29470725Y-50249500D01*
X29440305Y-50252353D01*
X29440296Y-50252355D01*
X29312116Y-50297207D01*
X29233288Y-50355385D01*
X29175240Y-50374727D01*
X29116910Y-50356255D01*
X29080577Y-50307026D01*
X29075500Y-50275730D01*
X29075500Y-48639422D01*
X29094407Y-48581231D01*
X29125001Y-48553685D01*
X29125635Y-48553318D01*
X29125638Y-48553318D01*
X29199862Y-48510465D01*
X29260465Y-48449862D01*
X29283315Y-48410283D01*
X29303687Y-48375000D01*
X29349156Y-48334059D01*
X29389423Y-48325500D01*
X29792851Y-48325500D01*
X29792853Y-48325500D01*
X29875638Y-48303318D01*
X29949862Y-48260465D01*
X30010465Y-48199862D01*
X30053318Y-48125638D01*
X30075500Y-48042853D01*
X30075500Y-44991740D01*
X33124500Y-44991740D01*
X33124500Y-45358260D01*
X33131118Y-45403682D01*
X33134427Y-45426395D01*
X33185801Y-45531481D01*
X33185802Y-45531483D01*
X33268517Y-45614198D01*
X33322285Y-45640483D01*
X33373604Y-45665572D01*
X33373605Y-45665572D01*
X33373607Y-45665573D01*
X33441740Y-45675500D01*
X33441743Y-45675500D01*
X35258257Y-45675500D01*
X35258260Y-45675500D01*
X35326393Y-45665573D01*
X35431483Y-45614198D01*
X35514198Y-45531483D01*
X35565573Y-45426393D01*
X35575500Y-45358260D01*
X35575500Y-44991740D01*
X35565573Y-44923607D01*
X35514198Y-44818517D01*
X35431483Y-44735802D01*
X35431481Y-44735801D01*
X35326395Y-44684427D01*
X35299139Y-44680456D01*
X35258260Y-44674500D01*
X33441740Y-44674500D01*
X33407673Y-44679463D01*
X33373604Y-44684427D01*
X33268518Y-44735801D01*
X33185801Y-44818518D01*
X33134427Y-44923604D01*
X33134427Y-44923607D01*
X33124500Y-44991740D01*
X30075500Y-44991740D01*
X30075500Y-43721740D01*
X33124500Y-43721740D01*
X33124500Y-44088260D01*
X33131118Y-44133682D01*
X33134427Y-44156395D01*
X33185801Y-44261481D01*
X33185802Y-44261483D01*
X33268517Y-44344198D01*
X33322285Y-44370483D01*
X33373604Y-44395572D01*
X33373605Y-44395572D01*
X33373607Y-44395573D01*
X33441740Y-44405500D01*
X33441743Y-44405500D01*
X35258257Y-44405500D01*
X35258260Y-44405500D01*
X35326393Y-44395573D01*
X35431483Y-44344198D01*
X35514198Y-44261483D01*
X35565573Y-44156393D01*
X35575500Y-44088260D01*
X35575500Y-43721740D01*
X35565573Y-43653607D01*
X35514198Y-43548517D01*
X35431483Y-43465802D01*
X35431481Y-43465801D01*
X35326395Y-43414427D01*
X35299139Y-43410456D01*
X35258260Y-43404500D01*
X33441740Y-43404500D01*
X33407673Y-43409463D01*
X33373604Y-43414427D01*
X33268518Y-43465801D01*
X33185801Y-43548518D01*
X33134427Y-43653604D01*
X33134427Y-43653607D01*
X33124500Y-43721740D01*
X30075500Y-43721740D01*
X30075500Y-43524499D01*
X30094407Y-43466308D01*
X30143907Y-43430344D01*
X30174500Y-43425499D01*
X30306521Y-43425499D01*
X30306522Y-43425498D01*
X30376430Y-43414427D01*
X30400299Y-43410647D01*
X30400299Y-43410646D01*
X30400304Y-43410646D01*
X30513342Y-43353050D01*
X30603050Y-43263342D01*
X30660646Y-43150304D01*
X30675500Y-43056519D01*
X30675499Y-42593482D01*
X30660646Y-42499696D01*
X30660645Y-42499694D01*
X30660645Y-42499692D01*
X30645233Y-42469445D01*
X30635661Y-42409013D01*
X30663438Y-42354497D01*
X30717955Y-42326719D01*
X30733442Y-42325500D01*
X30792851Y-42325500D01*
X30792853Y-42325500D01*
X30875638Y-42303318D01*
X30949862Y-42260465D01*
X31010465Y-42199862D01*
X31053318Y-42125638D01*
X31053806Y-42123817D01*
X31054540Y-42122686D01*
X31055802Y-42119640D01*
X31056366Y-42119873D01*
X31087127Y-42072500D01*
X31119685Y-42055911D01*
X31119640Y-42055802D01*
X31121027Y-42055227D01*
X31123817Y-42053806D01*
X31124247Y-42053690D01*
X31125638Y-42053318D01*
X31199862Y-42010465D01*
X31260465Y-41949862D01*
X31303318Y-41875638D01*
X31325500Y-41792853D01*
X31325500Y-40424500D01*
X31344407Y-40366309D01*
X31393907Y-40330345D01*
X31424500Y-40325500D01*
X32331505Y-40325500D01*
X32389696Y-40344407D01*
X32425660Y-40393907D01*
X32425660Y-40455093D01*
X32389696Y-40504593D01*
X32357130Y-40520125D01*
X32327988Y-40527934D01*
X32306809Y-40533609D01*
X32192690Y-40599496D01*
X32099496Y-40692690D01*
X32033609Y-40806809D01*
X32018151Y-40864500D01*
X31999500Y-40934108D01*
X31999500Y-41065892D01*
X32012285Y-41113607D01*
X32033609Y-41193190D01*
X32099496Y-41307309D01*
X32099498Y-41307311D01*
X32099500Y-41307314D01*
X32145505Y-41353319D01*
X32173281Y-41407834D01*
X32174500Y-41423321D01*
X32174500Y-42542853D01*
X32196682Y-42625638D01*
X32239535Y-42699862D01*
X32300138Y-42760465D01*
X32374362Y-42803318D01*
X32457147Y-42825500D01*
X32542853Y-42825500D01*
X33042859Y-42825500D01*
X33101050Y-42844407D01*
X33131800Y-42881020D01*
X33134427Y-42886393D01*
X33185802Y-42991483D01*
X33268517Y-43074198D01*
X33322285Y-43100483D01*
X33373604Y-43125572D01*
X33373605Y-43125572D01*
X33373607Y-43125573D01*
X33441740Y-43135500D01*
X33441743Y-43135500D01*
X35258257Y-43135500D01*
X35258260Y-43135500D01*
X35326393Y-43125573D01*
X35431483Y-43074198D01*
X35514198Y-42991483D01*
X35565573Y-42886393D01*
X35575500Y-42818260D01*
X35575500Y-42451740D01*
X35565573Y-42383607D01*
X35561996Y-42376291D01*
X35514198Y-42278518D01*
X35514198Y-42278517D01*
X35431483Y-42195802D01*
X35431481Y-42195801D01*
X35326395Y-42144427D01*
X35299139Y-42140456D01*
X35258260Y-42134500D01*
X33441740Y-42134500D01*
X33400860Y-42140456D01*
X33373605Y-42144427D01*
X33350766Y-42155593D01*
X33332666Y-42164441D01*
X33289187Y-42174500D01*
X32924500Y-42174500D01*
X32866309Y-42155593D01*
X32830345Y-42106093D01*
X32825500Y-42075500D01*
X32825500Y-41423321D01*
X32844407Y-41365130D01*
X32854490Y-41353323D01*
X32900500Y-41307314D01*
X32939763Y-41239307D01*
X32985233Y-41198367D01*
X33046083Y-41191971D01*
X33099071Y-41222564D01*
X33123958Y-41278460D01*
X33124500Y-41288808D01*
X33124500Y-41548260D01*
X33128469Y-41575500D01*
X33134427Y-41616395D01*
X33176791Y-41703050D01*
X33185802Y-41721483D01*
X33268517Y-41804198D01*
X33322285Y-41830483D01*
X33373604Y-41855572D01*
X33373605Y-41855572D01*
X33373607Y-41855573D01*
X33441740Y-41865500D01*
X33441743Y-41865500D01*
X35258257Y-41865500D01*
X35258260Y-41865500D01*
X35326393Y-41855573D01*
X35431483Y-41804198D01*
X35514198Y-41721483D01*
X35565573Y-41616393D01*
X35575500Y-41548260D01*
X35575500Y-41181740D01*
X35565573Y-41113607D01*
X35565054Y-41112546D01*
X35517462Y-41015194D01*
X35514198Y-41008517D01*
X35431483Y-40925802D01*
X35415608Y-40918041D01*
X35326395Y-40874427D01*
X35299139Y-40870456D01*
X35258260Y-40864500D01*
X33441740Y-40864500D01*
X33407673Y-40869463D01*
X33373604Y-40874427D01*
X33268518Y-40925801D01*
X33185800Y-41008519D01*
X33181035Y-41015194D01*
X33178507Y-41013389D01*
X33145882Y-41047101D01*
X33085614Y-41057659D01*
X33030651Y-41030777D01*
X33001985Y-40976722D01*
X33000500Y-40959638D01*
X33000500Y-40934109D01*
X32995565Y-40915690D01*
X32966392Y-40806814D01*
X32966390Y-40806811D01*
X32966390Y-40806809D01*
X32900503Y-40692690D01*
X32900501Y-40692688D01*
X32900500Y-40692686D01*
X32807314Y-40599500D01*
X32807311Y-40599498D01*
X32807309Y-40599496D01*
X32693189Y-40533609D01*
X32693191Y-40533609D01*
X32672011Y-40527934D01*
X32642870Y-40520126D01*
X32591558Y-40486803D01*
X32569631Y-40429681D01*
X32585467Y-40370581D01*
X32633016Y-40332076D01*
X32668495Y-40325500D01*
X33062414Y-40325500D01*
X33120605Y-40344407D01*
X33151354Y-40381019D01*
X33185802Y-40451483D01*
X33268517Y-40534198D01*
X33290423Y-40544907D01*
X33373604Y-40585572D01*
X33373605Y-40585572D01*
X33373607Y-40585573D01*
X33441740Y-40595500D01*
X33441743Y-40595500D01*
X35258257Y-40595500D01*
X35258260Y-40595500D01*
X35326393Y-40585573D01*
X35431483Y-40534198D01*
X35514198Y-40451483D01*
X35565573Y-40346393D01*
X35575500Y-40278260D01*
X35575500Y-39911740D01*
X35565573Y-39843607D01*
X35514198Y-39738517D01*
X35431483Y-39655802D01*
X35431479Y-39655800D01*
X35326395Y-39604427D01*
X35299139Y-39600456D01*
X35258260Y-39594500D01*
X33441740Y-39594500D01*
X33407673Y-39599463D01*
X33373604Y-39604427D01*
X33268521Y-39655800D01*
X33268517Y-39655802D01*
X33268514Y-39655805D01*
X33268143Y-39656070D01*
X33267637Y-39656231D01*
X33261147Y-39659405D01*
X33260684Y-39658459D01*
X33210614Y-39674500D01*
X31424500Y-39674500D01*
X31366309Y-39655593D01*
X31330345Y-39606093D01*
X31325500Y-39575500D01*
X31325500Y-38174500D01*
X31344407Y-38116309D01*
X31393907Y-38080345D01*
X31424500Y-38075500D01*
X33542852Y-38075500D01*
X33542853Y-38075500D01*
X33604907Y-38058873D01*
X33630529Y-38055500D01*
X35258257Y-38055500D01*
X35258260Y-38055500D01*
X35326393Y-38045573D01*
X35431483Y-37994198D01*
X35514198Y-37911483D01*
X35565573Y-37806393D01*
X35575500Y-37738260D01*
X35575500Y-37371740D01*
X35565573Y-37303607D01*
X35514198Y-37198517D01*
X35431483Y-37115802D01*
X35431481Y-37115801D01*
X35326395Y-37064427D01*
X35299139Y-37060456D01*
X35258260Y-37054500D01*
X33441740Y-37054500D01*
X33407673Y-37059463D01*
X33373604Y-37064427D01*
X33268518Y-37115801D01*
X33185801Y-37198518D01*
X33134427Y-37303604D01*
X33134427Y-37303607D01*
X33129157Y-37339775D01*
X33102058Y-37394630D01*
X33047890Y-37423082D01*
X33031192Y-37424500D01*
X31042853Y-37424500D01*
X30957147Y-37424500D01*
X30874362Y-37446682D01*
X30800138Y-37489535D01*
X30739535Y-37550138D01*
X30696682Y-37624362D01*
X30674500Y-37707148D01*
X30674500Y-40569739D01*
X30655593Y-40627930D01*
X30606093Y-40663894D01*
X30544907Y-40663894D01*
X30517316Y-40649837D01*
X30513342Y-40646950D01*
X30400304Y-40589354D01*
X30400305Y-40589354D01*
X30306522Y-40574500D01*
X29693479Y-40574500D01*
X29693476Y-40574501D01*
X29599700Y-40589352D01*
X29599695Y-40589354D01*
X29486658Y-40646950D01*
X29480353Y-40651531D01*
X29479251Y-40650014D01*
X29433588Y-40673281D01*
X29418101Y-40674500D01*
X29073891Y-40674500D01*
X29015700Y-40655593D01*
X28979736Y-40606093D01*
X28978270Y-40601144D01*
X28966392Y-40556814D01*
X28966390Y-40556811D01*
X28966390Y-40556809D01*
X28900503Y-40442690D01*
X28900501Y-40442688D01*
X28900500Y-40442686D01*
X28807314Y-40349500D01*
X28807311Y-40349498D01*
X28807309Y-40349496D01*
X28693189Y-40283609D01*
X28693191Y-40283609D01*
X28643799Y-40270375D01*
X28565892Y-40249500D01*
X28434108Y-40249500D01*
X28356200Y-40270375D01*
X28306809Y-40283609D01*
X28192690Y-40349496D01*
X28099496Y-40442690D01*
X28033609Y-40556809D01*
X28033608Y-40556814D01*
X28021734Y-40601124D01*
X27988412Y-40652437D01*
X27931290Y-40674364D01*
X27926109Y-40674500D01*
X25042853Y-40674500D01*
X24957147Y-40674500D01*
X24874362Y-40696682D01*
X24805122Y-40736658D01*
X24800135Y-40739537D01*
X24766897Y-40772775D01*
X24712380Y-40800552D01*
X24651948Y-40790980D01*
X24608685Y-40747718D01*
X24603050Y-40736658D01*
X24603048Y-40736656D01*
X24598469Y-40730353D01*
X24599983Y-40729252D01*
X24576717Y-40683575D01*
X24575500Y-40668100D01*
X24575500Y-34424500D01*
X24594407Y-34366309D01*
X24643907Y-34330345D01*
X24674500Y-34325500D01*
X32245684Y-34325500D01*
X32303875Y-34344407D01*
X32339839Y-34393907D01*
X32339839Y-34455093D01*
X32331420Y-34474000D01*
X32283609Y-34556809D01*
X32273784Y-34593479D01*
X32249500Y-34684108D01*
X32249500Y-34815892D01*
X32279579Y-34928151D01*
X32283609Y-34943190D01*
X32349496Y-35057309D01*
X32349498Y-35057311D01*
X32349500Y-35057314D01*
X32442686Y-35150500D01*
X32442688Y-35150501D01*
X32442690Y-35150503D01*
X32556810Y-35216390D01*
X32556808Y-35216390D01*
X32556812Y-35216391D01*
X32556814Y-35216392D01*
X32684108Y-35250500D01*
X32684110Y-35250500D01*
X32815890Y-35250500D01*
X32815892Y-35250500D01*
X32943186Y-35216392D01*
X32943188Y-35216390D01*
X32943190Y-35216390D01*
X33057309Y-35150503D01*
X33057310Y-35150502D01*
X33057314Y-35150500D01*
X33063907Y-35143907D01*
X33103319Y-35104496D01*
X33157836Y-35076719D01*
X33173322Y-35075500D01*
X33243121Y-35075500D01*
X33301312Y-35094407D01*
X33337276Y-35143907D01*
X33337276Y-35143908D01*
X33339354Y-35150306D01*
X33376490Y-35223187D01*
X33396950Y-35263342D01*
X33486658Y-35353050D01*
X33599696Y-35410646D01*
X33693481Y-35425500D01*
X34306518Y-35425499D01*
X34306520Y-35425499D01*
X34306521Y-35425498D01*
X34353411Y-35418072D01*
X34400299Y-35410647D01*
X34400299Y-35410646D01*
X34400304Y-35410646D01*
X34513342Y-35353050D01*
X34603050Y-35263342D01*
X34660646Y-35150304D01*
X34675500Y-35056519D01*
X34675499Y-34593482D01*
X34660646Y-34499696D01*
X34660645Y-34499692D01*
X34645233Y-34469445D01*
X34635661Y-34409013D01*
X34663438Y-34354497D01*
X34717955Y-34326719D01*
X34733442Y-34325500D01*
X34792851Y-34325500D01*
X34792853Y-34325500D01*
X34875638Y-34303318D01*
X34949862Y-34260465D01*
X35010465Y-34199862D01*
X35053318Y-34125638D01*
X35053806Y-34123817D01*
X35054540Y-34122686D01*
X35055802Y-34119640D01*
X35056366Y-34119873D01*
X35087127Y-34072500D01*
X35119685Y-34055911D01*
X35119640Y-34055802D01*
X35121027Y-34055227D01*
X35123817Y-34053806D01*
X35124247Y-34053690D01*
X35125638Y-34053318D01*
X35199862Y-34010465D01*
X35260465Y-33949862D01*
X35303318Y-33875638D01*
X35325500Y-33792853D01*
X35325500Y-29145188D01*
X35344407Y-29086997D01*
X35393907Y-29051033D01*
X35455093Y-29051033D01*
X35486315Y-29070166D01*
G37*
%TD.AperFunction*%
%TA.AperFunction,Conductor*%
G36*
X7573991Y-50024236D02*
G01*
X7624362Y-50053318D01*
X7707147Y-50075500D01*
X13331505Y-50075500D01*
X13389696Y-50094407D01*
X13425660Y-50143907D01*
X13425660Y-50205093D01*
X13389696Y-50254593D01*
X13357130Y-50270125D01*
X13327988Y-50277934D01*
X13306809Y-50283609D01*
X13192690Y-50349496D01*
X13192684Y-50349500D01*
X13146681Y-50395504D01*
X13092164Y-50423281D01*
X13076678Y-50424500D01*
X12292853Y-50424500D01*
X12207147Y-50424500D01*
X12124362Y-50446682D01*
X12054325Y-50487118D01*
X12050135Y-50489537D01*
X11994166Y-50545505D01*
X11939649Y-50573281D01*
X11924164Y-50574500D01*
X11693479Y-50574500D01*
X11693476Y-50574501D01*
X11599700Y-50589352D01*
X11599695Y-50589354D01*
X11486659Y-50646949D01*
X11396949Y-50736659D01*
X11339354Y-50849695D01*
X11324500Y-50943477D01*
X11324500Y-51406520D01*
X11324501Y-51406523D01*
X11339352Y-51500299D01*
X11339354Y-51500304D01*
X11396950Y-51613342D01*
X11486658Y-51703050D01*
X11599696Y-51760646D01*
X11693481Y-51775500D01*
X12306518Y-51775499D01*
X12306520Y-51775499D01*
X12306521Y-51775498D01*
X12353411Y-51768072D01*
X12400299Y-51760647D01*
X12400299Y-51760646D01*
X12400304Y-51760646D01*
X12513342Y-51703050D01*
X12603050Y-51613342D01*
X12660646Y-51500304D01*
X12675500Y-51406519D01*
X12675499Y-51174499D01*
X12694406Y-51116310D01*
X12743906Y-51080346D01*
X12774499Y-51075500D01*
X13076678Y-51075500D01*
X13134869Y-51094407D01*
X13146681Y-51104496D01*
X13192684Y-51150499D01*
X13192690Y-51150503D01*
X13306810Y-51216390D01*
X13306808Y-51216390D01*
X13306812Y-51216391D01*
X13306814Y-51216392D01*
X13434108Y-51250500D01*
X13434110Y-51250500D01*
X13565890Y-51250500D01*
X13565892Y-51250500D01*
X13693186Y-51216392D01*
X13693188Y-51216390D01*
X13693190Y-51216390D01*
X13807309Y-51150503D01*
X13807309Y-51150502D01*
X13807314Y-51150500D01*
X13900500Y-51057314D01*
X13904643Y-51050138D01*
X13966390Y-50943190D01*
X13966390Y-50943188D01*
X13966392Y-50943186D01*
X14000500Y-50815892D01*
X14000500Y-50684108D01*
X13966392Y-50556814D01*
X13966390Y-50556811D01*
X13966390Y-50556809D01*
X13900503Y-50442690D01*
X13900501Y-50442688D01*
X13900500Y-50442686D01*
X13807314Y-50349500D01*
X13807311Y-50349498D01*
X13807309Y-50349496D01*
X13693189Y-50283609D01*
X13693191Y-50283609D01*
X13672011Y-50277934D01*
X13642870Y-50270126D01*
X13591558Y-50236803D01*
X13569631Y-50179681D01*
X13585467Y-50120581D01*
X13633016Y-50082076D01*
X13668495Y-50075500D01*
X22940501Y-50075500D01*
X22998692Y-50094407D01*
X23034656Y-50143907D01*
X23039501Y-50174500D01*
X23039501Y-50209907D01*
X23046027Y-50259486D01*
X23046027Y-50259488D01*
X23096774Y-50368313D01*
X23096775Y-50368314D01*
X23096776Y-50368316D01*
X23181684Y-50453224D01*
X23290513Y-50503972D01*
X23338422Y-50510279D01*
X23393647Y-50536620D01*
X23422842Y-50590391D01*
X23424500Y-50608432D01*
X23424500Y-53330755D01*
X23405593Y-53388946D01*
X23356093Y-53424910D01*
X23299881Y-53426383D01*
X23292853Y-53424500D01*
X23292852Y-53424500D01*
X12680260Y-53424500D01*
X12622069Y-53405593D01*
X12586105Y-53356093D01*
X12586105Y-53294907D01*
X12600166Y-53267311D01*
X12603047Y-53263344D01*
X12603050Y-53263342D01*
X12660646Y-53150304D01*
X12675500Y-53056519D01*
X12675499Y-52593482D01*
X12660646Y-52499696D01*
X12603050Y-52386658D01*
X12513342Y-52296950D01*
X12400304Y-52239354D01*
X12400305Y-52239354D01*
X12306522Y-52224500D01*
X12306519Y-52224500D01*
X11950347Y-52224500D01*
X11900849Y-52211237D01*
X11875638Y-52196682D01*
X11792853Y-52174500D01*
X11792851Y-52174500D01*
X7424500Y-52174500D01*
X7366309Y-52155593D01*
X7330345Y-52106093D01*
X7325500Y-52075500D01*
X7325500Y-50570916D01*
X7344407Y-50512725D01*
X7345638Y-50511282D01*
X7349651Y-50505757D01*
X7349658Y-50505751D01*
X7409951Y-50387420D01*
X7425500Y-50289246D01*
X7425500Y-50109977D01*
X7444407Y-50051786D01*
X7493907Y-50015822D01*
X7555093Y-50015822D01*
X7573991Y-50024236D01*
G37*
%TD.AperFunction*%
%TA.AperFunction,Conductor*%
G36*
X5133691Y-29344407D02*
G01*
X5169655Y-29393907D01*
X5174500Y-29424500D01*
X5174500Y-49042853D01*
X5196682Y-49125638D01*
X5239535Y-49199862D01*
X5300138Y-49260465D01*
X5374362Y-49303318D01*
X5457147Y-49325500D01*
X5542853Y-49325500D01*
X6155084Y-49325500D01*
X6213275Y-49344407D01*
X6249239Y-49393907D01*
X6249239Y-49455093D01*
X6229359Y-49487534D01*
X6229923Y-49487944D01*
X6225342Y-49494249D01*
X6165050Y-49612576D01*
X6165049Y-49612580D01*
X6149500Y-49710751D01*
X6149500Y-50289248D01*
X6159043Y-50349500D01*
X6163532Y-50377845D01*
X6165049Y-50387419D01*
X6165050Y-50387423D01*
X6183321Y-50423281D01*
X6225342Y-50505751D01*
X6225344Y-50505753D01*
X6229923Y-50512056D01*
X6228833Y-50512847D01*
X6252865Y-50560013D01*
X6243294Y-50620445D01*
X6200029Y-50663710D01*
X6155084Y-50674500D01*
X4889423Y-50674500D01*
X4831232Y-50655593D01*
X4803687Y-50625000D01*
X4760466Y-50550140D01*
X4760465Y-50550138D01*
X4699862Y-50489535D01*
X4690444Y-50484098D01*
X4624999Y-50446312D01*
X4584059Y-50400842D01*
X4575500Y-50360576D01*
X4575500Y-33207148D01*
X4573548Y-33199862D01*
X4553318Y-33124362D01*
X4510465Y-33050138D01*
X4449862Y-32989535D01*
X4375638Y-32946682D01*
X4292853Y-32924500D01*
X4292851Y-32924500D01*
X1924500Y-32924500D01*
X1866309Y-32905593D01*
X1830345Y-32856093D01*
X1825500Y-32825500D01*
X1825500Y-30680602D01*
X1844407Y-30622411D01*
X1893907Y-30586447D01*
X1955093Y-30586447D01*
X1962380Y-30589136D01*
X2074764Y-30635687D01*
X2187280Y-30650500D01*
X2187281Y-30650500D01*
X3512719Y-30650500D01*
X3512720Y-30650500D01*
X3625236Y-30635687D01*
X3765233Y-30577698D01*
X3885451Y-30485451D01*
X3977698Y-30365233D01*
X4035687Y-30225236D01*
X4050500Y-30112720D01*
X4050500Y-29424500D01*
X4069407Y-29366309D01*
X4118907Y-29330345D01*
X4149500Y-29325500D01*
X5075500Y-29325500D01*
X5133691Y-29344407D01*
G37*
%TD.AperFunction*%
%TA.AperFunction,Conductor*%
G36*
X4549501Y-23510096D02*
G01*
X4550135Y-23510462D01*
X4550138Y-23510465D01*
X4624362Y-23553318D01*
X4707147Y-23575500D01*
X4792853Y-23575500D01*
X4860577Y-23575500D01*
X4918768Y-23594407D01*
X4946313Y-23625000D01*
X4978795Y-23681260D01*
X4989535Y-23699862D01*
X5050138Y-23760465D01*
X5124362Y-23803318D01*
X5124364Y-23803318D01*
X5124999Y-23803685D01*
X5165941Y-23849154D01*
X5174500Y-23889422D01*
X5174500Y-28575500D01*
X5155593Y-28633691D01*
X5106093Y-28669655D01*
X5075500Y-28674500D01*
X3707147Y-28674500D01*
X3624362Y-28696682D01*
X3555849Y-28736237D01*
X3506351Y-28749500D01*
X3149148Y-28749500D01*
X3090957Y-28730593D01*
X3054993Y-28681093D01*
X3053521Y-28624880D01*
X3075500Y-28542853D01*
X3075500Y-23889422D01*
X3094407Y-23831231D01*
X3125001Y-23803685D01*
X3125635Y-23803318D01*
X3125638Y-23803318D01*
X3199862Y-23760465D01*
X3260465Y-23699862D01*
X3283315Y-23660283D01*
X3303687Y-23625000D01*
X3349156Y-23584059D01*
X3389423Y-23575500D01*
X4292851Y-23575500D01*
X4292853Y-23575500D01*
X4375638Y-23553318D01*
X4449862Y-23510465D01*
X4449864Y-23510462D01*
X4450499Y-23510096D01*
X4510348Y-23497374D01*
X4549501Y-23510096D01*
G37*
%TD.AperFunction*%
%TA.AperFunction,Conductor*%
G36*
X29766743Y-15800839D02*
G01*
X29797336Y-15853826D01*
X29799500Y-15874411D01*
X29799500Y-16289746D01*
X29799501Y-16289758D01*
X29811132Y-16348227D01*
X29811134Y-16348233D01*
X29845723Y-16399998D01*
X29862332Y-16458886D01*
X29845723Y-16510002D01*
X29811134Y-16561766D01*
X29811132Y-16561772D01*
X29799501Y-16620241D01*
X29799500Y-16620253D01*
X29799500Y-17559746D01*
X29799501Y-17559758D01*
X29811132Y-17618227D01*
X29811134Y-17618233D01*
X29845723Y-17669998D01*
X29862332Y-17728886D01*
X29845723Y-17780002D01*
X29811134Y-17831766D01*
X29811132Y-17831772D01*
X29799501Y-17890241D01*
X29799500Y-17890253D01*
X29799500Y-18829746D01*
X29799501Y-18829758D01*
X29811132Y-18888227D01*
X29811134Y-18888233D01*
X29845723Y-18939998D01*
X29862332Y-18998886D01*
X29845723Y-19050002D01*
X29811134Y-19101766D01*
X29811132Y-19101772D01*
X29799501Y-19160241D01*
X29799500Y-19160253D01*
X29799500Y-20099746D01*
X29799501Y-20099758D01*
X29811132Y-20158227D01*
X29811134Y-20158233D01*
X29845723Y-20209998D01*
X29862332Y-20268886D01*
X29845723Y-20320002D01*
X29811134Y-20371766D01*
X29811132Y-20371772D01*
X29799501Y-20430241D01*
X29799500Y-20430253D01*
X29799500Y-21369746D01*
X29799501Y-21369758D01*
X29811132Y-21428227D01*
X29811134Y-21428233D01*
X29845723Y-21479998D01*
X29862332Y-21538886D01*
X29845723Y-21590002D01*
X29811134Y-21641766D01*
X29811132Y-21641772D01*
X29799501Y-21700241D01*
X29799500Y-21700253D01*
X29799500Y-22639746D01*
X29799501Y-22639758D01*
X29811132Y-22698227D01*
X29811134Y-22698233D01*
X29845723Y-22749998D01*
X29862332Y-22808886D01*
X29845723Y-22860002D01*
X29811134Y-22911766D01*
X29811132Y-22911772D01*
X29799501Y-22970241D01*
X29799500Y-22970253D01*
X29799500Y-23909746D01*
X29799501Y-23909758D01*
X29811132Y-23968227D01*
X29811134Y-23968233D01*
X29845723Y-24019998D01*
X29862332Y-24078886D01*
X29845723Y-24130002D01*
X29811134Y-24181766D01*
X29811132Y-24181772D01*
X29799501Y-24240241D01*
X29799500Y-24240253D01*
X29799500Y-25179746D01*
X29799501Y-25179758D01*
X29811132Y-25238227D01*
X29811134Y-25238233D01*
X29845723Y-25289998D01*
X29862332Y-25348886D01*
X29845723Y-25400002D01*
X29811134Y-25451766D01*
X29811132Y-25451772D01*
X29799501Y-25510241D01*
X29799500Y-25510253D01*
X29799500Y-26449746D01*
X29799501Y-26449758D01*
X29811132Y-26508227D01*
X29811134Y-26508233D01*
X29845723Y-26559998D01*
X29862332Y-26618886D01*
X29845723Y-26670002D01*
X29811134Y-26721766D01*
X29811132Y-26721772D01*
X29799501Y-26780241D01*
X29799500Y-26780253D01*
X29799500Y-27608263D01*
X29780593Y-27666454D01*
X29731093Y-27702418D01*
X29669907Y-27702418D01*
X29620407Y-27666454D01*
X29618185Y-27663265D01*
X29579554Y-27605451D01*
X29579552Y-27605448D01*
X29564998Y-27595723D01*
X29513233Y-27561134D01*
X29513231Y-27561133D01*
X29513228Y-27561132D01*
X29513227Y-27561132D01*
X29454758Y-27549501D01*
X29454748Y-27549500D01*
X28515252Y-27549500D01*
X28515251Y-27549500D01*
X28515241Y-27549501D01*
X28456772Y-27561132D01*
X28456766Y-27561134D01*
X28405002Y-27595723D01*
X28346114Y-27612332D01*
X28294998Y-27595723D01*
X28243233Y-27561134D01*
X28243231Y-27561133D01*
X28243228Y-27561132D01*
X28243227Y-27561132D01*
X28184758Y-27549501D01*
X28184748Y-27549500D01*
X27245252Y-27549500D01*
X27245251Y-27549500D01*
X27245241Y-27549501D01*
X27186772Y-27561132D01*
X27186766Y-27561134D01*
X27135002Y-27595723D01*
X27076114Y-27612332D01*
X27024998Y-27595723D01*
X26973233Y-27561134D01*
X26973231Y-27561133D01*
X26973228Y-27561132D01*
X26973227Y-27561132D01*
X26914758Y-27549501D01*
X26914748Y-27549500D01*
X25975252Y-27549500D01*
X25975251Y-27549500D01*
X25975241Y-27549501D01*
X25916772Y-27561132D01*
X25916766Y-27561134D01*
X25865002Y-27595723D01*
X25806114Y-27612332D01*
X25754998Y-27595723D01*
X25703233Y-27561134D01*
X25703231Y-27561133D01*
X25703228Y-27561132D01*
X25703227Y-27561132D01*
X25644758Y-27549501D01*
X25644748Y-27549500D01*
X24705252Y-27549500D01*
X24705251Y-27549500D01*
X24705241Y-27549501D01*
X24646772Y-27561132D01*
X24646766Y-27561134D01*
X24595002Y-27595723D01*
X24536114Y-27612332D01*
X24484998Y-27595723D01*
X24433233Y-27561134D01*
X24433231Y-27561133D01*
X24433228Y-27561132D01*
X24433227Y-27561132D01*
X24374758Y-27549501D01*
X24374748Y-27549500D01*
X23435252Y-27549500D01*
X23435251Y-27549500D01*
X23435241Y-27549501D01*
X23376772Y-27561132D01*
X23376766Y-27561134D01*
X23325002Y-27595723D01*
X23266114Y-27612332D01*
X23214998Y-27595723D01*
X23163233Y-27561134D01*
X23163231Y-27561133D01*
X23163228Y-27561132D01*
X23163227Y-27561132D01*
X23104758Y-27549501D01*
X23104748Y-27549500D01*
X22165252Y-27549500D01*
X22165251Y-27549500D01*
X22165241Y-27549501D01*
X22106772Y-27561132D01*
X22106766Y-27561134D01*
X22055002Y-27595723D01*
X21996114Y-27612332D01*
X21944998Y-27595723D01*
X21893233Y-27561134D01*
X21893231Y-27561133D01*
X21893228Y-27561132D01*
X21893227Y-27561132D01*
X21834758Y-27549501D01*
X21834748Y-27549500D01*
X20895252Y-27549500D01*
X20895251Y-27549500D01*
X20895241Y-27549501D01*
X20836772Y-27561132D01*
X20836766Y-27561134D01*
X20785002Y-27595723D01*
X20726114Y-27612332D01*
X20674998Y-27595723D01*
X20623233Y-27561134D01*
X20623231Y-27561133D01*
X20623228Y-27561132D01*
X20623227Y-27561132D01*
X20564758Y-27549501D01*
X20564748Y-27549500D01*
X19625252Y-27549500D01*
X19625251Y-27549500D01*
X19625241Y-27549501D01*
X19566772Y-27561132D01*
X19566766Y-27561134D01*
X19515002Y-27595723D01*
X19456114Y-27612332D01*
X19404998Y-27595723D01*
X19353233Y-27561134D01*
X19353231Y-27561133D01*
X19353228Y-27561132D01*
X19353227Y-27561132D01*
X19294758Y-27549501D01*
X19294748Y-27549500D01*
X18355252Y-27549500D01*
X18355251Y-27549500D01*
X18355241Y-27549501D01*
X18296772Y-27561132D01*
X18296766Y-27561134D01*
X18245002Y-27595723D01*
X18186114Y-27612332D01*
X18134998Y-27595723D01*
X18083233Y-27561134D01*
X18083231Y-27561133D01*
X18083228Y-27561132D01*
X18083227Y-27561132D01*
X18024758Y-27549501D01*
X18024748Y-27549500D01*
X17085252Y-27549500D01*
X17085251Y-27549500D01*
X17085241Y-27549501D01*
X17026772Y-27561132D01*
X17026766Y-27561134D01*
X16975002Y-27595723D01*
X16916114Y-27612332D01*
X16864998Y-27595723D01*
X16813233Y-27561134D01*
X16813231Y-27561133D01*
X16813228Y-27561132D01*
X16813227Y-27561132D01*
X16754758Y-27549501D01*
X16754748Y-27549500D01*
X15815252Y-27549500D01*
X15815251Y-27549500D01*
X15815241Y-27549501D01*
X15756772Y-27561132D01*
X15756766Y-27561134D01*
X15705002Y-27595723D01*
X15646114Y-27612332D01*
X15594998Y-27595723D01*
X15543233Y-27561134D01*
X15543231Y-27561133D01*
X15543228Y-27561132D01*
X15543227Y-27561132D01*
X15484758Y-27549501D01*
X15484748Y-27549500D01*
X14545252Y-27549500D01*
X14545251Y-27549500D01*
X14545241Y-27549501D01*
X14486772Y-27561132D01*
X14486766Y-27561134D01*
X14420451Y-27605445D01*
X14420445Y-27605451D01*
X14381815Y-27663265D01*
X14333765Y-27701144D01*
X14272626Y-27703546D01*
X14221753Y-27669552D01*
X14200576Y-27612149D01*
X14200500Y-27608263D01*
X14200500Y-26780253D01*
X14200498Y-26780241D01*
X14194582Y-26750500D01*
X14188867Y-26721769D01*
X14154274Y-26669999D01*
X14137667Y-26611115D01*
X14154274Y-26560001D01*
X14188867Y-26508231D01*
X14200500Y-26449748D01*
X14200500Y-25510252D01*
X14188867Y-25451769D01*
X14154274Y-25399999D01*
X14137667Y-25341115D01*
X14154274Y-25290001D01*
X14188867Y-25238231D01*
X14200500Y-25179748D01*
X14200500Y-24240252D01*
X14200321Y-24239354D01*
X14196420Y-24219739D01*
X14188867Y-24181769D01*
X14154274Y-24129999D01*
X14137667Y-24071115D01*
X14154274Y-24020001D01*
X14188867Y-23968231D01*
X14200500Y-23909748D01*
X14200500Y-22970252D01*
X14188867Y-22911769D01*
X14154274Y-22859999D01*
X14137667Y-22801115D01*
X14154274Y-22750001D01*
X14188867Y-22698231D01*
X14200500Y-22639748D01*
X14200500Y-21700252D01*
X14188867Y-21641769D01*
X14154274Y-21589999D01*
X14137667Y-21531115D01*
X14154274Y-21480001D01*
X14188867Y-21428231D01*
X14200500Y-21369748D01*
X14200500Y-20874411D01*
X14219407Y-20816220D01*
X14268907Y-20780256D01*
X14330093Y-20780256D01*
X14348994Y-20788671D01*
X14374362Y-20803318D01*
X14457147Y-20825500D01*
X14826678Y-20825500D01*
X14884869Y-20844407D01*
X14896681Y-20854496D01*
X14942684Y-20900499D01*
X14942690Y-20900503D01*
X15056810Y-20966390D01*
X15056808Y-20966390D01*
X15056812Y-20966391D01*
X15056814Y-20966392D01*
X15184108Y-21000500D01*
X15184110Y-21000500D01*
X15315890Y-21000500D01*
X15315892Y-21000500D01*
X15443186Y-20966392D01*
X15443188Y-20966390D01*
X15443190Y-20966390D01*
X15557309Y-20900503D01*
X15557309Y-20900502D01*
X15557314Y-20900500D01*
X15650500Y-20807314D01*
X15666122Y-20780256D01*
X15716390Y-20693190D01*
X15716390Y-20693188D01*
X15716392Y-20693186D01*
X15750500Y-20565892D01*
X15750500Y-20434108D01*
X15716392Y-20306814D01*
X15716390Y-20306811D01*
X15716390Y-20306809D01*
X15650503Y-20192690D01*
X15650501Y-20192688D01*
X15650500Y-20192686D01*
X15557314Y-20099500D01*
X15557311Y-20099498D01*
X15557309Y-20099496D01*
X15443189Y-20033609D01*
X15443191Y-20033609D01*
X15393799Y-20020375D01*
X15315892Y-19999500D01*
X15184108Y-19999500D01*
X15106200Y-20020375D01*
X15056809Y-20033609D01*
X14974000Y-20081420D01*
X14914152Y-20094142D01*
X14858256Y-20069255D01*
X14827663Y-20016267D01*
X14825500Y-19995684D01*
X14825500Y-18707148D01*
X14823548Y-18699862D01*
X14803318Y-18624362D01*
X14760465Y-18550138D01*
X14699862Y-18489535D01*
X14625638Y-18446682D01*
X14542853Y-18424500D01*
X14542851Y-18424500D01*
X14299500Y-18424500D01*
X14241309Y-18405593D01*
X14205345Y-18356093D01*
X14200500Y-18325500D01*
X14200500Y-17890253D01*
X14200498Y-17890241D01*
X14192394Y-17849500D01*
X14188867Y-17831769D01*
X14154274Y-17779999D01*
X14137667Y-17721115D01*
X14154274Y-17670001D01*
X14188867Y-17618231D01*
X14200500Y-17559748D01*
X14200500Y-17174479D01*
X14219407Y-17116288D01*
X14268907Y-17080324D01*
X14286578Y-17076326D01*
X14292850Y-17075500D01*
X14292853Y-17075500D01*
X14375638Y-17053318D01*
X14449862Y-17010465D01*
X14510465Y-16949862D01*
X14541169Y-16896681D01*
X14553687Y-16875000D01*
X14599156Y-16834059D01*
X14639423Y-16825500D01*
X14826678Y-16825500D01*
X14884869Y-16844407D01*
X14896681Y-16854496D01*
X14942684Y-16900499D01*
X14942690Y-16900503D01*
X15056810Y-16966390D01*
X15056808Y-16966390D01*
X15056812Y-16966391D01*
X15056814Y-16966392D01*
X15184108Y-17000500D01*
X15184110Y-17000500D01*
X15315890Y-17000500D01*
X15315892Y-17000500D01*
X15443186Y-16966392D01*
X15443188Y-16966390D01*
X15443190Y-16966390D01*
X15557309Y-16900503D01*
X15557309Y-16900502D01*
X15557314Y-16900500D01*
X15650500Y-16807314D01*
X15650789Y-16806814D01*
X15716390Y-16693190D01*
X15716390Y-16693188D01*
X15716392Y-16693186D01*
X15750500Y-16565892D01*
X15750500Y-16434108D01*
X15716392Y-16306814D01*
X15716390Y-16306811D01*
X15716390Y-16306809D01*
X15650503Y-16192690D01*
X15650501Y-16192688D01*
X15650500Y-16192686D01*
X15557314Y-16099500D01*
X15557311Y-16099498D01*
X15557309Y-16099496D01*
X15443189Y-16033609D01*
X15443191Y-16033609D01*
X15422011Y-16027934D01*
X15392870Y-16020126D01*
X15341558Y-15986803D01*
X15319631Y-15929681D01*
X15335467Y-15870581D01*
X15383016Y-15832076D01*
X15418495Y-15825500D01*
X29542851Y-15825500D01*
X29542853Y-15825500D01*
X29625638Y-15803318D01*
X29651001Y-15788674D01*
X29710847Y-15775953D01*
X29766743Y-15800839D01*
G37*
%TD.AperFunction*%
%TA.AperFunction,Conductor*%
G36*
X11633691Y-10518907D02*
G01*
X11669655Y-10568407D01*
X11674500Y-10599000D01*
X11674500Y-11575500D01*
X11655593Y-11633691D01*
X11606093Y-11669655D01*
X11575500Y-11674500D01*
X11542853Y-11674500D01*
X11457147Y-11674500D01*
X11374362Y-11696682D01*
X11300138Y-11739535D01*
X11239535Y-11800138D01*
X11196682Y-11874362D01*
X11174500Y-11957148D01*
X11174500Y-12325500D01*
X11155593Y-12383691D01*
X11106093Y-12419655D01*
X11075500Y-12424500D01*
X10292853Y-12424500D01*
X10207147Y-12424500D01*
X10124362Y-12446682D01*
X10050138Y-12489535D01*
X9989535Y-12550138D01*
X9946680Y-12624365D01*
X9946679Y-12624368D01*
X9946188Y-12626202D01*
X9945448Y-12627340D01*
X9944199Y-12630357D01*
X9943639Y-12630125D01*
X9912857Y-12677511D01*
X9880313Y-12694093D01*
X9880357Y-12694199D01*
X9879012Y-12694755D01*
X9876202Y-12696188D01*
X9874368Y-12696679D01*
X9874365Y-12696680D01*
X9800138Y-12739535D01*
X9739535Y-12800138D01*
X9696682Y-12874362D01*
X9674500Y-12957148D01*
X9674500Y-13325500D01*
X9655593Y-13383691D01*
X9606093Y-13419655D01*
X9575500Y-13424500D01*
X5792853Y-13424500D01*
X5707147Y-13424500D01*
X5624362Y-13446682D01*
X5550138Y-13489535D01*
X5489535Y-13550138D01*
X5446682Y-13624362D01*
X5424500Y-13707148D01*
X5424500Y-17075500D01*
X5405593Y-17133691D01*
X5356093Y-17169655D01*
X5325500Y-17174500D01*
X3792853Y-17174500D01*
X3707147Y-17174500D01*
X3624362Y-17196682D01*
X3550138Y-17239535D01*
X3489535Y-17300138D01*
X3446682Y-17374362D01*
X3428947Y-17440553D01*
X3424500Y-17457148D01*
X3424500Y-22325500D01*
X3405593Y-22383691D01*
X3356093Y-22419655D01*
X3325500Y-22424500D01*
X2542853Y-22424500D01*
X2457147Y-22424500D01*
X2376191Y-22446192D01*
X2374362Y-22446682D01*
X2300138Y-22489535D01*
X2239535Y-22550138D01*
X2196680Y-22624365D01*
X2196679Y-22624368D01*
X2196188Y-22626202D01*
X2195448Y-22627340D01*
X2194199Y-22630357D01*
X2193639Y-22630125D01*
X2162857Y-22677511D01*
X2130313Y-22694093D01*
X2130357Y-22694199D01*
X2129012Y-22694755D01*
X2126202Y-22696188D01*
X2124368Y-22696679D01*
X2124365Y-22696680D01*
X2106236Y-22707147D01*
X2050138Y-22739535D01*
X1989535Y-22800138D01*
X1946682Y-22874362D01*
X1941289Y-22894491D01*
X1924500Y-22957148D01*
X1924500Y-27575500D01*
X1905593Y-27633691D01*
X1856093Y-27669655D01*
X1825500Y-27674500D01*
X1099000Y-27674500D01*
X1040809Y-27655593D01*
X1004845Y-27606093D01*
X1000000Y-27575500D01*
X1000000Y-10599000D01*
X1018907Y-10540809D01*
X1068407Y-10504845D01*
X1099000Y-10500000D01*
X11575500Y-10500000D01*
X11633691Y-10518907D01*
G37*
%TD.AperFunction*%
%TA.AperFunction,Conductor*%
G36*
X5803875Y-18844407D02*
G01*
X5839839Y-18893907D01*
X5839839Y-18955093D01*
X5831420Y-18974000D01*
X5783609Y-19056809D01*
X5771563Y-19101766D01*
X5749500Y-19184108D01*
X5749500Y-19315892D01*
X5752075Y-19325501D01*
X5783609Y-19443190D01*
X5849496Y-19557309D01*
X5849498Y-19557311D01*
X5849500Y-19557314D01*
X5942686Y-19650500D01*
X5942688Y-19650501D01*
X5966525Y-19664264D01*
X6007465Y-19709734D01*
X6013860Y-19770584D01*
X5983267Y-19823572D01*
X5966525Y-19835736D01*
X5942688Y-19849498D01*
X5849496Y-19942690D01*
X5783609Y-20056809D01*
X5772104Y-20099748D01*
X5749500Y-20184108D01*
X5749500Y-20315892D01*
X5764472Y-20371769D01*
X5783609Y-20443190D01*
X5849496Y-20557309D01*
X5849498Y-20557311D01*
X5849500Y-20557314D01*
X5942686Y-20650500D01*
X5942688Y-20650501D01*
X5942690Y-20650503D01*
X6056810Y-20716390D01*
X6056808Y-20716390D01*
X6056812Y-20716391D01*
X6056814Y-20716392D01*
X6184108Y-20750500D01*
X6184110Y-20750500D01*
X6315890Y-20750500D01*
X6315892Y-20750500D01*
X6443186Y-20716392D01*
X6443188Y-20716390D01*
X6443190Y-20716390D01*
X6557309Y-20650503D01*
X6557310Y-20650502D01*
X6557314Y-20650500D01*
X6575563Y-20632251D01*
X6603319Y-20604496D01*
X6657836Y-20576719D01*
X6673322Y-20575500D01*
X8005500Y-20575500D01*
X8063691Y-20594407D01*
X8099655Y-20643907D01*
X8104500Y-20674499D01*
X8104500Y-20852129D01*
X8104501Y-20852137D01*
X8120484Y-20932494D01*
X8120486Y-20932498D01*
X8128840Y-20945001D01*
X8145447Y-21003889D01*
X8128840Y-21054999D01*
X8120485Y-21067503D01*
X8120484Y-21067504D01*
X8104500Y-21147864D01*
X8104500Y-21352129D01*
X8104501Y-21352137D01*
X8120484Y-21432494D01*
X8120486Y-21432498D01*
X8128840Y-21445001D01*
X8145447Y-21503889D01*
X8128840Y-21554999D01*
X8120485Y-21567503D01*
X8120484Y-21567504D01*
X8104500Y-21647864D01*
X8104500Y-21852129D01*
X8104501Y-21852137D01*
X8120484Y-21932494D01*
X8120485Y-21932496D01*
X8146368Y-21971232D01*
X8162977Y-22030120D01*
X8152994Y-22069714D01*
X8114427Y-22148604D01*
X8110826Y-22173321D01*
X8107423Y-22196682D01*
X8104500Y-22216743D01*
X8104500Y-22245430D01*
X8085593Y-22303621D01*
X8036093Y-22339585D01*
X7979879Y-22341056D01*
X7880766Y-22314500D01*
X7729234Y-22314500D01*
X7639652Y-22338503D01*
X7582860Y-22353720D01*
X7451639Y-22429481D01*
X7344481Y-22536639D01*
X7268720Y-22667860D01*
X7258193Y-22707148D01*
X7229500Y-22814234D01*
X7229500Y-22965766D01*
X7235869Y-22989535D01*
X7268720Y-23112139D01*
X7344481Y-23243360D01*
X7344483Y-23243362D01*
X7344485Y-23243365D01*
X7451635Y-23350515D01*
X7451637Y-23350516D01*
X7451639Y-23350518D01*
X7582861Y-23426279D01*
X7582859Y-23426279D01*
X7582863Y-23426280D01*
X7582865Y-23426281D01*
X7729234Y-23465500D01*
X7729236Y-23465500D01*
X7880764Y-23465500D01*
X7880766Y-23465500D01*
X8027135Y-23426281D01*
X8027137Y-23426279D01*
X8027139Y-23426279D01*
X8158360Y-23350518D01*
X8158360Y-23350517D01*
X8158365Y-23350515D01*
X8265515Y-23243365D01*
X8292468Y-23196682D01*
X8341279Y-23112139D01*
X8341279Y-23112137D01*
X8341281Y-23112135D01*
X8378327Y-22973875D01*
X8411650Y-22922563D01*
X8468771Y-22900636D01*
X8473953Y-22900500D01*
X9338256Y-22900500D01*
X9338260Y-22900500D01*
X9385071Y-22893679D01*
X9445377Y-22903999D01*
X9485079Y-22942143D01*
X9489535Y-22949862D01*
X9550138Y-23010465D01*
X9624362Y-23053318D01*
X9624364Y-23053318D01*
X9624999Y-23053685D01*
X9665941Y-23099154D01*
X9674500Y-23139422D01*
X9674500Y-23360576D01*
X9655593Y-23418767D01*
X9625001Y-23446312D01*
X9550139Y-23489534D01*
X9550138Y-23489535D01*
X9489535Y-23550138D01*
X9446682Y-23624362D01*
X9431437Y-23681260D01*
X9424500Y-23707148D01*
X9424500Y-24825500D01*
X9405593Y-24883691D01*
X9356093Y-24919655D01*
X9325500Y-24924500D01*
X5924500Y-24924500D01*
X5866309Y-24905593D01*
X5830345Y-24856093D01*
X5825500Y-24825500D01*
X5825500Y-23457148D01*
X5822696Y-23446682D01*
X5803318Y-23374362D01*
X5760465Y-23300138D01*
X5699862Y-23239535D01*
X5625638Y-23196682D01*
X5623807Y-23196191D01*
X5622669Y-23195452D01*
X5619645Y-23194200D01*
X5619877Y-23193639D01*
X5572495Y-23162867D01*
X5555911Y-23130315D01*
X5555803Y-23130361D01*
X5555228Y-23128974D01*
X5553805Y-23126180D01*
X5553660Y-23125638D01*
X5553318Y-23124362D01*
X5510465Y-23050138D01*
X5449862Y-22989535D01*
X5375638Y-22946682D01*
X5292853Y-22924500D01*
X5292851Y-22924500D01*
X5174500Y-22924500D01*
X5116309Y-22905593D01*
X5080345Y-22856093D01*
X5075500Y-22825500D01*
X5075500Y-18924500D01*
X5094407Y-18866309D01*
X5143907Y-18830345D01*
X5174500Y-18825500D01*
X5745684Y-18825500D01*
X5803875Y-18844407D01*
G37*
%TD.AperFunction*%
%TA.AperFunction,Conductor*%
G36*
X12270504Y-16220148D02*
G01*
X12298281Y-16274664D01*
X12299341Y-16288135D01*
X12299501Y-16289758D01*
X12311132Y-16348227D01*
X12311134Y-16348233D01*
X12345723Y-16399998D01*
X12362332Y-16458886D01*
X12345723Y-16510002D01*
X12311134Y-16561766D01*
X12311132Y-16561772D01*
X12299501Y-16620241D01*
X12299500Y-16620253D01*
X12299500Y-17559746D01*
X12299501Y-17559758D01*
X12311132Y-17618227D01*
X12311134Y-17618233D01*
X12345723Y-17669998D01*
X12362332Y-17728886D01*
X12345723Y-17780002D01*
X12311134Y-17831766D01*
X12311132Y-17831772D01*
X12299501Y-17890241D01*
X12299500Y-17890253D01*
X12299500Y-18829746D01*
X12299501Y-18829758D01*
X12311132Y-18888227D01*
X12311134Y-18888233D01*
X12345723Y-18939998D01*
X12362332Y-18998886D01*
X12345723Y-19050002D01*
X12311134Y-19101766D01*
X12311132Y-19101772D01*
X12299501Y-19160241D01*
X12299500Y-19160253D01*
X12299500Y-20099746D01*
X12299501Y-20099758D01*
X12311132Y-20158227D01*
X12311134Y-20158233D01*
X12345723Y-20209998D01*
X12362332Y-20268886D01*
X12345723Y-20320002D01*
X12311134Y-20371766D01*
X12311132Y-20371772D01*
X12299501Y-20430241D01*
X12299500Y-20430253D01*
X12299500Y-21359848D01*
X12280593Y-21418039D01*
X12231093Y-21454003D01*
X12169907Y-21454003D01*
X12120407Y-21418039D01*
X12112291Y-21404795D01*
X12104999Y-21390484D01*
X12103050Y-21386658D01*
X12013342Y-21296950D01*
X11900304Y-21239354D01*
X11900305Y-21239354D01*
X11806522Y-21224500D01*
X11193479Y-21224500D01*
X11193476Y-21224501D01*
X11099700Y-21239352D01*
X11099695Y-21239354D01*
X10986659Y-21296949D01*
X10986658Y-21296949D01*
X10986658Y-21296950D01*
X10896950Y-21386658D01*
X10896949Y-21386659D01*
X10891441Y-21392168D01*
X10889757Y-21390484D01*
X10849601Y-21419656D01*
X10819013Y-21424500D01*
X9754500Y-21424500D01*
X9696309Y-21405593D01*
X9660345Y-21356093D01*
X9655500Y-21325501D01*
X9655499Y-21174501D01*
X9674406Y-21116310D01*
X9723906Y-21080346D01*
X9754499Y-21075500D01*
X10292851Y-21075500D01*
X10292853Y-21075500D01*
X10375638Y-21053318D01*
X10449862Y-21010465D01*
X10510465Y-20949862D01*
X10553318Y-20875638D01*
X10575500Y-20792853D01*
X10575500Y-20673321D01*
X10594407Y-20615130D01*
X10604490Y-20603323D01*
X10650500Y-20557314D01*
X10716392Y-20443186D01*
X10750500Y-20315892D01*
X10750500Y-20184108D01*
X10716392Y-20056814D01*
X10716390Y-20056811D01*
X10716390Y-20056809D01*
X10650503Y-19942690D01*
X10650499Y-19942684D01*
X10604496Y-19896681D01*
X10576719Y-19842164D01*
X10575500Y-19826678D01*
X10575500Y-19707148D01*
X10566752Y-19674499D01*
X10553318Y-19624362D01*
X10510465Y-19550138D01*
X10449862Y-19489535D01*
X10375638Y-19446682D01*
X10292853Y-19424500D01*
X10292851Y-19424500D01*
X9754500Y-19424500D01*
X9696309Y-19405593D01*
X9660345Y-19356093D01*
X9655500Y-19325501D01*
X9655499Y-19174501D01*
X9674406Y-19116310D01*
X9723906Y-19080346D01*
X9754499Y-19075500D01*
X10042851Y-19075500D01*
X10042853Y-19075500D01*
X10125638Y-19053318D01*
X10199862Y-19010465D01*
X10260465Y-18949862D01*
X10303318Y-18875638D01*
X10317740Y-18821810D01*
X10351064Y-18770497D01*
X10408185Y-18748570D01*
X10427547Y-18750610D01*
X10427674Y-18749653D01*
X10434107Y-18750500D01*
X10434108Y-18750500D01*
X10565890Y-18750500D01*
X10565892Y-18750500D01*
X10693186Y-18716392D01*
X10693188Y-18716390D01*
X10693190Y-18716390D01*
X10807309Y-18650503D01*
X10807309Y-18650502D01*
X10807314Y-18650500D01*
X10900500Y-18557314D01*
X10931345Y-18503889D01*
X10966390Y-18443190D01*
X10966390Y-18443188D01*
X10966392Y-18443186D01*
X11000500Y-18315892D01*
X11000500Y-18184108D01*
X10966392Y-18056814D01*
X10966390Y-18056811D01*
X10966390Y-18056809D01*
X10900503Y-17942690D01*
X10900501Y-17942688D01*
X10900500Y-17942686D01*
X10877315Y-17919501D01*
X10849540Y-17864987D01*
X10859111Y-17804555D01*
X10902376Y-17761290D01*
X10947321Y-17750500D01*
X11065890Y-17750500D01*
X11065892Y-17750500D01*
X11193186Y-17716392D01*
X11193188Y-17716390D01*
X11193190Y-17716390D01*
X11307309Y-17650503D01*
X11307309Y-17650502D01*
X11307314Y-17650500D01*
X11400500Y-17557314D01*
X11466392Y-17443186D01*
X11500500Y-17315892D01*
X11500500Y-17184108D01*
X11466392Y-17056814D01*
X11466390Y-17056811D01*
X11466390Y-17056809D01*
X11400503Y-16942690D01*
X11400499Y-16942684D01*
X11354496Y-16896681D01*
X11326719Y-16842164D01*
X11325500Y-16826678D01*
X11325500Y-16524499D01*
X11344407Y-16466308D01*
X11393907Y-16430344D01*
X11424500Y-16425499D01*
X11806521Y-16425499D01*
X11806522Y-16425498D01*
X11853411Y-16418072D01*
X11900299Y-16410647D01*
X11900299Y-16410646D01*
X11900304Y-16410646D01*
X12013342Y-16353050D01*
X12103050Y-16263342D01*
X12112291Y-16245206D01*
X12155555Y-16201941D01*
X12215987Y-16192370D01*
X12270504Y-16220148D01*
G37*
%TD.AperFunction*%
%TA.AperFunction,Conductor*%
G36*
X12266743Y-13550839D02*
G01*
X12297336Y-13603826D01*
X12299500Y-13624411D01*
X12299500Y-13749746D01*
X12299501Y-13749758D01*
X12311132Y-13808227D01*
X12311134Y-13808233D01*
X12345723Y-13859998D01*
X12362332Y-13918886D01*
X12345723Y-13970002D01*
X12311134Y-14021766D01*
X12311132Y-14021772D01*
X12299501Y-14080241D01*
X12299500Y-14080253D01*
X12299500Y-15019746D01*
X12299501Y-15019758D01*
X12311132Y-15078227D01*
X12311134Y-15078233D01*
X12345723Y-15129998D01*
X12362332Y-15188886D01*
X12345723Y-15240002D01*
X12311134Y-15291766D01*
X12311132Y-15291772D01*
X12299501Y-15350241D01*
X12299500Y-15350253D01*
X12299500Y-15359848D01*
X12280593Y-15418039D01*
X12231093Y-15454003D01*
X12169907Y-15454003D01*
X12120407Y-15418039D01*
X12112291Y-15404795D01*
X12103050Y-15386658D01*
X12013342Y-15296950D01*
X11900304Y-15239354D01*
X11900305Y-15239354D01*
X11806522Y-15224500D01*
X11193479Y-15224500D01*
X11193476Y-15224501D01*
X11099700Y-15239352D01*
X11099695Y-15239354D01*
X10986659Y-15296949D01*
X10896949Y-15386659D01*
X10839354Y-15499695D01*
X10824500Y-15593478D01*
X10824500Y-15674165D01*
X10805593Y-15732356D01*
X10795504Y-15744168D01*
X10739537Y-15800135D01*
X10739535Y-15800137D01*
X10739535Y-15800138D01*
X10696682Y-15874362D01*
X10675051Y-15955093D01*
X10674500Y-15957148D01*
X10674500Y-16826678D01*
X10655593Y-16884869D01*
X10645504Y-16896681D01*
X10599500Y-16942684D01*
X10599496Y-16942690D01*
X10533609Y-17056809D01*
X10528601Y-17075500D01*
X10522171Y-17099500D01*
X10520127Y-17107128D01*
X10486803Y-17158442D01*
X10429681Y-17180369D01*
X10370581Y-17164533D01*
X10332076Y-17116984D01*
X10325500Y-17081505D01*
X10325500Y-16207148D01*
X10321625Y-16192686D01*
X10303318Y-16124362D01*
X10260465Y-16050138D01*
X10199862Y-15989535D01*
X10190444Y-15984098D01*
X10124999Y-15946312D01*
X10084059Y-15900842D01*
X10075500Y-15860576D01*
X10075500Y-14707148D01*
X10075500Y-14707147D01*
X10073618Y-14700123D01*
X10076818Y-14639024D01*
X10115322Y-14591473D01*
X10169244Y-14575500D01*
X10542851Y-14575500D01*
X10542853Y-14575500D01*
X10625638Y-14553318D01*
X10699862Y-14510465D01*
X10760465Y-14449862D01*
X10803318Y-14375638D01*
X10825500Y-14292853D01*
X10825500Y-13889422D01*
X10844407Y-13831231D01*
X10875001Y-13803685D01*
X10875635Y-13803318D01*
X10875638Y-13803318D01*
X10949862Y-13760465D01*
X11010465Y-13699862D01*
X11033315Y-13660283D01*
X11053687Y-13625000D01*
X11099156Y-13584059D01*
X11139423Y-13575500D01*
X12042851Y-13575500D01*
X12042853Y-13575500D01*
X12125638Y-13553318D01*
X12151001Y-13538674D01*
X12210847Y-13525953D01*
X12266743Y-13550839D01*
G37*
%TD.AperFunction*%
%TA.AperFunction,Conductor*%
G36*
X9383691Y-15094407D02*
G01*
X9419655Y-15143907D01*
X9424500Y-15174500D01*
X9424500Y-16292853D01*
X9446682Y-16375638D01*
X9489535Y-16449862D01*
X9550138Y-16510465D01*
X9624362Y-16553318D01*
X9624364Y-16553318D01*
X9624999Y-16553685D01*
X9665941Y-16599154D01*
X9674500Y-16639422D01*
X9674500Y-17075500D01*
X9655593Y-17133691D01*
X9606093Y-17169655D01*
X9575500Y-17174500D01*
X9562383Y-17174500D01*
X9520519Y-17160996D01*
X9518853Y-17164405D01*
X9406395Y-17109427D01*
X9379139Y-17105456D01*
X9338260Y-17099500D01*
X8473953Y-17099500D01*
X8415762Y-17080593D01*
X8379798Y-17031093D01*
X8378333Y-17026147D01*
X8341281Y-16887865D01*
X8341279Y-16887861D01*
X8341279Y-16887860D01*
X8265518Y-16756639D01*
X8265516Y-16756637D01*
X8265515Y-16756635D01*
X8158365Y-16649485D01*
X8158362Y-16649483D01*
X8158360Y-16649481D01*
X8027138Y-16573720D01*
X8027140Y-16573720D01*
X7952366Y-16553685D01*
X7880766Y-16534500D01*
X7729234Y-16534500D01*
X7657634Y-16553685D01*
X7582860Y-16573720D01*
X7451639Y-16649481D01*
X7344481Y-16756639D01*
X7268720Y-16887861D01*
X7266237Y-16893857D01*
X7263548Y-16892743D01*
X7236800Y-16933928D01*
X7179678Y-16955853D01*
X7120578Y-16940016D01*
X7082075Y-16892465D01*
X7075500Y-16856989D01*
X7075500Y-15174500D01*
X7094407Y-15116309D01*
X7143907Y-15080345D01*
X7174500Y-15075500D01*
X9325500Y-15075500D01*
X9383691Y-15094407D01*
G37*
%TD.AperFunction*%
%TA.AperFunction,Conductor*%
G36*
X14133691Y-10518907D02*
G01*
X14169655Y-10568407D01*
X14174500Y-10599000D01*
X14174500Y-11269650D01*
X14155593Y-11327841D01*
X14106093Y-11363805D01*
X14056186Y-11366748D01*
X14019750Y-11359500D01*
X14019748Y-11359500D01*
X12480252Y-11359500D01*
X12480249Y-11359500D01*
X12443814Y-11366748D01*
X12383053Y-11359556D01*
X12338123Y-11318024D01*
X12325500Y-11269650D01*
X12325500Y-10599000D01*
X12344407Y-10540809D01*
X12393907Y-10504845D01*
X12424500Y-10500000D01*
X14075500Y-10500000D01*
X14133691Y-10518907D01*
G37*
%TD.AperFunction*%
%TA.AperFunction,Conductor*%
G36*
X31633691Y-10518907D02*
G01*
X31669655Y-10568407D01*
X31674500Y-10599000D01*
X31674500Y-11269650D01*
X31655593Y-11327841D01*
X31606093Y-11363805D01*
X31556186Y-11366748D01*
X31519750Y-11359500D01*
X31519748Y-11359500D01*
X29980252Y-11359500D01*
X29980249Y-11359500D01*
X29943814Y-11366748D01*
X29883053Y-11359556D01*
X29838123Y-11318024D01*
X29825500Y-11269650D01*
X29825500Y-10599000D01*
X29844407Y-10540809D01*
X29893907Y-10504845D01*
X29924500Y-10500000D01*
X31575500Y-10500000D01*
X31633691Y-10518907D01*
G37*
%TD.AperFunction*%
%TD*%
M02*
