%TF.GenerationSoftware,KiCad,Pcbnew,10.0.6*%
%TF.CreationDate,2026-09-22T15:31:39-05:00*%
%TF.ProjectId,can-modbus-tap,63616e2d-6d6f-4646-9275-732d7461702e,0.1*%
%TF.SameCoordinates,Original*%
%TF.FileFunction,Drillmap*%
%TF.FilePolarity,Positive*%
%FSLAX45Y45*%
G04 Gerber Fmt 4.5, Leading zero omitted, Abs format (unit mm)*
G04 Created by KiCad (PCBNEW 10.0.6) date 2026-09-22 15:31:39*
%MOMM*%
%LPD*%
G01*
G04 APERTURE LIST*
%ADD10C,0.050000*%
%ADD11C,0.200000*%
%ADD12C,0.100000*%
%ADD13C,0.110000*%
G04 APERTURE END LIST*
D10*
X0Y0D02*
X9000000Y0D01*
X0Y-6600000D02*
X0Y0D01*
X3800000Y-1700000D02*
X4000000Y-1700000D01*
X3800000Y-5500000D02*
X3800000Y-1700000D01*
X4000000Y-1700000D02*
X4000000Y-5500000D01*
X4000000Y-5500000D02*
X3800000Y-5500000D01*
X9000000Y0D02*
X9000000Y-6600000D01*
X9000000Y-6600000D02*
X0Y-6600000D01*
D11*
D12*
X235000Y-3185000D02*
X265000Y-3215000D01*
X265000Y-3185000D02*
X235000Y-3215000D01*
X385000Y-2585000D02*
X415000Y-2615000D01*
X415000Y-2585000D02*
X385000Y-2615000D01*
X485000Y-1635000D02*
X515000Y-1665000D01*
X515000Y-1635000D02*
X485000Y-1665000D01*
X610000Y-1910000D02*
X640000Y-1940000D01*
X640000Y-1910000D02*
X610000Y-1940000D01*
X610000Y-2010000D02*
X640000Y-2040000D01*
X640000Y-2010000D02*
X610000Y-2040000D01*
X685000Y-2185000D02*
X715000Y-2215000D01*
X715000Y-2185000D02*
X685000Y-2215000D01*
X785000Y-3585000D02*
X815000Y-3615000D01*
X815000Y-3585000D02*
X785000Y-3615000D01*
X835000Y-1585000D02*
X865000Y-1615000D01*
X865000Y-1585000D02*
X835000Y-1615000D01*
X1010000Y-2010000D02*
X1040000Y-2040000D01*
X1040000Y-2010000D02*
X1010000Y-2040000D01*
X1035000Y-1485000D02*
X1065000Y-1515000D01*
X1065000Y-1485000D02*
X1035000Y-1515000D01*
X1035000Y-1810000D02*
X1065000Y-1840000D01*
X1065000Y-1810000D02*
X1035000Y-1840000D01*
X1085000Y-1710000D02*
X1115000Y-1740000D01*
X1115000Y-1710000D02*
X1085000Y-1740000D01*
X1085000Y-1885000D02*
X1115000Y-1915000D01*
X1115000Y-1885000D02*
X1085000Y-1915000D01*
X1285000Y-1085000D02*
X1315000Y-1115000D01*
X1315000Y-1085000D02*
X1285000Y-1115000D01*
X1335000Y-5060000D02*
X1365000Y-5090000D01*
X1365000Y-5060000D02*
X1335000Y-5090000D01*
X1510000Y-1635000D02*
X1540000Y-1665000D01*
X1540000Y-1635000D02*
X1510000Y-1665000D01*
X1510000Y-2035000D02*
X1540000Y-2065000D01*
X1540000Y-2035000D02*
X1510000Y-2065000D01*
X1535000Y-2585000D02*
X1565000Y-2615000D01*
X1565000Y-2585000D02*
X1535000Y-2615000D01*
X1585000Y-5185000D02*
X1615000Y-5215000D01*
X1615000Y-5185000D02*
X1585000Y-5215000D01*
X1610000Y-1435000D02*
X1640000Y-1465000D01*
X1640000Y-1435000D02*
X1610000Y-1465000D01*
X2035000Y-5535000D02*
X2065000Y-5565000D01*
X2065000Y-5535000D02*
X2035000Y-5565000D01*
X2235000Y-5435000D02*
X2265000Y-5465000D01*
X2265000Y-5435000D02*
X2235000Y-5465000D01*
X2785000Y-3585000D02*
X2815000Y-3615000D01*
X2815000Y-3585000D02*
X2785000Y-3615000D01*
X2835000Y-4060000D02*
X2865000Y-4090000D01*
X2865000Y-4060000D02*
X2835000Y-4090000D01*
X2985000Y-5985000D02*
X3015000Y-6015000D01*
X3015000Y-5985000D02*
X2985000Y-6015000D01*
X3035000Y-1335000D02*
X3065000Y-1365000D01*
X3065000Y-1335000D02*
X3035000Y-1365000D01*
X3085000Y-1085000D02*
X3115000Y-1115000D01*
X3115000Y-1085000D02*
X3085000Y-1115000D01*
X3235000Y-2160000D02*
X3265000Y-2190000D01*
X3265000Y-2160000D02*
X3235000Y-2190000D01*
X3235000Y-4085000D02*
X3265000Y-4115000D01*
X3265000Y-4085000D02*
X3235000Y-4115000D01*
X3260000Y-3060000D02*
X3290000Y-3090000D01*
X3290000Y-3060000D02*
X3260000Y-3090000D01*
X3260000Y-3460000D02*
X3290000Y-3490000D01*
X3290000Y-3460000D02*
X3260000Y-3490000D01*
X3385000Y-2610000D02*
X3415000Y-2640000D01*
X3415000Y-2610000D02*
X3385000Y-2640000D01*
X3535000Y-1260000D02*
X3565000Y-1290000D01*
X3565000Y-1260000D02*
X3535000Y-1290000D01*
X3635000Y-2860000D02*
X3665000Y-2890000D01*
X3665000Y-2860000D02*
X3635000Y-2890000D01*
X4335000Y-3885000D02*
X4365000Y-3915000D01*
X4365000Y-3885000D02*
X4335000Y-3915000D01*
X4360000Y-4385000D02*
X4390000Y-4415000D01*
X4390000Y-4385000D02*
X4360000Y-4415000D01*
X4435000Y-2035000D02*
X4465000Y-2065000D01*
X4465000Y-2035000D02*
X4435000Y-2065000D01*
X4485000Y-4485000D02*
X4515000Y-4515000D01*
X4515000Y-4485000D02*
X4485000Y-4515000D01*
X4585000Y-4185000D02*
X4615000Y-4215000D01*
X4615000Y-4185000D02*
X4585000Y-4215000D01*
X4785000Y-2210000D02*
X4815000Y-2240000D01*
X4815000Y-2210000D02*
X4785000Y-2240000D01*
X4835000Y-4035000D02*
X4865000Y-4065000D01*
X4865000Y-4035000D02*
X4835000Y-4065000D01*
X4885000Y-4985000D02*
X4915000Y-5015000D01*
X4915000Y-4985000D02*
X4885000Y-5015000D01*
X4985000Y-5985000D02*
X5015000Y-6015000D01*
X5015000Y-5985000D02*
X4985000Y-6015000D01*
X5060000Y-3685000D02*
X5090000Y-3715000D01*
X5090000Y-3685000D02*
X5060000Y-3715000D01*
X5060000Y-5485000D02*
X5090000Y-5515000D01*
X5090000Y-5485000D02*
X5060000Y-5515000D01*
X5060000Y-5685000D02*
X5090000Y-5715000D01*
X5090000Y-5685000D02*
X5060000Y-5715000D01*
X5135000Y-1885000D02*
X5165000Y-1915000D01*
X5165000Y-1885000D02*
X5135000Y-1915000D01*
X5260000Y-4535000D02*
X5290000Y-4565000D01*
X5290000Y-4535000D02*
X5260000Y-4565000D01*
X5485000Y-2785000D02*
X5515000Y-2815000D01*
X5515000Y-2785000D02*
X5485000Y-2815000D01*
X5485000Y-5635000D02*
X5515000Y-5665000D01*
X5515000Y-5635000D02*
X5485000Y-5665000D01*
X5910000Y-2035000D02*
X5940000Y-2065000D01*
X5940000Y-2035000D02*
X5910000Y-2065000D01*
X5935000Y-3935000D02*
X5965000Y-3965000D01*
X5965000Y-3935000D02*
X5935000Y-3965000D01*
X6285000Y-3935000D02*
X6315000Y-3965000D01*
X6315000Y-3935000D02*
X6285000Y-3965000D01*
X6385000Y-1635000D02*
X6415000Y-1665000D01*
X6415000Y-1635000D02*
X6385000Y-1665000D01*
X6385000Y-3885000D02*
X6415000Y-3915000D01*
X6415000Y-3885000D02*
X6385000Y-3915000D01*
X6385000Y-4885000D02*
X6415000Y-4915000D01*
X6415000Y-4885000D02*
X6385000Y-4915000D01*
X6710000Y-2485000D02*
X6740000Y-2515000D01*
X6740000Y-2485000D02*
X6710000Y-2515000D01*
X6985000Y-1185000D02*
X7015000Y-1215000D01*
X7015000Y-1185000D02*
X6985000Y-1215000D01*
X6985000Y-5785000D02*
X7015000Y-5815000D01*
X7015000Y-5785000D02*
X6985000Y-5815000D01*
X7185000Y-4785000D02*
X7215000Y-4815000D01*
X7215000Y-4785000D02*
X7185000Y-4815000D01*
X1925000Y-1776000D02*
G75*
G02*
X1895000Y-1776000I-15000J0D01*
G01*
X1895000Y-1776000D02*
G75*
G02*
X1925000Y-1776000I15000J0D01*
G01*
X1925000Y-1916000D02*
G75*
G02*
X1895000Y-1916000I-15000J0D01*
G01*
X1895000Y-1916000D02*
G75*
G02*
X1925000Y-1916000I15000J0D01*
G01*
X1995000Y-1706000D02*
G75*
G02*
X1965000Y-1706000I-15000J0D01*
G01*
X1965000Y-1706000D02*
G75*
G02*
X1995000Y-1706000I15000J0D01*
G01*
X1995000Y-1846000D02*
G75*
G02*
X1965000Y-1846000I-15000J0D01*
G01*
X1965000Y-1846000D02*
G75*
G02*
X1995000Y-1846000I15000J0D01*
G01*
X1995000Y-1986000D02*
G75*
G02*
X1965000Y-1986000I-15000J0D01*
G01*
X1965000Y-1986000D02*
G75*
G02*
X1995000Y-1986000I15000J0D01*
G01*
X2065000Y-1776000D02*
G75*
G02*
X2035000Y-1776000I-15000J0D01*
G01*
X2035000Y-1776000D02*
G75*
G02*
X2065000Y-1776000I15000J0D01*
G01*
X2065000Y-1916000D02*
G75*
G02*
X2035000Y-1916000I-15000J0D01*
G01*
X2035000Y-1916000D02*
G75*
G02*
X2065000Y-1916000I15000J0D01*
G01*
X2135000Y-1706000D02*
G75*
G02*
X2105000Y-1706000I-15000J0D01*
G01*
X2105000Y-1706000D02*
G75*
G02*
X2135000Y-1706000I15000J0D01*
G01*
X2135000Y-1846000D02*
G75*
G02*
X2105000Y-1846000I-15000J0D01*
G01*
X2105000Y-1846000D02*
G75*
G02*
X2135000Y-1846000I15000J0D01*
G01*
X2135000Y-1986000D02*
G75*
G02*
X2105000Y-1986000I-15000J0D01*
G01*
X2105000Y-1986000D02*
G75*
G02*
X2135000Y-1986000I15000J0D01*
G01*
X2205000Y-1776000D02*
G75*
G02*
X2175000Y-1776000I-15000J0D01*
G01*
X2175000Y-1776000D02*
G75*
G02*
X2205000Y-1776000I15000J0D01*
G01*
X2205000Y-1916000D02*
G75*
G02*
X2175000Y-1916000I-15000J0D01*
G01*
X2175000Y-1916000D02*
G75*
G02*
X2205000Y-1916000I15000J0D01*
G01*
X412500Y-1538000D02*
X412500Y-1598000D01*
X382500Y-1568000D02*
X442500Y-1568000D01*
X452500Y-1538000D02*
X372500Y-1538000D01*
X372500Y-1598000D02*
G75*
G02*
X372500Y-1538000I0J30000D01*
G01*
X372500Y-1598000D02*
X452500Y-1598000D01*
X452500Y-1598000D02*
G75*
G03*
X452500Y-1538000I0J30000D01*
G01*
X412500Y-2402000D02*
X412500Y-2462000D01*
X382500Y-2432000D02*
X442500Y-2432000D01*
X452500Y-2402000D02*
X372500Y-2402000D01*
X372500Y-2462000D02*
G75*
G02*
X372500Y-2402000I0J30000D01*
G01*
X372500Y-2462000D02*
X452500Y-2462000D01*
X452500Y-2462000D02*
G75*
G03*
X452500Y-2402000I0J30000D01*
G01*
X830500Y-1538000D02*
X830500Y-1598000D01*
X800500Y-1568000D02*
X860500Y-1568000D01*
X885500Y-1538000D02*
X775500Y-1538000D01*
X775500Y-1598000D02*
G75*
G02*
X775500Y-1538000I0J30000D01*
G01*
X775500Y-1598000D02*
X885500Y-1598000D01*
X885500Y-1598000D02*
G75*
G03*
X885500Y-1538000I0J30000D01*
G01*
X830500Y-2402000D02*
X830500Y-2462000D01*
X800500Y-2432000D02*
X860500Y-2432000D01*
X885500Y-2402000D02*
X775500Y-2402000D01*
X775500Y-2462000D02*
G75*
G02*
X775500Y-2402000I0J30000D01*
G01*
X775500Y-2462000D02*
X885500Y-2462000D01*
X885500Y-2462000D02*
G75*
G03*
X885500Y-2402000I0J30000D01*
G01*
X6035356Y-5435356D02*
X6035356Y-5364644D01*
X5964644Y-5364644D01*
X5964644Y-5435356D01*
X6035356Y-5435356D01*
X6035356Y-5689356D02*
X6035356Y-5618644D01*
X5964644Y-5618644D01*
X5964644Y-5689356D01*
X6035356Y-5689356D01*
X7201356Y-2450356D02*
X7201356Y-2379644D01*
X7130644Y-2379644D01*
X7130644Y-2450356D01*
X7201356Y-2450356D01*
X7091000Y-2465000D02*
X7241000Y-2465000D01*
X7241000Y-2365000D02*
G75*
G02*
X7241000Y-2465000I0J-50000D01*
G01*
X7241000Y-2365000D02*
X7091000Y-2365000D01*
X7091000Y-2365000D02*
G75*
G03*
X7091000Y-2465000I0J-50000D01*
G01*
X7201356Y-3620356D02*
X7201356Y-3549644D01*
X7130644Y-3549644D01*
X7130644Y-3620356D01*
X7201356Y-3620356D01*
X7091000Y-3635000D02*
X7241000Y-3635000D01*
X7241000Y-3535000D02*
G75*
G02*
X7241000Y-3635000I0J-50000D01*
G01*
X7241000Y-3535000D02*
X7091000Y-3535000D01*
X7091000Y-3535000D02*
G75*
G03*
X7091000Y-3635000I0J-50000D01*
G01*
D13*
X150000Y-4055000D02*
X205000Y-4000000D01*
X150000Y-3945000D01*
X95000Y-4000000D01*
X150000Y-4055000D01*
X150000Y-4505000D02*
X205000Y-4450000D01*
X150000Y-4395000D01*
X95000Y-4450000D01*
X150000Y-4505000D01*
X800000Y-4055000D02*
X855000Y-4000000D01*
X800000Y-3945000D01*
X745000Y-4000000D01*
X800000Y-4055000D01*
X800000Y-4505000D02*
X855000Y-4450000D01*
X800000Y-4395000D01*
X745000Y-4450000D01*
X800000Y-4505000D01*
X1200000Y-4055000D02*
X1255000Y-4000000D01*
X1200000Y-3945000D01*
X1145000Y-4000000D01*
X1200000Y-4055000D01*
X1200000Y-4505000D02*
X1255000Y-4450000D01*
X1200000Y-4395000D01*
X1145000Y-4450000D01*
X1200000Y-4505000D01*
X1850000Y-4055000D02*
X1905000Y-4000000D01*
X1850000Y-3945000D01*
X1795000Y-4000000D01*
X1850000Y-4055000D01*
X1850000Y-4505000D02*
X1905000Y-4450000D01*
X1850000Y-4395000D01*
X1795000Y-4450000D01*
X1850000Y-4505000D01*
X3360000Y-6055000D02*
X3415000Y-6000000D01*
X3360000Y-5945000D01*
X3305000Y-6000000D01*
X3360000Y-6055000D01*
X3614000Y-6055000D02*
X3669000Y-6000000D01*
X3614000Y-5945000D01*
X3559000Y-6000000D01*
X3614000Y-6055000D01*
X3868000Y-6055000D02*
X3923000Y-6000000D01*
X3868000Y-5945000D01*
X3813000Y-6000000D01*
X3868000Y-6055000D01*
X4122000Y-6055000D02*
X4177000Y-6000000D01*
X4122000Y-5945000D01*
X4067000Y-6000000D01*
X4122000Y-6055000D01*
D11*
X258277Y-6913984D02*
X258277Y-6713984D01*
X258277Y-6713984D02*
X305896Y-6713984D01*
X305896Y-6713984D02*
X334467Y-6723508D01*
X334467Y-6723508D02*
X353515Y-6742555D01*
X353515Y-6742555D02*
X363039Y-6761603D01*
X363039Y-6761603D02*
X372562Y-6799698D01*
X372562Y-6799698D02*
X372562Y-6828269D01*
X372562Y-6828269D02*
X363039Y-6866365D01*
X363039Y-6866365D02*
X353515Y-6885412D01*
X353515Y-6885412D02*
X334467Y-6904460D01*
X334467Y-6904460D02*
X305896Y-6913984D01*
X305896Y-6913984D02*
X258277Y-6913984D01*
X458277Y-6913984D02*
X458277Y-6780650D01*
X458277Y-6818746D02*
X467801Y-6799698D01*
X467801Y-6799698D02*
X477324Y-6790174D01*
X477324Y-6790174D02*
X496372Y-6780650D01*
X496372Y-6780650D02*
X515420Y-6780650D01*
X582086Y-6913984D02*
X582086Y-6780650D01*
X582086Y-6713984D02*
X572563Y-6723508D01*
X572563Y-6723508D02*
X582086Y-6733031D01*
X582086Y-6733031D02*
X591610Y-6723508D01*
X591610Y-6723508D02*
X582086Y-6713984D01*
X582086Y-6713984D02*
X582086Y-6733031D01*
X705896Y-6913984D02*
X686848Y-6904460D01*
X686848Y-6904460D02*
X677324Y-6885412D01*
X677324Y-6885412D02*
X677324Y-6713984D01*
X810658Y-6913984D02*
X791610Y-6904460D01*
X791610Y-6904460D02*
X782086Y-6885412D01*
X782086Y-6885412D02*
X782086Y-6713984D01*
X1039229Y-6913984D02*
X1039229Y-6713984D01*
X1039229Y-6713984D02*
X1105896Y-6856841D01*
X1105896Y-6856841D02*
X1172563Y-6713984D01*
X1172563Y-6713984D02*
X1172563Y-6913984D01*
X1353515Y-6913984D02*
X1353515Y-6809222D01*
X1353515Y-6809222D02*
X1343991Y-6790174D01*
X1343991Y-6790174D02*
X1324944Y-6780650D01*
X1324944Y-6780650D02*
X1286848Y-6780650D01*
X1286848Y-6780650D02*
X1267801Y-6790174D01*
X1353515Y-6904460D02*
X1334467Y-6913984D01*
X1334467Y-6913984D02*
X1286848Y-6913984D01*
X1286848Y-6913984D02*
X1267801Y-6904460D01*
X1267801Y-6904460D02*
X1258277Y-6885412D01*
X1258277Y-6885412D02*
X1258277Y-6866365D01*
X1258277Y-6866365D02*
X1267801Y-6847317D01*
X1267801Y-6847317D02*
X1286848Y-6837793D01*
X1286848Y-6837793D02*
X1334467Y-6837793D01*
X1334467Y-6837793D02*
X1353515Y-6828269D01*
X1448753Y-6780650D02*
X1448753Y-6980650D01*
X1448753Y-6790174D02*
X1467801Y-6780650D01*
X1467801Y-6780650D02*
X1505896Y-6780650D01*
X1505896Y-6780650D02*
X1524943Y-6790174D01*
X1524943Y-6790174D02*
X1534467Y-6799698D01*
X1534467Y-6799698D02*
X1543991Y-6818746D01*
X1543991Y-6818746D02*
X1543991Y-6875888D01*
X1543991Y-6875888D02*
X1534467Y-6894936D01*
X1534467Y-6894936D02*
X1524943Y-6904460D01*
X1524943Y-6904460D02*
X1505896Y-6913984D01*
X1505896Y-6913984D02*
X1467801Y-6913984D01*
X1467801Y-6913984D02*
X1448753Y-6904460D01*
X1629705Y-6894936D02*
X1639229Y-6904460D01*
X1639229Y-6904460D02*
X1629705Y-6913984D01*
X1629705Y-6913984D02*
X1620182Y-6904460D01*
X1620182Y-6904460D02*
X1629705Y-6894936D01*
X1629705Y-6894936D02*
X1629705Y-6913984D01*
X1629705Y-6790174D02*
X1639229Y-6799698D01*
X1639229Y-6799698D02*
X1629705Y-6809222D01*
X1629705Y-6809222D02*
X1620182Y-6799698D01*
X1620182Y-6799698D02*
X1629705Y-6790174D01*
X1629705Y-6790174D02*
X1629705Y-6809222D01*
D12*
X-32500Y-7227500D02*
X-2500Y-7257500D01*
X-2500Y-7227500D02*
X-32500Y-7257500D01*
D11*
X296372Y-7133984D02*
X315420Y-7133984D01*
X315420Y-7133984D02*
X334467Y-7143508D01*
X334467Y-7143508D02*
X343991Y-7153031D01*
X343991Y-7153031D02*
X353515Y-7172079D01*
X353515Y-7172079D02*
X363039Y-7210174D01*
X363039Y-7210174D02*
X363039Y-7257793D01*
X363039Y-7257793D02*
X353515Y-7295888D01*
X353515Y-7295888D02*
X343991Y-7314936D01*
X343991Y-7314936D02*
X334467Y-7324460D01*
X334467Y-7324460D02*
X315420Y-7333984D01*
X315420Y-7333984D02*
X296372Y-7333984D01*
X296372Y-7333984D02*
X277324Y-7324460D01*
X277324Y-7324460D02*
X267801Y-7314936D01*
X267801Y-7314936D02*
X258277Y-7295888D01*
X258277Y-7295888D02*
X248753Y-7257793D01*
X248753Y-7257793D02*
X248753Y-7210174D01*
X248753Y-7210174D02*
X258277Y-7172079D01*
X258277Y-7172079D02*
X267801Y-7153031D01*
X267801Y-7153031D02*
X277324Y-7143508D01*
X277324Y-7143508D02*
X296372Y-7133984D01*
X448753Y-7314936D02*
X458277Y-7324460D01*
X458277Y-7324460D02*
X448753Y-7333984D01*
X448753Y-7333984D02*
X439229Y-7324460D01*
X439229Y-7324460D02*
X448753Y-7314936D01*
X448753Y-7314936D02*
X448753Y-7333984D01*
X524944Y-7133984D02*
X648753Y-7133984D01*
X648753Y-7133984D02*
X582086Y-7210174D01*
X582086Y-7210174D02*
X610658Y-7210174D01*
X610658Y-7210174D02*
X629705Y-7219698D01*
X629705Y-7219698D02*
X639229Y-7229222D01*
X639229Y-7229222D02*
X648753Y-7248269D01*
X648753Y-7248269D02*
X648753Y-7295888D01*
X648753Y-7295888D02*
X639229Y-7314936D01*
X639229Y-7314936D02*
X629705Y-7324460D01*
X629705Y-7324460D02*
X610658Y-7333984D01*
X610658Y-7333984D02*
X553515Y-7333984D01*
X553515Y-7333984D02*
X534467Y-7324460D01*
X534467Y-7324460D02*
X524944Y-7314936D01*
X772562Y-7133984D02*
X791610Y-7133984D01*
X791610Y-7133984D02*
X810658Y-7143508D01*
X810658Y-7143508D02*
X820182Y-7153031D01*
X820182Y-7153031D02*
X829705Y-7172079D01*
X829705Y-7172079D02*
X839229Y-7210174D01*
X839229Y-7210174D02*
X839229Y-7257793D01*
X839229Y-7257793D02*
X829705Y-7295888D01*
X829705Y-7295888D02*
X820182Y-7314936D01*
X820182Y-7314936D02*
X810658Y-7324460D01*
X810658Y-7324460D02*
X791610Y-7333984D01*
X791610Y-7333984D02*
X772562Y-7333984D01*
X772562Y-7333984D02*
X753515Y-7324460D01*
X753515Y-7324460D02*
X743991Y-7314936D01*
X743991Y-7314936D02*
X734467Y-7295888D01*
X734467Y-7295888D02*
X724943Y-7257793D01*
X724943Y-7257793D02*
X724943Y-7210174D01*
X724943Y-7210174D02*
X734467Y-7172079D01*
X734467Y-7172079D02*
X743991Y-7153031D01*
X743991Y-7153031D02*
X753515Y-7143508D01*
X753515Y-7143508D02*
X772562Y-7133984D01*
X963039Y-7133984D02*
X982086Y-7133984D01*
X982086Y-7133984D02*
X1001134Y-7143508D01*
X1001134Y-7143508D02*
X1010658Y-7153031D01*
X1010658Y-7153031D02*
X1020182Y-7172079D01*
X1020182Y-7172079D02*
X1029705Y-7210174D01*
X1029705Y-7210174D02*
X1029705Y-7257793D01*
X1029705Y-7257793D02*
X1020182Y-7295888D01*
X1020182Y-7295888D02*
X1010658Y-7314936D01*
X1010658Y-7314936D02*
X1001134Y-7324460D01*
X1001134Y-7324460D02*
X982086Y-7333984D01*
X982086Y-7333984D02*
X963039Y-7333984D01*
X963039Y-7333984D02*
X943991Y-7324460D01*
X943991Y-7324460D02*
X934467Y-7314936D01*
X934467Y-7314936D02*
X924943Y-7295888D01*
X924943Y-7295888D02*
X915420Y-7257793D01*
X915420Y-7257793D02*
X915420Y-7210174D01*
X915420Y-7210174D02*
X924943Y-7172079D01*
X924943Y-7172079D02*
X934467Y-7153031D01*
X934467Y-7153031D02*
X943991Y-7143508D01*
X943991Y-7143508D02*
X963039Y-7133984D01*
X1115420Y-7333984D02*
X1115420Y-7200650D01*
X1115420Y-7219698D02*
X1124944Y-7210174D01*
X1124944Y-7210174D02*
X1143991Y-7200650D01*
X1143991Y-7200650D02*
X1172563Y-7200650D01*
X1172563Y-7200650D02*
X1191610Y-7210174D01*
X1191610Y-7210174D02*
X1201134Y-7229222D01*
X1201134Y-7229222D02*
X1201134Y-7333984D01*
X1201134Y-7229222D02*
X1210658Y-7210174D01*
X1210658Y-7210174D02*
X1229705Y-7200650D01*
X1229705Y-7200650D02*
X1258277Y-7200650D01*
X1258277Y-7200650D02*
X1277325Y-7210174D01*
X1277325Y-7210174D02*
X1286848Y-7229222D01*
X1286848Y-7229222D02*
X1286848Y-7333984D01*
X1382086Y-7333984D02*
X1382086Y-7200650D01*
X1382086Y-7219698D02*
X1391610Y-7210174D01*
X1391610Y-7210174D02*
X1410658Y-7200650D01*
X1410658Y-7200650D02*
X1439229Y-7200650D01*
X1439229Y-7200650D02*
X1458277Y-7210174D01*
X1458277Y-7210174D02*
X1467801Y-7229222D01*
X1467801Y-7229222D02*
X1467801Y-7333984D01*
X1467801Y-7229222D02*
X1477324Y-7210174D01*
X1477324Y-7210174D02*
X1496372Y-7200650D01*
X1496372Y-7200650D02*
X1524943Y-7200650D01*
X1524943Y-7200650D02*
X1543991Y-7210174D01*
X1543991Y-7210174D02*
X1553515Y-7229222D01*
X1553515Y-7229222D02*
X1553515Y-7333984D01*
X1943991Y-7124460D02*
X1772563Y-7381603D01*
X2201134Y-7133984D02*
X2220182Y-7133984D01*
X2220182Y-7133984D02*
X2239229Y-7143508D01*
X2239229Y-7143508D02*
X2248753Y-7153031D01*
X2248753Y-7153031D02*
X2258277Y-7172079D01*
X2258277Y-7172079D02*
X2267801Y-7210174D01*
X2267801Y-7210174D02*
X2267801Y-7257793D01*
X2267801Y-7257793D02*
X2258277Y-7295888D01*
X2258277Y-7295888D02*
X2248753Y-7314936D01*
X2248753Y-7314936D02*
X2239229Y-7324460D01*
X2239229Y-7324460D02*
X2220182Y-7333984D01*
X2220182Y-7333984D02*
X2201134Y-7333984D01*
X2201134Y-7333984D02*
X2182087Y-7324460D01*
X2182087Y-7324460D02*
X2172563Y-7314936D01*
X2172563Y-7314936D02*
X2163039Y-7295888D01*
X2163039Y-7295888D02*
X2153515Y-7257793D01*
X2153515Y-7257793D02*
X2153515Y-7210174D01*
X2153515Y-7210174D02*
X2163039Y-7172079D01*
X2163039Y-7172079D02*
X2172563Y-7153031D01*
X2172563Y-7153031D02*
X2182087Y-7143508D01*
X2182087Y-7143508D02*
X2201134Y-7133984D01*
X2353515Y-7314936D02*
X2363039Y-7324460D01*
X2363039Y-7324460D02*
X2353515Y-7333984D01*
X2353515Y-7333984D02*
X2343991Y-7324460D01*
X2343991Y-7324460D02*
X2353515Y-7314936D01*
X2353515Y-7314936D02*
X2353515Y-7333984D01*
X2486848Y-7133984D02*
X2505896Y-7133984D01*
X2505896Y-7133984D02*
X2524944Y-7143508D01*
X2524944Y-7143508D02*
X2534468Y-7153031D01*
X2534468Y-7153031D02*
X2543991Y-7172079D01*
X2543991Y-7172079D02*
X2553515Y-7210174D01*
X2553515Y-7210174D02*
X2553515Y-7257793D01*
X2553515Y-7257793D02*
X2543991Y-7295888D01*
X2543991Y-7295888D02*
X2534468Y-7314936D01*
X2534468Y-7314936D02*
X2524944Y-7324460D01*
X2524944Y-7324460D02*
X2505896Y-7333984D01*
X2505896Y-7333984D02*
X2486848Y-7333984D01*
X2486848Y-7333984D02*
X2467801Y-7324460D01*
X2467801Y-7324460D02*
X2458277Y-7314936D01*
X2458277Y-7314936D02*
X2448753Y-7295888D01*
X2448753Y-7295888D02*
X2439229Y-7257793D01*
X2439229Y-7257793D02*
X2439229Y-7210174D01*
X2439229Y-7210174D02*
X2448753Y-7172079D01*
X2448753Y-7172079D02*
X2458277Y-7153031D01*
X2458277Y-7153031D02*
X2467801Y-7143508D01*
X2467801Y-7143508D02*
X2486848Y-7133984D01*
X2743991Y-7333984D02*
X2629706Y-7333984D01*
X2686848Y-7333984D02*
X2686848Y-7133984D01*
X2686848Y-7133984D02*
X2667801Y-7162555D01*
X2667801Y-7162555D02*
X2648753Y-7181603D01*
X2648753Y-7181603D02*
X2629706Y-7191127D01*
X2934467Y-7333984D02*
X2820182Y-7333984D01*
X2877325Y-7333984D02*
X2877325Y-7133984D01*
X2877325Y-7133984D02*
X2858277Y-7162555D01*
X2858277Y-7162555D02*
X2839229Y-7181603D01*
X2839229Y-7181603D02*
X2820182Y-7191127D01*
X3048753Y-7219698D02*
X3029706Y-7210174D01*
X3029706Y-7210174D02*
X3020182Y-7200650D01*
X3020182Y-7200650D02*
X3010658Y-7181603D01*
X3010658Y-7181603D02*
X3010658Y-7172079D01*
X3010658Y-7172079D02*
X3020182Y-7153031D01*
X3020182Y-7153031D02*
X3029706Y-7143508D01*
X3029706Y-7143508D02*
X3048753Y-7133984D01*
X3048753Y-7133984D02*
X3086848Y-7133984D01*
X3086848Y-7133984D02*
X3105896Y-7143508D01*
X3105896Y-7143508D02*
X3115420Y-7153031D01*
X3115420Y-7153031D02*
X3124944Y-7172079D01*
X3124944Y-7172079D02*
X3124944Y-7181603D01*
X3124944Y-7181603D02*
X3115420Y-7200650D01*
X3115420Y-7200650D02*
X3105896Y-7210174D01*
X3105896Y-7210174D02*
X3086848Y-7219698D01*
X3086848Y-7219698D02*
X3048753Y-7219698D01*
X3048753Y-7219698D02*
X3029706Y-7229222D01*
X3029706Y-7229222D02*
X3020182Y-7238746D01*
X3020182Y-7238746D02*
X3010658Y-7257793D01*
X3010658Y-7257793D02*
X3010658Y-7295888D01*
X3010658Y-7295888D02*
X3020182Y-7314936D01*
X3020182Y-7314936D02*
X3029706Y-7324460D01*
X3029706Y-7324460D02*
X3048753Y-7333984D01*
X3048753Y-7333984D02*
X3086848Y-7333984D01*
X3086848Y-7333984D02*
X3105896Y-7324460D01*
X3105896Y-7324460D02*
X3115420Y-7314936D01*
X3115420Y-7314936D02*
X3124944Y-7295888D01*
X3124944Y-7295888D02*
X3124944Y-7257793D01*
X3124944Y-7257793D02*
X3115420Y-7238746D01*
X3115420Y-7238746D02*
X3105896Y-7229222D01*
X3105896Y-7229222D02*
X3086848Y-7219698D01*
X3201134Y-7133984D02*
X3201134Y-7172079D01*
X3277325Y-7133984D02*
X3277325Y-7172079D01*
X3572563Y-7410174D02*
X3563039Y-7400650D01*
X3563039Y-7400650D02*
X3543991Y-7372079D01*
X3543991Y-7372079D02*
X3534468Y-7353031D01*
X3534468Y-7353031D02*
X3524944Y-7324460D01*
X3524944Y-7324460D02*
X3515420Y-7276841D01*
X3515420Y-7276841D02*
X3515420Y-7238746D01*
X3515420Y-7238746D02*
X3524944Y-7191127D01*
X3524944Y-7191127D02*
X3534468Y-7162555D01*
X3534468Y-7162555D02*
X3543991Y-7143508D01*
X3543991Y-7143508D02*
X3563039Y-7114936D01*
X3563039Y-7114936D02*
X3572563Y-7105412D01*
X3734468Y-7133984D02*
X3696372Y-7133984D01*
X3696372Y-7133984D02*
X3677325Y-7143508D01*
X3677325Y-7143508D02*
X3667801Y-7153031D01*
X3667801Y-7153031D02*
X3648753Y-7181603D01*
X3648753Y-7181603D02*
X3639229Y-7219698D01*
X3639229Y-7219698D02*
X3639229Y-7295888D01*
X3639229Y-7295888D02*
X3648753Y-7314936D01*
X3648753Y-7314936D02*
X3658277Y-7324460D01*
X3658277Y-7324460D02*
X3677325Y-7333984D01*
X3677325Y-7333984D02*
X3715420Y-7333984D01*
X3715420Y-7333984D02*
X3734468Y-7324460D01*
X3734468Y-7324460D02*
X3743991Y-7314936D01*
X3743991Y-7314936D02*
X3753515Y-7295888D01*
X3753515Y-7295888D02*
X3753515Y-7248269D01*
X3753515Y-7248269D02*
X3743991Y-7229222D01*
X3743991Y-7229222D02*
X3734468Y-7219698D01*
X3734468Y-7219698D02*
X3715420Y-7210174D01*
X3715420Y-7210174D02*
X3677325Y-7210174D01*
X3677325Y-7210174D02*
X3658277Y-7219698D01*
X3658277Y-7219698D02*
X3648753Y-7229222D01*
X3648753Y-7229222D02*
X3639229Y-7248269D01*
X3877325Y-7133984D02*
X3896372Y-7133984D01*
X3896372Y-7133984D02*
X3915420Y-7143508D01*
X3915420Y-7143508D02*
X3924944Y-7153031D01*
X3924944Y-7153031D02*
X3934468Y-7172079D01*
X3934468Y-7172079D02*
X3943991Y-7210174D01*
X3943991Y-7210174D02*
X3943991Y-7257793D01*
X3943991Y-7257793D02*
X3934468Y-7295888D01*
X3934468Y-7295888D02*
X3924944Y-7314936D01*
X3924944Y-7314936D02*
X3915420Y-7324460D01*
X3915420Y-7324460D02*
X3896372Y-7333984D01*
X3896372Y-7333984D02*
X3877325Y-7333984D01*
X3877325Y-7333984D02*
X3858277Y-7324460D01*
X3858277Y-7324460D02*
X3848753Y-7314936D01*
X3848753Y-7314936D02*
X3839229Y-7295888D01*
X3839229Y-7295888D02*
X3829706Y-7257793D01*
X3829706Y-7257793D02*
X3829706Y-7210174D01*
X3829706Y-7210174D02*
X3839229Y-7172079D01*
X3839229Y-7172079D02*
X3848753Y-7153031D01*
X3848753Y-7153031D02*
X3858277Y-7143508D01*
X3858277Y-7143508D02*
X3877325Y-7133984D01*
X4182087Y-7333984D02*
X4182087Y-7133984D01*
X4267801Y-7333984D02*
X4267801Y-7229222D01*
X4267801Y-7229222D02*
X4258277Y-7210174D01*
X4258277Y-7210174D02*
X4239230Y-7200650D01*
X4239230Y-7200650D02*
X4210658Y-7200650D01*
X4210658Y-7200650D02*
X4191610Y-7210174D01*
X4191610Y-7210174D02*
X4182087Y-7219698D01*
X4391611Y-7333984D02*
X4372563Y-7324460D01*
X4372563Y-7324460D02*
X4363039Y-7314936D01*
X4363039Y-7314936D02*
X4353515Y-7295888D01*
X4353515Y-7295888D02*
X4353515Y-7238746D01*
X4353515Y-7238746D02*
X4363039Y-7219698D01*
X4363039Y-7219698D02*
X4372563Y-7210174D01*
X4372563Y-7210174D02*
X4391611Y-7200650D01*
X4391611Y-7200650D02*
X4420182Y-7200650D01*
X4420182Y-7200650D02*
X4439230Y-7210174D01*
X4439230Y-7210174D02*
X4448753Y-7219698D01*
X4448753Y-7219698D02*
X4458277Y-7238746D01*
X4458277Y-7238746D02*
X4458277Y-7295888D01*
X4458277Y-7295888D02*
X4448753Y-7314936D01*
X4448753Y-7314936D02*
X4439230Y-7324460D01*
X4439230Y-7324460D02*
X4420182Y-7333984D01*
X4420182Y-7333984D02*
X4391611Y-7333984D01*
X4572563Y-7333984D02*
X4553515Y-7324460D01*
X4553515Y-7324460D02*
X4543992Y-7305412D01*
X4543992Y-7305412D02*
X4543992Y-7133984D01*
X4724944Y-7324460D02*
X4705896Y-7333984D01*
X4705896Y-7333984D02*
X4667801Y-7333984D01*
X4667801Y-7333984D02*
X4648753Y-7324460D01*
X4648753Y-7324460D02*
X4639230Y-7305412D01*
X4639230Y-7305412D02*
X4639230Y-7229222D01*
X4639230Y-7229222D02*
X4648753Y-7210174D01*
X4648753Y-7210174D02*
X4667801Y-7200650D01*
X4667801Y-7200650D02*
X4705896Y-7200650D01*
X4705896Y-7200650D02*
X4724944Y-7210174D01*
X4724944Y-7210174D02*
X4734468Y-7229222D01*
X4734468Y-7229222D02*
X4734468Y-7248269D01*
X4734468Y-7248269D02*
X4639230Y-7267317D01*
X4810658Y-7324460D02*
X4829706Y-7333984D01*
X4829706Y-7333984D02*
X4867801Y-7333984D01*
X4867801Y-7333984D02*
X4886849Y-7324460D01*
X4886849Y-7324460D02*
X4896373Y-7305412D01*
X4896373Y-7305412D02*
X4896373Y-7295888D01*
X4896373Y-7295888D02*
X4886849Y-7276841D01*
X4886849Y-7276841D02*
X4867801Y-7267317D01*
X4867801Y-7267317D02*
X4839230Y-7267317D01*
X4839230Y-7267317D02*
X4820182Y-7257793D01*
X4820182Y-7257793D02*
X4810658Y-7238746D01*
X4810658Y-7238746D02*
X4810658Y-7229222D01*
X4810658Y-7229222D02*
X4820182Y-7210174D01*
X4820182Y-7210174D02*
X4839230Y-7200650D01*
X4839230Y-7200650D02*
X4867801Y-7200650D01*
X4867801Y-7200650D02*
X4886849Y-7210174D01*
X4963039Y-7410174D02*
X4972563Y-7400650D01*
X4972563Y-7400650D02*
X4991611Y-7372079D01*
X4991611Y-7372079D02*
X5001134Y-7353031D01*
X5001134Y-7353031D02*
X5010658Y-7324460D01*
X5010658Y-7324460D02*
X5020182Y-7276841D01*
X5020182Y-7276841D02*
X5020182Y-7238746D01*
X5020182Y-7238746D02*
X5010658Y-7191127D01*
X5010658Y-7191127D02*
X5001134Y-7162555D01*
X5001134Y-7162555D02*
X4991611Y-7143508D01*
X4991611Y-7143508D02*
X4972563Y-7114936D01*
X4972563Y-7114936D02*
X4963039Y-7105412D01*
D12*
X-2500Y-7506500D02*
G75*
G02*
X-32500Y-7506500I-15000J0D01*
G01*
X-32500Y-7506500D02*
G75*
G02*
X-2500Y-7506500I15000J0D01*
G01*
D11*
X296372Y-7397984D02*
X315420Y-7397984D01*
X315420Y-7397984D02*
X334467Y-7407508D01*
X334467Y-7407508D02*
X343991Y-7417031D01*
X343991Y-7417031D02*
X353515Y-7436079D01*
X353515Y-7436079D02*
X363039Y-7474174D01*
X363039Y-7474174D02*
X363039Y-7521793D01*
X363039Y-7521793D02*
X353515Y-7559888D01*
X353515Y-7559888D02*
X343991Y-7578936D01*
X343991Y-7578936D02*
X334467Y-7588460D01*
X334467Y-7588460D02*
X315420Y-7597984D01*
X315420Y-7597984D02*
X296372Y-7597984D01*
X296372Y-7597984D02*
X277324Y-7588460D01*
X277324Y-7588460D02*
X267801Y-7578936D01*
X267801Y-7578936D02*
X258277Y-7559888D01*
X258277Y-7559888D02*
X248753Y-7521793D01*
X248753Y-7521793D02*
X248753Y-7474174D01*
X248753Y-7474174D02*
X258277Y-7436079D01*
X258277Y-7436079D02*
X267801Y-7417031D01*
X267801Y-7417031D02*
X277324Y-7407508D01*
X277324Y-7407508D02*
X296372Y-7397984D01*
X448753Y-7578936D02*
X458277Y-7588460D01*
X458277Y-7588460D02*
X448753Y-7597984D01*
X448753Y-7597984D02*
X439229Y-7588460D01*
X439229Y-7588460D02*
X448753Y-7578936D01*
X448753Y-7578936D02*
X448753Y-7597984D01*
X524944Y-7397984D02*
X648753Y-7397984D01*
X648753Y-7397984D02*
X582086Y-7474174D01*
X582086Y-7474174D02*
X610658Y-7474174D01*
X610658Y-7474174D02*
X629705Y-7483698D01*
X629705Y-7483698D02*
X639229Y-7493222D01*
X639229Y-7493222D02*
X648753Y-7512269D01*
X648753Y-7512269D02*
X648753Y-7559888D01*
X648753Y-7559888D02*
X639229Y-7578936D01*
X639229Y-7578936D02*
X629705Y-7588460D01*
X629705Y-7588460D02*
X610658Y-7597984D01*
X610658Y-7597984D02*
X553515Y-7597984D01*
X553515Y-7597984D02*
X534467Y-7588460D01*
X534467Y-7588460D02*
X524944Y-7578936D01*
X772562Y-7397984D02*
X791610Y-7397984D01*
X791610Y-7397984D02*
X810658Y-7407508D01*
X810658Y-7407508D02*
X820182Y-7417031D01*
X820182Y-7417031D02*
X829705Y-7436079D01*
X829705Y-7436079D02*
X839229Y-7474174D01*
X839229Y-7474174D02*
X839229Y-7521793D01*
X839229Y-7521793D02*
X829705Y-7559888D01*
X829705Y-7559888D02*
X820182Y-7578936D01*
X820182Y-7578936D02*
X810658Y-7588460D01*
X810658Y-7588460D02*
X791610Y-7597984D01*
X791610Y-7597984D02*
X772562Y-7597984D01*
X772562Y-7597984D02*
X753515Y-7588460D01*
X753515Y-7588460D02*
X743991Y-7578936D01*
X743991Y-7578936D02*
X734467Y-7559888D01*
X734467Y-7559888D02*
X724943Y-7521793D01*
X724943Y-7521793D02*
X724943Y-7474174D01*
X724943Y-7474174D02*
X734467Y-7436079D01*
X734467Y-7436079D02*
X743991Y-7417031D01*
X743991Y-7417031D02*
X753515Y-7407508D01*
X753515Y-7407508D02*
X772562Y-7397984D01*
X963039Y-7397984D02*
X982086Y-7397984D01*
X982086Y-7397984D02*
X1001134Y-7407508D01*
X1001134Y-7407508D02*
X1010658Y-7417031D01*
X1010658Y-7417031D02*
X1020182Y-7436079D01*
X1020182Y-7436079D02*
X1029705Y-7474174D01*
X1029705Y-7474174D02*
X1029705Y-7521793D01*
X1029705Y-7521793D02*
X1020182Y-7559888D01*
X1020182Y-7559888D02*
X1010658Y-7578936D01*
X1010658Y-7578936D02*
X1001134Y-7588460D01*
X1001134Y-7588460D02*
X982086Y-7597984D01*
X982086Y-7597984D02*
X963039Y-7597984D01*
X963039Y-7597984D02*
X943991Y-7588460D01*
X943991Y-7588460D02*
X934467Y-7578936D01*
X934467Y-7578936D02*
X924943Y-7559888D01*
X924943Y-7559888D02*
X915420Y-7521793D01*
X915420Y-7521793D02*
X915420Y-7474174D01*
X915420Y-7474174D02*
X924943Y-7436079D01*
X924943Y-7436079D02*
X934467Y-7417031D01*
X934467Y-7417031D02*
X943991Y-7407508D01*
X943991Y-7407508D02*
X963039Y-7397984D01*
X1115420Y-7597984D02*
X1115420Y-7464650D01*
X1115420Y-7483698D02*
X1124944Y-7474174D01*
X1124944Y-7474174D02*
X1143991Y-7464650D01*
X1143991Y-7464650D02*
X1172563Y-7464650D01*
X1172563Y-7464650D02*
X1191610Y-7474174D01*
X1191610Y-7474174D02*
X1201134Y-7493222D01*
X1201134Y-7493222D02*
X1201134Y-7597984D01*
X1201134Y-7493222D02*
X1210658Y-7474174D01*
X1210658Y-7474174D02*
X1229705Y-7464650D01*
X1229705Y-7464650D02*
X1258277Y-7464650D01*
X1258277Y-7464650D02*
X1277325Y-7474174D01*
X1277325Y-7474174D02*
X1286848Y-7493222D01*
X1286848Y-7493222D02*
X1286848Y-7597984D01*
X1382086Y-7597984D02*
X1382086Y-7464650D01*
X1382086Y-7483698D02*
X1391610Y-7474174D01*
X1391610Y-7474174D02*
X1410658Y-7464650D01*
X1410658Y-7464650D02*
X1439229Y-7464650D01*
X1439229Y-7464650D02*
X1458277Y-7474174D01*
X1458277Y-7474174D02*
X1467801Y-7493222D01*
X1467801Y-7493222D02*
X1467801Y-7597984D01*
X1467801Y-7493222D02*
X1477324Y-7474174D01*
X1477324Y-7474174D02*
X1496372Y-7464650D01*
X1496372Y-7464650D02*
X1524943Y-7464650D01*
X1524943Y-7464650D02*
X1543991Y-7474174D01*
X1543991Y-7474174D02*
X1553515Y-7493222D01*
X1553515Y-7493222D02*
X1553515Y-7597984D01*
X1943991Y-7388460D02*
X1772563Y-7645603D01*
X2201134Y-7397984D02*
X2220182Y-7397984D01*
X2220182Y-7397984D02*
X2239229Y-7407508D01*
X2239229Y-7407508D02*
X2248753Y-7417031D01*
X2248753Y-7417031D02*
X2258277Y-7436079D01*
X2258277Y-7436079D02*
X2267801Y-7474174D01*
X2267801Y-7474174D02*
X2267801Y-7521793D01*
X2267801Y-7521793D02*
X2258277Y-7559888D01*
X2258277Y-7559888D02*
X2248753Y-7578936D01*
X2248753Y-7578936D02*
X2239229Y-7588460D01*
X2239229Y-7588460D02*
X2220182Y-7597984D01*
X2220182Y-7597984D02*
X2201134Y-7597984D01*
X2201134Y-7597984D02*
X2182087Y-7588460D01*
X2182087Y-7588460D02*
X2172563Y-7578936D01*
X2172563Y-7578936D02*
X2163039Y-7559888D01*
X2163039Y-7559888D02*
X2153515Y-7521793D01*
X2153515Y-7521793D02*
X2153515Y-7474174D01*
X2153515Y-7474174D02*
X2163039Y-7436079D01*
X2163039Y-7436079D02*
X2172563Y-7417031D01*
X2172563Y-7417031D02*
X2182087Y-7407508D01*
X2182087Y-7407508D02*
X2201134Y-7397984D01*
X2353515Y-7578936D02*
X2363039Y-7588460D01*
X2363039Y-7588460D02*
X2353515Y-7597984D01*
X2353515Y-7597984D02*
X2343991Y-7588460D01*
X2343991Y-7588460D02*
X2353515Y-7578936D01*
X2353515Y-7578936D02*
X2353515Y-7597984D01*
X2486848Y-7397984D02*
X2505896Y-7397984D01*
X2505896Y-7397984D02*
X2524944Y-7407508D01*
X2524944Y-7407508D02*
X2534468Y-7417031D01*
X2534468Y-7417031D02*
X2543991Y-7436079D01*
X2543991Y-7436079D02*
X2553515Y-7474174D01*
X2553515Y-7474174D02*
X2553515Y-7521793D01*
X2553515Y-7521793D02*
X2543991Y-7559888D01*
X2543991Y-7559888D02*
X2534468Y-7578936D01*
X2534468Y-7578936D02*
X2524944Y-7588460D01*
X2524944Y-7588460D02*
X2505896Y-7597984D01*
X2505896Y-7597984D02*
X2486848Y-7597984D01*
X2486848Y-7597984D02*
X2467801Y-7588460D01*
X2467801Y-7588460D02*
X2458277Y-7578936D01*
X2458277Y-7578936D02*
X2448753Y-7559888D01*
X2448753Y-7559888D02*
X2439229Y-7521793D01*
X2439229Y-7521793D02*
X2439229Y-7474174D01*
X2439229Y-7474174D02*
X2448753Y-7436079D01*
X2448753Y-7436079D02*
X2458277Y-7417031D01*
X2458277Y-7417031D02*
X2467801Y-7407508D01*
X2467801Y-7407508D02*
X2486848Y-7397984D01*
X2743991Y-7597984D02*
X2629706Y-7597984D01*
X2686848Y-7597984D02*
X2686848Y-7397984D01*
X2686848Y-7397984D02*
X2667801Y-7426555D01*
X2667801Y-7426555D02*
X2648753Y-7445603D01*
X2648753Y-7445603D02*
X2629706Y-7455127D01*
X2934467Y-7597984D02*
X2820182Y-7597984D01*
X2877325Y-7597984D02*
X2877325Y-7397984D01*
X2877325Y-7397984D02*
X2858277Y-7426555D01*
X2858277Y-7426555D02*
X2839229Y-7445603D01*
X2839229Y-7445603D02*
X2820182Y-7455127D01*
X3048753Y-7483698D02*
X3029706Y-7474174D01*
X3029706Y-7474174D02*
X3020182Y-7464650D01*
X3020182Y-7464650D02*
X3010658Y-7445603D01*
X3010658Y-7445603D02*
X3010658Y-7436079D01*
X3010658Y-7436079D02*
X3020182Y-7417031D01*
X3020182Y-7417031D02*
X3029706Y-7407508D01*
X3029706Y-7407508D02*
X3048753Y-7397984D01*
X3048753Y-7397984D02*
X3086848Y-7397984D01*
X3086848Y-7397984D02*
X3105896Y-7407508D01*
X3105896Y-7407508D02*
X3115420Y-7417031D01*
X3115420Y-7417031D02*
X3124944Y-7436079D01*
X3124944Y-7436079D02*
X3124944Y-7445603D01*
X3124944Y-7445603D02*
X3115420Y-7464650D01*
X3115420Y-7464650D02*
X3105896Y-7474174D01*
X3105896Y-7474174D02*
X3086848Y-7483698D01*
X3086848Y-7483698D02*
X3048753Y-7483698D01*
X3048753Y-7483698D02*
X3029706Y-7493222D01*
X3029706Y-7493222D02*
X3020182Y-7502746D01*
X3020182Y-7502746D02*
X3010658Y-7521793D01*
X3010658Y-7521793D02*
X3010658Y-7559888D01*
X3010658Y-7559888D02*
X3020182Y-7578936D01*
X3020182Y-7578936D02*
X3029706Y-7588460D01*
X3029706Y-7588460D02*
X3048753Y-7597984D01*
X3048753Y-7597984D02*
X3086848Y-7597984D01*
X3086848Y-7597984D02*
X3105896Y-7588460D01*
X3105896Y-7588460D02*
X3115420Y-7578936D01*
X3115420Y-7578936D02*
X3124944Y-7559888D01*
X3124944Y-7559888D02*
X3124944Y-7521793D01*
X3124944Y-7521793D02*
X3115420Y-7502746D01*
X3115420Y-7502746D02*
X3105896Y-7493222D01*
X3105896Y-7493222D02*
X3086848Y-7483698D01*
X3201134Y-7397984D02*
X3201134Y-7436079D01*
X3277325Y-7397984D02*
X3277325Y-7436079D01*
X3572563Y-7674174D02*
X3563039Y-7664650D01*
X3563039Y-7664650D02*
X3543991Y-7636079D01*
X3543991Y-7636079D02*
X3534468Y-7617031D01*
X3534468Y-7617031D02*
X3524944Y-7588460D01*
X3524944Y-7588460D02*
X3515420Y-7540841D01*
X3515420Y-7540841D02*
X3515420Y-7502746D01*
X3515420Y-7502746D02*
X3524944Y-7455127D01*
X3524944Y-7455127D02*
X3534468Y-7426555D01*
X3534468Y-7426555D02*
X3543991Y-7407508D01*
X3543991Y-7407508D02*
X3563039Y-7378936D01*
X3563039Y-7378936D02*
X3572563Y-7369412D01*
X3753515Y-7597984D02*
X3639229Y-7597984D01*
X3696372Y-7597984D02*
X3696372Y-7397984D01*
X3696372Y-7397984D02*
X3677325Y-7426555D01*
X3677325Y-7426555D02*
X3658277Y-7445603D01*
X3658277Y-7445603D02*
X3639229Y-7455127D01*
X3829706Y-7417031D02*
X3839229Y-7407508D01*
X3839229Y-7407508D02*
X3858277Y-7397984D01*
X3858277Y-7397984D02*
X3905896Y-7397984D01*
X3905896Y-7397984D02*
X3924944Y-7407508D01*
X3924944Y-7407508D02*
X3934468Y-7417031D01*
X3934468Y-7417031D02*
X3943991Y-7436079D01*
X3943991Y-7436079D02*
X3943991Y-7455127D01*
X3943991Y-7455127D02*
X3934468Y-7483698D01*
X3934468Y-7483698D02*
X3820182Y-7597984D01*
X3820182Y-7597984D02*
X3943991Y-7597984D01*
X4182087Y-7597984D02*
X4182087Y-7397984D01*
X4267801Y-7597984D02*
X4267801Y-7493222D01*
X4267801Y-7493222D02*
X4258277Y-7474174D01*
X4258277Y-7474174D02*
X4239230Y-7464650D01*
X4239230Y-7464650D02*
X4210658Y-7464650D01*
X4210658Y-7464650D02*
X4191610Y-7474174D01*
X4191610Y-7474174D02*
X4182087Y-7483698D01*
X4391611Y-7597984D02*
X4372563Y-7588460D01*
X4372563Y-7588460D02*
X4363039Y-7578936D01*
X4363039Y-7578936D02*
X4353515Y-7559888D01*
X4353515Y-7559888D02*
X4353515Y-7502746D01*
X4353515Y-7502746D02*
X4363039Y-7483698D01*
X4363039Y-7483698D02*
X4372563Y-7474174D01*
X4372563Y-7474174D02*
X4391611Y-7464650D01*
X4391611Y-7464650D02*
X4420182Y-7464650D01*
X4420182Y-7464650D02*
X4439230Y-7474174D01*
X4439230Y-7474174D02*
X4448753Y-7483698D01*
X4448753Y-7483698D02*
X4458277Y-7502746D01*
X4458277Y-7502746D02*
X4458277Y-7559888D01*
X4458277Y-7559888D02*
X4448753Y-7578936D01*
X4448753Y-7578936D02*
X4439230Y-7588460D01*
X4439230Y-7588460D02*
X4420182Y-7597984D01*
X4420182Y-7597984D02*
X4391611Y-7597984D01*
X4572563Y-7597984D02*
X4553515Y-7588460D01*
X4553515Y-7588460D02*
X4543992Y-7569412D01*
X4543992Y-7569412D02*
X4543992Y-7397984D01*
X4724944Y-7588460D02*
X4705896Y-7597984D01*
X4705896Y-7597984D02*
X4667801Y-7597984D01*
X4667801Y-7597984D02*
X4648753Y-7588460D01*
X4648753Y-7588460D02*
X4639230Y-7569412D01*
X4639230Y-7569412D02*
X4639230Y-7493222D01*
X4639230Y-7493222D02*
X4648753Y-7474174D01*
X4648753Y-7474174D02*
X4667801Y-7464650D01*
X4667801Y-7464650D02*
X4705896Y-7464650D01*
X4705896Y-7464650D02*
X4724944Y-7474174D01*
X4724944Y-7474174D02*
X4734468Y-7493222D01*
X4734468Y-7493222D02*
X4734468Y-7512269D01*
X4734468Y-7512269D02*
X4639230Y-7531317D01*
X4810658Y-7588460D02*
X4829706Y-7597984D01*
X4829706Y-7597984D02*
X4867801Y-7597984D01*
X4867801Y-7597984D02*
X4886849Y-7588460D01*
X4886849Y-7588460D02*
X4896373Y-7569412D01*
X4896373Y-7569412D02*
X4896373Y-7559888D01*
X4896373Y-7559888D02*
X4886849Y-7540841D01*
X4886849Y-7540841D02*
X4867801Y-7531317D01*
X4867801Y-7531317D02*
X4839230Y-7531317D01*
X4839230Y-7531317D02*
X4820182Y-7521793D01*
X4820182Y-7521793D02*
X4810658Y-7502746D01*
X4810658Y-7502746D02*
X4810658Y-7493222D01*
X4810658Y-7493222D02*
X4820182Y-7474174D01*
X4820182Y-7474174D02*
X4839230Y-7464650D01*
X4839230Y-7464650D02*
X4867801Y-7464650D01*
X4867801Y-7464650D02*
X4886849Y-7474174D01*
X4963039Y-7674174D02*
X4972563Y-7664650D01*
X4972563Y-7664650D02*
X4991611Y-7636079D01*
X4991611Y-7636079D02*
X5001134Y-7617031D01*
X5001134Y-7617031D02*
X5010658Y-7588460D01*
X5010658Y-7588460D02*
X5020182Y-7540841D01*
X5020182Y-7540841D02*
X5020182Y-7502746D01*
X5020182Y-7502746D02*
X5010658Y-7455127D01*
X5010658Y-7455127D02*
X5001134Y-7426555D01*
X5001134Y-7426555D02*
X4991611Y-7407508D01*
X4991611Y-7407508D02*
X4972563Y-7378936D01*
X4972563Y-7378936D02*
X4963039Y-7369412D01*
D12*
X-32500Y-7740500D02*
X-32500Y-7800500D01*
X-62500Y-7770500D02*
X-2500Y-7770500D01*
D11*
X296372Y-7661984D02*
X315420Y-7661984D01*
X315420Y-7661984D02*
X334467Y-7671508D01*
X334467Y-7671508D02*
X343991Y-7681031D01*
X343991Y-7681031D02*
X353515Y-7700079D01*
X353515Y-7700079D02*
X363039Y-7738174D01*
X363039Y-7738174D02*
X363039Y-7785793D01*
X363039Y-7785793D02*
X353515Y-7823888D01*
X353515Y-7823888D02*
X343991Y-7842936D01*
X343991Y-7842936D02*
X334467Y-7852460D01*
X334467Y-7852460D02*
X315420Y-7861984D01*
X315420Y-7861984D02*
X296372Y-7861984D01*
X296372Y-7861984D02*
X277324Y-7852460D01*
X277324Y-7852460D02*
X267801Y-7842936D01*
X267801Y-7842936D02*
X258277Y-7823888D01*
X258277Y-7823888D02*
X248753Y-7785793D01*
X248753Y-7785793D02*
X248753Y-7738174D01*
X248753Y-7738174D02*
X258277Y-7700079D01*
X258277Y-7700079D02*
X267801Y-7681031D01*
X267801Y-7681031D02*
X277324Y-7671508D01*
X277324Y-7671508D02*
X296372Y-7661984D01*
X448753Y-7842936D02*
X458277Y-7852460D01*
X458277Y-7852460D02*
X448753Y-7861984D01*
X448753Y-7861984D02*
X439229Y-7852460D01*
X439229Y-7852460D02*
X448753Y-7842936D01*
X448753Y-7842936D02*
X448753Y-7861984D01*
X629705Y-7661984D02*
X591610Y-7661984D01*
X591610Y-7661984D02*
X572563Y-7671508D01*
X572563Y-7671508D02*
X563039Y-7681031D01*
X563039Y-7681031D02*
X543991Y-7709603D01*
X543991Y-7709603D02*
X534467Y-7747698D01*
X534467Y-7747698D02*
X534467Y-7823888D01*
X534467Y-7823888D02*
X543991Y-7842936D01*
X543991Y-7842936D02*
X553515Y-7852460D01*
X553515Y-7852460D02*
X572563Y-7861984D01*
X572563Y-7861984D02*
X610658Y-7861984D01*
X610658Y-7861984D02*
X629705Y-7852460D01*
X629705Y-7852460D02*
X639229Y-7842936D01*
X639229Y-7842936D02*
X648753Y-7823888D01*
X648753Y-7823888D02*
X648753Y-7776269D01*
X648753Y-7776269D02*
X639229Y-7757222D01*
X639229Y-7757222D02*
X629705Y-7747698D01*
X629705Y-7747698D02*
X610658Y-7738174D01*
X610658Y-7738174D02*
X572563Y-7738174D01*
X572563Y-7738174D02*
X553515Y-7747698D01*
X553515Y-7747698D02*
X543991Y-7757222D01*
X543991Y-7757222D02*
X534467Y-7776269D01*
X772562Y-7661984D02*
X791610Y-7661984D01*
X791610Y-7661984D02*
X810658Y-7671508D01*
X810658Y-7671508D02*
X820182Y-7681031D01*
X820182Y-7681031D02*
X829705Y-7700079D01*
X829705Y-7700079D02*
X839229Y-7738174D01*
X839229Y-7738174D02*
X839229Y-7785793D01*
X839229Y-7785793D02*
X829705Y-7823888D01*
X829705Y-7823888D02*
X820182Y-7842936D01*
X820182Y-7842936D02*
X810658Y-7852460D01*
X810658Y-7852460D02*
X791610Y-7861984D01*
X791610Y-7861984D02*
X772562Y-7861984D01*
X772562Y-7861984D02*
X753515Y-7852460D01*
X753515Y-7852460D02*
X743991Y-7842936D01*
X743991Y-7842936D02*
X734467Y-7823888D01*
X734467Y-7823888D02*
X724943Y-7785793D01*
X724943Y-7785793D02*
X724943Y-7738174D01*
X724943Y-7738174D02*
X734467Y-7700079D01*
X734467Y-7700079D02*
X743991Y-7681031D01*
X743991Y-7681031D02*
X753515Y-7671508D01*
X753515Y-7671508D02*
X772562Y-7661984D01*
X963039Y-7661984D02*
X982086Y-7661984D01*
X982086Y-7661984D02*
X1001134Y-7671508D01*
X1001134Y-7671508D02*
X1010658Y-7681031D01*
X1010658Y-7681031D02*
X1020182Y-7700079D01*
X1020182Y-7700079D02*
X1029705Y-7738174D01*
X1029705Y-7738174D02*
X1029705Y-7785793D01*
X1029705Y-7785793D02*
X1020182Y-7823888D01*
X1020182Y-7823888D02*
X1010658Y-7842936D01*
X1010658Y-7842936D02*
X1001134Y-7852460D01*
X1001134Y-7852460D02*
X982086Y-7861984D01*
X982086Y-7861984D02*
X963039Y-7861984D01*
X963039Y-7861984D02*
X943991Y-7852460D01*
X943991Y-7852460D02*
X934467Y-7842936D01*
X934467Y-7842936D02*
X924943Y-7823888D01*
X924943Y-7823888D02*
X915420Y-7785793D01*
X915420Y-7785793D02*
X915420Y-7738174D01*
X915420Y-7738174D02*
X924943Y-7700079D01*
X924943Y-7700079D02*
X934467Y-7681031D01*
X934467Y-7681031D02*
X943991Y-7671508D01*
X943991Y-7671508D02*
X963039Y-7661984D01*
X1115420Y-7861984D02*
X1115420Y-7728650D01*
X1115420Y-7747698D02*
X1124944Y-7738174D01*
X1124944Y-7738174D02*
X1143991Y-7728650D01*
X1143991Y-7728650D02*
X1172563Y-7728650D01*
X1172563Y-7728650D02*
X1191610Y-7738174D01*
X1191610Y-7738174D02*
X1201134Y-7757222D01*
X1201134Y-7757222D02*
X1201134Y-7861984D01*
X1201134Y-7757222D02*
X1210658Y-7738174D01*
X1210658Y-7738174D02*
X1229705Y-7728650D01*
X1229705Y-7728650D02*
X1258277Y-7728650D01*
X1258277Y-7728650D02*
X1277325Y-7738174D01*
X1277325Y-7738174D02*
X1286848Y-7757222D01*
X1286848Y-7757222D02*
X1286848Y-7861984D01*
X1382086Y-7861984D02*
X1382086Y-7728650D01*
X1382086Y-7747698D02*
X1391610Y-7738174D01*
X1391610Y-7738174D02*
X1410658Y-7728650D01*
X1410658Y-7728650D02*
X1439229Y-7728650D01*
X1439229Y-7728650D02*
X1458277Y-7738174D01*
X1458277Y-7738174D02*
X1467801Y-7757222D01*
X1467801Y-7757222D02*
X1467801Y-7861984D01*
X1467801Y-7757222D02*
X1477324Y-7738174D01*
X1477324Y-7738174D02*
X1496372Y-7728650D01*
X1496372Y-7728650D02*
X1524943Y-7728650D01*
X1524943Y-7728650D02*
X1543991Y-7738174D01*
X1543991Y-7738174D02*
X1553515Y-7757222D01*
X1553515Y-7757222D02*
X1553515Y-7861984D01*
X1943991Y-7652460D02*
X1772563Y-7909603D01*
X2201134Y-7661984D02*
X2220182Y-7661984D01*
X2220182Y-7661984D02*
X2239229Y-7671508D01*
X2239229Y-7671508D02*
X2248753Y-7681031D01*
X2248753Y-7681031D02*
X2258277Y-7700079D01*
X2258277Y-7700079D02*
X2267801Y-7738174D01*
X2267801Y-7738174D02*
X2267801Y-7785793D01*
X2267801Y-7785793D02*
X2258277Y-7823888D01*
X2258277Y-7823888D02*
X2248753Y-7842936D01*
X2248753Y-7842936D02*
X2239229Y-7852460D01*
X2239229Y-7852460D02*
X2220182Y-7861984D01*
X2220182Y-7861984D02*
X2201134Y-7861984D01*
X2201134Y-7861984D02*
X2182087Y-7852460D01*
X2182087Y-7852460D02*
X2172563Y-7842936D01*
X2172563Y-7842936D02*
X2163039Y-7823888D01*
X2163039Y-7823888D02*
X2153515Y-7785793D01*
X2153515Y-7785793D02*
X2153515Y-7738174D01*
X2153515Y-7738174D02*
X2163039Y-7700079D01*
X2163039Y-7700079D02*
X2172563Y-7681031D01*
X2172563Y-7681031D02*
X2182087Y-7671508D01*
X2182087Y-7671508D02*
X2201134Y-7661984D01*
X2353515Y-7842936D02*
X2363039Y-7852460D01*
X2363039Y-7852460D02*
X2353515Y-7861984D01*
X2353515Y-7861984D02*
X2343991Y-7852460D01*
X2343991Y-7852460D02*
X2353515Y-7842936D01*
X2353515Y-7842936D02*
X2353515Y-7861984D01*
X2486848Y-7661984D02*
X2505896Y-7661984D01*
X2505896Y-7661984D02*
X2524944Y-7671508D01*
X2524944Y-7671508D02*
X2534468Y-7681031D01*
X2534468Y-7681031D02*
X2543991Y-7700079D01*
X2543991Y-7700079D02*
X2553515Y-7738174D01*
X2553515Y-7738174D02*
X2553515Y-7785793D01*
X2553515Y-7785793D02*
X2543991Y-7823888D01*
X2543991Y-7823888D02*
X2534468Y-7842936D01*
X2534468Y-7842936D02*
X2524944Y-7852460D01*
X2524944Y-7852460D02*
X2505896Y-7861984D01*
X2505896Y-7861984D02*
X2486848Y-7861984D01*
X2486848Y-7861984D02*
X2467801Y-7852460D01*
X2467801Y-7852460D02*
X2458277Y-7842936D01*
X2458277Y-7842936D02*
X2448753Y-7823888D01*
X2448753Y-7823888D02*
X2439229Y-7785793D01*
X2439229Y-7785793D02*
X2439229Y-7738174D01*
X2439229Y-7738174D02*
X2448753Y-7700079D01*
X2448753Y-7700079D02*
X2458277Y-7681031D01*
X2458277Y-7681031D02*
X2467801Y-7671508D01*
X2467801Y-7671508D02*
X2486848Y-7661984D01*
X2629706Y-7681031D02*
X2639229Y-7671508D01*
X2639229Y-7671508D02*
X2658277Y-7661984D01*
X2658277Y-7661984D02*
X2705896Y-7661984D01*
X2705896Y-7661984D02*
X2724944Y-7671508D01*
X2724944Y-7671508D02*
X2734468Y-7681031D01*
X2734468Y-7681031D02*
X2743991Y-7700079D01*
X2743991Y-7700079D02*
X2743991Y-7719127D01*
X2743991Y-7719127D02*
X2734468Y-7747698D01*
X2734468Y-7747698D02*
X2620182Y-7861984D01*
X2620182Y-7861984D02*
X2743991Y-7861984D01*
X2810658Y-7661984D02*
X2934467Y-7661984D01*
X2934467Y-7661984D02*
X2867801Y-7738174D01*
X2867801Y-7738174D02*
X2896372Y-7738174D01*
X2896372Y-7738174D02*
X2915420Y-7747698D01*
X2915420Y-7747698D02*
X2924944Y-7757222D01*
X2924944Y-7757222D02*
X2934467Y-7776269D01*
X2934467Y-7776269D02*
X2934467Y-7823888D01*
X2934467Y-7823888D02*
X2924944Y-7842936D01*
X2924944Y-7842936D02*
X2915420Y-7852460D01*
X2915420Y-7852460D02*
X2896372Y-7861984D01*
X2896372Y-7861984D02*
X2839229Y-7861984D01*
X2839229Y-7861984D02*
X2820182Y-7852460D01*
X2820182Y-7852460D02*
X2810658Y-7842936D01*
X3105896Y-7661984D02*
X3067801Y-7661984D01*
X3067801Y-7661984D02*
X3048753Y-7671508D01*
X3048753Y-7671508D02*
X3039229Y-7681031D01*
X3039229Y-7681031D02*
X3020182Y-7709603D01*
X3020182Y-7709603D02*
X3010658Y-7747698D01*
X3010658Y-7747698D02*
X3010658Y-7823888D01*
X3010658Y-7823888D02*
X3020182Y-7842936D01*
X3020182Y-7842936D02*
X3029706Y-7852460D01*
X3029706Y-7852460D02*
X3048753Y-7861984D01*
X3048753Y-7861984D02*
X3086848Y-7861984D01*
X3086848Y-7861984D02*
X3105896Y-7852460D01*
X3105896Y-7852460D02*
X3115420Y-7842936D01*
X3115420Y-7842936D02*
X3124944Y-7823888D01*
X3124944Y-7823888D02*
X3124944Y-7776269D01*
X3124944Y-7776269D02*
X3115420Y-7757222D01*
X3115420Y-7757222D02*
X3105896Y-7747698D01*
X3105896Y-7747698D02*
X3086848Y-7738174D01*
X3086848Y-7738174D02*
X3048753Y-7738174D01*
X3048753Y-7738174D02*
X3029706Y-7747698D01*
X3029706Y-7747698D02*
X3020182Y-7757222D01*
X3020182Y-7757222D02*
X3010658Y-7776269D01*
X3201134Y-7661984D02*
X3201134Y-7700079D01*
X3277325Y-7661984D02*
X3277325Y-7700079D01*
X3572563Y-7938174D02*
X3563039Y-7928650D01*
X3563039Y-7928650D02*
X3543991Y-7900079D01*
X3543991Y-7900079D02*
X3534468Y-7881031D01*
X3534468Y-7881031D02*
X3524944Y-7852460D01*
X3524944Y-7852460D02*
X3515420Y-7804841D01*
X3515420Y-7804841D02*
X3515420Y-7766746D01*
X3515420Y-7766746D02*
X3524944Y-7719127D01*
X3524944Y-7719127D02*
X3534468Y-7690555D01*
X3534468Y-7690555D02*
X3543991Y-7671508D01*
X3543991Y-7671508D02*
X3563039Y-7642936D01*
X3563039Y-7642936D02*
X3572563Y-7633412D01*
X3686848Y-7661984D02*
X3705896Y-7661984D01*
X3705896Y-7661984D02*
X3724944Y-7671508D01*
X3724944Y-7671508D02*
X3734468Y-7681031D01*
X3734468Y-7681031D02*
X3743991Y-7700079D01*
X3743991Y-7700079D02*
X3753515Y-7738174D01*
X3753515Y-7738174D02*
X3753515Y-7785793D01*
X3753515Y-7785793D02*
X3743991Y-7823888D01*
X3743991Y-7823888D02*
X3734468Y-7842936D01*
X3734468Y-7842936D02*
X3724944Y-7852460D01*
X3724944Y-7852460D02*
X3705896Y-7861984D01*
X3705896Y-7861984D02*
X3686848Y-7861984D01*
X3686848Y-7861984D02*
X3667801Y-7852460D01*
X3667801Y-7852460D02*
X3658277Y-7842936D01*
X3658277Y-7842936D02*
X3648753Y-7823888D01*
X3648753Y-7823888D02*
X3639229Y-7785793D01*
X3639229Y-7785793D02*
X3639229Y-7738174D01*
X3639229Y-7738174D02*
X3648753Y-7700079D01*
X3648753Y-7700079D02*
X3658277Y-7681031D01*
X3658277Y-7681031D02*
X3667801Y-7671508D01*
X3667801Y-7671508D02*
X3686848Y-7661984D01*
X3991610Y-7861984D02*
X3991610Y-7661984D01*
X4077325Y-7861984D02*
X4077325Y-7757222D01*
X4077325Y-7757222D02*
X4067801Y-7738174D01*
X4067801Y-7738174D02*
X4048753Y-7728650D01*
X4048753Y-7728650D02*
X4020182Y-7728650D01*
X4020182Y-7728650D02*
X4001134Y-7738174D01*
X4001134Y-7738174D02*
X3991610Y-7747698D01*
X4201134Y-7861984D02*
X4182087Y-7852460D01*
X4182087Y-7852460D02*
X4172563Y-7842936D01*
X4172563Y-7842936D02*
X4163039Y-7823888D01*
X4163039Y-7823888D02*
X4163039Y-7766746D01*
X4163039Y-7766746D02*
X4172563Y-7747698D01*
X4172563Y-7747698D02*
X4182087Y-7738174D01*
X4182087Y-7738174D02*
X4201134Y-7728650D01*
X4201134Y-7728650D02*
X4229706Y-7728650D01*
X4229706Y-7728650D02*
X4248753Y-7738174D01*
X4248753Y-7738174D02*
X4258277Y-7747698D01*
X4258277Y-7747698D02*
X4267801Y-7766746D01*
X4267801Y-7766746D02*
X4267801Y-7823888D01*
X4267801Y-7823888D02*
X4258277Y-7842936D01*
X4258277Y-7842936D02*
X4248753Y-7852460D01*
X4248753Y-7852460D02*
X4229706Y-7861984D01*
X4229706Y-7861984D02*
X4201134Y-7861984D01*
X4382087Y-7861984D02*
X4363039Y-7852460D01*
X4363039Y-7852460D02*
X4353515Y-7833412D01*
X4353515Y-7833412D02*
X4353515Y-7661984D01*
X4534468Y-7852460D02*
X4515420Y-7861984D01*
X4515420Y-7861984D02*
X4477325Y-7861984D01*
X4477325Y-7861984D02*
X4458277Y-7852460D01*
X4458277Y-7852460D02*
X4448753Y-7833412D01*
X4448753Y-7833412D02*
X4448753Y-7757222D01*
X4448753Y-7757222D02*
X4458277Y-7738174D01*
X4458277Y-7738174D02*
X4477325Y-7728650D01*
X4477325Y-7728650D02*
X4515420Y-7728650D01*
X4515420Y-7728650D02*
X4534468Y-7738174D01*
X4534468Y-7738174D02*
X4543992Y-7757222D01*
X4543992Y-7757222D02*
X4543992Y-7776269D01*
X4543992Y-7776269D02*
X4448753Y-7795317D01*
X4620182Y-7852460D02*
X4639230Y-7861984D01*
X4639230Y-7861984D02*
X4677325Y-7861984D01*
X4677325Y-7861984D02*
X4696373Y-7852460D01*
X4696373Y-7852460D02*
X4705896Y-7833412D01*
X4705896Y-7833412D02*
X4705896Y-7823888D01*
X4705896Y-7823888D02*
X4696373Y-7804841D01*
X4696373Y-7804841D02*
X4677325Y-7795317D01*
X4677325Y-7795317D02*
X4648753Y-7795317D01*
X4648753Y-7795317D02*
X4629706Y-7785793D01*
X4629706Y-7785793D02*
X4620182Y-7766746D01*
X4620182Y-7766746D02*
X4620182Y-7757222D01*
X4620182Y-7757222D02*
X4629706Y-7738174D01*
X4629706Y-7738174D02*
X4648753Y-7728650D01*
X4648753Y-7728650D02*
X4677325Y-7728650D01*
X4677325Y-7728650D02*
X4696373Y-7738174D01*
X4943992Y-7785793D02*
X5096373Y-7785793D01*
X5020182Y-7861984D02*
X5020182Y-7709603D01*
X5429706Y-7728650D02*
X5429706Y-7861984D01*
X5382087Y-7652460D02*
X5334468Y-7795317D01*
X5334468Y-7795317D02*
X5458277Y-7795317D01*
X5677325Y-7852460D02*
X5696373Y-7861984D01*
X5696373Y-7861984D02*
X5734468Y-7861984D01*
X5734468Y-7861984D02*
X5753515Y-7852460D01*
X5753515Y-7852460D02*
X5763039Y-7833412D01*
X5763039Y-7833412D02*
X5763039Y-7823888D01*
X5763039Y-7823888D02*
X5753515Y-7804841D01*
X5753515Y-7804841D02*
X5734468Y-7795317D01*
X5734468Y-7795317D02*
X5705896Y-7795317D01*
X5705896Y-7795317D02*
X5686849Y-7785793D01*
X5686849Y-7785793D02*
X5677325Y-7766746D01*
X5677325Y-7766746D02*
X5677325Y-7757222D01*
X5677325Y-7757222D02*
X5686849Y-7738174D01*
X5686849Y-7738174D02*
X5705896Y-7728650D01*
X5705896Y-7728650D02*
X5734468Y-7728650D01*
X5734468Y-7728650D02*
X5753515Y-7738174D01*
X5877325Y-7861984D02*
X5858277Y-7852460D01*
X5858277Y-7852460D02*
X5848754Y-7833412D01*
X5848754Y-7833412D02*
X5848754Y-7661984D01*
X5982087Y-7861984D02*
X5963039Y-7852460D01*
X5963039Y-7852460D02*
X5953515Y-7842936D01*
X5953515Y-7842936D02*
X5943992Y-7823888D01*
X5943992Y-7823888D02*
X5943992Y-7766746D01*
X5943992Y-7766746D02*
X5953515Y-7747698D01*
X5953515Y-7747698D02*
X5963039Y-7738174D01*
X5963039Y-7738174D02*
X5982087Y-7728650D01*
X5982087Y-7728650D02*
X6010658Y-7728650D01*
X6010658Y-7728650D02*
X6029706Y-7738174D01*
X6029706Y-7738174D02*
X6039230Y-7747698D01*
X6039230Y-7747698D02*
X6048754Y-7766746D01*
X6048754Y-7766746D02*
X6048754Y-7823888D01*
X6048754Y-7823888D02*
X6039230Y-7842936D01*
X6039230Y-7842936D02*
X6029706Y-7852460D01*
X6029706Y-7852460D02*
X6010658Y-7861984D01*
X6010658Y-7861984D02*
X5982087Y-7861984D01*
X6105896Y-7728650D02*
X6182087Y-7728650D01*
X6134468Y-7661984D02*
X6134468Y-7833412D01*
X6134468Y-7833412D02*
X6143992Y-7852460D01*
X6143992Y-7852460D02*
X6163039Y-7861984D01*
X6163039Y-7861984D02*
X6182087Y-7861984D01*
X6239230Y-7852460D02*
X6258277Y-7861984D01*
X6258277Y-7861984D02*
X6296373Y-7861984D01*
X6296373Y-7861984D02*
X6315420Y-7852460D01*
X6315420Y-7852460D02*
X6324944Y-7833412D01*
X6324944Y-7833412D02*
X6324944Y-7823888D01*
X6324944Y-7823888D02*
X6315420Y-7804841D01*
X6315420Y-7804841D02*
X6296373Y-7795317D01*
X6296373Y-7795317D02*
X6267801Y-7795317D01*
X6267801Y-7795317D02*
X6248754Y-7785793D01*
X6248754Y-7785793D02*
X6239230Y-7766746D01*
X6239230Y-7766746D02*
X6239230Y-7757222D01*
X6239230Y-7757222D02*
X6248754Y-7738174D01*
X6248754Y-7738174D02*
X6267801Y-7728650D01*
X6267801Y-7728650D02*
X6296373Y-7728650D01*
X6296373Y-7728650D02*
X6315420Y-7738174D01*
X6391611Y-7938174D02*
X6401135Y-7928650D01*
X6401135Y-7928650D02*
X6420182Y-7900079D01*
X6420182Y-7900079D02*
X6429706Y-7881031D01*
X6429706Y-7881031D02*
X6439230Y-7852460D01*
X6439230Y-7852460D02*
X6448754Y-7804841D01*
X6448754Y-7804841D02*
X6448754Y-7766746D01*
X6448754Y-7766746D02*
X6439230Y-7719127D01*
X6439230Y-7719127D02*
X6429706Y-7690555D01*
X6429706Y-7690555D02*
X6420182Y-7671508D01*
X6420182Y-7671508D02*
X6401135Y-7642936D01*
X6401135Y-7642936D02*
X6391611Y-7633412D01*
D12*
X-17144Y-8069856D02*
X-17144Y-7999144D01*
X-87856Y-7999144D01*
X-87856Y-8069856D01*
X-17144Y-8069856D01*
D11*
X363039Y-8125984D02*
X248753Y-8125984D01*
X305896Y-8125984D02*
X305896Y-7925984D01*
X305896Y-7925984D02*
X286848Y-7954555D01*
X286848Y-7954555D02*
X267801Y-7973603D01*
X267801Y-7973603D02*
X248753Y-7983127D01*
X448753Y-8106936D02*
X458277Y-8116460D01*
X458277Y-8116460D02*
X448753Y-8125984D01*
X448753Y-8125984D02*
X439229Y-8116460D01*
X439229Y-8116460D02*
X448753Y-8106936D01*
X448753Y-8106936D02*
X448753Y-8125984D01*
X582086Y-7925984D02*
X601134Y-7925984D01*
X601134Y-7925984D02*
X620182Y-7935508D01*
X620182Y-7935508D02*
X629705Y-7945031D01*
X629705Y-7945031D02*
X639229Y-7964079D01*
X639229Y-7964079D02*
X648753Y-8002174D01*
X648753Y-8002174D02*
X648753Y-8049793D01*
X648753Y-8049793D02*
X639229Y-8087888D01*
X639229Y-8087888D02*
X629705Y-8106936D01*
X629705Y-8106936D02*
X620182Y-8116460D01*
X620182Y-8116460D02*
X601134Y-8125984D01*
X601134Y-8125984D02*
X582086Y-8125984D01*
X582086Y-8125984D02*
X563039Y-8116460D01*
X563039Y-8116460D02*
X553515Y-8106936D01*
X553515Y-8106936D02*
X543991Y-8087888D01*
X543991Y-8087888D02*
X534467Y-8049793D01*
X534467Y-8049793D02*
X534467Y-8002174D01*
X534467Y-8002174D02*
X543991Y-7964079D01*
X543991Y-7964079D02*
X553515Y-7945031D01*
X553515Y-7945031D02*
X563039Y-7935508D01*
X563039Y-7935508D02*
X582086Y-7925984D01*
X772562Y-7925984D02*
X791610Y-7925984D01*
X791610Y-7925984D02*
X810658Y-7935508D01*
X810658Y-7935508D02*
X820182Y-7945031D01*
X820182Y-7945031D02*
X829705Y-7964079D01*
X829705Y-7964079D02*
X839229Y-8002174D01*
X839229Y-8002174D02*
X839229Y-8049793D01*
X839229Y-8049793D02*
X829705Y-8087888D01*
X829705Y-8087888D02*
X820182Y-8106936D01*
X820182Y-8106936D02*
X810658Y-8116460D01*
X810658Y-8116460D02*
X791610Y-8125984D01*
X791610Y-8125984D02*
X772562Y-8125984D01*
X772562Y-8125984D02*
X753515Y-8116460D01*
X753515Y-8116460D02*
X743991Y-8106936D01*
X743991Y-8106936D02*
X734467Y-8087888D01*
X734467Y-8087888D02*
X724943Y-8049793D01*
X724943Y-8049793D02*
X724943Y-8002174D01*
X724943Y-8002174D02*
X734467Y-7964079D01*
X734467Y-7964079D02*
X743991Y-7945031D01*
X743991Y-7945031D02*
X753515Y-7935508D01*
X753515Y-7935508D02*
X772562Y-7925984D01*
X963039Y-7925984D02*
X982086Y-7925984D01*
X982086Y-7925984D02*
X1001134Y-7935508D01*
X1001134Y-7935508D02*
X1010658Y-7945031D01*
X1010658Y-7945031D02*
X1020182Y-7964079D01*
X1020182Y-7964079D02*
X1029705Y-8002174D01*
X1029705Y-8002174D02*
X1029705Y-8049793D01*
X1029705Y-8049793D02*
X1020182Y-8087888D01*
X1020182Y-8087888D02*
X1010658Y-8106936D01*
X1010658Y-8106936D02*
X1001134Y-8116460D01*
X1001134Y-8116460D02*
X982086Y-8125984D01*
X982086Y-8125984D02*
X963039Y-8125984D01*
X963039Y-8125984D02*
X943991Y-8116460D01*
X943991Y-8116460D02*
X934467Y-8106936D01*
X934467Y-8106936D02*
X924943Y-8087888D01*
X924943Y-8087888D02*
X915420Y-8049793D01*
X915420Y-8049793D02*
X915420Y-8002174D01*
X915420Y-8002174D02*
X924943Y-7964079D01*
X924943Y-7964079D02*
X934467Y-7945031D01*
X934467Y-7945031D02*
X943991Y-7935508D01*
X943991Y-7935508D02*
X963039Y-7925984D01*
X1115420Y-8125984D02*
X1115420Y-7992650D01*
X1115420Y-8011698D02*
X1124944Y-8002174D01*
X1124944Y-8002174D02*
X1143991Y-7992650D01*
X1143991Y-7992650D02*
X1172563Y-7992650D01*
X1172563Y-7992650D02*
X1191610Y-8002174D01*
X1191610Y-8002174D02*
X1201134Y-8021222D01*
X1201134Y-8021222D02*
X1201134Y-8125984D01*
X1201134Y-8021222D02*
X1210658Y-8002174D01*
X1210658Y-8002174D02*
X1229705Y-7992650D01*
X1229705Y-7992650D02*
X1258277Y-7992650D01*
X1258277Y-7992650D02*
X1277325Y-8002174D01*
X1277325Y-8002174D02*
X1286848Y-8021222D01*
X1286848Y-8021222D02*
X1286848Y-8125984D01*
X1382086Y-8125984D02*
X1382086Y-7992650D01*
X1382086Y-8011698D02*
X1391610Y-8002174D01*
X1391610Y-8002174D02*
X1410658Y-7992650D01*
X1410658Y-7992650D02*
X1439229Y-7992650D01*
X1439229Y-7992650D02*
X1458277Y-8002174D01*
X1458277Y-8002174D02*
X1467801Y-8021222D01*
X1467801Y-8021222D02*
X1467801Y-8125984D01*
X1467801Y-8021222D02*
X1477324Y-8002174D01*
X1477324Y-8002174D02*
X1496372Y-7992650D01*
X1496372Y-7992650D02*
X1524943Y-7992650D01*
X1524943Y-7992650D02*
X1543991Y-8002174D01*
X1543991Y-8002174D02*
X1553515Y-8021222D01*
X1553515Y-8021222D02*
X1553515Y-8125984D01*
X1943991Y-7916460D02*
X1772563Y-8173603D01*
X2201134Y-7925984D02*
X2220182Y-7925984D01*
X2220182Y-7925984D02*
X2239229Y-7935508D01*
X2239229Y-7935508D02*
X2248753Y-7945031D01*
X2248753Y-7945031D02*
X2258277Y-7964079D01*
X2258277Y-7964079D02*
X2267801Y-8002174D01*
X2267801Y-8002174D02*
X2267801Y-8049793D01*
X2267801Y-8049793D02*
X2258277Y-8087888D01*
X2258277Y-8087888D02*
X2248753Y-8106936D01*
X2248753Y-8106936D02*
X2239229Y-8116460D01*
X2239229Y-8116460D02*
X2220182Y-8125984D01*
X2220182Y-8125984D02*
X2201134Y-8125984D01*
X2201134Y-8125984D02*
X2182087Y-8116460D01*
X2182087Y-8116460D02*
X2172563Y-8106936D01*
X2172563Y-8106936D02*
X2163039Y-8087888D01*
X2163039Y-8087888D02*
X2153515Y-8049793D01*
X2153515Y-8049793D02*
X2153515Y-8002174D01*
X2153515Y-8002174D02*
X2163039Y-7964079D01*
X2163039Y-7964079D02*
X2172563Y-7945031D01*
X2172563Y-7945031D02*
X2182087Y-7935508D01*
X2182087Y-7935508D02*
X2201134Y-7925984D01*
X2353515Y-8106936D02*
X2363039Y-8116460D01*
X2363039Y-8116460D02*
X2353515Y-8125984D01*
X2353515Y-8125984D02*
X2343991Y-8116460D01*
X2343991Y-8116460D02*
X2353515Y-8106936D01*
X2353515Y-8106936D02*
X2353515Y-8125984D01*
X2486848Y-7925984D02*
X2505896Y-7925984D01*
X2505896Y-7925984D02*
X2524944Y-7935508D01*
X2524944Y-7935508D02*
X2534468Y-7945031D01*
X2534468Y-7945031D02*
X2543991Y-7964079D01*
X2543991Y-7964079D02*
X2553515Y-8002174D01*
X2553515Y-8002174D02*
X2553515Y-8049793D01*
X2553515Y-8049793D02*
X2543991Y-8087888D01*
X2543991Y-8087888D02*
X2534468Y-8106936D01*
X2534468Y-8106936D02*
X2524944Y-8116460D01*
X2524944Y-8116460D02*
X2505896Y-8125984D01*
X2505896Y-8125984D02*
X2486848Y-8125984D01*
X2486848Y-8125984D02*
X2467801Y-8116460D01*
X2467801Y-8116460D02*
X2458277Y-8106936D01*
X2458277Y-8106936D02*
X2448753Y-8087888D01*
X2448753Y-8087888D02*
X2439229Y-8049793D01*
X2439229Y-8049793D02*
X2439229Y-8002174D01*
X2439229Y-8002174D02*
X2448753Y-7964079D01*
X2448753Y-7964079D02*
X2458277Y-7945031D01*
X2458277Y-7945031D02*
X2467801Y-7935508D01*
X2467801Y-7935508D02*
X2486848Y-7925984D01*
X2620182Y-7925984D02*
X2743991Y-7925984D01*
X2743991Y-7925984D02*
X2677325Y-8002174D01*
X2677325Y-8002174D02*
X2705896Y-8002174D01*
X2705896Y-8002174D02*
X2724944Y-8011698D01*
X2724944Y-8011698D02*
X2734468Y-8021222D01*
X2734468Y-8021222D02*
X2743991Y-8040269D01*
X2743991Y-8040269D02*
X2743991Y-8087888D01*
X2743991Y-8087888D02*
X2734468Y-8106936D01*
X2734468Y-8106936D02*
X2724944Y-8116460D01*
X2724944Y-8116460D02*
X2705896Y-8125984D01*
X2705896Y-8125984D02*
X2648753Y-8125984D01*
X2648753Y-8125984D02*
X2629706Y-8116460D01*
X2629706Y-8116460D02*
X2620182Y-8106936D01*
X2839229Y-8125984D02*
X2877325Y-8125984D01*
X2877325Y-8125984D02*
X2896372Y-8116460D01*
X2896372Y-8116460D02*
X2905896Y-8106936D01*
X2905896Y-8106936D02*
X2924944Y-8078365D01*
X2924944Y-8078365D02*
X2934467Y-8040269D01*
X2934467Y-8040269D02*
X2934467Y-7964079D01*
X2934467Y-7964079D02*
X2924944Y-7945031D01*
X2924944Y-7945031D02*
X2915420Y-7935508D01*
X2915420Y-7935508D02*
X2896372Y-7925984D01*
X2896372Y-7925984D02*
X2858277Y-7925984D01*
X2858277Y-7925984D02*
X2839229Y-7935508D01*
X2839229Y-7935508D02*
X2829706Y-7945031D01*
X2829706Y-7945031D02*
X2820182Y-7964079D01*
X2820182Y-7964079D02*
X2820182Y-8011698D01*
X2820182Y-8011698D02*
X2829706Y-8030746D01*
X2829706Y-8030746D02*
X2839229Y-8040269D01*
X2839229Y-8040269D02*
X2858277Y-8049793D01*
X2858277Y-8049793D02*
X2896372Y-8049793D01*
X2896372Y-8049793D02*
X2915420Y-8040269D01*
X2915420Y-8040269D02*
X2924944Y-8030746D01*
X2924944Y-8030746D02*
X2934467Y-8011698D01*
X3105896Y-7992650D02*
X3105896Y-8125984D01*
X3058277Y-7916460D02*
X3010658Y-8059317D01*
X3010658Y-8059317D02*
X3134467Y-8059317D01*
X3201134Y-7925984D02*
X3201134Y-7964079D01*
X3277325Y-7925984D02*
X3277325Y-7964079D01*
X3572563Y-8202174D02*
X3563039Y-8192650D01*
X3563039Y-8192650D02*
X3543991Y-8164079D01*
X3543991Y-8164079D02*
X3534468Y-8145031D01*
X3534468Y-8145031D02*
X3524944Y-8116460D01*
X3524944Y-8116460D02*
X3515420Y-8068841D01*
X3515420Y-8068841D02*
X3515420Y-8030746D01*
X3515420Y-8030746D02*
X3524944Y-7983127D01*
X3524944Y-7983127D02*
X3534468Y-7954555D01*
X3534468Y-7954555D02*
X3543991Y-7935508D01*
X3543991Y-7935508D02*
X3563039Y-7906936D01*
X3563039Y-7906936D02*
X3572563Y-7897412D01*
X3639229Y-7945031D02*
X3648753Y-7935508D01*
X3648753Y-7935508D02*
X3667801Y-7925984D01*
X3667801Y-7925984D02*
X3715420Y-7925984D01*
X3715420Y-7925984D02*
X3734468Y-7935508D01*
X3734468Y-7935508D02*
X3743991Y-7945031D01*
X3743991Y-7945031D02*
X3753515Y-7964079D01*
X3753515Y-7964079D02*
X3753515Y-7983127D01*
X3753515Y-7983127D02*
X3743991Y-8011698D01*
X3743991Y-8011698D02*
X3629706Y-8125984D01*
X3629706Y-8125984D02*
X3753515Y-8125984D01*
X3991610Y-8125984D02*
X3991610Y-7925984D01*
X4077325Y-8125984D02*
X4077325Y-8021222D01*
X4077325Y-8021222D02*
X4067801Y-8002174D01*
X4067801Y-8002174D02*
X4048753Y-7992650D01*
X4048753Y-7992650D02*
X4020182Y-7992650D01*
X4020182Y-7992650D02*
X4001134Y-8002174D01*
X4001134Y-8002174D02*
X3991610Y-8011698D01*
X4201134Y-8125984D02*
X4182087Y-8116460D01*
X4182087Y-8116460D02*
X4172563Y-8106936D01*
X4172563Y-8106936D02*
X4163039Y-8087888D01*
X4163039Y-8087888D02*
X4163039Y-8030746D01*
X4163039Y-8030746D02*
X4172563Y-8011698D01*
X4172563Y-8011698D02*
X4182087Y-8002174D01*
X4182087Y-8002174D02*
X4201134Y-7992650D01*
X4201134Y-7992650D02*
X4229706Y-7992650D01*
X4229706Y-7992650D02*
X4248753Y-8002174D01*
X4248753Y-8002174D02*
X4258277Y-8011698D01*
X4258277Y-8011698D02*
X4267801Y-8030746D01*
X4267801Y-8030746D02*
X4267801Y-8087888D01*
X4267801Y-8087888D02*
X4258277Y-8106936D01*
X4258277Y-8106936D02*
X4248753Y-8116460D01*
X4248753Y-8116460D02*
X4229706Y-8125984D01*
X4229706Y-8125984D02*
X4201134Y-8125984D01*
X4382087Y-8125984D02*
X4363039Y-8116460D01*
X4363039Y-8116460D02*
X4353515Y-8097412D01*
X4353515Y-8097412D02*
X4353515Y-7925984D01*
X4534468Y-8116460D02*
X4515420Y-8125984D01*
X4515420Y-8125984D02*
X4477325Y-8125984D01*
X4477325Y-8125984D02*
X4458277Y-8116460D01*
X4458277Y-8116460D02*
X4448753Y-8097412D01*
X4448753Y-8097412D02*
X4448753Y-8021222D01*
X4448753Y-8021222D02*
X4458277Y-8002174D01*
X4458277Y-8002174D02*
X4477325Y-7992650D01*
X4477325Y-7992650D02*
X4515420Y-7992650D01*
X4515420Y-7992650D02*
X4534468Y-8002174D01*
X4534468Y-8002174D02*
X4543992Y-8021222D01*
X4543992Y-8021222D02*
X4543992Y-8040269D01*
X4543992Y-8040269D02*
X4448753Y-8059317D01*
X4620182Y-8116460D02*
X4639230Y-8125984D01*
X4639230Y-8125984D02*
X4677325Y-8125984D01*
X4677325Y-8125984D02*
X4696373Y-8116460D01*
X4696373Y-8116460D02*
X4705896Y-8097412D01*
X4705896Y-8097412D02*
X4705896Y-8087888D01*
X4705896Y-8087888D02*
X4696373Y-8068841D01*
X4696373Y-8068841D02*
X4677325Y-8059317D01*
X4677325Y-8059317D02*
X4648753Y-8059317D01*
X4648753Y-8059317D02*
X4629706Y-8049793D01*
X4629706Y-8049793D02*
X4620182Y-8030746D01*
X4620182Y-8030746D02*
X4620182Y-8021222D01*
X4620182Y-8021222D02*
X4629706Y-8002174D01*
X4629706Y-8002174D02*
X4648753Y-7992650D01*
X4648753Y-7992650D02*
X4677325Y-7992650D01*
X4677325Y-7992650D02*
X4696373Y-8002174D01*
X4943992Y-8049793D02*
X5096373Y-8049793D01*
X5020182Y-8125984D02*
X5020182Y-7973603D01*
X5334468Y-7945031D02*
X5343992Y-7935508D01*
X5343992Y-7935508D02*
X5363039Y-7925984D01*
X5363039Y-7925984D02*
X5410658Y-7925984D01*
X5410658Y-7925984D02*
X5429706Y-7935508D01*
X5429706Y-7935508D02*
X5439230Y-7945031D01*
X5439230Y-7945031D02*
X5448754Y-7964079D01*
X5448754Y-7964079D02*
X5448754Y-7983127D01*
X5448754Y-7983127D02*
X5439230Y-8011698D01*
X5439230Y-8011698D02*
X5324944Y-8125984D01*
X5324944Y-8125984D02*
X5448754Y-8125984D01*
X5677325Y-8116460D02*
X5696373Y-8125984D01*
X5696373Y-8125984D02*
X5734468Y-8125984D01*
X5734468Y-8125984D02*
X5753515Y-8116460D01*
X5753515Y-8116460D02*
X5763039Y-8097412D01*
X5763039Y-8097412D02*
X5763039Y-8087888D01*
X5763039Y-8087888D02*
X5753515Y-8068841D01*
X5753515Y-8068841D02*
X5734468Y-8059317D01*
X5734468Y-8059317D02*
X5705896Y-8059317D01*
X5705896Y-8059317D02*
X5686849Y-8049793D01*
X5686849Y-8049793D02*
X5677325Y-8030746D01*
X5677325Y-8030746D02*
X5677325Y-8021222D01*
X5677325Y-8021222D02*
X5686849Y-8002174D01*
X5686849Y-8002174D02*
X5705896Y-7992650D01*
X5705896Y-7992650D02*
X5734468Y-7992650D01*
X5734468Y-7992650D02*
X5753515Y-8002174D01*
X5877325Y-8125984D02*
X5858277Y-8116460D01*
X5858277Y-8116460D02*
X5848754Y-8097412D01*
X5848754Y-8097412D02*
X5848754Y-7925984D01*
X5982087Y-8125984D02*
X5963039Y-8116460D01*
X5963039Y-8116460D02*
X5953515Y-8106936D01*
X5953515Y-8106936D02*
X5943992Y-8087888D01*
X5943992Y-8087888D02*
X5943992Y-8030746D01*
X5943992Y-8030746D02*
X5953515Y-8011698D01*
X5953515Y-8011698D02*
X5963039Y-8002174D01*
X5963039Y-8002174D02*
X5982087Y-7992650D01*
X5982087Y-7992650D02*
X6010658Y-7992650D01*
X6010658Y-7992650D02*
X6029706Y-8002174D01*
X6029706Y-8002174D02*
X6039230Y-8011698D01*
X6039230Y-8011698D02*
X6048754Y-8030746D01*
X6048754Y-8030746D02*
X6048754Y-8087888D01*
X6048754Y-8087888D02*
X6039230Y-8106936D01*
X6039230Y-8106936D02*
X6029706Y-8116460D01*
X6029706Y-8116460D02*
X6010658Y-8125984D01*
X6010658Y-8125984D02*
X5982087Y-8125984D01*
X6105896Y-7992650D02*
X6182087Y-7992650D01*
X6134468Y-7925984D02*
X6134468Y-8097412D01*
X6134468Y-8097412D02*
X6143992Y-8116460D01*
X6143992Y-8116460D02*
X6163039Y-8125984D01*
X6163039Y-8125984D02*
X6182087Y-8125984D01*
X6239230Y-8116460D02*
X6258277Y-8125984D01*
X6258277Y-8125984D02*
X6296373Y-8125984D01*
X6296373Y-8125984D02*
X6315420Y-8116460D01*
X6315420Y-8116460D02*
X6324944Y-8097412D01*
X6324944Y-8097412D02*
X6324944Y-8087888D01*
X6324944Y-8087888D02*
X6315420Y-8068841D01*
X6315420Y-8068841D02*
X6296373Y-8059317D01*
X6296373Y-8059317D02*
X6267801Y-8059317D01*
X6267801Y-8059317D02*
X6248754Y-8049793D01*
X6248754Y-8049793D02*
X6239230Y-8030746D01*
X6239230Y-8030746D02*
X6239230Y-8021222D01*
X6239230Y-8021222D02*
X6248754Y-8002174D01*
X6248754Y-8002174D02*
X6267801Y-7992650D01*
X6267801Y-7992650D02*
X6296373Y-7992650D01*
X6296373Y-7992650D02*
X6315420Y-8002174D01*
X6391611Y-8202174D02*
X6401135Y-8192650D01*
X6401135Y-8192650D02*
X6420182Y-8164079D01*
X6420182Y-8164079D02*
X6429706Y-8145031D01*
X6429706Y-8145031D02*
X6439230Y-8116460D01*
X6439230Y-8116460D02*
X6448754Y-8068841D01*
X6448754Y-8068841D02*
X6448754Y-8030746D01*
X6448754Y-8030746D02*
X6439230Y-7983127D01*
X6439230Y-7983127D02*
X6429706Y-7954555D01*
X6429706Y-7954555D02*
X6420182Y-7935508D01*
X6420182Y-7935508D02*
X6401135Y-7906936D01*
X6401135Y-7906936D02*
X6391611Y-7897412D01*
D13*
X-57500Y-8353500D02*
X-2500Y-8298500D01*
X-57500Y-8243500D01*
X-112500Y-8298500D01*
X-57500Y-8353500D01*
D11*
X363039Y-8389984D02*
X248753Y-8389984D01*
X305896Y-8389984D02*
X305896Y-8189984D01*
X305896Y-8189984D02*
X286848Y-8218555D01*
X286848Y-8218555D02*
X267801Y-8237603D01*
X267801Y-8237603D02*
X248753Y-8247127D01*
X448753Y-8370936D02*
X458277Y-8380460D01*
X458277Y-8380460D02*
X448753Y-8389984D01*
X448753Y-8389984D02*
X439229Y-8380460D01*
X439229Y-8380460D02*
X448753Y-8370936D01*
X448753Y-8370936D02*
X448753Y-8389984D01*
X648753Y-8389984D02*
X534467Y-8389984D01*
X591610Y-8389984D02*
X591610Y-8189984D01*
X591610Y-8189984D02*
X572563Y-8218555D01*
X572563Y-8218555D02*
X553515Y-8237603D01*
X553515Y-8237603D02*
X534467Y-8247127D01*
X772562Y-8189984D02*
X791610Y-8189984D01*
X791610Y-8189984D02*
X810658Y-8199508D01*
X810658Y-8199508D02*
X820182Y-8209031D01*
X820182Y-8209031D02*
X829705Y-8228079D01*
X829705Y-8228079D02*
X839229Y-8266174D01*
X839229Y-8266174D02*
X839229Y-8313793D01*
X839229Y-8313793D02*
X829705Y-8351888D01*
X829705Y-8351888D02*
X820182Y-8370936D01*
X820182Y-8370936D02*
X810658Y-8380460D01*
X810658Y-8380460D02*
X791610Y-8389984D01*
X791610Y-8389984D02*
X772562Y-8389984D01*
X772562Y-8389984D02*
X753515Y-8380460D01*
X753515Y-8380460D02*
X743991Y-8370936D01*
X743991Y-8370936D02*
X734467Y-8351888D01*
X734467Y-8351888D02*
X724943Y-8313793D01*
X724943Y-8313793D02*
X724943Y-8266174D01*
X724943Y-8266174D02*
X734467Y-8228079D01*
X734467Y-8228079D02*
X743991Y-8209031D01*
X743991Y-8209031D02*
X753515Y-8199508D01*
X753515Y-8199508D02*
X772562Y-8189984D01*
X963039Y-8189984D02*
X982086Y-8189984D01*
X982086Y-8189984D02*
X1001134Y-8199508D01*
X1001134Y-8199508D02*
X1010658Y-8209031D01*
X1010658Y-8209031D02*
X1020182Y-8228079D01*
X1020182Y-8228079D02*
X1029705Y-8266174D01*
X1029705Y-8266174D02*
X1029705Y-8313793D01*
X1029705Y-8313793D02*
X1020182Y-8351888D01*
X1020182Y-8351888D02*
X1010658Y-8370936D01*
X1010658Y-8370936D02*
X1001134Y-8380460D01*
X1001134Y-8380460D02*
X982086Y-8389984D01*
X982086Y-8389984D02*
X963039Y-8389984D01*
X963039Y-8389984D02*
X943991Y-8380460D01*
X943991Y-8380460D02*
X934467Y-8370936D01*
X934467Y-8370936D02*
X924943Y-8351888D01*
X924943Y-8351888D02*
X915420Y-8313793D01*
X915420Y-8313793D02*
X915420Y-8266174D01*
X915420Y-8266174D02*
X924943Y-8228079D01*
X924943Y-8228079D02*
X934467Y-8209031D01*
X934467Y-8209031D02*
X943991Y-8199508D01*
X943991Y-8199508D02*
X963039Y-8189984D01*
X1115420Y-8389984D02*
X1115420Y-8256650D01*
X1115420Y-8275698D02*
X1124944Y-8266174D01*
X1124944Y-8266174D02*
X1143991Y-8256650D01*
X1143991Y-8256650D02*
X1172563Y-8256650D01*
X1172563Y-8256650D02*
X1191610Y-8266174D01*
X1191610Y-8266174D02*
X1201134Y-8285222D01*
X1201134Y-8285222D02*
X1201134Y-8389984D01*
X1201134Y-8285222D02*
X1210658Y-8266174D01*
X1210658Y-8266174D02*
X1229705Y-8256650D01*
X1229705Y-8256650D02*
X1258277Y-8256650D01*
X1258277Y-8256650D02*
X1277325Y-8266174D01*
X1277325Y-8266174D02*
X1286848Y-8285222D01*
X1286848Y-8285222D02*
X1286848Y-8389984D01*
X1382086Y-8389984D02*
X1382086Y-8256650D01*
X1382086Y-8275698D02*
X1391610Y-8266174D01*
X1391610Y-8266174D02*
X1410658Y-8256650D01*
X1410658Y-8256650D02*
X1439229Y-8256650D01*
X1439229Y-8256650D02*
X1458277Y-8266174D01*
X1458277Y-8266174D02*
X1467801Y-8285222D01*
X1467801Y-8285222D02*
X1467801Y-8389984D01*
X1467801Y-8285222D02*
X1477324Y-8266174D01*
X1477324Y-8266174D02*
X1496372Y-8256650D01*
X1496372Y-8256650D02*
X1524943Y-8256650D01*
X1524943Y-8256650D02*
X1543991Y-8266174D01*
X1543991Y-8266174D02*
X1553515Y-8285222D01*
X1553515Y-8285222D02*
X1553515Y-8389984D01*
X1943991Y-8180460D02*
X1772563Y-8437603D01*
X2201134Y-8189984D02*
X2220182Y-8189984D01*
X2220182Y-8189984D02*
X2239229Y-8199508D01*
X2239229Y-8199508D02*
X2248753Y-8209031D01*
X2248753Y-8209031D02*
X2258277Y-8228079D01*
X2258277Y-8228079D02*
X2267801Y-8266174D01*
X2267801Y-8266174D02*
X2267801Y-8313793D01*
X2267801Y-8313793D02*
X2258277Y-8351888D01*
X2258277Y-8351888D02*
X2248753Y-8370936D01*
X2248753Y-8370936D02*
X2239229Y-8380460D01*
X2239229Y-8380460D02*
X2220182Y-8389984D01*
X2220182Y-8389984D02*
X2201134Y-8389984D01*
X2201134Y-8389984D02*
X2182087Y-8380460D01*
X2182087Y-8380460D02*
X2172563Y-8370936D01*
X2172563Y-8370936D02*
X2163039Y-8351888D01*
X2163039Y-8351888D02*
X2153515Y-8313793D01*
X2153515Y-8313793D02*
X2153515Y-8266174D01*
X2153515Y-8266174D02*
X2163039Y-8228079D01*
X2163039Y-8228079D02*
X2172563Y-8209031D01*
X2172563Y-8209031D02*
X2182087Y-8199508D01*
X2182087Y-8199508D02*
X2201134Y-8189984D01*
X2353515Y-8370936D02*
X2363039Y-8380460D01*
X2363039Y-8380460D02*
X2353515Y-8389984D01*
X2353515Y-8389984D02*
X2343991Y-8380460D01*
X2343991Y-8380460D02*
X2353515Y-8370936D01*
X2353515Y-8370936D02*
X2353515Y-8389984D01*
X2486848Y-8189984D02*
X2505896Y-8189984D01*
X2505896Y-8189984D02*
X2524944Y-8199508D01*
X2524944Y-8199508D02*
X2534468Y-8209031D01*
X2534468Y-8209031D02*
X2543991Y-8228079D01*
X2543991Y-8228079D02*
X2553515Y-8266174D01*
X2553515Y-8266174D02*
X2553515Y-8313793D01*
X2553515Y-8313793D02*
X2543991Y-8351888D01*
X2543991Y-8351888D02*
X2534468Y-8370936D01*
X2534468Y-8370936D02*
X2524944Y-8380460D01*
X2524944Y-8380460D02*
X2505896Y-8389984D01*
X2505896Y-8389984D02*
X2486848Y-8389984D01*
X2486848Y-8389984D02*
X2467801Y-8380460D01*
X2467801Y-8380460D02*
X2458277Y-8370936D01*
X2458277Y-8370936D02*
X2448753Y-8351888D01*
X2448753Y-8351888D02*
X2439229Y-8313793D01*
X2439229Y-8313793D02*
X2439229Y-8266174D01*
X2439229Y-8266174D02*
X2448753Y-8228079D01*
X2448753Y-8228079D02*
X2458277Y-8209031D01*
X2458277Y-8209031D02*
X2467801Y-8199508D01*
X2467801Y-8199508D02*
X2486848Y-8189984D01*
X2724944Y-8256650D02*
X2724944Y-8389984D01*
X2677325Y-8180460D02*
X2629706Y-8323317D01*
X2629706Y-8323317D02*
X2753515Y-8323317D01*
X2810658Y-8189984D02*
X2934467Y-8189984D01*
X2934467Y-8189984D02*
X2867801Y-8266174D01*
X2867801Y-8266174D02*
X2896372Y-8266174D01*
X2896372Y-8266174D02*
X2915420Y-8275698D01*
X2915420Y-8275698D02*
X2924944Y-8285222D01*
X2924944Y-8285222D02*
X2934467Y-8304269D01*
X2934467Y-8304269D02*
X2934467Y-8351888D01*
X2934467Y-8351888D02*
X2924944Y-8370936D01*
X2924944Y-8370936D02*
X2915420Y-8380460D01*
X2915420Y-8380460D02*
X2896372Y-8389984D01*
X2896372Y-8389984D02*
X2839229Y-8389984D01*
X2839229Y-8389984D02*
X2820182Y-8380460D01*
X2820182Y-8380460D02*
X2810658Y-8370936D01*
X3001134Y-8189984D02*
X3124944Y-8189984D01*
X3124944Y-8189984D02*
X3058277Y-8266174D01*
X3058277Y-8266174D02*
X3086848Y-8266174D01*
X3086848Y-8266174D02*
X3105896Y-8275698D01*
X3105896Y-8275698D02*
X3115420Y-8285222D01*
X3115420Y-8285222D02*
X3124944Y-8304269D01*
X3124944Y-8304269D02*
X3124944Y-8351888D01*
X3124944Y-8351888D02*
X3115420Y-8370936D01*
X3115420Y-8370936D02*
X3105896Y-8380460D01*
X3105896Y-8380460D02*
X3086848Y-8389984D01*
X3086848Y-8389984D02*
X3029706Y-8389984D01*
X3029706Y-8389984D02*
X3010658Y-8380460D01*
X3010658Y-8380460D02*
X3001134Y-8370936D01*
X3201134Y-8189984D02*
X3201134Y-8228079D01*
X3277325Y-8189984D02*
X3277325Y-8228079D01*
X3572563Y-8466174D02*
X3563039Y-8456650D01*
X3563039Y-8456650D02*
X3543991Y-8428079D01*
X3543991Y-8428079D02*
X3534468Y-8409031D01*
X3534468Y-8409031D02*
X3524944Y-8380460D01*
X3524944Y-8380460D02*
X3515420Y-8332841D01*
X3515420Y-8332841D02*
X3515420Y-8294746D01*
X3515420Y-8294746D02*
X3524944Y-8247127D01*
X3524944Y-8247127D02*
X3534468Y-8218555D01*
X3534468Y-8218555D02*
X3543991Y-8199508D01*
X3543991Y-8199508D02*
X3563039Y-8170936D01*
X3563039Y-8170936D02*
X3572563Y-8161412D01*
X3753515Y-8389984D02*
X3639229Y-8389984D01*
X3696372Y-8389984D02*
X3696372Y-8189984D01*
X3696372Y-8189984D02*
X3677325Y-8218555D01*
X3677325Y-8218555D02*
X3658277Y-8237603D01*
X3658277Y-8237603D02*
X3639229Y-8247127D01*
X3829706Y-8209031D02*
X3839229Y-8199508D01*
X3839229Y-8199508D02*
X3858277Y-8189984D01*
X3858277Y-8189984D02*
X3905896Y-8189984D01*
X3905896Y-8189984D02*
X3924944Y-8199508D01*
X3924944Y-8199508D02*
X3934468Y-8209031D01*
X3934468Y-8209031D02*
X3943991Y-8228079D01*
X3943991Y-8228079D02*
X3943991Y-8247127D01*
X3943991Y-8247127D02*
X3934468Y-8275698D01*
X3934468Y-8275698D02*
X3820182Y-8389984D01*
X3820182Y-8389984D02*
X3943991Y-8389984D01*
X4182087Y-8389984D02*
X4182087Y-8189984D01*
X4267801Y-8389984D02*
X4267801Y-8285222D01*
X4267801Y-8285222D02*
X4258277Y-8266174D01*
X4258277Y-8266174D02*
X4239230Y-8256650D01*
X4239230Y-8256650D02*
X4210658Y-8256650D01*
X4210658Y-8256650D02*
X4191610Y-8266174D01*
X4191610Y-8266174D02*
X4182087Y-8275698D01*
X4391611Y-8389984D02*
X4372563Y-8380460D01*
X4372563Y-8380460D02*
X4363039Y-8370936D01*
X4363039Y-8370936D02*
X4353515Y-8351888D01*
X4353515Y-8351888D02*
X4353515Y-8294746D01*
X4353515Y-8294746D02*
X4363039Y-8275698D01*
X4363039Y-8275698D02*
X4372563Y-8266174D01*
X4372563Y-8266174D02*
X4391611Y-8256650D01*
X4391611Y-8256650D02*
X4420182Y-8256650D01*
X4420182Y-8256650D02*
X4439230Y-8266174D01*
X4439230Y-8266174D02*
X4448753Y-8275698D01*
X4448753Y-8275698D02*
X4458277Y-8294746D01*
X4458277Y-8294746D02*
X4458277Y-8351888D01*
X4458277Y-8351888D02*
X4448753Y-8370936D01*
X4448753Y-8370936D02*
X4439230Y-8380460D01*
X4439230Y-8380460D02*
X4420182Y-8389984D01*
X4420182Y-8389984D02*
X4391611Y-8389984D01*
X4572563Y-8389984D02*
X4553515Y-8380460D01*
X4553515Y-8380460D02*
X4543992Y-8361412D01*
X4543992Y-8361412D02*
X4543992Y-8189984D01*
X4724944Y-8380460D02*
X4705896Y-8389984D01*
X4705896Y-8389984D02*
X4667801Y-8389984D01*
X4667801Y-8389984D02*
X4648753Y-8380460D01*
X4648753Y-8380460D02*
X4639230Y-8361412D01*
X4639230Y-8361412D02*
X4639230Y-8285222D01*
X4639230Y-8285222D02*
X4648753Y-8266174D01*
X4648753Y-8266174D02*
X4667801Y-8256650D01*
X4667801Y-8256650D02*
X4705896Y-8256650D01*
X4705896Y-8256650D02*
X4724944Y-8266174D01*
X4724944Y-8266174D02*
X4734468Y-8285222D01*
X4734468Y-8285222D02*
X4734468Y-8304269D01*
X4734468Y-8304269D02*
X4639230Y-8323317D01*
X4810658Y-8380460D02*
X4829706Y-8389984D01*
X4829706Y-8389984D02*
X4867801Y-8389984D01*
X4867801Y-8389984D02*
X4886849Y-8380460D01*
X4886849Y-8380460D02*
X4896373Y-8361412D01*
X4896373Y-8361412D02*
X4896373Y-8351888D01*
X4896373Y-8351888D02*
X4886849Y-8332841D01*
X4886849Y-8332841D02*
X4867801Y-8323317D01*
X4867801Y-8323317D02*
X4839230Y-8323317D01*
X4839230Y-8323317D02*
X4820182Y-8313793D01*
X4820182Y-8313793D02*
X4810658Y-8294746D01*
X4810658Y-8294746D02*
X4810658Y-8285222D01*
X4810658Y-8285222D02*
X4820182Y-8266174D01*
X4820182Y-8266174D02*
X4839230Y-8256650D01*
X4839230Y-8256650D02*
X4867801Y-8256650D01*
X4867801Y-8256650D02*
X4886849Y-8266174D01*
X4963039Y-8466174D02*
X4972563Y-8456650D01*
X4972563Y-8456650D02*
X4991611Y-8428079D01*
X4991611Y-8428079D02*
X5001134Y-8409031D01*
X5001134Y-8409031D02*
X5010658Y-8380460D01*
X5010658Y-8380460D02*
X5020182Y-8332841D01*
X5020182Y-8332841D02*
X5020182Y-8294746D01*
X5020182Y-8294746D02*
X5010658Y-8247127D01*
X5010658Y-8247127D02*
X5001134Y-8218555D01*
X5001134Y-8218555D02*
X4991611Y-8199508D01*
X4991611Y-8199508D02*
X4972563Y-8170936D01*
X4972563Y-8170936D02*
X4963039Y-8161412D01*
M02*
