%TF.GenerationSoftware,KiCad,Pcbnew,10.0.6*%
%TF.CreationDate,2026-09-22T15:31:39-05:00*%
%TF.ProjectId,can-modbus-tap,63616e2d-6d6f-4646-9275-732d7461702e,0.1*%
%TF.SameCoordinates,Original*%
%TF.FileFunction,Drillmap*%
%TF.FilePolarity,Positive*%
%FSLAX45Y45*%
G04 Gerber Fmt 4.5, Leading zero omitted, Abs format (unit mm)*
G04 Created by KiCad (PCBNEW 10.0.6) date 2026-09-22 15:31:39*
%MOMM*%
%LPD*%
G01*
G04 APERTURE LIST*
%ADD10C,0.050000*%
%ADD11C,0.200000*%
%ADD12C,0.100000*%
%ADD13C,0.110000*%
G04 APERTURE END LIST*
D10*
X0Y0D02*
X9000000Y0D01*
X0Y-6600000D02*
X0Y0D01*
X3800000Y-1700000D02*
X4000000Y-1700000D01*
X3800000Y-5500000D02*
X3800000Y-1700000D01*
X4000000Y-1700000D02*
X4000000Y-5500000D01*
X4000000Y-5500000D02*
X3800000Y-5500000D01*
X9000000Y0D02*
X9000000Y-6600000D01*
X9000000Y-6600000D02*
X0Y-6600000D01*
D11*
D12*
X748000Y-1678500D02*
X813000Y-1743500D01*
X813000Y-1678500D02*
X748000Y-1743500D01*
X748000Y-2256500D02*
X813000Y-2321500D01*
X813000Y-2256500D02*
X748000Y-2321500D01*
D13*
X7221000Y-2775000D02*
G75*
G02*
X7111000Y-2775000I-55000J0D01*
G01*
X7111000Y-2775000D02*
G75*
G02*
X7221000Y-2775000I55000J0D01*
G01*
X7221000Y-3225000D02*
G75*
G02*
X7111000Y-3225000I-55000J0D01*
G01*
X7111000Y-3225000D02*
G75*
G02*
X7221000Y-3225000I55000J0D01*
G01*
D11*
X258277Y-6913984D02*
X258277Y-6713984D01*
X258277Y-6713984D02*
X305896Y-6713984D01*
X305896Y-6713984D02*
X334467Y-6723508D01*
X334467Y-6723508D02*
X353515Y-6742555D01*
X353515Y-6742555D02*
X363039Y-6761603D01*
X363039Y-6761603D02*
X372562Y-6799698D01*
X372562Y-6799698D02*
X372562Y-6828269D01*
X372562Y-6828269D02*
X363039Y-6866365D01*
X363039Y-6866365D02*
X353515Y-6885412D01*
X353515Y-6885412D02*
X334467Y-6904460D01*
X334467Y-6904460D02*
X305896Y-6913984D01*
X305896Y-6913984D02*
X258277Y-6913984D01*
X458277Y-6913984D02*
X458277Y-6780650D01*
X458277Y-6818746D02*
X467801Y-6799698D01*
X467801Y-6799698D02*
X477324Y-6790174D01*
X477324Y-6790174D02*
X496372Y-6780650D01*
X496372Y-6780650D02*
X515420Y-6780650D01*
X582086Y-6913984D02*
X582086Y-6780650D01*
X582086Y-6713984D02*
X572563Y-6723508D01*
X572563Y-6723508D02*
X582086Y-6733031D01*
X582086Y-6733031D02*
X591610Y-6723508D01*
X591610Y-6723508D02*
X582086Y-6713984D01*
X582086Y-6713984D02*
X582086Y-6733031D01*
X705896Y-6913984D02*
X686848Y-6904460D01*
X686848Y-6904460D02*
X677324Y-6885412D01*
X677324Y-6885412D02*
X677324Y-6713984D01*
X810658Y-6913984D02*
X791610Y-6904460D01*
X791610Y-6904460D02*
X782086Y-6885412D01*
X782086Y-6885412D02*
X782086Y-6713984D01*
X1039229Y-6913984D02*
X1039229Y-6713984D01*
X1039229Y-6713984D02*
X1105896Y-6856841D01*
X1105896Y-6856841D02*
X1172563Y-6713984D01*
X1172563Y-6713984D02*
X1172563Y-6913984D01*
X1353515Y-6913984D02*
X1353515Y-6809222D01*
X1353515Y-6809222D02*
X1343991Y-6790174D01*
X1343991Y-6790174D02*
X1324944Y-6780650D01*
X1324944Y-6780650D02*
X1286848Y-6780650D01*
X1286848Y-6780650D02*
X1267801Y-6790174D01*
X1353515Y-6904460D02*
X1334467Y-6913984D01*
X1334467Y-6913984D02*
X1286848Y-6913984D01*
X1286848Y-6913984D02*
X1267801Y-6904460D01*
X1267801Y-6904460D02*
X1258277Y-6885412D01*
X1258277Y-6885412D02*
X1258277Y-6866365D01*
X1258277Y-6866365D02*
X1267801Y-6847317D01*
X1267801Y-6847317D02*
X1286848Y-6837793D01*
X1286848Y-6837793D02*
X1334467Y-6837793D01*
X1334467Y-6837793D02*
X1353515Y-6828269D01*
X1448753Y-6780650D02*
X1448753Y-6980650D01*
X1448753Y-6790174D02*
X1467801Y-6780650D01*
X1467801Y-6780650D02*
X1505896Y-6780650D01*
X1505896Y-6780650D02*
X1524943Y-6790174D01*
X1524943Y-6790174D02*
X1534467Y-6799698D01*
X1534467Y-6799698D02*
X1543991Y-6818746D01*
X1543991Y-6818746D02*
X1543991Y-6875888D01*
X1543991Y-6875888D02*
X1534467Y-6894936D01*
X1534467Y-6894936D02*
X1524943Y-6904460D01*
X1524943Y-6904460D02*
X1505896Y-6913984D01*
X1505896Y-6913984D02*
X1467801Y-6913984D01*
X1467801Y-6913984D02*
X1448753Y-6904460D01*
X1629705Y-6894936D02*
X1639229Y-6904460D01*
X1639229Y-6904460D02*
X1629705Y-6913984D01*
X1629705Y-6913984D02*
X1620182Y-6904460D01*
X1620182Y-6904460D02*
X1629705Y-6894936D01*
X1629705Y-6894936D02*
X1629705Y-6913984D01*
X1629705Y-6790174D02*
X1639229Y-6799698D01*
X1639229Y-6799698D02*
X1629705Y-6809222D01*
X1629705Y-6809222D02*
X1620182Y-6799698D01*
X1620182Y-6799698D02*
X1629705Y-6790174D01*
X1629705Y-6790174D02*
X1629705Y-6809222D01*
D12*
X-67500Y-7210000D02*
X-2500Y-7275000D01*
X-2500Y-7210000D02*
X-67500Y-7275000D01*
D11*
X296372Y-7133984D02*
X315420Y-7133984D01*
X315420Y-7133984D02*
X334467Y-7143508D01*
X334467Y-7143508D02*
X343991Y-7153031D01*
X343991Y-7153031D02*
X353515Y-7172079D01*
X353515Y-7172079D02*
X363039Y-7210174D01*
X363039Y-7210174D02*
X363039Y-7257793D01*
X363039Y-7257793D02*
X353515Y-7295888D01*
X353515Y-7295888D02*
X343991Y-7314936D01*
X343991Y-7314936D02*
X334467Y-7324460D01*
X334467Y-7324460D02*
X315420Y-7333984D01*
X315420Y-7333984D02*
X296372Y-7333984D01*
X296372Y-7333984D02*
X277324Y-7324460D01*
X277324Y-7324460D02*
X267801Y-7314936D01*
X267801Y-7314936D02*
X258277Y-7295888D01*
X258277Y-7295888D02*
X248753Y-7257793D01*
X248753Y-7257793D02*
X248753Y-7210174D01*
X248753Y-7210174D02*
X258277Y-7172079D01*
X258277Y-7172079D02*
X267801Y-7153031D01*
X267801Y-7153031D02*
X277324Y-7143508D01*
X277324Y-7143508D02*
X296372Y-7133984D01*
X448753Y-7314936D02*
X458277Y-7324460D01*
X458277Y-7324460D02*
X448753Y-7333984D01*
X448753Y-7333984D02*
X439229Y-7324460D01*
X439229Y-7324460D02*
X448753Y-7314936D01*
X448753Y-7314936D02*
X448753Y-7333984D01*
X629705Y-7133984D02*
X591610Y-7133984D01*
X591610Y-7133984D02*
X572563Y-7143508D01*
X572563Y-7143508D02*
X563039Y-7153031D01*
X563039Y-7153031D02*
X543991Y-7181603D01*
X543991Y-7181603D02*
X534467Y-7219698D01*
X534467Y-7219698D02*
X534467Y-7295888D01*
X534467Y-7295888D02*
X543991Y-7314936D01*
X543991Y-7314936D02*
X553515Y-7324460D01*
X553515Y-7324460D02*
X572563Y-7333984D01*
X572563Y-7333984D02*
X610658Y-7333984D01*
X610658Y-7333984D02*
X629705Y-7324460D01*
X629705Y-7324460D02*
X639229Y-7314936D01*
X639229Y-7314936D02*
X648753Y-7295888D01*
X648753Y-7295888D02*
X648753Y-7248269D01*
X648753Y-7248269D02*
X639229Y-7229222D01*
X639229Y-7229222D02*
X629705Y-7219698D01*
X629705Y-7219698D02*
X610658Y-7210174D01*
X610658Y-7210174D02*
X572563Y-7210174D01*
X572563Y-7210174D02*
X553515Y-7219698D01*
X553515Y-7219698D02*
X543991Y-7229222D01*
X543991Y-7229222D02*
X534467Y-7248269D01*
X829705Y-7133984D02*
X734467Y-7133984D01*
X734467Y-7133984D02*
X724943Y-7229222D01*
X724943Y-7229222D02*
X734467Y-7219698D01*
X734467Y-7219698D02*
X753515Y-7210174D01*
X753515Y-7210174D02*
X801134Y-7210174D01*
X801134Y-7210174D02*
X820182Y-7219698D01*
X820182Y-7219698D02*
X829705Y-7229222D01*
X829705Y-7229222D02*
X839229Y-7248269D01*
X839229Y-7248269D02*
X839229Y-7295888D01*
X839229Y-7295888D02*
X829705Y-7314936D01*
X829705Y-7314936D02*
X820182Y-7324460D01*
X820182Y-7324460D02*
X801134Y-7333984D01*
X801134Y-7333984D02*
X753515Y-7333984D01*
X753515Y-7333984D02*
X734467Y-7324460D01*
X734467Y-7324460D02*
X724943Y-7314936D01*
X963039Y-7133984D02*
X982086Y-7133984D01*
X982086Y-7133984D02*
X1001134Y-7143508D01*
X1001134Y-7143508D02*
X1010658Y-7153031D01*
X1010658Y-7153031D02*
X1020182Y-7172079D01*
X1020182Y-7172079D02*
X1029705Y-7210174D01*
X1029705Y-7210174D02*
X1029705Y-7257793D01*
X1029705Y-7257793D02*
X1020182Y-7295888D01*
X1020182Y-7295888D02*
X1010658Y-7314936D01*
X1010658Y-7314936D02*
X1001134Y-7324460D01*
X1001134Y-7324460D02*
X982086Y-7333984D01*
X982086Y-7333984D02*
X963039Y-7333984D01*
X963039Y-7333984D02*
X943991Y-7324460D01*
X943991Y-7324460D02*
X934467Y-7314936D01*
X934467Y-7314936D02*
X924943Y-7295888D01*
X924943Y-7295888D02*
X915420Y-7257793D01*
X915420Y-7257793D02*
X915420Y-7210174D01*
X915420Y-7210174D02*
X924943Y-7172079D01*
X924943Y-7172079D02*
X934467Y-7153031D01*
X934467Y-7153031D02*
X943991Y-7143508D01*
X943991Y-7143508D02*
X963039Y-7133984D01*
X1115420Y-7333984D02*
X1115420Y-7200650D01*
X1115420Y-7219698D02*
X1124944Y-7210174D01*
X1124944Y-7210174D02*
X1143991Y-7200650D01*
X1143991Y-7200650D02*
X1172563Y-7200650D01*
X1172563Y-7200650D02*
X1191610Y-7210174D01*
X1191610Y-7210174D02*
X1201134Y-7229222D01*
X1201134Y-7229222D02*
X1201134Y-7333984D01*
X1201134Y-7229222D02*
X1210658Y-7210174D01*
X1210658Y-7210174D02*
X1229705Y-7200650D01*
X1229705Y-7200650D02*
X1258277Y-7200650D01*
X1258277Y-7200650D02*
X1277325Y-7210174D01*
X1277325Y-7210174D02*
X1286848Y-7229222D01*
X1286848Y-7229222D02*
X1286848Y-7333984D01*
X1382086Y-7333984D02*
X1382086Y-7200650D01*
X1382086Y-7219698D02*
X1391610Y-7210174D01*
X1391610Y-7210174D02*
X1410658Y-7200650D01*
X1410658Y-7200650D02*
X1439229Y-7200650D01*
X1439229Y-7200650D02*
X1458277Y-7210174D01*
X1458277Y-7210174D02*
X1467801Y-7229222D01*
X1467801Y-7229222D02*
X1467801Y-7333984D01*
X1467801Y-7229222D02*
X1477324Y-7210174D01*
X1477324Y-7210174D02*
X1496372Y-7200650D01*
X1496372Y-7200650D02*
X1524943Y-7200650D01*
X1524943Y-7200650D02*
X1543991Y-7210174D01*
X1543991Y-7210174D02*
X1553515Y-7229222D01*
X1553515Y-7229222D02*
X1553515Y-7333984D01*
X1943991Y-7124460D02*
X1772563Y-7381603D01*
X2201134Y-7133984D02*
X2220182Y-7133984D01*
X2220182Y-7133984D02*
X2239229Y-7143508D01*
X2239229Y-7143508D02*
X2248753Y-7153031D01*
X2248753Y-7153031D02*
X2258277Y-7172079D01*
X2258277Y-7172079D02*
X2267801Y-7210174D01*
X2267801Y-7210174D02*
X2267801Y-7257793D01*
X2267801Y-7257793D02*
X2258277Y-7295888D01*
X2258277Y-7295888D02*
X2248753Y-7314936D01*
X2248753Y-7314936D02*
X2239229Y-7324460D01*
X2239229Y-7324460D02*
X2220182Y-7333984D01*
X2220182Y-7333984D02*
X2201134Y-7333984D01*
X2201134Y-7333984D02*
X2182087Y-7324460D01*
X2182087Y-7324460D02*
X2172563Y-7314936D01*
X2172563Y-7314936D02*
X2163039Y-7295888D01*
X2163039Y-7295888D02*
X2153515Y-7257793D01*
X2153515Y-7257793D02*
X2153515Y-7210174D01*
X2153515Y-7210174D02*
X2163039Y-7172079D01*
X2163039Y-7172079D02*
X2172563Y-7153031D01*
X2172563Y-7153031D02*
X2182087Y-7143508D01*
X2182087Y-7143508D02*
X2201134Y-7133984D01*
X2353515Y-7314936D02*
X2363039Y-7324460D01*
X2363039Y-7324460D02*
X2353515Y-7333984D01*
X2353515Y-7333984D02*
X2343991Y-7324460D01*
X2343991Y-7324460D02*
X2353515Y-7314936D01*
X2353515Y-7314936D02*
X2353515Y-7333984D01*
X2486848Y-7133984D02*
X2505896Y-7133984D01*
X2505896Y-7133984D02*
X2524944Y-7143508D01*
X2524944Y-7143508D02*
X2534468Y-7153031D01*
X2534468Y-7153031D02*
X2543991Y-7172079D01*
X2543991Y-7172079D02*
X2553515Y-7210174D01*
X2553515Y-7210174D02*
X2553515Y-7257793D01*
X2553515Y-7257793D02*
X2543991Y-7295888D01*
X2543991Y-7295888D02*
X2534468Y-7314936D01*
X2534468Y-7314936D02*
X2524944Y-7324460D01*
X2524944Y-7324460D02*
X2505896Y-7333984D01*
X2505896Y-7333984D02*
X2486848Y-7333984D01*
X2486848Y-7333984D02*
X2467801Y-7324460D01*
X2467801Y-7324460D02*
X2458277Y-7314936D01*
X2458277Y-7314936D02*
X2448753Y-7295888D01*
X2448753Y-7295888D02*
X2439229Y-7257793D01*
X2439229Y-7257793D02*
X2439229Y-7210174D01*
X2439229Y-7210174D02*
X2448753Y-7172079D01*
X2448753Y-7172079D02*
X2458277Y-7153031D01*
X2458277Y-7153031D02*
X2467801Y-7143508D01*
X2467801Y-7143508D02*
X2486848Y-7133984D01*
X2629706Y-7153031D02*
X2639229Y-7143508D01*
X2639229Y-7143508D02*
X2658277Y-7133984D01*
X2658277Y-7133984D02*
X2705896Y-7133984D01*
X2705896Y-7133984D02*
X2724944Y-7143508D01*
X2724944Y-7143508D02*
X2734468Y-7153031D01*
X2734468Y-7153031D02*
X2743991Y-7172079D01*
X2743991Y-7172079D02*
X2743991Y-7191127D01*
X2743991Y-7191127D02*
X2734468Y-7219698D01*
X2734468Y-7219698D02*
X2620182Y-7333984D01*
X2620182Y-7333984D02*
X2743991Y-7333984D01*
X2924944Y-7133984D02*
X2829706Y-7133984D01*
X2829706Y-7133984D02*
X2820182Y-7229222D01*
X2820182Y-7229222D02*
X2829706Y-7219698D01*
X2829706Y-7219698D02*
X2848753Y-7210174D01*
X2848753Y-7210174D02*
X2896372Y-7210174D01*
X2896372Y-7210174D02*
X2915420Y-7219698D01*
X2915420Y-7219698D02*
X2924944Y-7229222D01*
X2924944Y-7229222D02*
X2934467Y-7248269D01*
X2934467Y-7248269D02*
X2934467Y-7295888D01*
X2934467Y-7295888D02*
X2924944Y-7314936D01*
X2924944Y-7314936D02*
X2915420Y-7324460D01*
X2915420Y-7324460D02*
X2896372Y-7333984D01*
X2896372Y-7333984D02*
X2848753Y-7333984D01*
X2848753Y-7333984D02*
X2829706Y-7324460D01*
X2829706Y-7324460D02*
X2820182Y-7314936D01*
X3105896Y-7133984D02*
X3067801Y-7133984D01*
X3067801Y-7133984D02*
X3048753Y-7143508D01*
X3048753Y-7143508D02*
X3039229Y-7153031D01*
X3039229Y-7153031D02*
X3020182Y-7181603D01*
X3020182Y-7181603D02*
X3010658Y-7219698D01*
X3010658Y-7219698D02*
X3010658Y-7295888D01*
X3010658Y-7295888D02*
X3020182Y-7314936D01*
X3020182Y-7314936D02*
X3029706Y-7324460D01*
X3029706Y-7324460D02*
X3048753Y-7333984D01*
X3048753Y-7333984D02*
X3086848Y-7333984D01*
X3086848Y-7333984D02*
X3105896Y-7324460D01*
X3105896Y-7324460D02*
X3115420Y-7314936D01*
X3115420Y-7314936D02*
X3124944Y-7295888D01*
X3124944Y-7295888D02*
X3124944Y-7248269D01*
X3124944Y-7248269D02*
X3115420Y-7229222D01*
X3115420Y-7229222D02*
X3105896Y-7219698D01*
X3105896Y-7219698D02*
X3086848Y-7210174D01*
X3086848Y-7210174D02*
X3048753Y-7210174D01*
X3048753Y-7210174D02*
X3029706Y-7219698D01*
X3029706Y-7219698D02*
X3020182Y-7229222D01*
X3020182Y-7229222D02*
X3010658Y-7248269D01*
X3201134Y-7133984D02*
X3201134Y-7172079D01*
X3277325Y-7133984D02*
X3277325Y-7172079D01*
X3572563Y-7410174D02*
X3563039Y-7400650D01*
X3563039Y-7400650D02*
X3543991Y-7372079D01*
X3543991Y-7372079D02*
X3534468Y-7353031D01*
X3534468Y-7353031D02*
X3524944Y-7324460D01*
X3524944Y-7324460D02*
X3515420Y-7276841D01*
X3515420Y-7276841D02*
X3515420Y-7238746D01*
X3515420Y-7238746D02*
X3524944Y-7191127D01*
X3524944Y-7191127D02*
X3534468Y-7162555D01*
X3534468Y-7162555D02*
X3543991Y-7143508D01*
X3543991Y-7143508D02*
X3563039Y-7114936D01*
X3563039Y-7114936D02*
X3572563Y-7105412D01*
X3639229Y-7153031D02*
X3648753Y-7143508D01*
X3648753Y-7143508D02*
X3667801Y-7133984D01*
X3667801Y-7133984D02*
X3715420Y-7133984D01*
X3715420Y-7133984D02*
X3734468Y-7143508D01*
X3734468Y-7143508D02*
X3743991Y-7153031D01*
X3743991Y-7153031D02*
X3753515Y-7172079D01*
X3753515Y-7172079D02*
X3753515Y-7191127D01*
X3753515Y-7191127D02*
X3743991Y-7219698D01*
X3743991Y-7219698D02*
X3629706Y-7333984D01*
X3629706Y-7333984D02*
X3753515Y-7333984D01*
X3991610Y-7333984D02*
X3991610Y-7133984D01*
X4077325Y-7333984D02*
X4077325Y-7229222D01*
X4077325Y-7229222D02*
X4067801Y-7210174D01*
X4067801Y-7210174D02*
X4048753Y-7200650D01*
X4048753Y-7200650D02*
X4020182Y-7200650D01*
X4020182Y-7200650D02*
X4001134Y-7210174D01*
X4001134Y-7210174D02*
X3991610Y-7219698D01*
X4201134Y-7333984D02*
X4182087Y-7324460D01*
X4182087Y-7324460D02*
X4172563Y-7314936D01*
X4172563Y-7314936D02*
X4163039Y-7295888D01*
X4163039Y-7295888D02*
X4163039Y-7238746D01*
X4163039Y-7238746D02*
X4172563Y-7219698D01*
X4172563Y-7219698D02*
X4182087Y-7210174D01*
X4182087Y-7210174D02*
X4201134Y-7200650D01*
X4201134Y-7200650D02*
X4229706Y-7200650D01*
X4229706Y-7200650D02*
X4248753Y-7210174D01*
X4248753Y-7210174D02*
X4258277Y-7219698D01*
X4258277Y-7219698D02*
X4267801Y-7238746D01*
X4267801Y-7238746D02*
X4267801Y-7295888D01*
X4267801Y-7295888D02*
X4258277Y-7314936D01*
X4258277Y-7314936D02*
X4248753Y-7324460D01*
X4248753Y-7324460D02*
X4229706Y-7333984D01*
X4229706Y-7333984D02*
X4201134Y-7333984D01*
X4382087Y-7333984D02*
X4363039Y-7324460D01*
X4363039Y-7324460D02*
X4353515Y-7305412D01*
X4353515Y-7305412D02*
X4353515Y-7133984D01*
X4534468Y-7324460D02*
X4515420Y-7333984D01*
X4515420Y-7333984D02*
X4477325Y-7333984D01*
X4477325Y-7333984D02*
X4458277Y-7324460D01*
X4458277Y-7324460D02*
X4448753Y-7305412D01*
X4448753Y-7305412D02*
X4448753Y-7229222D01*
X4448753Y-7229222D02*
X4458277Y-7210174D01*
X4458277Y-7210174D02*
X4477325Y-7200650D01*
X4477325Y-7200650D02*
X4515420Y-7200650D01*
X4515420Y-7200650D02*
X4534468Y-7210174D01*
X4534468Y-7210174D02*
X4543992Y-7229222D01*
X4543992Y-7229222D02*
X4543992Y-7248269D01*
X4543992Y-7248269D02*
X4448753Y-7267317D01*
X4620182Y-7324460D02*
X4639230Y-7333984D01*
X4639230Y-7333984D02*
X4677325Y-7333984D01*
X4677325Y-7333984D02*
X4696373Y-7324460D01*
X4696373Y-7324460D02*
X4705896Y-7305412D01*
X4705896Y-7305412D02*
X4705896Y-7295888D01*
X4705896Y-7295888D02*
X4696373Y-7276841D01*
X4696373Y-7276841D02*
X4677325Y-7267317D01*
X4677325Y-7267317D02*
X4648753Y-7267317D01*
X4648753Y-7267317D02*
X4629706Y-7257793D01*
X4629706Y-7257793D02*
X4620182Y-7238746D01*
X4620182Y-7238746D02*
X4620182Y-7229222D01*
X4620182Y-7229222D02*
X4629706Y-7210174D01*
X4629706Y-7210174D02*
X4648753Y-7200650D01*
X4648753Y-7200650D02*
X4677325Y-7200650D01*
X4677325Y-7200650D02*
X4696373Y-7210174D01*
X4772563Y-7410174D02*
X4782087Y-7400650D01*
X4782087Y-7400650D02*
X4801134Y-7372079D01*
X4801134Y-7372079D02*
X4810658Y-7353031D01*
X4810658Y-7353031D02*
X4820182Y-7324460D01*
X4820182Y-7324460D02*
X4829706Y-7276841D01*
X4829706Y-7276841D02*
X4829706Y-7238746D01*
X4829706Y-7238746D02*
X4820182Y-7191127D01*
X4820182Y-7191127D02*
X4810658Y-7162555D01*
X4810658Y-7162555D02*
X4801134Y-7143508D01*
X4801134Y-7143508D02*
X4782087Y-7114936D01*
X4782087Y-7114936D02*
X4772563Y-7105412D01*
X5134468Y-7410174D02*
X5124944Y-7400650D01*
X5124944Y-7400650D02*
X5105896Y-7372079D01*
X5105896Y-7372079D02*
X5096373Y-7353031D01*
X5096373Y-7353031D02*
X5086849Y-7324460D01*
X5086849Y-7324460D02*
X5077325Y-7276841D01*
X5077325Y-7276841D02*
X5077325Y-7238746D01*
X5077325Y-7238746D02*
X5086849Y-7191127D01*
X5086849Y-7191127D02*
X5096373Y-7162555D01*
X5096373Y-7162555D02*
X5105896Y-7143508D01*
X5105896Y-7143508D02*
X5124944Y-7114936D01*
X5124944Y-7114936D02*
X5134468Y-7105412D01*
X5210658Y-7200650D02*
X5210658Y-7333984D01*
X5210658Y-7219698D02*
X5220182Y-7210174D01*
X5220182Y-7210174D02*
X5239230Y-7200650D01*
X5239230Y-7200650D02*
X5267801Y-7200650D01*
X5267801Y-7200650D02*
X5286849Y-7210174D01*
X5286849Y-7210174D02*
X5296373Y-7229222D01*
X5296373Y-7229222D02*
X5296373Y-7333984D01*
X5420182Y-7333984D02*
X5401134Y-7324460D01*
X5401134Y-7324460D02*
X5391611Y-7314936D01*
X5391611Y-7314936D02*
X5382087Y-7295888D01*
X5382087Y-7295888D02*
X5382087Y-7238746D01*
X5382087Y-7238746D02*
X5391611Y-7219698D01*
X5391611Y-7219698D02*
X5401134Y-7210174D01*
X5401134Y-7210174D02*
X5420182Y-7200650D01*
X5420182Y-7200650D02*
X5448754Y-7200650D01*
X5448754Y-7200650D02*
X5467801Y-7210174D01*
X5467801Y-7210174D02*
X5477325Y-7219698D01*
X5477325Y-7219698D02*
X5486849Y-7238746D01*
X5486849Y-7238746D02*
X5486849Y-7295888D01*
X5486849Y-7295888D02*
X5477325Y-7314936D01*
X5477325Y-7314936D02*
X5467801Y-7324460D01*
X5467801Y-7324460D02*
X5448754Y-7333984D01*
X5448754Y-7333984D02*
X5420182Y-7333984D01*
X5543992Y-7200650D02*
X5620182Y-7200650D01*
X5572563Y-7133984D02*
X5572563Y-7305412D01*
X5572563Y-7305412D02*
X5582087Y-7324460D01*
X5582087Y-7324460D02*
X5601134Y-7333984D01*
X5601134Y-7333984D02*
X5620182Y-7333984D01*
X5839230Y-7200650D02*
X5839230Y-7400650D01*
X5839230Y-7210174D02*
X5858277Y-7200650D01*
X5858277Y-7200650D02*
X5896373Y-7200650D01*
X5896373Y-7200650D02*
X5915420Y-7210174D01*
X5915420Y-7210174D02*
X5924944Y-7219698D01*
X5924944Y-7219698D02*
X5934468Y-7238746D01*
X5934468Y-7238746D02*
X5934468Y-7295888D01*
X5934468Y-7295888D02*
X5924944Y-7314936D01*
X5924944Y-7314936D02*
X5915420Y-7324460D01*
X5915420Y-7324460D02*
X5896373Y-7333984D01*
X5896373Y-7333984D02*
X5858277Y-7333984D01*
X5858277Y-7333984D02*
X5839230Y-7324460D01*
X6048753Y-7333984D02*
X6029706Y-7324460D01*
X6029706Y-7324460D02*
X6020182Y-7305412D01*
X6020182Y-7305412D02*
X6020182Y-7133984D01*
X6210658Y-7333984D02*
X6210658Y-7229222D01*
X6210658Y-7229222D02*
X6201134Y-7210174D01*
X6201134Y-7210174D02*
X6182087Y-7200650D01*
X6182087Y-7200650D02*
X6143992Y-7200650D01*
X6143992Y-7200650D02*
X6124944Y-7210174D01*
X6210658Y-7324460D02*
X6191611Y-7333984D01*
X6191611Y-7333984D02*
X6143992Y-7333984D01*
X6143992Y-7333984D02*
X6124944Y-7324460D01*
X6124944Y-7324460D02*
X6115420Y-7305412D01*
X6115420Y-7305412D02*
X6115420Y-7286365D01*
X6115420Y-7286365D02*
X6124944Y-7267317D01*
X6124944Y-7267317D02*
X6143992Y-7257793D01*
X6143992Y-7257793D02*
X6191611Y-7257793D01*
X6191611Y-7257793D02*
X6210658Y-7248269D01*
X6277325Y-7200650D02*
X6353515Y-7200650D01*
X6305896Y-7133984D02*
X6305896Y-7305412D01*
X6305896Y-7305412D02*
X6315420Y-7324460D01*
X6315420Y-7324460D02*
X6334468Y-7333984D01*
X6334468Y-7333984D02*
X6353515Y-7333984D01*
X6496373Y-7324460D02*
X6477325Y-7333984D01*
X6477325Y-7333984D02*
X6439230Y-7333984D01*
X6439230Y-7333984D02*
X6420182Y-7324460D01*
X6420182Y-7324460D02*
X6410658Y-7305412D01*
X6410658Y-7305412D02*
X6410658Y-7229222D01*
X6410658Y-7229222D02*
X6420182Y-7210174D01*
X6420182Y-7210174D02*
X6439230Y-7200650D01*
X6439230Y-7200650D02*
X6477325Y-7200650D01*
X6477325Y-7200650D02*
X6496373Y-7210174D01*
X6496373Y-7210174D02*
X6505896Y-7229222D01*
X6505896Y-7229222D02*
X6505896Y-7248269D01*
X6505896Y-7248269D02*
X6410658Y-7267317D01*
X6677325Y-7333984D02*
X6677325Y-7133984D01*
X6677325Y-7324460D02*
X6658277Y-7333984D01*
X6658277Y-7333984D02*
X6620182Y-7333984D01*
X6620182Y-7333984D02*
X6601134Y-7324460D01*
X6601134Y-7324460D02*
X6591611Y-7314936D01*
X6591611Y-7314936D02*
X6582087Y-7295888D01*
X6582087Y-7295888D02*
X6582087Y-7238746D01*
X6582087Y-7238746D02*
X6591611Y-7219698D01*
X6591611Y-7219698D02*
X6601134Y-7210174D01*
X6601134Y-7210174D02*
X6620182Y-7200650D01*
X6620182Y-7200650D02*
X6658277Y-7200650D01*
X6658277Y-7200650D02*
X6677325Y-7210174D01*
X6753515Y-7410174D02*
X6763039Y-7400650D01*
X6763039Y-7400650D02*
X6782087Y-7372079D01*
X6782087Y-7372079D02*
X6791611Y-7353031D01*
X6791611Y-7353031D02*
X6801134Y-7324460D01*
X6801134Y-7324460D02*
X6810658Y-7276841D01*
X6810658Y-7276841D02*
X6810658Y-7238746D01*
X6810658Y-7238746D02*
X6801134Y-7191127D01*
X6801134Y-7191127D02*
X6791611Y-7162555D01*
X6791611Y-7162555D02*
X6782087Y-7143508D01*
X6782087Y-7143508D02*
X6763039Y-7114936D01*
X6763039Y-7114936D02*
X6753515Y-7105412D01*
D13*
X-2500Y-7506500D02*
G75*
G02*
X-112500Y-7506500I-55000J0D01*
G01*
X-112500Y-7506500D02*
G75*
G02*
X-2500Y-7506500I55000J0D01*
G01*
D11*
X363039Y-7597984D02*
X248753Y-7597984D01*
X305896Y-7597984D02*
X305896Y-7397984D01*
X305896Y-7397984D02*
X286848Y-7426555D01*
X286848Y-7426555D02*
X267801Y-7445603D01*
X267801Y-7445603D02*
X248753Y-7455127D01*
X448753Y-7578936D02*
X458277Y-7588460D01*
X458277Y-7588460D02*
X448753Y-7597984D01*
X448753Y-7597984D02*
X439229Y-7588460D01*
X439229Y-7588460D02*
X448753Y-7578936D01*
X448753Y-7578936D02*
X448753Y-7597984D01*
X648753Y-7597984D02*
X534467Y-7597984D01*
X591610Y-7597984D02*
X591610Y-7397984D01*
X591610Y-7397984D02*
X572563Y-7426555D01*
X572563Y-7426555D02*
X553515Y-7445603D01*
X553515Y-7445603D02*
X534467Y-7455127D01*
X772562Y-7397984D02*
X791610Y-7397984D01*
X791610Y-7397984D02*
X810658Y-7407508D01*
X810658Y-7407508D02*
X820182Y-7417031D01*
X820182Y-7417031D02*
X829705Y-7436079D01*
X829705Y-7436079D02*
X839229Y-7474174D01*
X839229Y-7474174D02*
X839229Y-7521793D01*
X839229Y-7521793D02*
X829705Y-7559888D01*
X829705Y-7559888D02*
X820182Y-7578936D01*
X820182Y-7578936D02*
X810658Y-7588460D01*
X810658Y-7588460D02*
X791610Y-7597984D01*
X791610Y-7597984D02*
X772562Y-7597984D01*
X772562Y-7597984D02*
X753515Y-7588460D01*
X753515Y-7588460D02*
X743991Y-7578936D01*
X743991Y-7578936D02*
X734467Y-7559888D01*
X734467Y-7559888D02*
X724943Y-7521793D01*
X724943Y-7521793D02*
X724943Y-7474174D01*
X724943Y-7474174D02*
X734467Y-7436079D01*
X734467Y-7436079D02*
X743991Y-7417031D01*
X743991Y-7417031D02*
X753515Y-7407508D01*
X753515Y-7407508D02*
X772562Y-7397984D01*
X963039Y-7397984D02*
X982086Y-7397984D01*
X982086Y-7397984D02*
X1001134Y-7407508D01*
X1001134Y-7407508D02*
X1010658Y-7417031D01*
X1010658Y-7417031D02*
X1020182Y-7436079D01*
X1020182Y-7436079D02*
X1029705Y-7474174D01*
X1029705Y-7474174D02*
X1029705Y-7521793D01*
X1029705Y-7521793D02*
X1020182Y-7559888D01*
X1020182Y-7559888D02*
X1010658Y-7578936D01*
X1010658Y-7578936D02*
X1001134Y-7588460D01*
X1001134Y-7588460D02*
X982086Y-7597984D01*
X982086Y-7597984D02*
X963039Y-7597984D01*
X963039Y-7597984D02*
X943991Y-7588460D01*
X943991Y-7588460D02*
X934467Y-7578936D01*
X934467Y-7578936D02*
X924943Y-7559888D01*
X924943Y-7559888D02*
X915420Y-7521793D01*
X915420Y-7521793D02*
X915420Y-7474174D01*
X915420Y-7474174D02*
X924943Y-7436079D01*
X924943Y-7436079D02*
X934467Y-7417031D01*
X934467Y-7417031D02*
X943991Y-7407508D01*
X943991Y-7407508D02*
X963039Y-7397984D01*
X1115420Y-7597984D02*
X1115420Y-7464650D01*
X1115420Y-7483698D02*
X1124944Y-7474174D01*
X1124944Y-7474174D02*
X1143991Y-7464650D01*
X1143991Y-7464650D02*
X1172563Y-7464650D01*
X1172563Y-7464650D02*
X1191610Y-7474174D01*
X1191610Y-7474174D02*
X1201134Y-7493222D01*
X1201134Y-7493222D02*
X1201134Y-7597984D01*
X1201134Y-7493222D02*
X1210658Y-7474174D01*
X1210658Y-7474174D02*
X1229705Y-7464650D01*
X1229705Y-7464650D02*
X1258277Y-7464650D01*
X1258277Y-7464650D02*
X1277325Y-7474174D01*
X1277325Y-7474174D02*
X1286848Y-7493222D01*
X1286848Y-7493222D02*
X1286848Y-7597984D01*
X1382086Y-7597984D02*
X1382086Y-7464650D01*
X1382086Y-7483698D02*
X1391610Y-7474174D01*
X1391610Y-7474174D02*
X1410658Y-7464650D01*
X1410658Y-7464650D02*
X1439229Y-7464650D01*
X1439229Y-7464650D02*
X1458277Y-7474174D01*
X1458277Y-7474174D02*
X1467801Y-7493222D01*
X1467801Y-7493222D02*
X1467801Y-7597984D01*
X1467801Y-7493222D02*
X1477324Y-7474174D01*
X1477324Y-7474174D02*
X1496372Y-7464650D01*
X1496372Y-7464650D02*
X1524943Y-7464650D01*
X1524943Y-7464650D02*
X1543991Y-7474174D01*
X1543991Y-7474174D02*
X1553515Y-7493222D01*
X1553515Y-7493222D02*
X1553515Y-7597984D01*
X1943991Y-7388460D02*
X1772563Y-7645603D01*
X2201134Y-7397984D02*
X2220182Y-7397984D01*
X2220182Y-7397984D02*
X2239229Y-7407508D01*
X2239229Y-7407508D02*
X2248753Y-7417031D01*
X2248753Y-7417031D02*
X2258277Y-7436079D01*
X2258277Y-7436079D02*
X2267801Y-7474174D01*
X2267801Y-7474174D02*
X2267801Y-7521793D01*
X2267801Y-7521793D02*
X2258277Y-7559888D01*
X2258277Y-7559888D02*
X2248753Y-7578936D01*
X2248753Y-7578936D02*
X2239229Y-7588460D01*
X2239229Y-7588460D02*
X2220182Y-7597984D01*
X2220182Y-7597984D02*
X2201134Y-7597984D01*
X2201134Y-7597984D02*
X2182087Y-7588460D01*
X2182087Y-7588460D02*
X2172563Y-7578936D01*
X2172563Y-7578936D02*
X2163039Y-7559888D01*
X2163039Y-7559888D02*
X2153515Y-7521793D01*
X2153515Y-7521793D02*
X2153515Y-7474174D01*
X2153515Y-7474174D02*
X2163039Y-7436079D01*
X2163039Y-7436079D02*
X2172563Y-7417031D01*
X2172563Y-7417031D02*
X2182087Y-7407508D01*
X2182087Y-7407508D02*
X2201134Y-7397984D01*
X2353515Y-7578936D02*
X2363039Y-7588460D01*
X2363039Y-7588460D02*
X2353515Y-7597984D01*
X2353515Y-7597984D02*
X2343991Y-7588460D01*
X2343991Y-7588460D02*
X2353515Y-7578936D01*
X2353515Y-7578936D02*
X2353515Y-7597984D01*
X2486848Y-7397984D02*
X2505896Y-7397984D01*
X2505896Y-7397984D02*
X2524944Y-7407508D01*
X2524944Y-7407508D02*
X2534468Y-7417031D01*
X2534468Y-7417031D02*
X2543991Y-7436079D01*
X2543991Y-7436079D02*
X2553515Y-7474174D01*
X2553515Y-7474174D02*
X2553515Y-7521793D01*
X2553515Y-7521793D02*
X2543991Y-7559888D01*
X2543991Y-7559888D02*
X2534468Y-7578936D01*
X2534468Y-7578936D02*
X2524944Y-7588460D01*
X2524944Y-7588460D02*
X2505896Y-7597984D01*
X2505896Y-7597984D02*
X2486848Y-7597984D01*
X2486848Y-7597984D02*
X2467801Y-7588460D01*
X2467801Y-7588460D02*
X2458277Y-7578936D01*
X2458277Y-7578936D02*
X2448753Y-7559888D01*
X2448753Y-7559888D02*
X2439229Y-7521793D01*
X2439229Y-7521793D02*
X2439229Y-7474174D01*
X2439229Y-7474174D02*
X2448753Y-7436079D01*
X2448753Y-7436079D02*
X2458277Y-7417031D01*
X2458277Y-7417031D02*
X2467801Y-7407508D01*
X2467801Y-7407508D02*
X2486848Y-7397984D01*
X2724944Y-7464650D02*
X2724944Y-7597984D01*
X2677325Y-7388460D02*
X2629706Y-7531317D01*
X2629706Y-7531317D02*
X2753515Y-7531317D01*
X2810658Y-7397984D02*
X2934467Y-7397984D01*
X2934467Y-7397984D02*
X2867801Y-7474174D01*
X2867801Y-7474174D02*
X2896372Y-7474174D01*
X2896372Y-7474174D02*
X2915420Y-7483698D01*
X2915420Y-7483698D02*
X2924944Y-7493222D01*
X2924944Y-7493222D02*
X2934467Y-7512269D01*
X2934467Y-7512269D02*
X2934467Y-7559888D01*
X2934467Y-7559888D02*
X2924944Y-7578936D01*
X2924944Y-7578936D02*
X2915420Y-7588460D01*
X2915420Y-7588460D02*
X2896372Y-7597984D01*
X2896372Y-7597984D02*
X2839229Y-7597984D01*
X2839229Y-7597984D02*
X2820182Y-7588460D01*
X2820182Y-7588460D02*
X2810658Y-7578936D01*
X3001134Y-7397984D02*
X3124944Y-7397984D01*
X3124944Y-7397984D02*
X3058277Y-7474174D01*
X3058277Y-7474174D02*
X3086848Y-7474174D01*
X3086848Y-7474174D02*
X3105896Y-7483698D01*
X3105896Y-7483698D02*
X3115420Y-7493222D01*
X3115420Y-7493222D02*
X3124944Y-7512269D01*
X3124944Y-7512269D02*
X3124944Y-7559888D01*
X3124944Y-7559888D02*
X3115420Y-7578936D01*
X3115420Y-7578936D02*
X3105896Y-7588460D01*
X3105896Y-7588460D02*
X3086848Y-7597984D01*
X3086848Y-7597984D02*
X3029706Y-7597984D01*
X3029706Y-7597984D02*
X3010658Y-7588460D01*
X3010658Y-7588460D02*
X3001134Y-7578936D01*
X3201134Y-7397984D02*
X3201134Y-7436079D01*
X3277325Y-7397984D02*
X3277325Y-7436079D01*
X3572563Y-7674174D02*
X3563039Y-7664650D01*
X3563039Y-7664650D02*
X3543991Y-7636079D01*
X3543991Y-7636079D02*
X3534468Y-7617031D01*
X3534468Y-7617031D02*
X3524944Y-7588460D01*
X3524944Y-7588460D02*
X3515420Y-7540841D01*
X3515420Y-7540841D02*
X3515420Y-7502746D01*
X3515420Y-7502746D02*
X3524944Y-7455127D01*
X3524944Y-7455127D02*
X3534468Y-7426555D01*
X3534468Y-7426555D02*
X3543991Y-7407508D01*
X3543991Y-7407508D02*
X3563039Y-7378936D01*
X3563039Y-7378936D02*
X3572563Y-7369412D01*
X3639229Y-7417031D02*
X3648753Y-7407508D01*
X3648753Y-7407508D02*
X3667801Y-7397984D01*
X3667801Y-7397984D02*
X3715420Y-7397984D01*
X3715420Y-7397984D02*
X3734468Y-7407508D01*
X3734468Y-7407508D02*
X3743991Y-7417031D01*
X3743991Y-7417031D02*
X3753515Y-7436079D01*
X3753515Y-7436079D02*
X3753515Y-7455127D01*
X3753515Y-7455127D02*
X3743991Y-7483698D01*
X3743991Y-7483698D02*
X3629706Y-7597984D01*
X3629706Y-7597984D02*
X3753515Y-7597984D01*
X3991610Y-7597984D02*
X3991610Y-7397984D01*
X4077325Y-7597984D02*
X4077325Y-7493222D01*
X4077325Y-7493222D02*
X4067801Y-7474174D01*
X4067801Y-7474174D02*
X4048753Y-7464650D01*
X4048753Y-7464650D02*
X4020182Y-7464650D01*
X4020182Y-7464650D02*
X4001134Y-7474174D01*
X4001134Y-7474174D02*
X3991610Y-7483698D01*
X4201134Y-7597984D02*
X4182087Y-7588460D01*
X4182087Y-7588460D02*
X4172563Y-7578936D01*
X4172563Y-7578936D02*
X4163039Y-7559888D01*
X4163039Y-7559888D02*
X4163039Y-7502746D01*
X4163039Y-7502746D02*
X4172563Y-7483698D01*
X4172563Y-7483698D02*
X4182087Y-7474174D01*
X4182087Y-7474174D02*
X4201134Y-7464650D01*
X4201134Y-7464650D02*
X4229706Y-7464650D01*
X4229706Y-7464650D02*
X4248753Y-7474174D01*
X4248753Y-7474174D02*
X4258277Y-7483698D01*
X4258277Y-7483698D02*
X4267801Y-7502746D01*
X4267801Y-7502746D02*
X4267801Y-7559888D01*
X4267801Y-7559888D02*
X4258277Y-7578936D01*
X4258277Y-7578936D02*
X4248753Y-7588460D01*
X4248753Y-7588460D02*
X4229706Y-7597984D01*
X4229706Y-7597984D02*
X4201134Y-7597984D01*
X4382087Y-7597984D02*
X4363039Y-7588460D01*
X4363039Y-7588460D02*
X4353515Y-7569412D01*
X4353515Y-7569412D02*
X4353515Y-7397984D01*
X4534468Y-7588460D02*
X4515420Y-7597984D01*
X4515420Y-7597984D02*
X4477325Y-7597984D01*
X4477325Y-7597984D02*
X4458277Y-7588460D01*
X4458277Y-7588460D02*
X4448753Y-7569412D01*
X4448753Y-7569412D02*
X4448753Y-7493222D01*
X4448753Y-7493222D02*
X4458277Y-7474174D01*
X4458277Y-7474174D02*
X4477325Y-7464650D01*
X4477325Y-7464650D02*
X4515420Y-7464650D01*
X4515420Y-7464650D02*
X4534468Y-7474174D01*
X4534468Y-7474174D02*
X4543992Y-7493222D01*
X4543992Y-7493222D02*
X4543992Y-7512269D01*
X4543992Y-7512269D02*
X4448753Y-7531317D01*
X4620182Y-7588460D02*
X4639230Y-7597984D01*
X4639230Y-7597984D02*
X4677325Y-7597984D01*
X4677325Y-7597984D02*
X4696373Y-7588460D01*
X4696373Y-7588460D02*
X4705896Y-7569412D01*
X4705896Y-7569412D02*
X4705896Y-7559888D01*
X4705896Y-7559888D02*
X4696373Y-7540841D01*
X4696373Y-7540841D02*
X4677325Y-7531317D01*
X4677325Y-7531317D02*
X4648753Y-7531317D01*
X4648753Y-7531317D02*
X4629706Y-7521793D01*
X4629706Y-7521793D02*
X4620182Y-7502746D01*
X4620182Y-7502746D02*
X4620182Y-7493222D01*
X4620182Y-7493222D02*
X4629706Y-7474174D01*
X4629706Y-7474174D02*
X4648753Y-7464650D01*
X4648753Y-7464650D02*
X4677325Y-7464650D01*
X4677325Y-7464650D02*
X4696373Y-7474174D01*
X4772563Y-7674174D02*
X4782087Y-7664650D01*
X4782087Y-7664650D02*
X4801134Y-7636079D01*
X4801134Y-7636079D02*
X4810658Y-7617031D01*
X4810658Y-7617031D02*
X4820182Y-7588460D01*
X4820182Y-7588460D02*
X4829706Y-7540841D01*
X4829706Y-7540841D02*
X4829706Y-7502746D01*
X4829706Y-7502746D02*
X4820182Y-7455127D01*
X4820182Y-7455127D02*
X4810658Y-7426555D01*
X4810658Y-7426555D02*
X4801134Y-7407508D01*
X4801134Y-7407508D02*
X4782087Y-7378936D01*
X4782087Y-7378936D02*
X4772563Y-7369412D01*
X5134468Y-7674174D02*
X5124944Y-7664650D01*
X5124944Y-7664650D02*
X5105896Y-7636079D01*
X5105896Y-7636079D02*
X5096373Y-7617031D01*
X5096373Y-7617031D02*
X5086849Y-7588460D01*
X5086849Y-7588460D02*
X5077325Y-7540841D01*
X5077325Y-7540841D02*
X5077325Y-7502746D01*
X5077325Y-7502746D02*
X5086849Y-7455127D01*
X5086849Y-7455127D02*
X5096373Y-7426555D01*
X5096373Y-7426555D02*
X5105896Y-7407508D01*
X5105896Y-7407508D02*
X5124944Y-7378936D01*
X5124944Y-7378936D02*
X5134468Y-7369412D01*
X5210658Y-7464650D02*
X5210658Y-7597984D01*
X5210658Y-7483698D02*
X5220182Y-7474174D01*
X5220182Y-7474174D02*
X5239230Y-7464650D01*
X5239230Y-7464650D02*
X5267801Y-7464650D01*
X5267801Y-7464650D02*
X5286849Y-7474174D01*
X5286849Y-7474174D02*
X5296373Y-7493222D01*
X5296373Y-7493222D02*
X5296373Y-7597984D01*
X5420182Y-7597984D02*
X5401134Y-7588460D01*
X5401134Y-7588460D02*
X5391611Y-7578936D01*
X5391611Y-7578936D02*
X5382087Y-7559888D01*
X5382087Y-7559888D02*
X5382087Y-7502746D01*
X5382087Y-7502746D02*
X5391611Y-7483698D01*
X5391611Y-7483698D02*
X5401134Y-7474174D01*
X5401134Y-7474174D02*
X5420182Y-7464650D01*
X5420182Y-7464650D02*
X5448754Y-7464650D01*
X5448754Y-7464650D02*
X5467801Y-7474174D01*
X5467801Y-7474174D02*
X5477325Y-7483698D01*
X5477325Y-7483698D02*
X5486849Y-7502746D01*
X5486849Y-7502746D02*
X5486849Y-7559888D01*
X5486849Y-7559888D02*
X5477325Y-7578936D01*
X5477325Y-7578936D02*
X5467801Y-7588460D01*
X5467801Y-7588460D02*
X5448754Y-7597984D01*
X5448754Y-7597984D02*
X5420182Y-7597984D01*
X5543992Y-7464650D02*
X5620182Y-7464650D01*
X5572563Y-7397984D02*
X5572563Y-7569412D01*
X5572563Y-7569412D02*
X5582087Y-7588460D01*
X5582087Y-7588460D02*
X5601134Y-7597984D01*
X5601134Y-7597984D02*
X5620182Y-7597984D01*
X5839230Y-7464650D02*
X5839230Y-7664650D01*
X5839230Y-7474174D02*
X5858277Y-7464650D01*
X5858277Y-7464650D02*
X5896373Y-7464650D01*
X5896373Y-7464650D02*
X5915420Y-7474174D01*
X5915420Y-7474174D02*
X5924944Y-7483698D01*
X5924944Y-7483698D02*
X5934468Y-7502746D01*
X5934468Y-7502746D02*
X5934468Y-7559888D01*
X5934468Y-7559888D02*
X5924944Y-7578936D01*
X5924944Y-7578936D02*
X5915420Y-7588460D01*
X5915420Y-7588460D02*
X5896373Y-7597984D01*
X5896373Y-7597984D02*
X5858277Y-7597984D01*
X5858277Y-7597984D02*
X5839230Y-7588460D01*
X6048753Y-7597984D02*
X6029706Y-7588460D01*
X6029706Y-7588460D02*
X6020182Y-7569412D01*
X6020182Y-7569412D02*
X6020182Y-7397984D01*
X6210658Y-7597984D02*
X6210658Y-7493222D01*
X6210658Y-7493222D02*
X6201134Y-7474174D01*
X6201134Y-7474174D02*
X6182087Y-7464650D01*
X6182087Y-7464650D02*
X6143992Y-7464650D01*
X6143992Y-7464650D02*
X6124944Y-7474174D01*
X6210658Y-7588460D02*
X6191611Y-7597984D01*
X6191611Y-7597984D02*
X6143992Y-7597984D01*
X6143992Y-7597984D02*
X6124944Y-7588460D01*
X6124944Y-7588460D02*
X6115420Y-7569412D01*
X6115420Y-7569412D02*
X6115420Y-7550365D01*
X6115420Y-7550365D02*
X6124944Y-7531317D01*
X6124944Y-7531317D02*
X6143992Y-7521793D01*
X6143992Y-7521793D02*
X6191611Y-7521793D01*
X6191611Y-7521793D02*
X6210658Y-7512269D01*
X6277325Y-7464650D02*
X6353515Y-7464650D01*
X6305896Y-7397984D02*
X6305896Y-7569412D01*
X6305896Y-7569412D02*
X6315420Y-7588460D01*
X6315420Y-7588460D02*
X6334468Y-7597984D01*
X6334468Y-7597984D02*
X6353515Y-7597984D01*
X6496373Y-7588460D02*
X6477325Y-7597984D01*
X6477325Y-7597984D02*
X6439230Y-7597984D01*
X6439230Y-7597984D02*
X6420182Y-7588460D01*
X6420182Y-7588460D02*
X6410658Y-7569412D01*
X6410658Y-7569412D02*
X6410658Y-7493222D01*
X6410658Y-7493222D02*
X6420182Y-7474174D01*
X6420182Y-7474174D02*
X6439230Y-7464650D01*
X6439230Y-7464650D02*
X6477325Y-7464650D01*
X6477325Y-7464650D02*
X6496373Y-7474174D01*
X6496373Y-7474174D02*
X6505896Y-7493222D01*
X6505896Y-7493222D02*
X6505896Y-7512269D01*
X6505896Y-7512269D02*
X6410658Y-7531317D01*
X6677325Y-7597984D02*
X6677325Y-7397984D01*
X6677325Y-7588460D02*
X6658277Y-7597984D01*
X6658277Y-7597984D02*
X6620182Y-7597984D01*
X6620182Y-7597984D02*
X6601134Y-7588460D01*
X6601134Y-7588460D02*
X6591611Y-7578936D01*
X6591611Y-7578936D02*
X6582087Y-7559888D01*
X6582087Y-7559888D02*
X6582087Y-7502746D01*
X6582087Y-7502746D02*
X6591611Y-7483698D01*
X6591611Y-7483698D02*
X6601134Y-7474174D01*
X6601134Y-7474174D02*
X6620182Y-7464650D01*
X6620182Y-7464650D02*
X6658277Y-7464650D01*
X6658277Y-7464650D02*
X6677325Y-7474174D01*
X6753515Y-7674174D02*
X6763039Y-7664650D01*
X6763039Y-7664650D02*
X6782087Y-7636079D01*
X6782087Y-7636079D02*
X6791611Y-7617031D01*
X6791611Y-7617031D02*
X6801134Y-7588460D01*
X6801134Y-7588460D02*
X6810658Y-7540841D01*
X6810658Y-7540841D02*
X6810658Y-7502746D01*
X6810658Y-7502746D02*
X6801134Y-7455127D01*
X6801134Y-7455127D02*
X6791611Y-7426555D01*
X6791611Y-7426555D02*
X6782087Y-7407508D01*
X6782087Y-7407508D02*
X6763039Y-7378936D01*
X6763039Y-7378936D02*
X6753515Y-7369412D01*
M02*
